M48
INCH,TZ
T1C0.0157
T2C0.0394
%
G90
G05
T1
X31500Y-32500
X31500Y-34500
X31500Y-36500
X31500Y-38500
X31500Y-40500
X33500Y-32500
X33500Y-34500
X33500Y-36500
X33500Y-38500
X33500Y-40500
X35500Y-32500
X35500Y-34500
X35500Y-36500
X35500Y-38500
X35500Y-40250
X37500Y-32500
X37500Y-34500
X37500Y-36500
X37500Y-38500
X37500Y-40500
X39500Y-32500
X39500Y-34500
X39500Y-36500
X39500Y-38500
X39500Y-40500
T2
X35013Y-41500
X36013Y-41500
X35000Y-30500
X36000Y-30500
T0
M30
