G04 #@! TF.GenerationSoftware,KiCad,Pcbnew,(5.0.0-rc2-dev-352-g017154715)*
G04 #@! TF.CreationDate,2018-10-08T23:49:12-04:00*
G04 #@! TF.ProjectId,Backlight,4261636B6C696768742E6B696361645F,rev?*
G04 #@! TF.SameCoordinates,Original*
G04 #@! TF.FileFunction,Paste,Top*
G04 #@! TF.FilePolarity,Positive*
%FSLAX46Y46*%
G04 Gerber Fmt 4.6, Leading zero omitted, Abs format (unit mm)*
G04 Created by KiCad (PCBNEW (5.0.0-rc2-dev-352-g017154715)) date 10/08/18 23:49:12*
%MOMM*%
%LPD*%
G01*
G04 APERTURE LIST*
%ADD10R,1.200000X1.200000*%
%ADD11R,0.970000X1.500000*%
G04 APERTURE END LIST*
D10*
X81110000Y-80010000D03*
X78910000Y-80010000D03*
X86190000Y-80010000D03*
X83990000Y-80010000D03*
X91270000Y-80010000D03*
X89070000Y-80010000D03*
X94150000Y-80010000D03*
X96350000Y-80010000D03*
X99230000Y-80010000D03*
X101430000Y-80010000D03*
X81110000Y-85090000D03*
X78910000Y-85090000D03*
X86190000Y-85090000D03*
X83990000Y-85090000D03*
X89070000Y-85090000D03*
X91270000Y-85090000D03*
X94150000Y-85090000D03*
X96350000Y-85090000D03*
X101430000Y-85090000D03*
X99230000Y-85090000D03*
X81110000Y-90170000D03*
X78910000Y-90170000D03*
X86190000Y-90170000D03*
X83990000Y-90170000D03*
X89070000Y-90170000D03*
X91270000Y-90170000D03*
X96350000Y-90170000D03*
X94150000Y-90170000D03*
X101430000Y-90170000D03*
X99230000Y-90170000D03*
X78910000Y-95250000D03*
X81110000Y-95250000D03*
X86190000Y-95250000D03*
X83990000Y-95250000D03*
X89070000Y-95250000D03*
X91270000Y-95250000D03*
X94150000Y-95250000D03*
X96350000Y-95250000D03*
X99230000Y-95250000D03*
X101430000Y-95250000D03*
X78910000Y-100330000D03*
X81110000Y-100330000D03*
X83990000Y-100330000D03*
X86190000Y-100330000D03*
X89070000Y-100330000D03*
X91270000Y-100330000D03*
X94150000Y-100330000D03*
X96350000Y-100330000D03*
X101430000Y-100330000D03*
X99230000Y-100330000D03*
D11*
X79055000Y-82550000D03*
X80965000Y-82550000D03*
X84135000Y-82550000D03*
X86045000Y-82550000D03*
X89215000Y-82550000D03*
X91125000Y-82550000D03*
X96205000Y-82550000D03*
X94295000Y-82550000D03*
X99375000Y-82550000D03*
X101285000Y-82550000D03*
X80965000Y-87630000D03*
X79055000Y-87630000D03*
X86045000Y-87630000D03*
X84135000Y-87630000D03*
X89215000Y-87630000D03*
X91125000Y-87630000D03*
X94295000Y-87630000D03*
X96205000Y-87630000D03*
X101285000Y-87630000D03*
X99375000Y-87630000D03*
X80965000Y-92710000D03*
X79055000Y-92710000D03*
X84135000Y-92710000D03*
X86045000Y-92710000D03*
X91125000Y-92710000D03*
X89215000Y-92710000D03*
X94295000Y-92710000D03*
X96205000Y-92710000D03*
X101285000Y-92710000D03*
X99375000Y-92710000D03*
X79055000Y-97790000D03*
X80965000Y-97790000D03*
X84135000Y-97790000D03*
X86045000Y-97790000D03*
X91125000Y-97790000D03*
X89215000Y-97790000D03*
X96205000Y-97790000D03*
X94295000Y-97790000D03*
X99375000Y-97790000D03*
X101285000Y-97790000D03*
X79055000Y-102870000D03*
X80965000Y-102870000D03*
X86045000Y-102870000D03*
X84135000Y-102870000D03*
X91125000Y-102235000D03*
X89215000Y-102235000D03*
X94295000Y-102870000D03*
X96205000Y-102870000D03*
X101285000Y-102870000D03*
X99375000Y-102870000D03*
M02*
