G04 #@! TF.GenerationSoftware,KiCad,Pcbnew,(5.0.0-rc2-dev-352-g017154715)*
G04 #@! TF.CreationDate,2018-10-08T23:49:12-04:00*
G04 #@! TF.ProjectId,Backlight,4261636B6C696768742E6B696361645F,rev?*
G04 #@! TF.SameCoordinates,Original*
G04 #@! TF.FileFunction,Copper,L2,Bot,Signal*
G04 #@! TF.FilePolarity,Positive*
%FSLAX46Y46*%
G04 Gerber Fmt 4.6, Leading zero omitted, Abs format (unit mm)*
G04 Created by KiCad (PCBNEW (5.0.0-rc2-dev-352-g017154715)) date 10/08/18 23:49:12*
%MOMM*%
%LPD*%
G01*
G04 APERTURE LIST*
%ADD10R,1.700000X1.700000*%
%ADD11O,1.700000X1.700000*%
%ADD12C,0.800000*%
%ADD13C,0.254000*%
G04 APERTURE END LIST*
D10*
X88900000Y-77470000D03*
D11*
X91440000Y-77470000D03*
X91472000Y-105410000D03*
D10*
X88932000Y-105410000D03*
D12*
X100330000Y-102870000D03*
X95250000Y-102870000D03*
X90170000Y-102235000D03*
X85090000Y-102870000D03*
X80010000Y-102870000D03*
X80010000Y-97790000D03*
X85090000Y-97790000D03*
X90170000Y-97790000D03*
X95250000Y-97790000D03*
X100330000Y-97790000D03*
X100330000Y-92710000D03*
X95250000Y-92710000D03*
X90170000Y-92710000D03*
X85090000Y-92710000D03*
X80010000Y-92710000D03*
X80010000Y-87630000D03*
X85090000Y-87630000D03*
X90170000Y-87630000D03*
X95250000Y-87630000D03*
X100330000Y-87630000D03*
X100330000Y-82550000D03*
X95250000Y-82550000D03*
X90170000Y-82550000D03*
X85090000Y-82550000D03*
X80010000Y-82550000D03*
D13*
G36*
X87402560Y-78320000D02*
X87451843Y-78567765D01*
X87592191Y-78777809D01*
X87802235Y-78918157D01*
X88050000Y-78967440D01*
X89750000Y-78967440D01*
X89997765Y-78918157D01*
X90207809Y-78777809D01*
X90348157Y-78567765D01*
X90368739Y-78464292D01*
X90673076Y-78741645D01*
X91083110Y-78911476D01*
X91313000Y-78790155D01*
X91313000Y-77597000D01*
X91567000Y-77597000D01*
X91567000Y-78790155D01*
X91796890Y-78911476D01*
X92206924Y-78741645D01*
X92635183Y-78351358D01*
X92881486Y-77826892D01*
X92760819Y-77597000D01*
X91567000Y-77597000D01*
X91313000Y-77597000D01*
X91293000Y-77597000D01*
X91293000Y-77343000D01*
X91313000Y-77343000D01*
X91313000Y-77323000D01*
X91567000Y-77323000D01*
X91567000Y-77343000D01*
X92760819Y-77343000D01*
X92881486Y-77113108D01*
X92786101Y-76910000D01*
X102033319Y-76910000D01*
X102035651Y-76921723D01*
X102035651Y-76921724D01*
X102141664Y-77177664D01*
X102472025Y-77672086D01*
X102626832Y-77826892D01*
X102667915Y-77867975D01*
X103162336Y-78198336D01*
X103312263Y-78260437D01*
X103418276Y-78304349D01*
X103430000Y-78306681D01*
X103430001Y-104573319D01*
X103418276Y-104575651D01*
X103312263Y-104619563D01*
X103162336Y-104681664D01*
X102667915Y-105012025D01*
X102667914Y-105012026D01*
X102472025Y-105207914D01*
X102141664Y-105702336D01*
X102090936Y-105824805D01*
X102035651Y-105958275D01*
X102033319Y-105970000D01*
X92818101Y-105970000D01*
X92913486Y-105766892D01*
X92792819Y-105537000D01*
X91599000Y-105537000D01*
X91599000Y-105557000D01*
X91345000Y-105557000D01*
X91345000Y-105537000D01*
X91325000Y-105537000D01*
X91325000Y-105283000D01*
X91345000Y-105283000D01*
X91345000Y-104089845D01*
X91599000Y-104089845D01*
X91599000Y-105283000D01*
X92792819Y-105283000D01*
X92913486Y-105053108D01*
X92667183Y-104528642D01*
X92238924Y-104138355D01*
X91828890Y-103968524D01*
X91599000Y-104089845D01*
X91345000Y-104089845D01*
X91115110Y-103968524D01*
X90705076Y-104138355D01*
X90400739Y-104415708D01*
X90380157Y-104312235D01*
X90239809Y-104102191D01*
X90029765Y-103961843D01*
X89782000Y-103912560D01*
X88082000Y-103912560D01*
X87834235Y-103961843D01*
X87624191Y-104102191D01*
X87483843Y-104312235D01*
X87434560Y-104560000D01*
X87434560Y-105970000D01*
X78306681Y-105970000D01*
X78304349Y-105958276D01*
X78249064Y-105824805D01*
X78198336Y-105702336D01*
X77867975Y-105207915D01*
X77793554Y-105133494D01*
X77672086Y-105012025D01*
X77177664Y-104681664D01*
X77027738Y-104619563D01*
X76921725Y-104575651D01*
X76910000Y-104573319D01*
X76910000Y-78306681D01*
X76921725Y-78304349D01*
X77027738Y-78260437D01*
X77177664Y-78198336D01*
X77672086Y-77867975D01*
X77867974Y-77672086D01*
X77867975Y-77672085D01*
X78198336Y-77177664D01*
X78271888Y-77000091D01*
X78304349Y-76921724D01*
X78306681Y-76910000D01*
X87402560Y-76910000D01*
X87402560Y-78320000D01*
X87402560Y-78320000D01*
G37*
X87402560Y-78320000D02*
X87451843Y-78567765D01*
X87592191Y-78777809D01*
X87802235Y-78918157D01*
X88050000Y-78967440D01*
X89750000Y-78967440D01*
X89997765Y-78918157D01*
X90207809Y-78777809D01*
X90348157Y-78567765D01*
X90368739Y-78464292D01*
X90673076Y-78741645D01*
X91083110Y-78911476D01*
X91313000Y-78790155D01*
X91313000Y-77597000D01*
X91567000Y-77597000D01*
X91567000Y-78790155D01*
X91796890Y-78911476D01*
X92206924Y-78741645D01*
X92635183Y-78351358D01*
X92881486Y-77826892D01*
X92760819Y-77597000D01*
X91567000Y-77597000D01*
X91313000Y-77597000D01*
X91293000Y-77597000D01*
X91293000Y-77343000D01*
X91313000Y-77343000D01*
X91313000Y-77323000D01*
X91567000Y-77323000D01*
X91567000Y-77343000D01*
X92760819Y-77343000D01*
X92881486Y-77113108D01*
X92786101Y-76910000D01*
X102033319Y-76910000D01*
X102035651Y-76921723D01*
X102035651Y-76921724D01*
X102141664Y-77177664D01*
X102472025Y-77672086D01*
X102626832Y-77826892D01*
X102667915Y-77867975D01*
X103162336Y-78198336D01*
X103312263Y-78260437D01*
X103418276Y-78304349D01*
X103430000Y-78306681D01*
X103430001Y-104573319D01*
X103418276Y-104575651D01*
X103312263Y-104619563D01*
X103162336Y-104681664D01*
X102667915Y-105012025D01*
X102667914Y-105012026D01*
X102472025Y-105207914D01*
X102141664Y-105702336D01*
X102090936Y-105824805D01*
X102035651Y-105958275D01*
X102033319Y-105970000D01*
X92818101Y-105970000D01*
X92913486Y-105766892D01*
X92792819Y-105537000D01*
X91599000Y-105537000D01*
X91599000Y-105557000D01*
X91345000Y-105557000D01*
X91345000Y-105537000D01*
X91325000Y-105537000D01*
X91325000Y-105283000D01*
X91345000Y-105283000D01*
X91345000Y-104089845D01*
X91599000Y-104089845D01*
X91599000Y-105283000D01*
X92792819Y-105283000D01*
X92913486Y-105053108D01*
X92667183Y-104528642D01*
X92238924Y-104138355D01*
X91828890Y-103968524D01*
X91599000Y-104089845D01*
X91345000Y-104089845D01*
X91115110Y-103968524D01*
X90705076Y-104138355D01*
X90400739Y-104415708D01*
X90380157Y-104312235D01*
X90239809Y-104102191D01*
X90029765Y-103961843D01*
X89782000Y-103912560D01*
X88082000Y-103912560D01*
X87834235Y-103961843D01*
X87624191Y-104102191D01*
X87483843Y-104312235D01*
X87434560Y-104560000D01*
X87434560Y-105970000D01*
X78306681Y-105970000D01*
X78304349Y-105958276D01*
X78249064Y-105824805D01*
X78198336Y-105702336D01*
X77867975Y-105207915D01*
X77793554Y-105133494D01*
X77672086Y-105012025D01*
X77177664Y-104681664D01*
X77027738Y-104619563D01*
X76921725Y-104575651D01*
X76910000Y-104573319D01*
X76910000Y-78306681D01*
X76921725Y-78304349D01*
X77027738Y-78260437D01*
X77177664Y-78198336D01*
X77672086Y-77867975D01*
X77867974Y-77672086D01*
X77867975Y-77672085D01*
X78198336Y-77177664D01*
X78271888Y-77000091D01*
X78304349Y-76921724D01*
X78306681Y-76910000D01*
X87402560Y-76910000D01*
X87402560Y-78320000D01*
M02*
