G04 #@! TF.GenerationSoftware,KiCad,Pcbnew,(5.0.0-rc2-dev-352-g017154715)*
G04 #@! TF.CreationDate,2018-10-08T23:49:13-04:00*
G04 #@! TF.ProjectId,Backlight,4261636B6C696768742E6B696361645F,rev?*
G04 #@! TF.SameCoordinates,Original*
G04 #@! TF.FileFunction,Legend,Bot*
G04 #@! TF.FilePolarity,Positive*
%FSLAX46Y46*%
G04 Gerber Fmt 4.6, Leading zero omitted, Abs format (unit mm)*
G04 Created by KiCad (PCBNEW (5.0.0-rc2-dev-352-g017154715)) date 10/08/18 23:49:13*
%MOMM*%
%LPD*%
G01*
G04 APERTURE LIST*
%ADD10C,0.300000*%
%ADD11C,0.120000*%
%ADD12C,0.150000*%
G04 APERTURE END LIST*
D10*
X100348142Y-90912023D02*
X100952904Y-90912023D01*
X100952904Y-89642023D01*
X99924809Y-90246785D02*
X99501476Y-90246785D01*
X99320047Y-90912023D02*
X99924809Y-90912023D01*
X99924809Y-89642023D01*
X99320047Y-89642023D01*
X98775761Y-90912023D02*
X98775761Y-89642023D01*
X98473380Y-89642023D01*
X98291952Y-89702500D01*
X98171000Y-89823452D01*
X98110523Y-89944404D01*
X98050047Y-90186309D01*
X98050047Y-90367738D01*
X98110523Y-90609642D01*
X98171000Y-90730595D01*
X98291952Y-90851547D01*
X98473380Y-90912023D01*
X98775761Y-90912023D01*
X96114809Y-90246785D02*
X95933380Y-90307261D01*
X95872904Y-90367738D01*
X95812428Y-90488690D01*
X95812428Y-90670119D01*
X95872904Y-90791071D01*
X95933380Y-90851547D01*
X96054333Y-90912023D01*
X96538142Y-90912023D01*
X96538142Y-89642023D01*
X96114809Y-89642023D01*
X95993857Y-89702500D01*
X95933380Y-89762976D01*
X95872904Y-89883928D01*
X95872904Y-90004880D01*
X95933380Y-90125833D01*
X95993857Y-90186309D01*
X96114809Y-90246785D01*
X96538142Y-90246785D01*
X94723857Y-90912023D02*
X94723857Y-90246785D01*
X94784333Y-90125833D01*
X94905285Y-90065357D01*
X95147190Y-90065357D01*
X95268142Y-90125833D01*
X94723857Y-90851547D02*
X94844809Y-90912023D01*
X95147190Y-90912023D01*
X95268142Y-90851547D01*
X95328619Y-90730595D01*
X95328619Y-90609642D01*
X95268142Y-90488690D01*
X95147190Y-90428214D01*
X94844809Y-90428214D01*
X94723857Y-90367738D01*
X93574809Y-90851547D02*
X93695761Y-90912023D01*
X93937666Y-90912023D01*
X94058619Y-90851547D01*
X94119095Y-90791071D01*
X94179571Y-90670119D01*
X94179571Y-90307261D01*
X94119095Y-90186309D01*
X94058619Y-90125833D01*
X93937666Y-90065357D01*
X93695761Y-90065357D01*
X93574809Y-90125833D01*
X93030523Y-90912023D02*
X93030523Y-89642023D01*
X92909571Y-90428214D02*
X92546714Y-90912023D01*
X92546714Y-90065357D02*
X93030523Y-90549166D01*
X91821000Y-90912023D02*
X91941952Y-90851547D01*
X92002428Y-90730595D01*
X92002428Y-89642023D01*
X91337190Y-90912023D02*
X91337190Y-90065357D01*
X91337190Y-89642023D02*
X91397666Y-89702500D01*
X91337190Y-89762976D01*
X91276714Y-89702500D01*
X91337190Y-89642023D01*
X91337190Y-89762976D01*
X90188142Y-90065357D02*
X90188142Y-91093452D01*
X90248619Y-91214404D01*
X90309095Y-91274880D01*
X90430047Y-91335357D01*
X90611476Y-91335357D01*
X90732428Y-91274880D01*
X90188142Y-90851547D02*
X90309095Y-90912023D01*
X90551000Y-90912023D01*
X90671952Y-90851547D01*
X90732428Y-90791071D01*
X90792904Y-90670119D01*
X90792904Y-90307261D01*
X90732428Y-90186309D01*
X90671952Y-90125833D01*
X90551000Y-90065357D01*
X90309095Y-90065357D01*
X90188142Y-90125833D01*
X89583380Y-90912023D02*
X89583380Y-89642023D01*
X89039095Y-90912023D02*
X89039095Y-90246785D01*
X89099571Y-90125833D01*
X89220523Y-90065357D01*
X89401952Y-90065357D01*
X89522904Y-90125833D01*
X89583380Y-90186309D01*
X88615761Y-90065357D02*
X88131952Y-90065357D01*
X88434333Y-89642023D02*
X88434333Y-90730595D01*
X88373857Y-90851547D01*
X88252904Y-90912023D01*
X88131952Y-90912023D01*
X86741000Y-90912023D02*
X86741000Y-89642023D01*
X86257190Y-89642023D01*
X86136238Y-89702500D01*
X86075761Y-89762976D01*
X86015285Y-89883928D01*
X86015285Y-90065357D01*
X86075761Y-90186309D01*
X86136238Y-90246785D01*
X86257190Y-90307261D01*
X86741000Y-90307261D01*
X84926714Y-90912023D02*
X84926714Y-90246785D01*
X84987190Y-90125833D01*
X85108142Y-90065357D01*
X85350047Y-90065357D01*
X85471000Y-90125833D01*
X84926714Y-90851547D02*
X85047666Y-90912023D01*
X85350047Y-90912023D01*
X85471000Y-90851547D01*
X85531476Y-90730595D01*
X85531476Y-90609642D01*
X85471000Y-90488690D01*
X85350047Y-90428214D01*
X85047666Y-90428214D01*
X84926714Y-90367738D01*
X84321952Y-90065357D02*
X84321952Y-90912023D01*
X84321952Y-90186309D02*
X84261476Y-90125833D01*
X84140523Y-90065357D01*
X83959095Y-90065357D01*
X83838142Y-90125833D01*
X83777666Y-90246785D01*
X83777666Y-90912023D01*
X82689095Y-90851547D02*
X82810047Y-90912023D01*
X83051952Y-90912023D01*
X83172904Y-90851547D01*
X83233380Y-90730595D01*
X83233380Y-90246785D01*
X83172904Y-90125833D01*
X83051952Y-90065357D01*
X82810047Y-90065357D01*
X82689095Y-90125833D01*
X82628619Y-90246785D01*
X82628619Y-90367738D01*
X83233380Y-90488690D01*
X81902904Y-90912023D02*
X82023857Y-90851547D01*
X82084333Y-90730595D01*
X82084333Y-89642023D01*
X80572428Y-90065357D02*
X80270047Y-90912023D01*
X79967666Y-90065357D01*
X78818619Y-90912023D02*
X79544333Y-90912023D01*
X79181476Y-90912023D02*
X79181476Y-89642023D01*
X79302428Y-89823452D01*
X79423380Y-89944404D01*
X79544333Y-90004880D01*
X98806000Y-93117023D02*
X99229333Y-92512261D01*
X99531714Y-93117023D02*
X99531714Y-91847023D01*
X99047904Y-91847023D01*
X98926952Y-91907500D01*
X98866476Y-91967976D01*
X98806000Y-92088928D01*
X98806000Y-92270357D01*
X98866476Y-92391309D01*
X98926952Y-92451785D01*
X99047904Y-92512261D01*
X99531714Y-92512261D01*
X98261714Y-93117023D02*
X98261714Y-92270357D01*
X98261714Y-91847023D02*
X98322190Y-91907500D01*
X98261714Y-91967976D01*
X98201238Y-91907500D01*
X98261714Y-91847023D01*
X98261714Y-91967976D01*
X97112666Y-93056547D02*
X97233619Y-93117023D01*
X97475523Y-93117023D01*
X97596476Y-93056547D01*
X97656952Y-92996071D01*
X97717428Y-92875119D01*
X97717428Y-92512261D01*
X97656952Y-92391309D01*
X97596476Y-92330833D01*
X97475523Y-92270357D01*
X97233619Y-92270357D01*
X97112666Y-92330833D01*
X96568380Y-93117023D02*
X96568380Y-91847023D01*
X96024095Y-93117023D02*
X96024095Y-92451785D01*
X96084571Y-92330833D01*
X96205523Y-92270357D01*
X96386952Y-92270357D01*
X96507904Y-92330833D01*
X96568380Y-92391309D01*
X94451714Y-93117023D02*
X94451714Y-91847023D01*
X93726000Y-93117023D01*
X93726000Y-91847023D01*
X92637428Y-93056547D02*
X92758380Y-93117023D01*
X93000285Y-93117023D01*
X93121238Y-93056547D01*
X93181714Y-92935595D01*
X93181714Y-92451785D01*
X93121238Y-92330833D01*
X93000285Y-92270357D01*
X92758380Y-92270357D01*
X92637428Y-92330833D01*
X92576952Y-92451785D01*
X92576952Y-92572738D01*
X93181714Y-92693690D01*
X91851238Y-93117023D02*
X91972190Y-93056547D01*
X92032666Y-92935595D01*
X92032666Y-91847023D01*
X91427904Y-93056547D02*
X91306952Y-93117023D01*
X91065047Y-93117023D01*
X90944095Y-93056547D01*
X90883619Y-92935595D01*
X90883619Y-92875119D01*
X90944095Y-92754166D01*
X91065047Y-92693690D01*
X91246476Y-92693690D01*
X91367428Y-92633214D01*
X91427904Y-92512261D01*
X91427904Y-92451785D01*
X91367428Y-92330833D01*
X91246476Y-92270357D01*
X91065047Y-92270357D01*
X90944095Y-92330833D01*
X90157904Y-93117023D02*
X90278857Y-93056547D01*
X90339333Y-92996071D01*
X90399809Y-92875119D01*
X90399809Y-92512261D01*
X90339333Y-92391309D01*
X90278857Y-92330833D01*
X90157904Y-92270357D01*
X89976476Y-92270357D01*
X89855523Y-92330833D01*
X89795047Y-92391309D01*
X89734571Y-92512261D01*
X89734571Y-92875119D01*
X89795047Y-92996071D01*
X89855523Y-93056547D01*
X89976476Y-93117023D01*
X90157904Y-93117023D01*
X89190285Y-92270357D02*
X89190285Y-93117023D01*
X89190285Y-92391309D02*
X89129809Y-92330833D01*
X89008857Y-92270357D01*
X88827428Y-92270357D01*
X88706476Y-92330833D01*
X88646000Y-92451785D01*
X88646000Y-93117023D01*
X87194571Y-91847023D02*
X86408380Y-91847023D01*
X86831714Y-92330833D01*
X86650285Y-92330833D01*
X86529333Y-92391309D01*
X86468857Y-92451785D01*
X86408380Y-92572738D01*
X86408380Y-92875119D01*
X86468857Y-92996071D01*
X86529333Y-93056547D01*
X86650285Y-93117023D01*
X87013142Y-93117023D01*
X87134095Y-93056547D01*
X87194571Y-92996071D01*
X84956952Y-91786547D02*
X86045523Y-93419404D01*
X84594095Y-91967976D02*
X84533619Y-91907500D01*
X84412666Y-91847023D01*
X84110285Y-91847023D01*
X83989333Y-91907500D01*
X83928857Y-91967976D01*
X83868380Y-92088928D01*
X83868380Y-92209880D01*
X83928857Y-92391309D01*
X84654571Y-93117023D01*
X83868380Y-93117023D01*
X83082190Y-91847023D02*
X82961238Y-91847023D01*
X82840285Y-91907500D01*
X82779809Y-91967976D01*
X82719333Y-92088928D01*
X82658857Y-92330833D01*
X82658857Y-92633214D01*
X82719333Y-92875119D01*
X82779809Y-92996071D01*
X82840285Y-93056547D01*
X82961238Y-93117023D01*
X83082190Y-93117023D01*
X83203142Y-93056547D01*
X83263619Y-92996071D01*
X83324095Y-92875119D01*
X83384571Y-92633214D01*
X83384571Y-92330833D01*
X83324095Y-92088928D01*
X83263619Y-91967976D01*
X83203142Y-91907500D01*
X83082190Y-91847023D01*
X81449333Y-93117023D02*
X82175047Y-93117023D01*
X81812190Y-93117023D02*
X81812190Y-91847023D01*
X81933142Y-92028452D01*
X82054095Y-92149404D01*
X82175047Y-92209880D01*
X80723619Y-92391309D02*
X80844571Y-92330833D01*
X80905047Y-92270357D01*
X80965523Y-92149404D01*
X80965523Y-92088928D01*
X80905047Y-91967976D01*
X80844571Y-91907500D01*
X80723619Y-91847023D01*
X80481714Y-91847023D01*
X80360761Y-91907500D01*
X80300285Y-91967976D01*
X80239809Y-92088928D01*
X80239809Y-92149404D01*
X80300285Y-92270357D01*
X80360761Y-92330833D01*
X80481714Y-92391309D01*
X80723619Y-92391309D01*
X80844571Y-92451785D01*
X80905047Y-92512261D01*
X80965523Y-92633214D01*
X80965523Y-92875119D01*
X80905047Y-92996071D01*
X80844571Y-93056547D01*
X80723619Y-93117023D01*
X80481714Y-93117023D01*
X80360761Y-93056547D01*
X80300285Y-92996071D01*
X80239809Y-92875119D01*
X80239809Y-92633214D01*
X80300285Y-92512261D01*
X80360761Y-92451785D01*
X80481714Y-92391309D01*
X89471428Y-103231142D02*
X88328571Y-103231142D01*
X88900000Y-103802571D02*
X88900000Y-102659714D01*
X92011428Y-103231142D02*
X90868571Y-103231142D01*
X92011428Y-79355142D02*
X90868571Y-79355142D01*
X89471428Y-79355142D02*
X88328571Y-79355142D01*
X88900000Y-79926571D02*
X88900000Y-78783714D01*
D11*
X92770000Y-76140000D02*
X92770000Y-78800000D01*
X90170000Y-76140000D02*
X92770000Y-76140000D01*
X90170000Y-78800000D02*
X92770000Y-78800000D01*
X90170000Y-76140000D02*
X90170000Y-78800000D01*
X88900000Y-76140000D02*
X87570000Y-76140000D01*
X87570000Y-76140000D02*
X87570000Y-77470000D01*
X87602000Y-104080000D02*
X87602000Y-105410000D01*
X88932000Y-104080000D02*
X87602000Y-104080000D01*
X90202000Y-104080000D02*
X90202000Y-106740000D01*
X90202000Y-106740000D02*
X92802000Y-106740000D01*
X90202000Y-104080000D02*
X92802000Y-104080000D01*
X92802000Y-104080000D02*
X92802000Y-106740000D01*
D12*
X86022380Y-77136666D02*
X86736666Y-77136666D01*
X86879523Y-77089047D01*
X86974761Y-76993809D01*
X87022380Y-76850952D01*
X87022380Y-76755714D01*
X87022380Y-78136666D02*
X87022380Y-77565238D01*
X87022380Y-77850952D02*
X86022380Y-77850952D01*
X86165238Y-77755714D01*
X86260476Y-77660476D01*
X86308095Y-77565238D01*
X86054380Y-105076666D02*
X86768666Y-105076666D01*
X86911523Y-105029047D01*
X87006761Y-104933809D01*
X87054380Y-104790952D01*
X87054380Y-104695714D01*
X86149619Y-105505238D02*
X86102000Y-105552857D01*
X86054380Y-105648095D01*
X86054380Y-105886190D01*
X86102000Y-105981428D01*
X86149619Y-106029047D01*
X86244857Y-106076666D01*
X86340095Y-106076666D01*
X86482952Y-106029047D01*
X87054380Y-105457619D01*
X87054380Y-106076666D01*
M02*
