G04 #@! TF.GenerationSoftware,KiCad,Pcbnew,(5.0.0-rc2-dev-352-g017154715)*
G04 #@! TF.CreationDate,2018-10-08T23:49:12-04:00*
G04 #@! TF.ProjectId,Backlight,4261636B6C696768742E6B696361645F,rev?*
G04 #@! TF.SameCoordinates,Original*
G04 #@! TF.FileFunction,Legend,Top*
G04 #@! TF.FilePolarity,Positive*
%FSLAX46Y46*%
G04 Gerber Fmt 4.6, Leading zero omitted, Abs format (unit mm)*
G04 Created by KiCad (PCBNEW (5.0.0-rc2-dev-352-g017154715)) date 10/08/18 23:49:12*
%MOMM*%
%LPD*%
G01*
G04 APERTURE LIST*
%ADD10C,0.120000*%
%ADD11C,0.150000*%
G04 APERTURE END LIST*
D10*
X78210000Y-79310000D02*
X78210000Y-80710000D01*
X78210000Y-80710000D02*
X81010000Y-80710000D01*
X78210000Y-79310000D02*
X81010000Y-79310000D01*
X83290000Y-79310000D02*
X83290000Y-80710000D01*
X83290000Y-80710000D02*
X86090000Y-80710000D01*
X83290000Y-79310000D02*
X86090000Y-79310000D01*
X88370000Y-79310000D02*
X88370000Y-80710000D01*
X88370000Y-80710000D02*
X91170000Y-80710000D01*
X88370000Y-79310000D02*
X91170000Y-79310000D01*
X93450000Y-79310000D02*
X96250000Y-79310000D01*
X93450000Y-80710000D02*
X96250000Y-80710000D01*
X93450000Y-79310000D02*
X93450000Y-80710000D01*
X98530000Y-79310000D02*
X101330000Y-79310000D01*
X98530000Y-80710000D02*
X101330000Y-80710000D01*
X98530000Y-79310000D02*
X98530000Y-80710000D01*
X78210000Y-84390000D02*
X78210000Y-85790000D01*
X78210000Y-85790000D02*
X81010000Y-85790000D01*
X78210000Y-84390000D02*
X81010000Y-84390000D01*
X83290000Y-84390000D02*
X83290000Y-85790000D01*
X83290000Y-85790000D02*
X86090000Y-85790000D01*
X83290000Y-84390000D02*
X86090000Y-84390000D01*
X88370000Y-84390000D02*
X91170000Y-84390000D01*
X88370000Y-85790000D02*
X91170000Y-85790000D01*
X88370000Y-84390000D02*
X88370000Y-85790000D01*
X93450000Y-84390000D02*
X96250000Y-84390000D01*
X93450000Y-85790000D02*
X96250000Y-85790000D01*
X93450000Y-84390000D02*
X93450000Y-85790000D01*
X98530000Y-84390000D02*
X98530000Y-85790000D01*
X98530000Y-85790000D02*
X101330000Y-85790000D01*
X98530000Y-84390000D02*
X101330000Y-84390000D01*
X78210000Y-89470000D02*
X78210000Y-90870000D01*
X78210000Y-90870000D02*
X81010000Y-90870000D01*
X78210000Y-89470000D02*
X81010000Y-89470000D01*
X83290000Y-89470000D02*
X83290000Y-90870000D01*
X83290000Y-90870000D02*
X86090000Y-90870000D01*
X83290000Y-89470000D02*
X86090000Y-89470000D01*
X88370000Y-89470000D02*
X91170000Y-89470000D01*
X88370000Y-90870000D02*
X91170000Y-90870000D01*
X88370000Y-89470000D02*
X88370000Y-90870000D01*
X93450000Y-89470000D02*
X93450000Y-90870000D01*
X93450000Y-90870000D02*
X96250000Y-90870000D01*
X93450000Y-89470000D02*
X96250000Y-89470000D01*
X98530000Y-89470000D02*
X98530000Y-90870000D01*
X98530000Y-90870000D02*
X101330000Y-90870000D01*
X98530000Y-89470000D02*
X101330000Y-89470000D01*
X78210000Y-94550000D02*
X81010000Y-94550000D01*
X78210000Y-95950000D02*
X81010000Y-95950000D01*
X78210000Y-94550000D02*
X78210000Y-95950000D01*
X83290000Y-94550000D02*
X83290000Y-95950000D01*
X83290000Y-95950000D02*
X86090000Y-95950000D01*
X83290000Y-94550000D02*
X86090000Y-94550000D01*
X88370000Y-94550000D02*
X91170000Y-94550000D01*
X88370000Y-95950000D02*
X91170000Y-95950000D01*
X88370000Y-94550000D02*
X88370000Y-95950000D01*
X93450000Y-94550000D02*
X96250000Y-94550000D01*
X93450000Y-95950000D02*
X96250000Y-95950000D01*
X93450000Y-94550000D02*
X93450000Y-95950000D01*
X98530000Y-94550000D02*
X101330000Y-94550000D01*
X98530000Y-95950000D02*
X101330000Y-95950000D01*
X98530000Y-94550000D02*
X98530000Y-95950000D01*
X78210000Y-99630000D02*
X81010000Y-99630000D01*
X78210000Y-101030000D02*
X81010000Y-101030000D01*
X78210000Y-99630000D02*
X78210000Y-101030000D01*
X83290000Y-99630000D02*
X86090000Y-99630000D01*
X83290000Y-101030000D02*
X86090000Y-101030000D01*
X83290000Y-99630000D02*
X83290000Y-101030000D01*
X88370000Y-99630000D02*
X91170000Y-99630000D01*
X88370000Y-101030000D02*
X91170000Y-101030000D01*
X88370000Y-99630000D02*
X88370000Y-101030000D01*
X93450000Y-99630000D02*
X96250000Y-99630000D01*
X93450000Y-101030000D02*
X96250000Y-101030000D01*
X93450000Y-99630000D02*
X93450000Y-101030000D01*
X98530000Y-99630000D02*
X98530000Y-101030000D01*
X98530000Y-101030000D02*
X101330000Y-101030000D01*
X98530000Y-99630000D02*
X101330000Y-99630000D01*
X79860000Y-81840000D02*
X80160000Y-81840000D01*
X79860000Y-83260000D02*
X80160000Y-83260000D01*
X84940000Y-81840000D02*
X85240000Y-81840000D01*
X84940000Y-83260000D02*
X85240000Y-83260000D01*
X90020000Y-81840000D02*
X90320000Y-81840000D01*
X90020000Y-83260000D02*
X90320000Y-83260000D01*
X95100000Y-83260000D02*
X95400000Y-83260000D01*
X95100000Y-81840000D02*
X95400000Y-81840000D01*
X100180000Y-81840000D02*
X100480000Y-81840000D01*
X100180000Y-83260000D02*
X100480000Y-83260000D01*
X79860000Y-88340000D02*
X80160000Y-88340000D01*
X79860000Y-86920000D02*
X80160000Y-86920000D01*
X84940000Y-88340000D02*
X85240000Y-88340000D01*
X84940000Y-86920000D02*
X85240000Y-86920000D01*
X90020000Y-86920000D02*
X90320000Y-86920000D01*
X90020000Y-88340000D02*
X90320000Y-88340000D01*
X95100000Y-86920000D02*
X95400000Y-86920000D01*
X95100000Y-88340000D02*
X95400000Y-88340000D01*
X100180000Y-88340000D02*
X100480000Y-88340000D01*
X100180000Y-86920000D02*
X100480000Y-86920000D01*
X79860000Y-93420000D02*
X80160000Y-93420000D01*
X79860000Y-92000000D02*
X80160000Y-92000000D01*
X84940000Y-92000000D02*
X85240000Y-92000000D01*
X84940000Y-93420000D02*
X85240000Y-93420000D01*
X90020000Y-93420000D02*
X90320000Y-93420000D01*
X90020000Y-92000000D02*
X90320000Y-92000000D01*
X95100000Y-92000000D02*
X95400000Y-92000000D01*
X95100000Y-93420000D02*
X95400000Y-93420000D01*
X100180000Y-93420000D02*
X100480000Y-93420000D01*
X100180000Y-92000000D02*
X100480000Y-92000000D01*
X79860000Y-97080000D02*
X80160000Y-97080000D01*
X79860000Y-98500000D02*
X80160000Y-98500000D01*
X84940000Y-97080000D02*
X85240000Y-97080000D01*
X84940000Y-98500000D02*
X85240000Y-98500000D01*
X90020000Y-98500000D02*
X90320000Y-98500000D01*
X90020000Y-97080000D02*
X90320000Y-97080000D01*
X95100000Y-98500000D02*
X95400000Y-98500000D01*
X95100000Y-97080000D02*
X95400000Y-97080000D01*
X100180000Y-97080000D02*
X100480000Y-97080000D01*
X100180000Y-98500000D02*
X100480000Y-98500000D01*
X79860000Y-102160000D02*
X80160000Y-102160000D01*
X79860000Y-103580000D02*
X80160000Y-103580000D01*
X84940000Y-103580000D02*
X85240000Y-103580000D01*
X84940000Y-102160000D02*
X85240000Y-102160000D01*
X90020000Y-102945000D02*
X90320000Y-102945000D01*
X90020000Y-101525000D02*
X90320000Y-101525000D01*
X95100000Y-102160000D02*
X95400000Y-102160000D01*
X95100000Y-103580000D02*
X95400000Y-103580000D01*
X100180000Y-103580000D02*
X100480000Y-103580000D01*
X100180000Y-102160000D02*
X100480000Y-102160000D01*
D11*
X79271904Y-79012380D02*
X79271904Y-78012380D01*
X79510000Y-78012380D01*
X79652857Y-78060000D01*
X79748095Y-78155238D01*
X79795714Y-78250476D01*
X79843333Y-78440952D01*
X79843333Y-78583809D01*
X79795714Y-78774285D01*
X79748095Y-78869523D01*
X79652857Y-78964761D01*
X79510000Y-79012380D01*
X79271904Y-79012380D01*
X80795714Y-79012380D02*
X80224285Y-79012380D01*
X80510000Y-79012380D02*
X80510000Y-78012380D01*
X80414761Y-78155238D01*
X80319523Y-78250476D01*
X80224285Y-78298095D01*
X84351904Y-79012380D02*
X84351904Y-78012380D01*
X84590000Y-78012380D01*
X84732857Y-78060000D01*
X84828095Y-78155238D01*
X84875714Y-78250476D01*
X84923333Y-78440952D01*
X84923333Y-78583809D01*
X84875714Y-78774285D01*
X84828095Y-78869523D01*
X84732857Y-78964761D01*
X84590000Y-79012380D01*
X84351904Y-79012380D01*
X85304285Y-78107619D02*
X85351904Y-78060000D01*
X85447142Y-78012380D01*
X85685238Y-78012380D01*
X85780476Y-78060000D01*
X85828095Y-78107619D01*
X85875714Y-78202857D01*
X85875714Y-78298095D01*
X85828095Y-78440952D01*
X85256666Y-79012380D01*
X85875714Y-79012380D01*
X89431904Y-79012380D02*
X89431904Y-78012380D01*
X89670000Y-78012380D01*
X89812857Y-78060000D01*
X89908095Y-78155238D01*
X89955714Y-78250476D01*
X90003333Y-78440952D01*
X90003333Y-78583809D01*
X89955714Y-78774285D01*
X89908095Y-78869523D01*
X89812857Y-78964761D01*
X89670000Y-79012380D01*
X89431904Y-79012380D01*
X90336666Y-78012380D02*
X90955714Y-78012380D01*
X90622380Y-78393333D01*
X90765238Y-78393333D01*
X90860476Y-78440952D01*
X90908095Y-78488571D01*
X90955714Y-78583809D01*
X90955714Y-78821904D01*
X90908095Y-78917142D01*
X90860476Y-78964761D01*
X90765238Y-79012380D01*
X90479523Y-79012380D01*
X90384285Y-78964761D01*
X90336666Y-78917142D01*
X94511904Y-79012380D02*
X94511904Y-78012380D01*
X94750000Y-78012380D01*
X94892857Y-78060000D01*
X94988095Y-78155238D01*
X95035714Y-78250476D01*
X95083333Y-78440952D01*
X95083333Y-78583809D01*
X95035714Y-78774285D01*
X94988095Y-78869523D01*
X94892857Y-78964761D01*
X94750000Y-79012380D01*
X94511904Y-79012380D01*
X95940476Y-78345714D02*
X95940476Y-79012380D01*
X95702380Y-77964761D02*
X95464285Y-78679047D01*
X96083333Y-78679047D01*
X99591904Y-79012380D02*
X99591904Y-78012380D01*
X99830000Y-78012380D01*
X99972857Y-78060000D01*
X100068095Y-78155238D01*
X100115714Y-78250476D01*
X100163333Y-78440952D01*
X100163333Y-78583809D01*
X100115714Y-78774285D01*
X100068095Y-78869523D01*
X99972857Y-78964761D01*
X99830000Y-79012380D01*
X99591904Y-79012380D01*
X101068095Y-78012380D02*
X100591904Y-78012380D01*
X100544285Y-78488571D01*
X100591904Y-78440952D01*
X100687142Y-78393333D01*
X100925238Y-78393333D01*
X101020476Y-78440952D01*
X101068095Y-78488571D01*
X101115714Y-78583809D01*
X101115714Y-78821904D01*
X101068095Y-78917142D01*
X101020476Y-78964761D01*
X100925238Y-79012380D01*
X100687142Y-79012380D01*
X100591904Y-78964761D01*
X100544285Y-78917142D01*
X79271904Y-84092380D02*
X79271904Y-83092380D01*
X79510000Y-83092380D01*
X79652857Y-83140000D01*
X79748095Y-83235238D01*
X79795714Y-83330476D01*
X79843333Y-83520952D01*
X79843333Y-83663809D01*
X79795714Y-83854285D01*
X79748095Y-83949523D01*
X79652857Y-84044761D01*
X79510000Y-84092380D01*
X79271904Y-84092380D01*
X80700476Y-83092380D02*
X80510000Y-83092380D01*
X80414761Y-83140000D01*
X80367142Y-83187619D01*
X80271904Y-83330476D01*
X80224285Y-83520952D01*
X80224285Y-83901904D01*
X80271904Y-83997142D01*
X80319523Y-84044761D01*
X80414761Y-84092380D01*
X80605238Y-84092380D01*
X80700476Y-84044761D01*
X80748095Y-83997142D01*
X80795714Y-83901904D01*
X80795714Y-83663809D01*
X80748095Y-83568571D01*
X80700476Y-83520952D01*
X80605238Y-83473333D01*
X80414761Y-83473333D01*
X80319523Y-83520952D01*
X80271904Y-83568571D01*
X80224285Y-83663809D01*
X84351904Y-84092380D02*
X84351904Y-83092380D01*
X84590000Y-83092380D01*
X84732857Y-83140000D01*
X84828095Y-83235238D01*
X84875714Y-83330476D01*
X84923333Y-83520952D01*
X84923333Y-83663809D01*
X84875714Y-83854285D01*
X84828095Y-83949523D01*
X84732857Y-84044761D01*
X84590000Y-84092380D01*
X84351904Y-84092380D01*
X85256666Y-83092380D02*
X85923333Y-83092380D01*
X85494761Y-84092380D01*
X89431904Y-84092380D02*
X89431904Y-83092380D01*
X89670000Y-83092380D01*
X89812857Y-83140000D01*
X89908095Y-83235238D01*
X89955714Y-83330476D01*
X90003333Y-83520952D01*
X90003333Y-83663809D01*
X89955714Y-83854285D01*
X89908095Y-83949523D01*
X89812857Y-84044761D01*
X89670000Y-84092380D01*
X89431904Y-84092380D01*
X90574761Y-83520952D02*
X90479523Y-83473333D01*
X90431904Y-83425714D01*
X90384285Y-83330476D01*
X90384285Y-83282857D01*
X90431904Y-83187619D01*
X90479523Y-83140000D01*
X90574761Y-83092380D01*
X90765238Y-83092380D01*
X90860476Y-83140000D01*
X90908095Y-83187619D01*
X90955714Y-83282857D01*
X90955714Y-83330476D01*
X90908095Y-83425714D01*
X90860476Y-83473333D01*
X90765238Y-83520952D01*
X90574761Y-83520952D01*
X90479523Y-83568571D01*
X90431904Y-83616190D01*
X90384285Y-83711428D01*
X90384285Y-83901904D01*
X90431904Y-83997142D01*
X90479523Y-84044761D01*
X90574761Y-84092380D01*
X90765238Y-84092380D01*
X90860476Y-84044761D01*
X90908095Y-83997142D01*
X90955714Y-83901904D01*
X90955714Y-83711428D01*
X90908095Y-83616190D01*
X90860476Y-83568571D01*
X90765238Y-83520952D01*
X94511904Y-84092380D02*
X94511904Y-83092380D01*
X94750000Y-83092380D01*
X94892857Y-83140000D01*
X94988095Y-83235238D01*
X95035714Y-83330476D01*
X95083333Y-83520952D01*
X95083333Y-83663809D01*
X95035714Y-83854285D01*
X94988095Y-83949523D01*
X94892857Y-84044761D01*
X94750000Y-84092380D01*
X94511904Y-84092380D01*
X95559523Y-84092380D02*
X95750000Y-84092380D01*
X95845238Y-84044761D01*
X95892857Y-83997142D01*
X95988095Y-83854285D01*
X96035714Y-83663809D01*
X96035714Y-83282857D01*
X95988095Y-83187619D01*
X95940476Y-83140000D01*
X95845238Y-83092380D01*
X95654761Y-83092380D01*
X95559523Y-83140000D01*
X95511904Y-83187619D01*
X95464285Y-83282857D01*
X95464285Y-83520952D01*
X95511904Y-83616190D01*
X95559523Y-83663809D01*
X95654761Y-83711428D01*
X95845238Y-83711428D01*
X95940476Y-83663809D01*
X95988095Y-83616190D01*
X96035714Y-83520952D01*
X99115714Y-84092380D02*
X99115714Y-83092380D01*
X99353809Y-83092380D01*
X99496666Y-83140000D01*
X99591904Y-83235238D01*
X99639523Y-83330476D01*
X99687142Y-83520952D01*
X99687142Y-83663809D01*
X99639523Y-83854285D01*
X99591904Y-83949523D01*
X99496666Y-84044761D01*
X99353809Y-84092380D01*
X99115714Y-84092380D01*
X100639523Y-84092380D02*
X100068095Y-84092380D01*
X100353809Y-84092380D02*
X100353809Y-83092380D01*
X100258571Y-83235238D01*
X100163333Y-83330476D01*
X100068095Y-83378095D01*
X101258571Y-83092380D02*
X101353809Y-83092380D01*
X101449047Y-83140000D01*
X101496666Y-83187619D01*
X101544285Y-83282857D01*
X101591904Y-83473333D01*
X101591904Y-83711428D01*
X101544285Y-83901904D01*
X101496666Y-83997142D01*
X101449047Y-84044761D01*
X101353809Y-84092380D01*
X101258571Y-84092380D01*
X101163333Y-84044761D01*
X101115714Y-83997142D01*
X101068095Y-83901904D01*
X101020476Y-83711428D01*
X101020476Y-83473333D01*
X101068095Y-83282857D01*
X101115714Y-83187619D01*
X101163333Y-83140000D01*
X101258571Y-83092380D01*
X78795714Y-89172380D02*
X78795714Y-88172380D01*
X79033809Y-88172380D01*
X79176666Y-88220000D01*
X79271904Y-88315238D01*
X79319523Y-88410476D01*
X79367142Y-88600952D01*
X79367142Y-88743809D01*
X79319523Y-88934285D01*
X79271904Y-89029523D01*
X79176666Y-89124761D01*
X79033809Y-89172380D01*
X78795714Y-89172380D01*
X80319523Y-89172380D02*
X79748095Y-89172380D01*
X80033809Y-89172380D02*
X80033809Y-88172380D01*
X79938571Y-88315238D01*
X79843333Y-88410476D01*
X79748095Y-88458095D01*
X81271904Y-89172380D02*
X80700476Y-89172380D01*
X80986190Y-89172380D02*
X80986190Y-88172380D01*
X80890952Y-88315238D01*
X80795714Y-88410476D01*
X80700476Y-88458095D01*
X83875714Y-89172380D02*
X83875714Y-88172380D01*
X84113809Y-88172380D01*
X84256666Y-88220000D01*
X84351904Y-88315238D01*
X84399523Y-88410476D01*
X84447142Y-88600952D01*
X84447142Y-88743809D01*
X84399523Y-88934285D01*
X84351904Y-89029523D01*
X84256666Y-89124761D01*
X84113809Y-89172380D01*
X83875714Y-89172380D01*
X85399523Y-89172380D02*
X84828095Y-89172380D01*
X85113809Y-89172380D02*
X85113809Y-88172380D01*
X85018571Y-88315238D01*
X84923333Y-88410476D01*
X84828095Y-88458095D01*
X85780476Y-88267619D02*
X85828095Y-88220000D01*
X85923333Y-88172380D01*
X86161428Y-88172380D01*
X86256666Y-88220000D01*
X86304285Y-88267619D01*
X86351904Y-88362857D01*
X86351904Y-88458095D01*
X86304285Y-88600952D01*
X85732857Y-89172380D01*
X86351904Y-89172380D01*
X88955714Y-89172380D02*
X88955714Y-88172380D01*
X89193809Y-88172380D01*
X89336666Y-88220000D01*
X89431904Y-88315238D01*
X89479523Y-88410476D01*
X89527142Y-88600952D01*
X89527142Y-88743809D01*
X89479523Y-88934285D01*
X89431904Y-89029523D01*
X89336666Y-89124761D01*
X89193809Y-89172380D01*
X88955714Y-89172380D01*
X90479523Y-89172380D02*
X89908095Y-89172380D01*
X90193809Y-89172380D02*
X90193809Y-88172380D01*
X90098571Y-88315238D01*
X90003333Y-88410476D01*
X89908095Y-88458095D01*
X90812857Y-88172380D02*
X91431904Y-88172380D01*
X91098571Y-88553333D01*
X91241428Y-88553333D01*
X91336666Y-88600952D01*
X91384285Y-88648571D01*
X91431904Y-88743809D01*
X91431904Y-88981904D01*
X91384285Y-89077142D01*
X91336666Y-89124761D01*
X91241428Y-89172380D01*
X90955714Y-89172380D01*
X90860476Y-89124761D01*
X90812857Y-89077142D01*
X94035714Y-89172380D02*
X94035714Y-88172380D01*
X94273809Y-88172380D01*
X94416666Y-88220000D01*
X94511904Y-88315238D01*
X94559523Y-88410476D01*
X94607142Y-88600952D01*
X94607142Y-88743809D01*
X94559523Y-88934285D01*
X94511904Y-89029523D01*
X94416666Y-89124761D01*
X94273809Y-89172380D01*
X94035714Y-89172380D01*
X95559523Y-89172380D02*
X94988095Y-89172380D01*
X95273809Y-89172380D02*
X95273809Y-88172380D01*
X95178571Y-88315238D01*
X95083333Y-88410476D01*
X94988095Y-88458095D01*
X96416666Y-88505714D02*
X96416666Y-89172380D01*
X96178571Y-88124761D02*
X95940476Y-88839047D01*
X96559523Y-88839047D01*
X99115714Y-89172380D02*
X99115714Y-88172380D01*
X99353809Y-88172380D01*
X99496666Y-88220000D01*
X99591904Y-88315238D01*
X99639523Y-88410476D01*
X99687142Y-88600952D01*
X99687142Y-88743809D01*
X99639523Y-88934285D01*
X99591904Y-89029523D01*
X99496666Y-89124761D01*
X99353809Y-89172380D01*
X99115714Y-89172380D01*
X100639523Y-89172380D02*
X100068095Y-89172380D01*
X100353809Y-89172380D02*
X100353809Y-88172380D01*
X100258571Y-88315238D01*
X100163333Y-88410476D01*
X100068095Y-88458095D01*
X101544285Y-88172380D02*
X101068095Y-88172380D01*
X101020476Y-88648571D01*
X101068095Y-88600952D01*
X101163333Y-88553333D01*
X101401428Y-88553333D01*
X101496666Y-88600952D01*
X101544285Y-88648571D01*
X101591904Y-88743809D01*
X101591904Y-88981904D01*
X101544285Y-89077142D01*
X101496666Y-89124761D01*
X101401428Y-89172380D01*
X101163333Y-89172380D01*
X101068095Y-89124761D01*
X101020476Y-89077142D01*
X78795714Y-94252380D02*
X78795714Y-93252380D01*
X79033809Y-93252380D01*
X79176666Y-93300000D01*
X79271904Y-93395238D01*
X79319523Y-93490476D01*
X79367142Y-93680952D01*
X79367142Y-93823809D01*
X79319523Y-94014285D01*
X79271904Y-94109523D01*
X79176666Y-94204761D01*
X79033809Y-94252380D01*
X78795714Y-94252380D01*
X80319523Y-94252380D02*
X79748095Y-94252380D01*
X80033809Y-94252380D02*
X80033809Y-93252380D01*
X79938571Y-93395238D01*
X79843333Y-93490476D01*
X79748095Y-93538095D01*
X81176666Y-93252380D02*
X80986190Y-93252380D01*
X80890952Y-93300000D01*
X80843333Y-93347619D01*
X80748095Y-93490476D01*
X80700476Y-93680952D01*
X80700476Y-94061904D01*
X80748095Y-94157142D01*
X80795714Y-94204761D01*
X80890952Y-94252380D01*
X81081428Y-94252380D01*
X81176666Y-94204761D01*
X81224285Y-94157142D01*
X81271904Y-94061904D01*
X81271904Y-93823809D01*
X81224285Y-93728571D01*
X81176666Y-93680952D01*
X81081428Y-93633333D01*
X80890952Y-93633333D01*
X80795714Y-93680952D01*
X80748095Y-93728571D01*
X80700476Y-93823809D01*
X83875714Y-94252380D02*
X83875714Y-93252380D01*
X84113809Y-93252380D01*
X84256666Y-93300000D01*
X84351904Y-93395238D01*
X84399523Y-93490476D01*
X84447142Y-93680952D01*
X84447142Y-93823809D01*
X84399523Y-94014285D01*
X84351904Y-94109523D01*
X84256666Y-94204761D01*
X84113809Y-94252380D01*
X83875714Y-94252380D01*
X85399523Y-94252380D02*
X84828095Y-94252380D01*
X85113809Y-94252380D02*
X85113809Y-93252380D01*
X85018571Y-93395238D01*
X84923333Y-93490476D01*
X84828095Y-93538095D01*
X85732857Y-93252380D02*
X86399523Y-93252380D01*
X85970952Y-94252380D01*
X88955714Y-94252380D02*
X88955714Y-93252380D01*
X89193809Y-93252380D01*
X89336666Y-93300000D01*
X89431904Y-93395238D01*
X89479523Y-93490476D01*
X89527142Y-93680952D01*
X89527142Y-93823809D01*
X89479523Y-94014285D01*
X89431904Y-94109523D01*
X89336666Y-94204761D01*
X89193809Y-94252380D01*
X88955714Y-94252380D01*
X90479523Y-94252380D02*
X89908095Y-94252380D01*
X90193809Y-94252380D02*
X90193809Y-93252380D01*
X90098571Y-93395238D01*
X90003333Y-93490476D01*
X89908095Y-93538095D01*
X91050952Y-93680952D02*
X90955714Y-93633333D01*
X90908095Y-93585714D01*
X90860476Y-93490476D01*
X90860476Y-93442857D01*
X90908095Y-93347619D01*
X90955714Y-93300000D01*
X91050952Y-93252380D01*
X91241428Y-93252380D01*
X91336666Y-93300000D01*
X91384285Y-93347619D01*
X91431904Y-93442857D01*
X91431904Y-93490476D01*
X91384285Y-93585714D01*
X91336666Y-93633333D01*
X91241428Y-93680952D01*
X91050952Y-93680952D01*
X90955714Y-93728571D01*
X90908095Y-93776190D01*
X90860476Y-93871428D01*
X90860476Y-94061904D01*
X90908095Y-94157142D01*
X90955714Y-94204761D01*
X91050952Y-94252380D01*
X91241428Y-94252380D01*
X91336666Y-94204761D01*
X91384285Y-94157142D01*
X91431904Y-94061904D01*
X91431904Y-93871428D01*
X91384285Y-93776190D01*
X91336666Y-93728571D01*
X91241428Y-93680952D01*
X94035714Y-94252380D02*
X94035714Y-93252380D01*
X94273809Y-93252380D01*
X94416666Y-93300000D01*
X94511904Y-93395238D01*
X94559523Y-93490476D01*
X94607142Y-93680952D01*
X94607142Y-93823809D01*
X94559523Y-94014285D01*
X94511904Y-94109523D01*
X94416666Y-94204761D01*
X94273809Y-94252380D01*
X94035714Y-94252380D01*
X95559523Y-94252380D02*
X94988095Y-94252380D01*
X95273809Y-94252380D02*
X95273809Y-93252380D01*
X95178571Y-93395238D01*
X95083333Y-93490476D01*
X94988095Y-93538095D01*
X96035714Y-94252380D02*
X96226190Y-94252380D01*
X96321428Y-94204761D01*
X96369047Y-94157142D01*
X96464285Y-94014285D01*
X96511904Y-93823809D01*
X96511904Y-93442857D01*
X96464285Y-93347619D01*
X96416666Y-93300000D01*
X96321428Y-93252380D01*
X96130952Y-93252380D01*
X96035714Y-93300000D01*
X95988095Y-93347619D01*
X95940476Y-93442857D01*
X95940476Y-93680952D01*
X95988095Y-93776190D01*
X96035714Y-93823809D01*
X96130952Y-93871428D01*
X96321428Y-93871428D01*
X96416666Y-93823809D01*
X96464285Y-93776190D01*
X96511904Y-93680952D01*
X99115714Y-94252380D02*
X99115714Y-93252380D01*
X99353809Y-93252380D01*
X99496666Y-93300000D01*
X99591904Y-93395238D01*
X99639523Y-93490476D01*
X99687142Y-93680952D01*
X99687142Y-93823809D01*
X99639523Y-94014285D01*
X99591904Y-94109523D01*
X99496666Y-94204761D01*
X99353809Y-94252380D01*
X99115714Y-94252380D01*
X100068095Y-93347619D02*
X100115714Y-93300000D01*
X100210952Y-93252380D01*
X100449047Y-93252380D01*
X100544285Y-93300000D01*
X100591904Y-93347619D01*
X100639523Y-93442857D01*
X100639523Y-93538095D01*
X100591904Y-93680952D01*
X100020476Y-94252380D01*
X100639523Y-94252380D01*
X101258571Y-93252380D02*
X101353809Y-93252380D01*
X101449047Y-93300000D01*
X101496666Y-93347619D01*
X101544285Y-93442857D01*
X101591904Y-93633333D01*
X101591904Y-93871428D01*
X101544285Y-94061904D01*
X101496666Y-94157142D01*
X101449047Y-94204761D01*
X101353809Y-94252380D01*
X101258571Y-94252380D01*
X101163333Y-94204761D01*
X101115714Y-94157142D01*
X101068095Y-94061904D01*
X101020476Y-93871428D01*
X101020476Y-93633333D01*
X101068095Y-93442857D01*
X101115714Y-93347619D01*
X101163333Y-93300000D01*
X101258571Y-93252380D01*
X78795714Y-99332380D02*
X78795714Y-98332380D01*
X79033809Y-98332380D01*
X79176666Y-98380000D01*
X79271904Y-98475238D01*
X79319523Y-98570476D01*
X79367142Y-98760952D01*
X79367142Y-98903809D01*
X79319523Y-99094285D01*
X79271904Y-99189523D01*
X79176666Y-99284761D01*
X79033809Y-99332380D01*
X78795714Y-99332380D01*
X79748095Y-98427619D02*
X79795714Y-98380000D01*
X79890952Y-98332380D01*
X80129047Y-98332380D01*
X80224285Y-98380000D01*
X80271904Y-98427619D01*
X80319523Y-98522857D01*
X80319523Y-98618095D01*
X80271904Y-98760952D01*
X79700476Y-99332380D01*
X80319523Y-99332380D01*
X81271904Y-99332380D02*
X80700476Y-99332380D01*
X80986190Y-99332380D02*
X80986190Y-98332380D01*
X80890952Y-98475238D01*
X80795714Y-98570476D01*
X80700476Y-98618095D01*
X83875714Y-99332380D02*
X83875714Y-98332380D01*
X84113809Y-98332380D01*
X84256666Y-98380000D01*
X84351904Y-98475238D01*
X84399523Y-98570476D01*
X84447142Y-98760952D01*
X84447142Y-98903809D01*
X84399523Y-99094285D01*
X84351904Y-99189523D01*
X84256666Y-99284761D01*
X84113809Y-99332380D01*
X83875714Y-99332380D01*
X84828095Y-98427619D02*
X84875714Y-98380000D01*
X84970952Y-98332380D01*
X85209047Y-98332380D01*
X85304285Y-98380000D01*
X85351904Y-98427619D01*
X85399523Y-98522857D01*
X85399523Y-98618095D01*
X85351904Y-98760952D01*
X84780476Y-99332380D01*
X85399523Y-99332380D01*
X85780476Y-98427619D02*
X85828095Y-98380000D01*
X85923333Y-98332380D01*
X86161428Y-98332380D01*
X86256666Y-98380000D01*
X86304285Y-98427619D01*
X86351904Y-98522857D01*
X86351904Y-98618095D01*
X86304285Y-98760952D01*
X85732857Y-99332380D01*
X86351904Y-99332380D01*
X88955714Y-99332380D02*
X88955714Y-98332380D01*
X89193809Y-98332380D01*
X89336666Y-98380000D01*
X89431904Y-98475238D01*
X89479523Y-98570476D01*
X89527142Y-98760952D01*
X89527142Y-98903809D01*
X89479523Y-99094285D01*
X89431904Y-99189523D01*
X89336666Y-99284761D01*
X89193809Y-99332380D01*
X88955714Y-99332380D01*
X89908095Y-98427619D02*
X89955714Y-98380000D01*
X90050952Y-98332380D01*
X90289047Y-98332380D01*
X90384285Y-98380000D01*
X90431904Y-98427619D01*
X90479523Y-98522857D01*
X90479523Y-98618095D01*
X90431904Y-98760952D01*
X89860476Y-99332380D01*
X90479523Y-99332380D01*
X90812857Y-98332380D02*
X91431904Y-98332380D01*
X91098571Y-98713333D01*
X91241428Y-98713333D01*
X91336666Y-98760952D01*
X91384285Y-98808571D01*
X91431904Y-98903809D01*
X91431904Y-99141904D01*
X91384285Y-99237142D01*
X91336666Y-99284761D01*
X91241428Y-99332380D01*
X90955714Y-99332380D01*
X90860476Y-99284761D01*
X90812857Y-99237142D01*
X94035714Y-99332380D02*
X94035714Y-98332380D01*
X94273809Y-98332380D01*
X94416666Y-98380000D01*
X94511904Y-98475238D01*
X94559523Y-98570476D01*
X94607142Y-98760952D01*
X94607142Y-98903809D01*
X94559523Y-99094285D01*
X94511904Y-99189523D01*
X94416666Y-99284761D01*
X94273809Y-99332380D01*
X94035714Y-99332380D01*
X94988095Y-98427619D02*
X95035714Y-98380000D01*
X95130952Y-98332380D01*
X95369047Y-98332380D01*
X95464285Y-98380000D01*
X95511904Y-98427619D01*
X95559523Y-98522857D01*
X95559523Y-98618095D01*
X95511904Y-98760952D01*
X94940476Y-99332380D01*
X95559523Y-99332380D01*
X96416666Y-98665714D02*
X96416666Y-99332380D01*
X96178571Y-98284761D02*
X95940476Y-98999047D01*
X96559523Y-98999047D01*
X99115714Y-99332380D02*
X99115714Y-98332380D01*
X99353809Y-98332380D01*
X99496666Y-98380000D01*
X99591904Y-98475238D01*
X99639523Y-98570476D01*
X99687142Y-98760952D01*
X99687142Y-98903809D01*
X99639523Y-99094285D01*
X99591904Y-99189523D01*
X99496666Y-99284761D01*
X99353809Y-99332380D01*
X99115714Y-99332380D01*
X100068095Y-98427619D02*
X100115714Y-98380000D01*
X100210952Y-98332380D01*
X100449047Y-98332380D01*
X100544285Y-98380000D01*
X100591904Y-98427619D01*
X100639523Y-98522857D01*
X100639523Y-98618095D01*
X100591904Y-98760952D01*
X100020476Y-99332380D01*
X100639523Y-99332380D01*
X101544285Y-98332380D02*
X101068095Y-98332380D01*
X101020476Y-98808571D01*
X101068095Y-98760952D01*
X101163333Y-98713333D01*
X101401428Y-98713333D01*
X101496666Y-98760952D01*
X101544285Y-98808571D01*
X101591904Y-98903809D01*
X101591904Y-99141904D01*
X101544285Y-99237142D01*
X101496666Y-99284761D01*
X101401428Y-99332380D01*
X101163333Y-99332380D01*
X101068095Y-99284761D01*
X101020476Y-99237142D01*
X79843333Y-81152380D02*
X79510000Y-80676190D01*
X79271904Y-81152380D02*
X79271904Y-80152380D01*
X79652857Y-80152380D01*
X79748095Y-80200000D01*
X79795714Y-80247619D01*
X79843333Y-80342857D01*
X79843333Y-80485714D01*
X79795714Y-80580952D01*
X79748095Y-80628571D01*
X79652857Y-80676190D01*
X79271904Y-80676190D01*
X80795714Y-81152380D02*
X80224285Y-81152380D01*
X80510000Y-81152380D02*
X80510000Y-80152380D01*
X80414761Y-80295238D01*
X80319523Y-80390476D01*
X80224285Y-80438095D01*
X84923333Y-81152380D02*
X84590000Y-80676190D01*
X84351904Y-81152380D02*
X84351904Y-80152380D01*
X84732857Y-80152380D01*
X84828095Y-80200000D01*
X84875714Y-80247619D01*
X84923333Y-80342857D01*
X84923333Y-80485714D01*
X84875714Y-80580952D01*
X84828095Y-80628571D01*
X84732857Y-80676190D01*
X84351904Y-80676190D01*
X85304285Y-80247619D02*
X85351904Y-80200000D01*
X85447142Y-80152380D01*
X85685238Y-80152380D01*
X85780476Y-80200000D01*
X85828095Y-80247619D01*
X85875714Y-80342857D01*
X85875714Y-80438095D01*
X85828095Y-80580952D01*
X85256666Y-81152380D01*
X85875714Y-81152380D01*
X90003333Y-81152380D02*
X89670000Y-80676190D01*
X89431904Y-81152380D02*
X89431904Y-80152380D01*
X89812857Y-80152380D01*
X89908095Y-80200000D01*
X89955714Y-80247619D01*
X90003333Y-80342857D01*
X90003333Y-80485714D01*
X89955714Y-80580952D01*
X89908095Y-80628571D01*
X89812857Y-80676190D01*
X89431904Y-80676190D01*
X90336666Y-80152380D02*
X90955714Y-80152380D01*
X90622380Y-80533333D01*
X90765238Y-80533333D01*
X90860476Y-80580952D01*
X90908095Y-80628571D01*
X90955714Y-80723809D01*
X90955714Y-80961904D01*
X90908095Y-81057142D01*
X90860476Y-81104761D01*
X90765238Y-81152380D01*
X90479523Y-81152380D01*
X90384285Y-81104761D01*
X90336666Y-81057142D01*
X95083333Y-81152380D02*
X94750000Y-80676190D01*
X94511904Y-81152380D02*
X94511904Y-80152380D01*
X94892857Y-80152380D01*
X94988095Y-80200000D01*
X95035714Y-80247619D01*
X95083333Y-80342857D01*
X95083333Y-80485714D01*
X95035714Y-80580952D01*
X94988095Y-80628571D01*
X94892857Y-80676190D01*
X94511904Y-80676190D01*
X95940476Y-80485714D02*
X95940476Y-81152380D01*
X95702380Y-80104761D02*
X95464285Y-80819047D01*
X96083333Y-80819047D01*
X100163333Y-81152380D02*
X99830000Y-80676190D01*
X99591904Y-81152380D02*
X99591904Y-80152380D01*
X99972857Y-80152380D01*
X100068095Y-80200000D01*
X100115714Y-80247619D01*
X100163333Y-80342857D01*
X100163333Y-80485714D01*
X100115714Y-80580952D01*
X100068095Y-80628571D01*
X99972857Y-80676190D01*
X99591904Y-80676190D01*
X101068095Y-80152380D02*
X100591904Y-80152380D01*
X100544285Y-80628571D01*
X100591904Y-80580952D01*
X100687142Y-80533333D01*
X100925238Y-80533333D01*
X101020476Y-80580952D01*
X101068095Y-80628571D01*
X101115714Y-80723809D01*
X101115714Y-80961904D01*
X101068095Y-81057142D01*
X101020476Y-81104761D01*
X100925238Y-81152380D01*
X100687142Y-81152380D01*
X100591904Y-81104761D01*
X100544285Y-81057142D01*
X79843333Y-86232380D02*
X79510000Y-85756190D01*
X79271904Y-86232380D02*
X79271904Y-85232380D01*
X79652857Y-85232380D01*
X79748095Y-85280000D01*
X79795714Y-85327619D01*
X79843333Y-85422857D01*
X79843333Y-85565714D01*
X79795714Y-85660952D01*
X79748095Y-85708571D01*
X79652857Y-85756190D01*
X79271904Y-85756190D01*
X80700476Y-85232380D02*
X80510000Y-85232380D01*
X80414761Y-85280000D01*
X80367142Y-85327619D01*
X80271904Y-85470476D01*
X80224285Y-85660952D01*
X80224285Y-86041904D01*
X80271904Y-86137142D01*
X80319523Y-86184761D01*
X80414761Y-86232380D01*
X80605238Y-86232380D01*
X80700476Y-86184761D01*
X80748095Y-86137142D01*
X80795714Y-86041904D01*
X80795714Y-85803809D01*
X80748095Y-85708571D01*
X80700476Y-85660952D01*
X80605238Y-85613333D01*
X80414761Y-85613333D01*
X80319523Y-85660952D01*
X80271904Y-85708571D01*
X80224285Y-85803809D01*
X84923333Y-86232380D02*
X84590000Y-85756190D01*
X84351904Y-86232380D02*
X84351904Y-85232380D01*
X84732857Y-85232380D01*
X84828095Y-85280000D01*
X84875714Y-85327619D01*
X84923333Y-85422857D01*
X84923333Y-85565714D01*
X84875714Y-85660952D01*
X84828095Y-85708571D01*
X84732857Y-85756190D01*
X84351904Y-85756190D01*
X85256666Y-85232380D02*
X85923333Y-85232380D01*
X85494761Y-86232380D01*
X90003333Y-86232380D02*
X89670000Y-85756190D01*
X89431904Y-86232380D02*
X89431904Y-85232380D01*
X89812857Y-85232380D01*
X89908095Y-85280000D01*
X89955714Y-85327619D01*
X90003333Y-85422857D01*
X90003333Y-85565714D01*
X89955714Y-85660952D01*
X89908095Y-85708571D01*
X89812857Y-85756190D01*
X89431904Y-85756190D01*
X90574761Y-85660952D02*
X90479523Y-85613333D01*
X90431904Y-85565714D01*
X90384285Y-85470476D01*
X90384285Y-85422857D01*
X90431904Y-85327619D01*
X90479523Y-85280000D01*
X90574761Y-85232380D01*
X90765238Y-85232380D01*
X90860476Y-85280000D01*
X90908095Y-85327619D01*
X90955714Y-85422857D01*
X90955714Y-85470476D01*
X90908095Y-85565714D01*
X90860476Y-85613333D01*
X90765238Y-85660952D01*
X90574761Y-85660952D01*
X90479523Y-85708571D01*
X90431904Y-85756190D01*
X90384285Y-85851428D01*
X90384285Y-86041904D01*
X90431904Y-86137142D01*
X90479523Y-86184761D01*
X90574761Y-86232380D01*
X90765238Y-86232380D01*
X90860476Y-86184761D01*
X90908095Y-86137142D01*
X90955714Y-86041904D01*
X90955714Y-85851428D01*
X90908095Y-85756190D01*
X90860476Y-85708571D01*
X90765238Y-85660952D01*
X95083333Y-86232380D02*
X94750000Y-85756190D01*
X94511904Y-86232380D02*
X94511904Y-85232380D01*
X94892857Y-85232380D01*
X94988095Y-85280000D01*
X95035714Y-85327619D01*
X95083333Y-85422857D01*
X95083333Y-85565714D01*
X95035714Y-85660952D01*
X94988095Y-85708571D01*
X94892857Y-85756190D01*
X94511904Y-85756190D01*
X95559523Y-86232380D02*
X95750000Y-86232380D01*
X95845238Y-86184761D01*
X95892857Y-86137142D01*
X95988095Y-85994285D01*
X96035714Y-85803809D01*
X96035714Y-85422857D01*
X95988095Y-85327619D01*
X95940476Y-85280000D01*
X95845238Y-85232380D01*
X95654761Y-85232380D01*
X95559523Y-85280000D01*
X95511904Y-85327619D01*
X95464285Y-85422857D01*
X95464285Y-85660952D01*
X95511904Y-85756190D01*
X95559523Y-85803809D01*
X95654761Y-85851428D01*
X95845238Y-85851428D01*
X95940476Y-85803809D01*
X95988095Y-85756190D01*
X96035714Y-85660952D01*
X99687142Y-86232380D02*
X99353809Y-85756190D01*
X99115714Y-86232380D02*
X99115714Y-85232380D01*
X99496666Y-85232380D01*
X99591904Y-85280000D01*
X99639523Y-85327619D01*
X99687142Y-85422857D01*
X99687142Y-85565714D01*
X99639523Y-85660952D01*
X99591904Y-85708571D01*
X99496666Y-85756190D01*
X99115714Y-85756190D01*
X100639523Y-86232380D02*
X100068095Y-86232380D01*
X100353809Y-86232380D02*
X100353809Y-85232380D01*
X100258571Y-85375238D01*
X100163333Y-85470476D01*
X100068095Y-85518095D01*
X101258571Y-85232380D02*
X101353809Y-85232380D01*
X101449047Y-85280000D01*
X101496666Y-85327619D01*
X101544285Y-85422857D01*
X101591904Y-85613333D01*
X101591904Y-85851428D01*
X101544285Y-86041904D01*
X101496666Y-86137142D01*
X101449047Y-86184761D01*
X101353809Y-86232380D01*
X101258571Y-86232380D01*
X101163333Y-86184761D01*
X101115714Y-86137142D01*
X101068095Y-86041904D01*
X101020476Y-85851428D01*
X101020476Y-85613333D01*
X101068095Y-85422857D01*
X101115714Y-85327619D01*
X101163333Y-85280000D01*
X101258571Y-85232380D01*
X79367142Y-91312380D02*
X79033809Y-90836190D01*
X78795714Y-91312380D02*
X78795714Y-90312380D01*
X79176666Y-90312380D01*
X79271904Y-90360000D01*
X79319523Y-90407619D01*
X79367142Y-90502857D01*
X79367142Y-90645714D01*
X79319523Y-90740952D01*
X79271904Y-90788571D01*
X79176666Y-90836190D01*
X78795714Y-90836190D01*
X80319523Y-91312380D02*
X79748095Y-91312380D01*
X80033809Y-91312380D02*
X80033809Y-90312380D01*
X79938571Y-90455238D01*
X79843333Y-90550476D01*
X79748095Y-90598095D01*
X81271904Y-91312380D02*
X80700476Y-91312380D01*
X80986190Y-91312380D02*
X80986190Y-90312380D01*
X80890952Y-90455238D01*
X80795714Y-90550476D01*
X80700476Y-90598095D01*
X84447142Y-91312380D02*
X84113809Y-90836190D01*
X83875714Y-91312380D02*
X83875714Y-90312380D01*
X84256666Y-90312380D01*
X84351904Y-90360000D01*
X84399523Y-90407619D01*
X84447142Y-90502857D01*
X84447142Y-90645714D01*
X84399523Y-90740952D01*
X84351904Y-90788571D01*
X84256666Y-90836190D01*
X83875714Y-90836190D01*
X85399523Y-91312380D02*
X84828095Y-91312380D01*
X85113809Y-91312380D02*
X85113809Y-90312380D01*
X85018571Y-90455238D01*
X84923333Y-90550476D01*
X84828095Y-90598095D01*
X85780476Y-90407619D02*
X85828095Y-90360000D01*
X85923333Y-90312380D01*
X86161428Y-90312380D01*
X86256666Y-90360000D01*
X86304285Y-90407619D01*
X86351904Y-90502857D01*
X86351904Y-90598095D01*
X86304285Y-90740952D01*
X85732857Y-91312380D01*
X86351904Y-91312380D01*
X89527142Y-91312380D02*
X89193809Y-90836190D01*
X88955714Y-91312380D02*
X88955714Y-90312380D01*
X89336666Y-90312380D01*
X89431904Y-90360000D01*
X89479523Y-90407619D01*
X89527142Y-90502857D01*
X89527142Y-90645714D01*
X89479523Y-90740952D01*
X89431904Y-90788571D01*
X89336666Y-90836190D01*
X88955714Y-90836190D01*
X90479523Y-91312380D02*
X89908095Y-91312380D01*
X90193809Y-91312380D02*
X90193809Y-90312380D01*
X90098571Y-90455238D01*
X90003333Y-90550476D01*
X89908095Y-90598095D01*
X90812857Y-90312380D02*
X91431904Y-90312380D01*
X91098571Y-90693333D01*
X91241428Y-90693333D01*
X91336666Y-90740952D01*
X91384285Y-90788571D01*
X91431904Y-90883809D01*
X91431904Y-91121904D01*
X91384285Y-91217142D01*
X91336666Y-91264761D01*
X91241428Y-91312380D01*
X90955714Y-91312380D01*
X90860476Y-91264761D01*
X90812857Y-91217142D01*
X94607142Y-91312380D02*
X94273809Y-90836190D01*
X94035714Y-91312380D02*
X94035714Y-90312380D01*
X94416666Y-90312380D01*
X94511904Y-90360000D01*
X94559523Y-90407619D01*
X94607142Y-90502857D01*
X94607142Y-90645714D01*
X94559523Y-90740952D01*
X94511904Y-90788571D01*
X94416666Y-90836190D01*
X94035714Y-90836190D01*
X95559523Y-91312380D02*
X94988095Y-91312380D01*
X95273809Y-91312380D02*
X95273809Y-90312380D01*
X95178571Y-90455238D01*
X95083333Y-90550476D01*
X94988095Y-90598095D01*
X96416666Y-90645714D02*
X96416666Y-91312380D01*
X96178571Y-90264761D02*
X95940476Y-90979047D01*
X96559523Y-90979047D01*
X99687142Y-91312380D02*
X99353809Y-90836190D01*
X99115714Y-91312380D02*
X99115714Y-90312380D01*
X99496666Y-90312380D01*
X99591904Y-90360000D01*
X99639523Y-90407619D01*
X99687142Y-90502857D01*
X99687142Y-90645714D01*
X99639523Y-90740952D01*
X99591904Y-90788571D01*
X99496666Y-90836190D01*
X99115714Y-90836190D01*
X100639523Y-91312380D02*
X100068095Y-91312380D01*
X100353809Y-91312380D02*
X100353809Y-90312380D01*
X100258571Y-90455238D01*
X100163333Y-90550476D01*
X100068095Y-90598095D01*
X101544285Y-90312380D02*
X101068095Y-90312380D01*
X101020476Y-90788571D01*
X101068095Y-90740952D01*
X101163333Y-90693333D01*
X101401428Y-90693333D01*
X101496666Y-90740952D01*
X101544285Y-90788571D01*
X101591904Y-90883809D01*
X101591904Y-91121904D01*
X101544285Y-91217142D01*
X101496666Y-91264761D01*
X101401428Y-91312380D01*
X101163333Y-91312380D01*
X101068095Y-91264761D01*
X101020476Y-91217142D01*
X79367142Y-96392380D02*
X79033809Y-95916190D01*
X78795714Y-96392380D02*
X78795714Y-95392380D01*
X79176666Y-95392380D01*
X79271904Y-95440000D01*
X79319523Y-95487619D01*
X79367142Y-95582857D01*
X79367142Y-95725714D01*
X79319523Y-95820952D01*
X79271904Y-95868571D01*
X79176666Y-95916190D01*
X78795714Y-95916190D01*
X80319523Y-96392380D02*
X79748095Y-96392380D01*
X80033809Y-96392380D02*
X80033809Y-95392380D01*
X79938571Y-95535238D01*
X79843333Y-95630476D01*
X79748095Y-95678095D01*
X81176666Y-95392380D02*
X80986190Y-95392380D01*
X80890952Y-95440000D01*
X80843333Y-95487619D01*
X80748095Y-95630476D01*
X80700476Y-95820952D01*
X80700476Y-96201904D01*
X80748095Y-96297142D01*
X80795714Y-96344761D01*
X80890952Y-96392380D01*
X81081428Y-96392380D01*
X81176666Y-96344761D01*
X81224285Y-96297142D01*
X81271904Y-96201904D01*
X81271904Y-95963809D01*
X81224285Y-95868571D01*
X81176666Y-95820952D01*
X81081428Y-95773333D01*
X80890952Y-95773333D01*
X80795714Y-95820952D01*
X80748095Y-95868571D01*
X80700476Y-95963809D01*
X84447142Y-96392380D02*
X84113809Y-95916190D01*
X83875714Y-96392380D02*
X83875714Y-95392380D01*
X84256666Y-95392380D01*
X84351904Y-95440000D01*
X84399523Y-95487619D01*
X84447142Y-95582857D01*
X84447142Y-95725714D01*
X84399523Y-95820952D01*
X84351904Y-95868571D01*
X84256666Y-95916190D01*
X83875714Y-95916190D01*
X85399523Y-96392380D02*
X84828095Y-96392380D01*
X85113809Y-96392380D02*
X85113809Y-95392380D01*
X85018571Y-95535238D01*
X84923333Y-95630476D01*
X84828095Y-95678095D01*
X85732857Y-95392380D02*
X86399523Y-95392380D01*
X85970952Y-96392380D01*
X89527142Y-96392380D02*
X89193809Y-95916190D01*
X88955714Y-96392380D02*
X88955714Y-95392380D01*
X89336666Y-95392380D01*
X89431904Y-95440000D01*
X89479523Y-95487619D01*
X89527142Y-95582857D01*
X89527142Y-95725714D01*
X89479523Y-95820952D01*
X89431904Y-95868571D01*
X89336666Y-95916190D01*
X88955714Y-95916190D01*
X90479523Y-96392380D02*
X89908095Y-96392380D01*
X90193809Y-96392380D02*
X90193809Y-95392380D01*
X90098571Y-95535238D01*
X90003333Y-95630476D01*
X89908095Y-95678095D01*
X91050952Y-95820952D02*
X90955714Y-95773333D01*
X90908095Y-95725714D01*
X90860476Y-95630476D01*
X90860476Y-95582857D01*
X90908095Y-95487619D01*
X90955714Y-95440000D01*
X91050952Y-95392380D01*
X91241428Y-95392380D01*
X91336666Y-95440000D01*
X91384285Y-95487619D01*
X91431904Y-95582857D01*
X91431904Y-95630476D01*
X91384285Y-95725714D01*
X91336666Y-95773333D01*
X91241428Y-95820952D01*
X91050952Y-95820952D01*
X90955714Y-95868571D01*
X90908095Y-95916190D01*
X90860476Y-96011428D01*
X90860476Y-96201904D01*
X90908095Y-96297142D01*
X90955714Y-96344761D01*
X91050952Y-96392380D01*
X91241428Y-96392380D01*
X91336666Y-96344761D01*
X91384285Y-96297142D01*
X91431904Y-96201904D01*
X91431904Y-96011428D01*
X91384285Y-95916190D01*
X91336666Y-95868571D01*
X91241428Y-95820952D01*
X94607142Y-96392380D02*
X94273809Y-95916190D01*
X94035714Y-96392380D02*
X94035714Y-95392380D01*
X94416666Y-95392380D01*
X94511904Y-95440000D01*
X94559523Y-95487619D01*
X94607142Y-95582857D01*
X94607142Y-95725714D01*
X94559523Y-95820952D01*
X94511904Y-95868571D01*
X94416666Y-95916190D01*
X94035714Y-95916190D01*
X95559523Y-96392380D02*
X94988095Y-96392380D01*
X95273809Y-96392380D02*
X95273809Y-95392380D01*
X95178571Y-95535238D01*
X95083333Y-95630476D01*
X94988095Y-95678095D01*
X96035714Y-96392380D02*
X96226190Y-96392380D01*
X96321428Y-96344761D01*
X96369047Y-96297142D01*
X96464285Y-96154285D01*
X96511904Y-95963809D01*
X96511904Y-95582857D01*
X96464285Y-95487619D01*
X96416666Y-95440000D01*
X96321428Y-95392380D01*
X96130952Y-95392380D01*
X96035714Y-95440000D01*
X95988095Y-95487619D01*
X95940476Y-95582857D01*
X95940476Y-95820952D01*
X95988095Y-95916190D01*
X96035714Y-95963809D01*
X96130952Y-96011428D01*
X96321428Y-96011428D01*
X96416666Y-95963809D01*
X96464285Y-95916190D01*
X96511904Y-95820952D01*
X99687142Y-96392380D02*
X99353809Y-95916190D01*
X99115714Y-96392380D02*
X99115714Y-95392380D01*
X99496666Y-95392380D01*
X99591904Y-95440000D01*
X99639523Y-95487619D01*
X99687142Y-95582857D01*
X99687142Y-95725714D01*
X99639523Y-95820952D01*
X99591904Y-95868571D01*
X99496666Y-95916190D01*
X99115714Y-95916190D01*
X100068095Y-95487619D02*
X100115714Y-95440000D01*
X100210952Y-95392380D01*
X100449047Y-95392380D01*
X100544285Y-95440000D01*
X100591904Y-95487619D01*
X100639523Y-95582857D01*
X100639523Y-95678095D01*
X100591904Y-95820952D01*
X100020476Y-96392380D01*
X100639523Y-96392380D01*
X101258571Y-95392380D02*
X101353809Y-95392380D01*
X101449047Y-95440000D01*
X101496666Y-95487619D01*
X101544285Y-95582857D01*
X101591904Y-95773333D01*
X101591904Y-96011428D01*
X101544285Y-96201904D01*
X101496666Y-96297142D01*
X101449047Y-96344761D01*
X101353809Y-96392380D01*
X101258571Y-96392380D01*
X101163333Y-96344761D01*
X101115714Y-96297142D01*
X101068095Y-96201904D01*
X101020476Y-96011428D01*
X101020476Y-95773333D01*
X101068095Y-95582857D01*
X101115714Y-95487619D01*
X101163333Y-95440000D01*
X101258571Y-95392380D01*
X79367142Y-101472380D02*
X79033809Y-100996190D01*
X78795714Y-101472380D02*
X78795714Y-100472380D01*
X79176666Y-100472380D01*
X79271904Y-100520000D01*
X79319523Y-100567619D01*
X79367142Y-100662857D01*
X79367142Y-100805714D01*
X79319523Y-100900952D01*
X79271904Y-100948571D01*
X79176666Y-100996190D01*
X78795714Y-100996190D01*
X79748095Y-100567619D02*
X79795714Y-100520000D01*
X79890952Y-100472380D01*
X80129047Y-100472380D01*
X80224285Y-100520000D01*
X80271904Y-100567619D01*
X80319523Y-100662857D01*
X80319523Y-100758095D01*
X80271904Y-100900952D01*
X79700476Y-101472380D01*
X80319523Y-101472380D01*
X81271904Y-101472380D02*
X80700476Y-101472380D01*
X80986190Y-101472380D02*
X80986190Y-100472380D01*
X80890952Y-100615238D01*
X80795714Y-100710476D01*
X80700476Y-100758095D01*
X84447142Y-101472380D02*
X84113809Y-100996190D01*
X83875714Y-101472380D02*
X83875714Y-100472380D01*
X84256666Y-100472380D01*
X84351904Y-100520000D01*
X84399523Y-100567619D01*
X84447142Y-100662857D01*
X84447142Y-100805714D01*
X84399523Y-100900952D01*
X84351904Y-100948571D01*
X84256666Y-100996190D01*
X83875714Y-100996190D01*
X84828095Y-100567619D02*
X84875714Y-100520000D01*
X84970952Y-100472380D01*
X85209047Y-100472380D01*
X85304285Y-100520000D01*
X85351904Y-100567619D01*
X85399523Y-100662857D01*
X85399523Y-100758095D01*
X85351904Y-100900952D01*
X84780476Y-101472380D01*
X85399523Y-101472380D01*
X85780476Y-100567619D02*
X85828095Y-100520000D01*
X85923333Y-100472380D01*
X86161428Y-100472380D01*
X86256666Y-100520000D01*
X86304285Y-100567619D01*
X86351904Y-100662857D01*
X86351904Y-100758095D01*
X86304285Y-100900952D01*
X85732857Y-101472380D01*
X86351904Y-101472380D01*
X89527142Y-100837380D02*
X89193809Y-100361190D01*
X88955714Y-100837380D02*
X88955714Y-99837380D01*
X89336666Y-99837380D01*
X89431904Y-99885000D01*
X89479523Y-99932619D01*
X89527142Y-100027857D01*
X89527142Y-100170714D01*
X89479523Y-100265952D01*
X89431904Y-100313571D01*
X89336666Y-100361190D01*
X88955714Y-100361190D01*
X89908095Y-99932619D02*
X89955714Y-99885000D01*
X90050952Y-99837380D01*
X90289047Y-99837380D01*
X90384285Y-99885000D01*
X90431904Y-99932619D01*
X90479523Y-100027857D01*
X90479523Y-100123095D01*
X90431904Y-100265952D01*
X89860476Y-100837380D01*
X90479523Y-100837380D01*
X90812857Y-99837380D02*
X91431904Y-99837380D01*
X91098571Y-100218333D01*
X91241428Y-100218333D01*
X91336666Y-100265952D01*
X91384285Y-100313571D01*
X91431904Y-100408809D01*
X91431904Y-100646904D01*
X91384285Y-100742142D01*
X91336666Y-100789761D01*
X91241428Y-100837380D01*
X90955714Y-100837380D01*
X90860476Y-100789761D01*
X90812857Y-100742142D01*
X94607142Y-101472380D02*
X94273809Y-100996190D01*
X94035714Y-101472380D02*
X94035714Y-100472380D01*
X94416666Y-100472380D01*
X94511904Y-100520000D01*
X94559523Y-100567619D01*
X94607142Y-100662857D01*
X94607142Y-100805714D01*
X94559523Y-100900952D01*
X94511904Y-100948571D01*
X94416666Y-100996190D01*
X94035714Y-100996190D01*
X94988095Y-100567619D02*
X95035714Y-100520000D01*
X95130952Y-100472380D01*
X95369047Y-100472380D01*
X95464285Y-100520000D01*
X95511904Y-100567619D01*
X95559523Y-100662857D01*
X95559523Y-100758095D01*
X95511904Y-100900952D01*
X94940476Y-101472380D01*
X95559523Y-101472380D01*
X96416666Y-100805714D02*
X96416666Y-101472380D01*
X96178571Y-100424761D02*
X95940476Y-101139047D01*
X96559523Y-101139047D01*
X99687142Y-101472380D02*
X99353809Y-100996190D01*
X99115714Y-101472380D02*
X99115714Y-100472380D01*
X99496666Y-100472380D01*
X99591904Y-100520000D01*
X99639523Y-100567619D01*
X99687142Y-100662857D01*
X99687142Y-100805714D01*
X99639523Y-100900952D01*
X99591904Y-100948571D01*
X99496666Y-100996190D01*
X99115714Y-100996190D01*
X100068095Y-100567619D02*
X100115714Y-100520000D01*
X100210952Y-100472380D01*
X100449047Y-100472380D01*
X100544285Y-100520000D01*
X100591904Y-100567619D01*
X100639523Y-100662857D01*
X100639523Y-100758095D01*
X100591904Y-100900952D01*
X100020476Y-101472380D01*
X100639523Y-101472380D01*
X101544285Y-100472380D02*
X101068095Y-100472380D01*
X101020476Y-100948571D01*
X101068095Y-100900952D01*
X101163333Y-100853333D01*
X101401428Y-100853333D01*
X101496666Y-100900952D01*
X101544285Y-100948571D01*
X101591904Y-101043809D01*
X101591904Y-101281904D01*
X101544285Y-101377142D01*
X101496666Y-101424761D01*
X101401428Y-101472380D01*
X101163333Y-101472380D01*
X101068095Y-101424761D01*
X101020476Y-101377142D01*
M02*
