G04 #@! TF.GenerationSoftware,KiCad,Pcbnew,(5.0.0-rc2-dev-352-g017154715)*
G04 #@! TF.CreationDate,2018-10-08T23:49:12-04:00*
G04 #@! TF.ProjectId,Backlight,4261636B6C696768742E6B696361645F,rev?*
G04 #@! TF.SameCoordinates,Original*
G04 #@! TF.FileFunction,Copper,L1,Top,Signal*
G04 #@! TF.FilePolarity,Positive*
%FSLAX46Y46*%
G04 Gerber Fmt 4.6, Leading zero omitted, Abs format (unit mm)*
G04 Created by KiCad (PCBNEW (5.0.0-rc2-dev-352-g017154715)) date 10/08/18 23:49:12*
%MOMM*%
%LPD*%
G01*
G04 APERTURE LIST*
%ADD10R,1.200000X1.200000*%
%ADD11R,1.700000X1.700000*%
%ADD12O,1.700000X1.700000*%
%ADD13R,0.970000X1.500000*%
%ADD14C,0.800000*%
%ADD15C,0.250000*%
%ADD16C,0.254000*%
G04 APERTURE END LIST*
D10*
X81110000Y-80010000D03*
X78910000Y-80010000D03*
X86190000Y-80010000D03*
X83990000Y-80010000D03*
X91270000Y-80010000D03*
X89070000Y-80010000D03*
X94150000Y-80010000D03*
X96350000Y-80010000D03*
X99230000Y-80010000D03*
X101430000Y-80010000D03*
X81110000Y-85090000D03*
X78910000Y-85090000D03*
X86190000Y-85090000D03*
X83990000Y-85090000D03*
X89070000Y-85090000D03*
X91270000Y-85090000D03*
X94150000Y-85090000D03*
X96350000Y-85090000D03*
X101430000Y-85090000D03*
X99230000Y-85090000D03*
X81110000Y-90170000D03*
X78910000Y-90170000D03*
X86190000Y-90170000D03*
X83990000Y-90170000D03*
X89070000Y-90170000D03*
X91270000Y-90170000D03*
X96350000Y-90170000D03*
X94150000Y-90170000D03*
X101430000Y-90170000D03*
X99230000Y-90170000D03*
X78910000Y-95250000D03*
X81110000Y-95250000D03*
X86190000Y-95250000D03*
X83990000Y-95250000D03*
X89070000Y-95250000D03*
X91270000Y-95250000D03*
X94150000Y-95250000D03*
X96350000Y-95250000D03*
X99230000Y-95250000D03*
X101430000Y-95250000D03*
X78910000Y-100330000D03*
X81110000Y-100330000D03*
X83990000Y-100330000D03*
X86190000Y-100330000D03*
X89070000Y-100330000D03*
X91270000Y-100330000D03*
X94150000Y-100330000D03*
X96350000Y-100330000D03*
X101430000Y-100330000D03*
X99230000Y-100330000D03*
D11*
X88900000Y-77470000D03*
D12*
X91440000Y-77470000D03*
X91472000Y-105410000D03*
D11*
X88932000Y-105410000D03*
D13*
X79055000Y-82550000D03*
X80965000Y-82550000D03*
X84135000Y-82550000D03*
X86045000Y-82550000D03*
X89215000Y-82550000D03*
X91125000Y-82550000D03*
X96205000Y-82550000D03*
X94295000Y-82550000D03*
X99375000Y-82550000D03*
X101285000Y-82550000D03*
X80965000Y-87630000D03*
X79055000Y-87630000D03*
X86045000Y-87630000D03*
X84135000Y-87630000D03*
X89215000Y-87630000D03*
X91125000Y-87630000D03*
X94295000Y-87630000D03*
X96205000Y-87630000D03*
X101285000Y-87630000D03*
X99375000Y-87630000D03*
X80965000Y-92710000D03*
X79055000Y-92710000D03*
X84135000Y-92710000D03*
X86045000Y-92710000D03*
X91125000Y-92710000D03*
X89215000Y-92710000D03*
X94295000Y-92710000D03*
X96205000Y-92710000D03*
X101285000Y-92710000D03*
X99375000Y-92710000D03*
X79055000Y-97790000D03*
X80965000Y-97790000D03*
X84135000Y-97790000D03*
X86045000Y-97790000D03*
X91125000Y-97790000D03*
X89215000Y-97790000D03*
X96205000Y-97790000D03*
X94295000Y-97790000D03*
X99375000Y-97790000D03*
X101285000Y-97790000D03*
X79055000Y-102870000D03*
X80965000Y-102870000D03*
X86045000Y-102870000D03*
X84135000Y-102870000D03*
X91125000Y-102235000D03*
X89215000Y-102235000D03*
X94295000Y-102870000D03*
X96205000Y-102870000D03*
X101285000Y-102870000D03*
X99375000Y-102870000D03*
D14*
X100330000Y-102870000D03*
X95250000Y-102870000D03*
X90170000Y-102235000D03*
X85090000Y-102870000D03*
X80010000Y-102870000D03*
X80010000Y-97790000D03*
X85090000Y-97790000D03*
X90170000Y-97790000D03*
X95250000Y-97790000D03*
X100330000Y-97790000D03*
X100330000Y-92710000D03*
X95250000Y-92710000D03*
X90170000Y-92710000D03*
X85090000Y-92710000D03*
X80010000Y-92710000D03*
X80010000Y-87630000D03*
X85090000Y-87630000D03*
X90170000Y-87630000D03*
X95250000Y-87630000D03*
X100330000Y-87630000D03*
X100330000Y-82550000D03*
X95250000Y-82550000D03*
X90170000Y-82550000D03*
X85090000Y-82550000D03*
X80010000Y-82550000D03*
D15*
X101280000Y-102870000D02*
X100330000Y-102870000D01*
X96200000Y-102870000D02*
X95250000Y-102870000D01*
X91120000Y-102235000D02*
X90170000Y-102235000D01*
X86040000Y-102870000D02*
X85090000Y-102870000D01*
X80960000Y-102870000D02*
X80010000Y-102870000D01*
X80960000Y-97790000D02*
X80010000Y-97790000D01*
X86040000Y-97790000D02*
X85090000Y-97790000D01*
X91120000Y-97790000D02*
X90170000Y-97790000D01*
X96200000Y-97790000D02*
X95250000Y-97790000D01*
X101280000Y-97790000D02*
X100330000Y-97790000D01*
X101280000Y-92710000D02*
X100330000Y-92710000D01*
X96200000Y-92710000D02*
X95250000Y-92710000D01*
X91120000Y-92710000D02*
X90170000Y-92710000D01*
X86040000Y-92710000D02*
X85090000Y-92710000D01*
X80960000Y-92710000D02*
X80010000Y-92710000D01*
X80960000Y-87630000D02*
X80010000Y-87630000D01*
X86040000Y-87630000D02*
X85090000Y-87630000D01*
X91120000Y-87630000D02*
X90170000Y-87630000D01*
X96200000Y-87630000D02*
X95250000Y-87630000D01*
X101280000Y-87630000D02*
X100330000Y-87630000D01*
X101280000Y-82550000D02*
X100330000Y-82550000D01*
X96200000Y-82550000D02*
X95250000Y-82550000D01*
X91120000Y-82550000D02*
X90170000Y-82550000D01*
X86040000Y-82550000D02*
X85090000Y-82550000D01*
X80960000Y-82550000D02*
X80010000Y-82550000D01*
X78910000Y-80010000D02*
X78910000Y-82400000D01*
X78910000Y-82400000D02*
X79060000Y-82550000D01*
X83990000Y-80010000D02*
X83990000Y-82400000D01*
X83990000Y-82400000D02*
X84140000Y-82550000D01*
X89070000Y-80010000D02*
X89070000Y-82400000D01*
X89070000Y-82400000D02*
X89220000Y-82550000D01*
X94150000Y-80010000D02*
X94150000Y-82400000D01*
X94150000Y-82400000D02*
X94300000Y-82550000D01*
X99230000Y-80010000D02*
X99230000Y-82400000D01*
X99230000Y-82400000D02*
X99380000Y-82550000D01*
X78910000Y-85090000D02*
X78910000Y-87480000D01*
X78910000Y-87480000D02*
X79060000Y-87630000D01*
X83990000Y-85090000D02*
X83990000Y-87480000D01*
X83990000Y-87480000D02*
X84140000Y-87630000D01*
X89070000Y-85090000D02*
X89070000Y-87480000D01*
X89070000Y-87480000D02*
X89220000Y-87630000D01*
X94150000Y-85090000D02*
X94150000Y-87480000D01*
X94150000Y-87480000D02*
X94300000Y-87630000D01*
X99230000Y-85090000D02*
X99230000Y-87480000D01*
X99230000Y-87480000D02*
X99380000Y-87630000D01*
X78910000Y-90170000D02*
X78910000Y-92560000D01*
X78910000Y-92560000D02*
X79060000Y-92710000D01*
X83990000Y-90170000D02*
X83990000Y-92560000D01*
X83990000Y-92560000D02*
X84140000Y-92710000D01*
X89070000Y-90170000D02*
X89070000Y-92560000D01*
X89070000Y-92560000D02*
X89220000Y-92710000D01*
X94150000Y-90170000D02*
X94150000Y-92560000D01*
X94150000Y-92560000D02*
X94300000Y-92710000D01*
X99230000Y-90170000D02*
X99230000Y-92560000D01*
X99230000Y-92560000D02*
X99380000Y-92710000D01*
X78910000Y-95250000D02*
X78910000Y-97640000D01*
X78910000Y-97640000D02*
X79060000Y-97790000D01*
X83990000Y-95250000D02*
X83990000Y-97640000D01*
X83990000Y-97640000D02*
X84140000Y-97790000D01*
X89070000Y-95250000D02*
X89070000Y-97640000D01*
X89070000Y-97640000D02*
X89220000Y-97790000D01*
X94150000Y-95250000D02*
X94150000Y-97640000D01*
X94150000Y-97640000D02*
X94300000Y-97790000D01*
X99230000Y-95250000D02*
X99230000Y-97640000D01*
X99230000Y-97640000D02*
X99380000Y-97790000D01*
X78910000Y-100330000D02*
X78910000Y-102720000D01*
X78910000Y-102720000D02*
X79060000Y-102870000D01*
X83990000Y-100330000D02*
X83990000Y-102720000D01*
X83990000Y-102720000D02*
X84140000Y-102870000D01*
X89070000Y-100330000D02*
X89070000Y-102720000D01*
X89070000Y-102720000D02*
X89220000Y-102870000D01*
X94150000Y-100330000D02*
X94150000Y-102720000D01*
X94150000Y-102720000D02*
X94300000Y-102870000D01*
X99230000Y-100330000D02*
X99230000Y-102720000D01*
X99230000Y-102720000D02*
X99380000Y-102870000D01*
D16*
G36*
X87415000Y-77184250D02*
X87573750Y-77343000D01*
X88773000Y-77343000D01*
X88773000Y-77323000D01*
X89027000Y-77323000D01*
X89027000Y-77343000D01*
X89047000Y-77343000D01*
X89047000Y-77597000D01*
X89027000Y-77597000D01*
X89027000Y-77617000D01*
X88773000Y-77617000D01*
X88773000Y-77597000D01*
X87573750Y-77597000D01*
X87415000Y-77755750D01*
X87415000Y-78446309D01*
X87511673Y-78679698D01*
X87690301Y-78858327D01*
X87923690Y-78955000D01*
X88010314Y-78955000D01*
X87871843Y-79162235D01*
X87822560Y-79410000D01*
X87822560Y-80610000D01*
X87871843Y-80857765D01*
X88012191Y-81067809D01*
X88222235Y-81208157D01*
X88310001Y-81225614D01*
X88310001Y-81316927D01*
X88272191Y-81342191D01*
X88131843Y-81552235D01*
X88082560Y-81800000D01*
X88082560Y-83300000D01*
X88131843Y-83547765D01*
X88272191Y-83757809D01*
X88415310Y-83853438D01*
X88222235Y-83891843D01*
X88012191Y-84032191D01*
X87871843Y-84242235D01*
X87822560Y-84490000D01*
X87822560Y-85690000D01*
X87871843Y-85937765D01*
X88012191Y-86147809D01*
X88222235Y-86288157D01*
X88310001Y-86305614D01*
X88310001Y-86396927D01*
X88272191Y-86422191D01*
X88131843Y-86632235D01*
X88082560Y-86880000D01*
X88082560Y-88380000D01*
X88131843Y-88627765D01*
X88272191Y-88837809D01*
X88415310Y-88933438D01*
X88222235Y-88971843D01*
X88012191Y-89112191D01*
X87871843Y-89322235D01*
X87822560Y-89570000D01*
X87822560Y-90770000D01*
X87871843Y-91017765D01*
X88012191Y-91227809D01*
X88222235Y-91368157D01*
X88310001Y-91385614D01*
X88310001Y-91476927D01*
X88272191Y-91502191D01*
X88131843Y-91712235D01*
X88082560Y-91960000D01*
X88082560Y-93460000D01*
X88131843Y-93707765D01*
X88272191Y-93917809D01*
X88415310Y-94013438D01*
X88222235Y-94051843D01*
X88012191Y-94192191D01*
X87871843Y-94402235D01*
X87822560Y-94650000D01*
X87822560Y-95850000D01*
X87871843Y-96097765D01*
X88012191Y-96307809D01*
X88222235Y-96448157D01*
X88310001Y-96465614D01*
X88310001Y-96556927D01*
X88272191Y-96582191D01*
X88131843Y-96792235D01*
X88082560Y-97040000D01*
X88082560Y-98540000D01*
X88131843Y-98787765D01*
X88272191Y-98997809D01*
X88415310Y-99093438D01*
X88222235Y-99131843D01*
X88012191Y-99272191D01*
X87871843Y-99482235D01*
X87822560Y-99730000D01*
X87822560Y-100930000D01*
X87871843Y-101177765D01*
X88012191Y-101387809D01*
X88091369Y-101440714D01*
X88082560Y-101485000D01*
X88082560Y-102985000D01*
X88131843Y-103232765D01*
X88272191Y-103442809D01*
X88482235Y-103583157D01*
X88730000Y-103632440D01*
X89157419Y-103632440D01*
X89219999Y-103644888D01*
X89282579Y-103632440D01*
X89700000Y-103632440D01*
X89947765Y-103583157D01*
X90157809Y-103442809D01*
X90170000Y-103424564D01*
X90182191Y-103442809D01*
X90392235Y-103583157D01*
X90640000Y-103632440D01*
X91610000Y-103632440D01*
X91857765Y-103583157D01*
X92067809Y-103442809D01*
X92208157Y-103232765D01*
X92257440Y-102985000D01*
X92257440Y-101485000D01*
X92250071Y-101447954D01*
X92408327Y-101289699D01*
X92505000Y-101056310D01*
X92505000Y-100615750D01*
X92346250Y-100457000D01*
X91397000Y-100457000D01*
X91397000Y-100477000D01*
X91143000Y-100477000D01*
X91143000Y-100457000D01*
X91123000Y-100457000D01*
X91123000Y-100203000D01*
X91143000Y-100203000D01*
X91143000Y-100183000D01*
X91397000Y-100183000D01*
X91397000Y-100203000D01*
X92346250Y-100203000D01*
X92505000Y-100044250D01*
X92505000Y-99603690D01*
X92408327Y-99370301D01*
X92229698Y-99191673D01*
X91996309Y-99095000D01*
X91922354Y-99095000D01*
X92067809Y-98997809D01*
X92208157Y-98787765D01*
X92257440Y-98540000D01*
X92257440Y-97040000D01*
X92208157Y-96792235D01*
X92067809Y-96582191D01*
X91922354Y-96485000D01*
X91996309Y-96485000D01*
X92229698Y-96388327D01*
X92408327Y-96209699D01*
X92505000Y-95976310D01*
X92505000Y-95535750D01*
X92346250Y-95377000D01*
X91397000Y-95377000D01*
X91397000Y-95397000D01*
X91143000Y-95397000D01*
X91143000Y-95377000D01*
X91123000Y-95377000D01*
X91123000Y-95123000D01*
X91143000Y-95123000D01*
X91143000Y-95103000D01*
X91397000Y-95103000D01*
X91397000Y-95123000D01*
X92346250Y-95123000D01*
X92505000Y-94964250D01*
X92505000Y-94523690D01*
X92408327Y-94290301D01*
X92229698Y-94111673D01*
X91996309Y-94015000D01*
X91922354Y-94015000D01*
X92067809Y-93917809D01*
X92208157Y-93707765D01*
X92257440Y-93460000D01*
X92257440Y-91960000D01*
X92208157Y-91712235D01*
X92067809Y-91502191D01*
X91922354Y-91405000D01*
X91996309Y-91405000D01*
X92229698Y-91308327D01*
X92408327Y-91129699D01*
X92505000Y-90896310D01*
X92505000Y-90455750D01*
X92346250Y-90297000D01*
X91397000Y-90297000D01*
X91397000Y-90317000D01*
X91143000Y-90317000D01*
X91143000Y-90297000D01*
X91123000Y-90297000D01*
X91123000Y-90043000D01*
X91143000Y-90043000D01*
X91143000Y-90023000D01*
X91397000Y-90023000D01*
X91397000Y-90043000D01*
X92346250Y-90043000D01*
X92505000Y-89884250D01*
X92505000Y-89443690D01*
X92408327Y-89210301D01*
X92229698Y-89031673D01*
X91996309Y-88935000D01*
X91922354Y-88935000D01*
X92067809Y-88837809D01*
X92208157Y-88627765D01*
X92257440Y-88380000D01*
X92257440Y-86880000D01*
X92208157Y-86632235D01*
X92067809Y-86422191D01*
X91922354Y-86325000D01*
X91996309Y-86325000D01*
X92229698Y-86228327D01*
X92408327Y-86049699D01*
X92505000Y-85816310D01*
X92505000Y-85375750D01*
X92346250Y-85217000D01*
X91397000Y-85217000D01*
X91397000Y-85237000D01*
X91143000Y-85237000D01*
X91143000Y-85217000D01*
X91123000Y-85217000D01*
X91123000Y-84963000D01*
X91143000Y-84963000D01*
X91143000Y-84943000D01*
X91397000Y-84943000D01*
X91397000Y-84963000D01*
X92346250Y-84963000D01*
X92505000Y-84804250D01*
X92505000Y-84363690D01*
X92408327Y-84130301D01*
X92229698Y-83951673D01*
X91996309Y-83855000D01*
X91922354Y-83855000D01*
X92067809Y-83757809D01*
X92208157Y-83547765D01*
X92257440Y-83300000D01*
X92257440Y-81800000D01*
X92208157Y-81552235D01*
X92067809Y-81342191D01*
X91922354Y-81245000D01*
X91996309Y-81245000D01*
X92229698Y-81148327D01*
X92408327Y-80969699D01*
X92505000Y-80736310D01*
X92505000Y-80295750D01*
X92346250Y-80137000D01*
X91397000Y-80137000D01*
X91397000Y-80157000D01*
X91143000Y-80157000D01*
X91143000Y-80137000D01*
X91123000Y-80137000D01*
X91123000Y-79883000D01*
X91143000Y-79883000D01*
X91143000Y-79863000D01*
X91397000Y-79863000D01*
X91397000Y-79883000D01*
X92346250Y-79883000D01*
X92505000Y-79724250D01*
X92505000Y-79410000D01*
X92902560Y-79410000D01*
X92902560Y-80610000D01*
X92951843Y-80857765D01*
X93092191Y-81067809D01*
X93302235Y-81208157D01*
X93390001Y-81225614D01*
X93390001Y-81316927D01*
X93352191Y-81342191D01*
X93211843Y-81552235D01*
X93162560Y-81800000D01*
X93162560Y-83300000D01*
X93211843Y-83547765D01*
X93352191Y-83757809D01*
X93495310Y-83853438D01*
X93302235Y-83891843D01*
X93092191Y-84032191D01*
X92951843Y-84242235D01*
X92902560Y-84490000D01*
X92902560Y-85690000D01*
X92951843Y-85937765D01*
X93092191Y-86147809D01*
X93302235Y-86288157D01*
X93390001Y-86305614D01*
X93390001Y-86396927D01*
X93352191Y-86422191D01*
X93211843Y-86632235D01*
X93162560Y-86880000D01*
X93162560Y-88380000D01*
X93211843Y-88627765D01*
X93352191Y-88837809D01*
X93495310Y-88933438D01*
X93302235Y-88971843D01*
X93092191Y-89112191D01*
X92951843Y-89322235D01*
X92902560Y-89570000D01*
X92902560Y-90770000D01*
X92951843Y-91017765D01*
X93092191Y-91227809D01*
X93302235Y-91368157D01*
X93390001Y-91385614D01*
X93390001Y-91476927D01*
X93352191Y-91502191D01*
X93211843Y-91712235D01*
X93162560Y-91960000D01*
X93162560Y-93460000D01*
X93211843Y-93707765D01*
X93352191Y-93917809D01*
X93495310Y-94013438D01*
X93302235Y-94051843D01*
X93092191Y-94192191D01*
X92951843Y-94402235D01*
X92902560Y-94650000D01*
X92902560Y-95850000D01*
X92951843Y-96097765D01*
X93092191Y-96307809D01*
X93302235Y-96448157D01*
X93390001Y-96465614D01*
X93390001Y-96556927D01*
X93352191Y-96582191D01*
X93211843Y-96792235D01*
X93162560Y-97040000D01*
X93162560Y-98540000D01*
X93211843Y-98787765D01*
X93352191Y-98997809D01*
X93495310Y-99093438D01*
X93302235Y-99131843D01*
X93092191Y-99272191D01*
X92951843Y-99482235D01*
X92902560Y-99730000D01*
X92902560Y-100930000D01*
X92951843Y-101177765D01*
X93092191Y-101387809D01*
X93302235Y-101528157D01*
X93390001Y-101545614D01*
X93390001Y-101636927D01*
X93352191Y-101662191D01*
X93211843Y-101872235D01*
X93162560Y-102120000D01*
X93162560Y-103620000D01*
X93211843Y-103867765D01*
X93352191Y-104077809D01*
X93562235Y-104218157D01*
X93810000Y-104267440D01*
X94780000Y-104267440D01*
X95027765Y-104218157D01*
X95237809Y-104077809D01*
X95250000Y-104059564D01*
X95262191Y-104077809D01*
X95472235Y-104218157D01*
X95720000Y-104267440D01*
X96690000Y-104267440D01*
X96937765Y-104218157D01*
X97147809Y-104077809D01*
X97288157Y-103867765D01*
X97337440Y-103620000D01*
X97337440Y-102120000D01*
X97288157Y-101872235D01*
X97147809Y-101662191D01*
X97002354Y-101565000D01*
X97076309Y-101565000D01*
X97309698Y-101468327D01*
X97488327Y-101289699D01*
X97585000Y-101056310D01*
X97585000Y-100615750D01*
X97426250Y-100457000D01*
X96477000Y-100457000D01*
X96477000Y-100477000D01*
X96223000Y-100477000D01*
X96223000Y-100457000D01*
X96203000Y-100457000D01*
X96203000Y-100203000D01*
X96223000Y-100203000D01*
X96223000Y-100183000D01*
X96477000Y-100183000D01*
X96477000Y-100203000D01*
X97426250Y-100203000D01*
X97585000Y-100044250D01*
X97585000Y-99603690D01*
X97488327Y-99370301D01*
X97309698Y-99191673D01*
X97076309Y-99095000D01*
X97002354Y-99095000D01*
X97147809Y-98997809D01*
X97288157Y-98787765D01*
X97337440Y-98540000D01*
X97337440Y-97040000D01*
X97288157Y-96792235D01*
X97147809Y-96582191D01*
X97002354Y-96485000D01*
X97076309Y-96485000D01*
X97309698Y-96388327D01*
X97488327Y-96209699D01*
X97585000Y-95976310D01*
X97585000Y-95535750D01*
X97426250Y-95377000D01*
X96477000Y-95377000D01*
X96477000Y-95397000D01*
X96223000Y-95397000D01*
X96223000Y-95377000D01*
X96203000Y-95377000D01*
X96203000Y-95123000D01*
X96223000Y-95123000D01*
X96223000Y-95103000D01*
X96477000Y-95103000D01*
X96477000Y-95123000D01*
X97426250Y-95123000D01*
X97585000Y-94964250D01*
X97585000Y-94523690D01*
X97488327Y-94290301D01*
X97309698Y-94111673D01*
X97076309Y-94015000D01*
X97002354Y-94015000D01*
X97147809Y-93917809D01*
X97288157Y-93707765D01*
X97337440Y-93460000D01*
X97337440Y-91960000D01*
X97288157Y-91712235D01*
X97147809Y-91502191D01*
X97002354Y-91405000D01*
X97076309Y-91405000D01*
X97309698Y-91308327D01*
X97488327Y-91129699D01*
X97585000Y-90896310D01*
X97585000Y-90455750D01*
X97426250Y-90297000D01*
X96477000Y-90297000D01*
X96477000Y-90317000D01*
X96223000Y-90317000D01*
X96223000Y-90297000D01*
X96203000Y-90297000D01*
X96203000Y-90043000D01*
X96223000Y-90043000D01*
X96223000Y-90023000D01*
X96477000Y-90023000D01*
X96477000Y-90043000D01*
X97426250Y-90043000D01*
X97585000Y-89884250D01*
X97585000Y-89443690D01*
X97488327Y-89210301D01*
X97309698Y-89031673D01*
X97076309Y-88935000D01*
X97002354Y-88935000D01*
X97147809Y-88837809D01*
X97288157Y-88627765D01*
X97337440Y-88380000D01*
X97337440Y-86880000D01*
X97288157Y-86632235D01*
X97147809Y-86422191D01*
X97002354Y-86325000D01*
X97076309Y-86325000D01*
X97309698Y-86228327D01*
X97488327Y-86049699D01*
X97585000Y-85816310D01*
X97585000Y-85375750D01*
X97426250Y-85217000D01*
X96477000Y-85217000D01*
X96477000Y-85237000D01*
X96223000Y-85237000D01*
X96223000Y-85217000D01*
X96203000Y-85217000D01*
X96203000Y-84963000D01*
X96223000Y-84963000D01*
X96223000Y-84943000D01*
X96477000Y-84943000D01*
X96477000Y-84963000D01*
X97426250Y-84963000D01*
X97585000Y-84804250D01*
X97585000Y-84363690D01*
X97488327Y-84130301D01*
X97309698Y-83951673D01*
X97076309Y-83855000D01*
X97002354Y-83855000D01*
X97147809Y-83757809D01*
X97288157Y-83547765D01*
X97337440Y-83300000D01*
X97337440Y-81800000D01*
X97288157Y-81552235D01*
X97147809Y-81342191D01*
X97002354Y-81245000D01*
X97076309Y-81245000D01*
X97309698Y-81148327D01*
X97488327Y-80969699D01*
X97585000Y-80736310D01*
X97585000Y-80295750D01*
X97426250Y-80137000D01*
X96477000Y-80137000D01*
X96477000Y-80157000D01*
X96223000Y-80157000D01*
X96223000Y-80137000D01*
X96203000Y-80137000D01*
X96203000Y-79883000D01*
X96223000Y-79883000D01*
X96223000Y-78933750D01*
X96477000Y-78933750D01*
X96477000Y-79883000D01*
X97426250Y-79883000D01*
X97585000Y-79724250D01*
X97585000Y-79410000D01*
X97982560Y-79410000D01*
X97982560Y-80610000D01*
X98031843Y-80857765D01*
X98172191Y-81067809D01*
X98382235Y-81208157D01*
X98470001Y-81225614D01*
X98470001Y-81316927D01*
X98432191Y-81342191D01*
X98291843Y-81552235D01*
X98242560Y-81800000D01*
X98242560Y-83300000D01*
X98291843Y-83547765D01*
X98432191Y-83757809D01*
X98575310Y-83853438D01*
X98382235Y-83891843D01*
X98172191Y-84032191D01*
X98031843Y-84242235D01*
X97982560Y-84490000D01*
X97982560Y-85690000D01*
X98031843Y-85937765D01*
X98172191Y-86147809D01*
X98382235Y-86288157D01*
X98470001Y-86305614D01*
X98470001Y-86396927D01*
X98432191Y-86422191D01*
X98291843Y-86632235D01*
X98242560Y-86880000D01*
X98242560Y-88380000D01*
X98291843Y-88627765D01*
X98432191Y-88837809D01*
X98575310Y-88933438D01*
X98382235Y-88971843D01*
X98172191Y-89112191D01*
X98031843Y-89322235D01*
X97982560Y-89570000D01*
X97982560Y-90770000D01*
X98031843Y-91017765D01*
X98172191Y-91227809D01*
X98382235Y-91368157D01*
X98470001Y-91385614D01*
X98470001Y-91476927D01*
X98432191Y-91502191D01*
X98291843Y-91712235D01*
X98242560Y-91960000D01*
X98242560Y-93460000D01*
X98291843Y-93707765D01*
X98432191Y-93917809D01*
X98575310Y-94013438D01*
X98382235Y-94051843D01*
X98172191Y-94192191D01*
X98031843Y-94402235D01*
X97982560Y-94650000D01*
X97982560Y-95850000D01*
X98031843Y-96097765D01*
X98172191Y-96307809D01*
X98382235Y-96448157D01*
X98470001Y-96465614D01*
X98470001Y-96556927D01*
X98432191Y-96582191D01*
X98291843Y-96792235D01*
X98242560Y-97040000D01*
X98242560Y-98540000D01*
X98291843Y-98787765D01*
X98432191Y-98997809D01*
X98575310Y-99093438D01*
X98382235Y-99131843D01*
X98172191Y-99272191D01*
X98031843Y-99482235D01*
X97982560Y-99730000D01*
X97982560Y-100930000D01*
X98031843Y-101177765D01*
X98172191Y-101387809D01*
X98382235Y-101528157D01*
X98470001Y-101545614D01*
X98470001Y-101636927D01*
X98432191Y-101662191D01*
X98291843Y-101872235D01*
X98242560Y-102120000D01*
X98242560Y-103620000D01*
X98291843Y-103867765D01*
X98432191Y-104077809D01*
X98642235Y-104218157D01*
X98890000Y-104267440D01*
X99860000Y-104267440D01*
X100107765Y-104218157D01*
X100317809Y-104077809D01*
X100330000Y-104059564D01*
X100342191Y-104077809D01*
X100552235Y-104218157D01*
X100800000Y-104267440D01*
X101770000Y-104267440D01*
X102017765Y-104218157D01*
X102227809Y-104077809D01*
X102368157Y-103867765D01*
X102417440Y-103620000D01*
X102417440Y-102120000D01*
X102368157Y-101872235D01*
X102227809Y-101662191D01*
X102082354Y-101565000D01*
X102156309Y-101565000D01*
X102389698Y-101468327D01*
X102568327Y-101289699D01*
X102665000Y-101056310D01*
X102665000Y-100615750D01*
X102506250Y-100457000D01*
X101557000Y-100457000D01*
X101557000Y-100477000D01*
X101303000Y-100477000D01*
X101303000Y-100457000D01*
X101283000Y-100457000D01*
X101283000Y-100203000D01*
X101303000Y-100203000D01*
X101303000Y-100183000D01*
X101557000Y-100183000D01*
X101557000Y-100203000D01*
X102506250Y-100203000D01*
X102665000Y-100044250D01*
X102665000Y-99603690D01*
X102568327Y-99370301D01*
X102389698Y-99191673D01*
X102156309Y-99095000D01*
X102082354Y-99095000D01*
X102227809Y-98997809D01*
X102368157Y-98787765D01*
X102417440Y-98540000D01*
X102417440Y-97040000D01*
X102368157Y-96792235D01*
X102227809Y-96582191D01*
X102082354Y-96485000D01*
X102156309Y-96485000D01*
X102389698Y-96388327D01*
X102568327Y-96209699D01*
X102665000Y-95976310D01*
X102665000Y-95535750D01*
X102506250Y-95377000D01*
X101557000Y-95377000D01*
X101557000Y-95397000D01*
X101303000Y-95397000D01*
X101303000Y-95377000D01*
X101283000Y-95377000D01*
X101283000Y-95123000D01*
X101303000Y-95123000D01*
X101303000Y-95103000D01*
X101557000Y-95103000D01*
X101557000Y-95123000D01*
X102506250Y-95123000D01*
X102665000Y-94964250D01*
X102665000Y-94523690D01*
X102568327Y-94290301D01*
X102389698Y-94111673D01*
X102156309Y-94015000D01*
X102082354Y-94015000D01*
X102227809Y-93917809D01*
X102368157Y-93707765D01*
X102417440Y-93460000D01*
X102417440Y-91960000D01*
X102368157Y-91712235D01*
X102227809Y-91502191D01*
X102082354Y-91405000D01*
X102156309Y-91405000D01*
X102389698Y-91308327D01*
X102568327Y-91129699D01*
X102665000Y-90896310D01*
X102665000Y-90455750D01*
X102506250Y-90297000D01*
X101557000Y-90297000D01*
X101557000Y-90317000D01*
X101303000Y-90317000D01*
X101303000Y-90297000D01*
X101283000Y-90297000D01*
X101283000Y-90043000D01*
X101303000Y-90043000D01*
X101303000Y-90023000D01*
X101557000Y-90023000D01*
X101557000Y-90043000D01*
X102506250Y-90043000D01*
X102665000Y-89884250D01*
X102665000Y-89443690D01*
X102568327Y-89210301D01*
X102389698Y-89031673D01*
X102156309Y-88935000D01*
X102082354Y-88935000D01*
X102227809Y-88837809D01*
X102368157Y-88627765D01*
X102417440Y-88380000D01*
X102417440Y-86880000D01*
X102368157Y-86632235D01*
X102227809Y-86422191D01*
X102082354Y-86325000D01*
X102156309Y-86325000D01*
X102389698Y-86228327D01*
X102568327Y-86049699D01*
X102665000Y-85816310D01*
X102665000Y-85375750D01*
X102506250Y-85217000D01*
X101557000Y-85217000D01*
X101557000Y-85237000D01*
X101303000Y-85237000D01*
X101303000Y-85217000D01*
X101283000Y-85217000D01*
X101283000Y-84963000D01*
X101303000Y-84963000D01*
X101303000Y-84943000D01*
X101557000Y-84943000D01*
X101557000Y-84963000D01*
X102506250Y-84963000D01*
X102665000Y-84804250D01*
X102665000Y-84363690D01*
X102568327Y-84130301D01*
X102389698Y-83951673D01*
X102156309Y-83855000D01*
X102082354Y-83855000D01*
X102227809Y-83757809D01*
X102368157Y-83547765D01*
X102417440Y-83300000D01*
X102417440Y-81800000D01*
X102368157Y-81552235D01*
X102227809Y-81342191D01*
X102082354Y-81245000D01*
X102156309Y-81245000D01*
X102389698Y-81148327D01*
X102568327Y-80969699D01*
X102665000Y-80736310D01*
X102665000Y-80295750D01*
X102506250Y-80137000D01*
X101557000Y-80137000D01*
X101557000Y-80157000D01*
X101303000Y-80157000D01*
X101303000Y-80137000D01*
X101283000Y-80137000D01*
X101283000Y-79883000D01*
X101303000Y-79883000D01*
X101303000Y-78933750D01*
X101557000Y-78933750D01*
X101557000Y-79883000D01*
X102506250Y-79883000D01*
X102665000Y-79724250D01*
X102665000Y-79283690D01*
X102568327Y-79050301D01*
X102389698Y-78871673D01*
X102156309Y-78775000D01*
X101715750Y-78775000D01*
X101557000Y-78933750D01*
X101303000Y-78933750D01*
X101144250Y-78775000D01*
X100703691Y-78775000D01*
X100470302Y-78871673D01*
X100328654Y-79013320D01*
X100287809Y-78952191D01*
X100077765Y-78811843D01*
X99830000Y-78762560D01*
X98630000Y-78762560D01*
X98382235Y-78811843D01*
X98172191Y-78952191D01*
X98031843Y-79162235D01*
X97982560Y-79410000D01*
X97585000Y-79410000D01*
X97585000Y-79283690D01*
X97488327Y-79050301D01*
X97309698Y-78871673D01*
X97076309Y-78775000D01*
X96635750Y-78775000D01*
X96477000Y-78933750D01*
X96223000Y-78933750D01*
X96064250Y-78775000D01*
X95623691Y-78775000D01*
X95390302Y-78871673D01*
X95248654Y-79013320D01*
X95207809Y-78952191D01*
X94997765Y-78811843D01*
X94750000Y-78762560D01*
X93550000Y-78762560D01*
X93302235Y-78811843D01*
X93092191Y-78952191D01*
X92951843Y-79162235D01*
X92902560Y-79410000D01*
X92505000Y-79410000D01*
X92505000Y-79283690D01*
X92408327Y-79050301D01*
X92229698Y-78871673D01*
X92097270Y-78816820D01*
X92510625Y-78540625D01*
X92838839Y-78049418D01*
X92954092Y-77470000D01*
X92842701Y-76910000D01*
X102033319Y-76910000D01*
X102035651Y-76921723D01*
X102035651Y-76921724D01*
X102141664Y-77177664D01*
X102472025Y-77672086D01*
X102662454Y-77862514D01*
X102667915Y-77867975D01*
X103162336Y-78198336D01*
X103312263Y-78260437D01*
X103418276Y-78304349D01*
X103430000Y-78306681D01*
X103430001Y-104573319D01*
X103418276Y-104575651D01*
X103312263Y-104619563D01*
X103162336Y-104681664D01*
X102667915Y-105012025D01*
X102667914Y-105012026D01*
X102472025Y-105207914D01*
X102141664Y-105702336D01*
X102123436Y-105746343D01*
X102035651Y-105958275D01*
X102033319Y-105970000D01*
X92874701Y-105970000D01*
X92986092Y-105410000D01*
X92870839Y-104830582D01*
X92542625Y-104339375D01*
X92051418Y-104011161D01*
X91618256Y-103925000D01*
X91325744Y-103925000D01*
X90892582Y-104011161D01*
X90401375Y-104339375D01*
X90386904Y-104361033D01*
X90320327Y-104200302D01*
X90141699Y-104021673D01*
X89908310Y-103925000D01*
X89217750Y-103925000D01*
X89059000Y-104083750D01*
X89059000Y-105283000D01*
X89079000Y-105283000D01*
X89079000Y-105537000D01*
X89059000Y-105537000D01*
X89059000Y-105557000D01*
X88805000Y-105557000D01*
X88805000Y-105537000D01*
X87605750Y-105537000D01*
X87447000Y-105695750D01*
X87447000Y-105970000D01*
X78306681Y-105970000D01*
X78304349Y-105958276D01*
X78216564Y-105746343D01*
X78198336Y-105702336D01*
X77867975Y-105207915D01*
X77784310Y-105124250D01*
X77672086Y-105012025D01*
X77177664Y-104681664D01*
X77027738Y-104619563D01*
X76921725Y-104575651D01*
X76910000Y-104573319D01*
X76910000Y-104433691D01*
X87447000Y-104433691D01*
X87447000Y-105124250D01*
X87605750Y-105283000D01*
X88805000Y-105283000D01*
X88805000Y-104083750D01*
X88646250Y-103925000D01*
X87955690Y-103925000D01*
X87722301Y-104021673D01*
X87543673Y-104200302D01*
X87447000Y-104433691D01*
X76910000Y-104433691D01*
X76910000Y-79410000D01*
X77662560Y-79410000D01*
X77662560Y-80610000D01*
X77711843Y-80857765D01*
X77852191Y-81067809D01*
X78062235Y-81208157D01*
X78150001Y-81225614D01*
X78150001Y-81316927D01*
X78112191Y-81342191D01*
X77971843Y-81552235D01*
X77922560Y-81800000D01*
X77922560Y-83300000D01*
X77971843Y-83547765D01*
X78112191Y-83757809D01*
X78255310Y-83853438D01*
X78062235Y-83891843D01*
X77852191Y-84032191D01*
X77711843Y-84242235D01*
X77662560Y-84490000D01*
X77662560Y-85690000D01*
X77711843Y-85937765D01*
X77852191Y-86147809D01*
X78062235Y-86288157D01*
X78150001Y-86305614D01*
X78150001Y-86396927D01*
X78112191Y-86422191D01*
X77971843Y-86632235D01*
X77922560Y-86880000D01*
X77922560Y-88380000D01*
X77971843Y-88627765D01*
X78112191Y-88837809D01*
X78255310Y-88933438D01*
X78062235Y-88971843D01*
X77852191Y-89112191D01*
X77711843Y-89322235D01*
X77662560Y-89570000D01*
X77662560Y-90770000D01*
X77711843Y-91017765D01*
X77852191Y-91227809D01*
X78062235Y-91368157D01*
X78150001Y-91385614D01*
X78150001Y-91476927D01*
X78112191Y-91502191D01*
X77971843Y-91712235D01*
X77922560Y-91960000D01*
X77922560Y-93460000D01*
X77971843Y-93707765D01*
X78112191Y-93917809D01*
X78255310Y-94013438D01*
X78062235Y-94051843D01*
X77852191Y-94192191D01*
X77711843Y-94402235D01*
X77662560Y-94650000D01*
X77662560Y-95850000D01*
X77711843Y-96097765D01*
X77852191Y-96307809D01*
X78062235Y-96448157D01*
X78150001Y-96465614D01*
X78150001Y-96556927D01*
X78112191Y-96582191D01*
X77971843Y-96792235D01*
X77922560Y-97040000D01*
X77922560Y-98540000D01*
X77971843Y-98787765D01*
X78112191Y-98997809D01*
X78255310Y-99093438D01*
X78062235Y-99131843D01*
X77852191Y-99272191D01*
X77711843Y-99482235D01*
X77662560Y-99730000D01*
X77662560Y-100930000D01*
X77711843Y-101177765D01*
X77852191Y-101387809D01*
X78062235Y-101528157D01*
X78150001Y-101545614D01*
X78150001Y-101636927D01*
X78112191Y-101662191D01*
X77971843Y-101872235D01*
X77922560Y-102120000D01*
X77922560Y-103620000D01*
X77971843Y-103867765D01*
X78112191Y-104077809D01*
X78322235Y-104218157D01*
X78570000Y-104267440D01*
X79540000Y-104267440D01*
X79787765Y-104218157D01*
X79997809Y-104077809D01*
X80010000Y-104059564D01*
X80022191Y-104077809D01*
X80232235Y-104218157D01*
X80480000Y-104267440D01*
X81450000Y-104267440D01*
X81697765Y-104218157D01*
X81907809Y-104077809D01*
X82048157Y-103867765D01*
X82097440Y-103620000D01*
X82097440Y-102120000D01*
X82048157Y-101872235D01*
X81907809Y-101662191D01*
X81762354Y-101565000D01*
X81836309Y-101565000D01*
X82069698Y-101468327D01*
X82248327Y-101289699D01*
X82345000Y-101056310D01*
X82345000Y-100615750D01*
X82186250Y-100457000D01*
X81237000Y-100457000D01*
X81237000Y-100477000D01*
X80983000Y-100477000D01*
X80983000Y-100457000D01*
X80963000Y-100457000D01*
X80963000Y-100203000D01*
X80983000Y-100203000D01*
X80983000Y-100183000D01*
X81237000Y-100183000D01*
X81237000Y-100203000D01*
X82186250Y-100203000D01*
X82345000Y-100044250D01*
X82345000Y-99603690D01*
X82248327Y-99370301D01*
X82069698Y-99191673D01*
X81836309Y-99095000D01*
X81762354Y-99095000D01*
X81907809Y-98997809D01*
X82048157Y-98787765D01*
X82097440Y-98540000D01*
X82097440Y-97040000D01*
X82048157Y-96792235D01*
X81907809Y-96582191D01*
X81762354Y-96485000D01*
X81836309Y-96485000D01*
X82069698Y-96388327D01*
X82248327Y-96209699D01*
X82345000Y-95976310D01*
X82345000Y-95535750D01*
X82186250Y-95377000D01*
X81237000Y-95377000D01*
X81237000Y-95397000D01*
X80983000Y-95397000D01*
X80983000Y-95377000D01*
X80963000Y-95377000D01*
X80963000Y-95123000D01*
X80983000Y-95123000D01*
X80983000Y-95103000D01*
X81237000Y-95103000D01*
X81237000Y-95123000D01*
X82186250Y-95123000D01*
X82345000Y-94964250D01*
X82345000Y-94523690D01*
X82248327Y-94290301D01*
X82069698Y-94111673D01*
X81836309Y-94015000D01*
X81762354Y-94015000D01*
X81907809Y-93917809D01*
X82048157Y-93707765D01*
X82097440Y-93460000D01*
X82097440Y-91960000D01*
X82048157Y-91712235D01*
X81907809Y-91502191D01*
X81762354Y-91405000D01*
X81836309Y-91405000D01*
X82069698Y-91308327D01*
X82248327Y-91129699D01*
X82345000Y-90896310D01*
X82345000Y-90455750D01*
X82186250Y-90297000D01*
X81237000Y-90297000D01*
X81237000Y-90317000D01*
X80983000Y-90317000D01*
X80983000Y-90297000D01*
X80963000Y-90297000D01*
X80963000Y-90043000D01*
X80983000Y-90043000D01*
X80983000Y-90023000D01*
X81237000Y-90023000D01*
X81237000Y-90043000D01*
X82186250Y-90043000D01*
X82345000Y-89884250D01*
X82345000Y-89443690D01*
X82248327Y-89210301D01*
X82069698Y-89031673D01*
X81836309Y-88935000D01*
X81762354Y-88935000D01*
X81907809Y-88837809D01*
X82048157Y-88627765D01*
X82097440Y-88380000D01*
X82097440Y-86880000D01*
X82048157Y-86632235D01*
X81907809Y-86422191D01*
X81762354Y-86325000D01*
X81836309Y-86325000D01*
X82069698Y-86228327D01*
X82248327Y-86049699D01*
X82345000Y-85816310D01*
X82345000Y-85375750D01*
X82186250Y-85217000D01*
X81237000Y-85217000D01*
X81237000Y-85237000D01*
X80983000Y-85237000D01*
X80983000Y-85217000D01*
X80963000Y-85217000D01*
X80963000Y-84963000D01*
X80983000Y-84963000D01*
X80983000Y-84943000D01*
X81237000Y-84943000D01*
X81237000Y-84963000D01*
X82186250Y-84963000D01*
X82345000Y-84804250D01*
X82345000Y-84363690D01*
X82248327Y-84130301D01*
X82069698Y-83951673D01*
X81836309Y-83855000D01*
X81762354Y-83855000D01*
X81907809Y-83757809D01*
X82048157Y-83547765D01*
X82097440Y-83300000D01*
X82097440Y-81800000D01*
X82048157Y-81552235D01*
X81907809Y-81342191D01*
X81762354Y-81245000D01*
X81836309Y-81245000D01*
X82069698Y-81148327D01*
X82248327Y-80969699D01*
X82345000Y-80736310D01*
X82345000Y-80295750D01*
X82186250Y-80137000D01*
X81237000Y-80137000D01*
X81237000Y-80157000D01*
X80983000Y-80157000D01*
X80983000Y-80137000D01*
X80963000Y-80137000D01*
X80963000Y-79883000D01*
X80983000Y-79883000D01*
X80983000Y-78933750D01*
X81237000Y-78933750D01*
X81237000Y-79883000D01*
X82186250Y-79883000D01*
X82345000Y-79724250D01*
X82345000Y-79410000D01*
X82742560Y-79410000D01*
X82742560Y-80610000D01*
X82791843Y-80857765D01*
X82932191Y-81067809D01*
X83142235Y-81208157D01*
X83230001Y-81225614D01*
X83230001Y-81316927D01*
X83192191Y-81342191D01*
X83051843Y-81552235D01*
X83002560Y-81800000D01*
X83002560Y-83300000D01*
X83051843Y-83547765D01*
X83192191Y-83757809D01*
X83335310Y-83853438D01*
X83142235Y-83891843D01*
X82932191Y-84032191D01*
X82791843Y-84242235D01*
X82742560Y-84490000D01*
X82742560Y-85690000D01*
X82791843Y-85937765D01*
X82932191Y-86147809D01*
X83142235Y-86288157D01*
X83230001Y-86305614D01*
X83230001Y-86396927D01*
X83192191Y-86422191D01*
X83051843Y-86632235D01*
X83002560Y-86880000D01*
X83002560Y-88380000D01*
X83051843Y-88627765D01*
X83192191Y-88837809D01*
X83335310Y-88933438D01*
X83142235Y-88971843D01*
X82932191Y-89112191D01*
X82791843Y-89322235D01*
X82742560Y-89570000D01*
X82742560Y-90770000D01*
X82791843Y-91017765D01*
X82932191Y-91227809D01*
X83142235Y-91368157D01*
X83230001Y-91385614D01*
X83230001Y-91476927D01*
X83192191Y-91502191D01*
X83051843Y-91712235D01*
X83002560Y-91960000D01*
X83002560Y-93460000D01*
X83051843Y-93707765D01*
X83192191Y-93917809D01*
X83335310Y-94013438D01*
X83142235Y-94051843D01*
X82932191Y-94192191D01*
X82791843Y-94402235D01*
X82742560Y-94650000D01*
X82742560Y-95850000D01*
X82791843Y-96097765D01*
X82932191Y-96307809D01*
X83142235Y-96448157D01*
X83230001Y-96465614D01*
X83230001Y-96556927D01*
X83192191Y-96582191D01*
X83051843Y-96792235D01*
X83002560Y-97040000D01*
X83002560Y-98540000D01*
X83051843Y-98787765D01*
X83192191Y-98997809D01*
X83335310Y-99093438D01*
X83142235Y-99131843D01*
X82932191Y-99272191D01*
X82791843Y-99482235D01*
X82742560Y-99730000D01*
X82742560Y-100930000D01*
X82791843Y-101177765D01*
X82932191Y-101387809D01*
X83142235Y-101528157D01*
X83230001Y-101545614D01*
X83230001Y-101636927D01*
X83192191Y-101662191D01*
X83051843Y-101872235D01*
X83002560Y-102120000D01*
X83002560Y-103620000D01*
X83051843Y-103867765D01*
X83192191Y-104077809D01*
X83402235Y-104218157D01*
X83650000Y-104267440D01*
X84620000Y-104267440D01*
X84867765Y-104218157D01*
X85077809Y-104077809D01*
X85090000Y-104059564D01*
X85102191Y-104077809D01*
X85312235Y-104218157D01*
X85560000Y-104267440D01*
X86530000Y-104267440D01*
X86777765Y-104218157D01*
X86987809Y-104077809D01*
X87128157Y-103867765D01*
X87177440Y-103620000D01*
X87177440Y-102120000D01*
X87128157Y-101872235D01*
X86987809Y-101662191D01*
X86842354Y-101565000D01*
X86916309Y-101565000D01*
X87149698Y-101468327D01*
X87328327Y-101289699D01*
X87425000Y-101056310D01*
X87425000Y-100615750D01*
X87266250Y-100457000D01*
X86317000Y-100457000D01*
X86317000Y-100477000D01*
X86063000Y-100477000D01*
X86063000Y-100457000D01*
X86043000Y-100457000D01*
X86043000Y-100203000D01*
X86063000Y-100203000D01*
X86063000Y-100183000D01*
X86317000Y-100183000D01*
X86317000Y-100203000D01*
X87266250Y-100203000D01*
X87425000Y-100044250D01*
X87425000Y-99603690D01*
X87328327Y-99370301D01*
X87149698Y-99191673D01*
X86916309Y-99095000D01*
X86842354Y-99095000D01*
X86987809Y-98997809D01*
X87128157Y-98787765D01*
X87177440Y-98540000D01*
X87177440Y-97040000D01*
X87128157Y-96792235D01*
X86987809Y-96582191D01*
X86842354Y-96485000D01*
X86916309Y-96485000D01*
X87149698Y-96388327D01*
X87328327Y-96209699D01*
X87425000Y-95976310D01*
X87425000Y-95535750D01*
X87266250Y-95377000D01*
X86317000Y-95377000D01*
X86317000Y-95397000D01*
X86063000Y-95397000D01*
X86063000Y-95377000D01*
X86043000Y-95377000D01*
X86043000Y-95123000D01*
X86063000Y-95123000D01*
X86063000Y-95103000D01*
X86317000Y-95103000D01*
X86317000Y-95123000D01*
X87266250Y-95123000D01*
X87425000Y-94964250D01*
X87425000Y-94523690D01*
X87328327Y-94290301D01*
X87149698Y-94111673D01*
X86916309Y-94015000D01*
X86842354Y-94015000D01*
X86987809Y-93917809D01*
X87128157Y-93707765D01*
X87177440Y-93460000D01*
X87177440Y-91960000D01*
X87128157Y-91712235D01*
X86987809Y-91502191D01*
X86842354Y-91405000D01*
X86916309Y-91405000D01*
X87149698Y-91308327D01*
X87328327Y-91129699D01*
X87425000Y-90896310D01*
X87425000Y-90455750D01*
X87266250Y-90297000D01*
X86317000Y-90297000D01*
X86317000Y-90317000D01*
X86063000Y-90317000D01*
X86063000Y-90297000D01*
X86043000Y-90297000D01*
X86043000Y-90043000D01*
X86063000Y-90043000D01*
X86063000Y-90023000D01*
X86317000Y-90023000D01*
X86317000Y-90043000D01*
X87266250Y-90043000D01*
X87425000Y-89884250D01*
X87425000Y-89443690D01*
X87328327Y-89210301D01*
X87149698Y-89031673D01*
X86916309Y-88935000D01*
X86842354Y-88935000D01*
X86987809Y-88837809D01*
X87128157Y-88627765D01*
X87177440Y-88380000D01*
X87177440Y-86880000D01*
X87128157Y-86632235D01*
X86987809Y-86422191D01*
X86842354Y-86325000D01*
X86916309Y-86325000D01*
X87149698Y-86228327D01*
X87328327Y-86049699D01*
X87425000Y-85816310D01*
X87425000Y-85375750D01*
X87266250Y-85217000D01*
X86317000Y-85217000D01*
X86317000Y-85237000D01*
X86063000Y-85237000D01*
X86063000Y-85217000D01*
X86043000Y-85217000D01*
X86043000Y-84963000D01*
X86063000Y-84963000D01*
X86063000Y-84943000D01*
X86317000Y-84943000D01*
X86317000Y-84963000D01*
X87266250Y-84963000D01*
X87425000Y-84804250D01*
X87425000Y-84363690D01*
X87328327Y-84130301D01*
X87149698Y-83951673D01*
X86916309Y-83855000D01*
X86842354Y-83855000D01*
X86987809Y-83757809D01*
X87128157Y-83547765D01*
X87177440Y-83300000D01*
X87177440Y-81800000D01*
X87128157Y-81552235D01*
X86987809Y-81342191D01*
X86842354Y-81245000D01*
X86916309Y-81245000D01*
X87149698Y-81148327D01*
X87328327Y-80969699D01*
X87425000Y-80736310D01*
X87425000Y-80295750D01*
X87266250Y-80137000D01*
X86317000Y-80137000D01*
X86317000Y-80157000D01*
X86063000Y-80157000D01*
X86063000Y-80137000D01*
X86043000Y-80137000D01*
X86043000Y-79883000D01*
X86063000Y-79883000D01*
X86063000Y-78933750D01*
X86317000Y-78933750D01*
X86317000Y-79883000D01*
X87266250Y-79883000D01*
X87425000Y-79724250D01*
X87425000Y-79283690D01*
X87328327Y-79050301D01*
X87149698Y-78871673D01*
X86916309Y-78775000D01*
X86475750Y-78775000D01*
X86317000Y-78933750D01*
X86063000Y-78933750D01*
X85904250Y-78775000D01*
X85463691Y-78775000D01*
X85230302Y-78871673D01*
X85088654Y-79013320D01*
X85047809Y-78952191D01*
X84837765Y-78811843D01*
X84590000Y-78762560D01*
X83390000Y-78762560D01*
X83142235Y-78811843D01*
X82932191Y-78952191D01*
X82791843Y-79162235D01*
X82742560Y-79410000D01*
X82345000Y-79410000D01*
X82345000Y-79283690D01*
X82248327Y-79050301D01*
X82069698Y-78871673D01*
X81836309Y-78775000D01*
X81395750Y-78775000D01*
X81237000Y-78933750D01*
X80983000Y-78933750D01*
X80824250Y-78775000D01*
X80383691Y-78775000D01*
X80150302Y-78871673D01*
X80008654Y-79013320D01*
X79967809Y-78952191D01*
X79757765Y-78811843D01*
X79510000Y-78762560D01*
X78310000Y-78762560D01*
X78062235Y-78811843D01*
X77852191Y-78952191D01*
X77711843Y-79162235D01*
X77662560Y-79410000D01*
X76910000Y-79410000D01*
X76910000Y-78306681D01*
X76921725Y-78304349D01*
X77027738Y-78260437D01*
X77177664Y-78198336D01*
X77672086Y-77867975D01*
X77867974Y-77672086D01*
X77867975Y-77672085D01*
X78198336Y-77177664D01*
X78271888Y-77000091D01*
X78304349Y-76921724D01*
X78306681Y-76910000D01*
X87415000Y-76910000D01*
X87415000Y-77184250D01*
X87415000Y-77184250D01*
G37*
X87415000Y-77184250D02*
X87573750Y-77343000D01*
X88773000Y-77343000D01*
X88773000Y-77323000D01*
X89027000Y-77323000D01*
X89027000Y-77343000D01*
X89047000Y-77343000D01*
X89047000Y-77597000D01*
X89027000Y-77597000D01*
X89027000Y-77617000D01*
X88773000Y-77617000D01*
X88773000Y-77597000D01*
X87573750Y-77597000D01*
X87415000Y-77755750D01*
X87415000Y-78446309D01*
X87511673Y-78679698D01*
X87690301Y-78858327D01*
X87923690Y-78955000D01*
X88010314Y-78955000D01*
X87871843Y-79162235D01*
X87822560Y-79410000D01*
X87822560Y-80610000D01*
X87871843Y-80857765D01*
X88012191Y-81067809D01*
X88222235Y-81208157D01*
X88310001Y-81225614D01*
X88310001Y-81316927D01*
X88272191Y-81342191D01*
X88131843Y-81552235D01*
X88082560Y-81800000D01*
X88082560Y-83300000D01*
X88131843Y-83547765D01*
X88272191Y-83757809D01*
X88415310Y-83853438D01*
X88222235Y-83891843D01*
X88012191Y-84032191D01*
X87871843Y-84242235D01*
X87822560Y-84490000D01*
X87822560Y-85690000D01*
X87871843Y-85937765D01*
X88012191Y-86147809D01*
X88222235Y-86288157D01*
X88310001Y-86305614D01*
X88310001Y-86396927D01*
X88272191Y-86422191D01*
X88131843Y-86632235D01*
X88082560Y-86880000D01*
X88082560Y-88380000D01*
X88131843Y-88627765D01*
X88272191Y-88837809D01*
X88415310Y-88933438D01*
X88222235Y-88971843D01*
X88012191Y-89112191D01*
X87871843Y-89322235D01*
X87822560Y-89570000D01*
X87822560Y-90770000D01*
X87871843Y-91017765D01*
X88012191Y-91227809D01*
X88222235Y-91368157D01*
X88310001Y-91385614D01*
X88310001Y-91476927D01*
X88272191Y-91502191D01*
X88131843Y-91712235D01*
X88082560Y-91960000D01*
X88082560Y-93460000D01*
X88131843Y-93707765D01*
X88272191Y-93917809D01*
X88415310Y-94013438D01*
X88222235Y-94051843D01*
X88012191Y-94192191D01*
X87871843Y-94402235D01*
X87822560Y-94650000D01*
X87822560Y-95850000D01*
X87871843Y-96097765D01*
X88012191Y-96307809D01*
X88222235Y-96448157D01*
X88310001Y-96465614D01*
X88310001Y-96556927D01*
X88272191Y-96582191D01*
X88131843Y-96792235D01*
X88082560Y-97040000D01*
X88082560Y-98540000D01*
X88131843Y-98787765D01*
X88272191Y-98997809D01*
X88415310Y-99093438D01*
X88222235Y-99131843D01*
X88012191Y-99272191D01*
X87871843Y-99482235D01*
X87822560Y-99730000D01*
X87822560Y-100930000D01*
X87871843Y-101177765D01*
X88012191Y-101387809D01*
X88091369Y-101440714D01*
X88082560Y-101485000D01*
X88082560Y-102985000D01*
X88131843Y-103232765D01*
X88272191Y-103442809D01*
X88482235Y-103583157D01*
X88730000Y-103632440D01*
X89157419Y-103632440D01*
X89219999Y-103644888D01*
X89282579Y-103632440D01*
X89700000Y-103632440D01*
X89947765Y-103583157D01*
X90157809Y-103442809D01*
X90170000Y-103424564D01*
X90182191Y-103442809D01*
X90392235Y-103583157D01*
X90640000Y-103632440D01*
X91610000Y-103632440D01*
X91857765Y-103583157D01*
X92067809Y-103442809D01*
X92208157Y-103232765D01*
X92257440Y-102985000D01*
X92257440Y-101485000D01*
X92250071Y-101447954D01*
X92408327Y-101289699D01*
X92505000Y-101056310D01*
X92505000Y-100615750D01*
X92346250Y-100457000D01*
X91397000Y-100457000D01*
X91397000Y-100477000D01*
X91143000Y-100477000D01*
X91143000Y-100457000D01*
X91123000Y-100457000D01*
X91123000Y-100203000D01*
X91143000Y-100203000D01*
X91143000Y-100183000D01*
X91397000Y-100183000D01*
X91397000Y-100203000D01*
X92346250Y-100203000D01*
X92505000Y-100044250D01*
X92505000Y-99603690D01*
X92408327Y-99370301D01*
X92229698Y-99191673D01*
X91996309Y-99095000D01*
X91922354Y-99095000D01*
X92067809Y-98997809D01*
X92208157Y-98787765D01*
X92257440Y-98540000D01*
X92257440Y-97040000D01*
X92208157Y-96792235D01*
X92067809Y-96582191D01*
X91922354Y-96485000D01*
X91996309Y-96485000D01*
X92229698Y-96388327D01*
X92408327Y-96209699D01*
X92505000Y-95976310D01*
X92505000Y-95535750D01*
X92346250Y-95377000D01*
X91397000Y-95377000D01*
X91397000Y-95397000D01*
X91143000Y-95397000D01*
X91143000Y-95377000D01*
X91123000Y-95377000D01*
X91123000Y-95123000D01*
X91143000Y-95123000D01*
X91143000Y-95103000D01*
X91397000Y-95103000D01*
X91397000Y-95123000D01*
X92346250Y-95123000D01*
X92505000Y-94964250D01*
X92505000Y-94523690D01*
X92408327Y-94290301D01*
X92229698Y-94111673D01*
X91996309Y-94015000D01*
X91922354Y-94015000D01*
X92067809Y-93917809D01*
X92208157Y-93707765D01*
X92257440Y-93460000D01*
X92257440Y-91960000D01*
X92208157Y-91712235D01*
X92067809Y-91502191D01*
X91922354Y-91405000D01*
X91996309Y-91405000D01*
X92229698Y-91308327D01*
X92408327Y-91129699D01*
X92505000Y-90896310D01*
X92505000Y-90455750D01*
X92346250Y-90297000D01*
X91397000Y-90297000D01*
X91397000Y-90317000D01*
X91143000Y-90317000D01*
X91143000Y-90297000D01*
X91123000Y-90297000D01*
X91123000Y-90043000D01*
X91143000Y-90043000D01*
X91143000Y-90023000D01*
X91397000Y-90023000D01*
X91397000Y-90043000D01*
X92346250Y-90043000D01*
X92505000Y-89884250D01*
X92505000Y-89443690D01*
X92408327Y-89210301D01*
X92229698Y-89031673D01*
X91996309Y-88935000D01*
X91922354Y-88935000D01*
X92067809Y-88837809D01*
X92208157Y-88627765D01*
X92257440Y-88380000D01*
X92257440Y-86880000D01*
X92208157Y-86632235D01*
X92067809Y-86422191D01*
X91922354Y-86325000D01*
X91996309Y-86325000D01*
X92229698Y-86228327D01*
X92408327Y-86049699D01*
X92505000Y-85816310D01*
X92505000Y-85375750D01*
X92346250Y-85217000D01*
X91397000Y-85217000D01*
X91397000Y-85237000D01*
X91143000Y-85237000D01*
X91143000Y-85217000D01*
X91123000Y-85217000D01*
X91123000Y-84963000D01*
X91143000Y-84963000D01*
X91143000Y-84943000D01*
X91397000Y-84943000D01*
X91397000Y-84963000D01*
X92346250Y-84963000D01*
X92505000Y-84804250D01*
X92505000Y-84363690D01*
X92408327Y-84130301D01*
X92229698Y-83951673D01*
X91996309Y-83855000D01*
X91922354Y-83855000D01*
X92067809Y-83757809D01*
X92208157Y-83547765D01*
X92257440Y-83300000D01*
X92257440Y-81800000D01*
X92208157Y-81552235D01*
X92067809Y-81342191D01*
X91922354Y-81245000D01*
X91996309Y-81245000D01*
X92229698Y-81148327D01*
X92408327Y-80969699D01*
X92505000Y-80736310D01*
X92505000Y-80295750D01*
X92346250Y-80137000D01*
X91397000Y-80137000D01*
X91397000Y-80157000D01*
X91143000Y-80157000D01*
X91143000Y-80137000D01*
X91123000Y-80137000D01*
X91123000Y-79883000D01*
X91143000Y-79883000D01*
X91143000Y-79863000D01*
X91397000Y-79863000D01*
X91397000Y-79883000D01*
X92346250Y-79883000D01*
X92505000Y-79724250D01*
X92505000Y-79410000D01*
X92902560Y-79410000D01*
X92902560Y-80610000D01*
X92951843Y-80857765D01*
X93092191Y-81067809D01*
X93302235Y-81208157D01*
X93390001Y-81225614D01*
X93390001Y-81316927D01*
X93352191Y-81342191D01*
X93211843Y-81552235D01*
X93162560Y-81800000D01*
X93162560Y-83300000D01*
X93211843Y-83547765D01*
X93352191Y-83757809D01*
X93495310Y-83853438D01*
X93302235Y-83891843D01*
X93092191Y-84032191D01*
X92951843Y-84242235D01*
X92902560Y-84490000D01*
X92902560Y-85690000D01*
X92951843Y-85937765D01*
X93092191Y-86147809D01*
X93302235Y-86288157D01*
X93390001Y-86305614D01*
X93390001Y-86396927D01*
X93352191Y-86422191D01*
X93211843Y-86632235D01*
X93162560Y-86880000D01*
X93162560Y-88380000D01*
X93211843Y-88627765D01*
X93352191Y-88837809D01*
X93495310Y-88933438D01*
X93302235Y-88971843D01*
X93092191Y-89112191D01*
X92951843Y-89322235D01*
X92902560Y-89570000D01*
X92902560Y-90770000D01*
X92951843Y-91017765D01*
X93092191Y-91227809D01*
X93302235Y-91368157D01*
X93390001Y-91385614D01*
X93390001Y-91476927D01*
X93352191Y-91502191D01*
X93211843Y-91712235D01*
X93162560Y-91960000D01*
X93162560Y-93460000D01*
X93211843Y-93707765D01*
X93352191Y-93917809D01*
X93495310Y-94013438D01*
X93302235Y-94051843D01*
X93092191Y-94192191D01*
X92951843Y-94402235D01*
X92902560Y-94650000D01*
X92902560Y-95850000D01*
X92951843Y-96097765D01*
X93092191Y-96307809D01*
X93302235Y-96448157D01*
X93390001Y-96465614D01*
X93390001Y-96556927D01*
X93352191Y-96582191D01*
X93211843Y-96792235D01*
X93162560Y-97040000D01*
X93162560Y-98540000D01*
X93211843Y-98787765D01*
X93352191Y-98997809D01*
X93495310Y-99093438D01*
X93302235Y-99131843D01*
X93092191Y-99272191D01*
X92951843Y-99482235D01*
X92902560Y-99730000D01*
X92902560Y-100930000D01*
X92951843Y-101177765D01*
X93092191Y-101387809D01*
X93302235Y-101528157D01*
X93390001Y-101545614D01*
X93390001Y-101636927D01*
X93352191Y-101662191D01*
X93211843Y-101872235D01*
X93162560Y-102120000D01*
X93162560Y-103620000D01*
X93211843Y-103867765D01*
X93352191Y-104077809D01*
X93562235Y-104218157D01*
X93810000Y-104267440D01*
X94780000Y-104267440D01*
X95027765Y-104218157D01*
X95237809Y-104077809D01*
X95250000Y-104059564D01*
X95262191Y-104077809D01*
X95472235Y-104218157D01*
X95720000Y-104267440D01*
X96690000Y-104267440D01*
X96937765Y-104218157D01*
X97147809Y-104077809D01*
X97288157Y-103867765D01*
X97337440Y-103620000D01*
X97337440Y-102120000D01*
X97288157Y-101872235D01*
X97147809Y-101662191D01*
X97002354Y-101565000D01*
X97076309Y-101565000D01*
X97309698Y-101468327D01*
X97488327Y-101289699D01*
X97585000Y-101056310D01*
X97585000Y-100615750D01*
X97426250Y-100457000D01*
X96477000Y-100457000D01*
X96477000Y-100477000D01*
X96223000Y-100477000D01*
X96223000Y-100457000D01*
X96203000Y-100457000D01*
X96203000Y-100203000D01*
X96223000Y-100203000D01*
X96223000Y-100183000D01*
X96477000Y-100183000D01*
X96477000Y-100203000D01*
X97426250Y-100203000D01*
X97585000Y-100044250D01*
X97585000Y-99603690D01*
X97488327Y-99370301D01*
X97309698Y-99191673D01*
X97076309Y-99095000D01*
X97002354Y-99095000D01*
X97147809Y-98997809D01*
X97288157Y-98787765D01*
X97337440Y-98540000D01*
X97337440Y-97040000D01*
X97288157Y-96792235D01*
X97147809Y-96582191D01*
X97002354Y-96485000D01*
X97076309Y-96485000D01*
X97309698Y-96388327D01*
X97488327Y-96209699D01*
X97585000Y-95976310D01*
X97585000Y-95535750D01*
X97426250Y-95377000D01*
X96477000Y-95377000D01*
X96477000Y-95397000D01*
X96223000Y-95397000D01*
X96223000Y-95377000D01*
X96203000Y-95377000D01*
X96203000Y-95123000D01*
X96223000Y-95123000D01*
X96223000Y-95103000D01*
X96477000Y-95103000D01*
X96477000Y-95123000D01*
X97426250Y-95123000D01*
X97585000Y-94964250D01*
X97585000Y-94523690D01*
X97488327Y-94290301D01*
X97309698Y-94111673D01*
X97076309Y-94015000D01*
X97002354Y-94015000D01*
X97147809Y-93917809D01*
X97288157Y-93707765D01*
X97337440Y-93460000D01*
X97337440Y-91960000D01*
X97288157Y-91712235D01*
X97147809Y-91502191D01*
X97002354Y-91405000D01*
X97076309Y-91405000D01*
X97309698Y-91308327D01*
X97488327Y-91129699D01*
X97585000Y-90896310D01*
X97585000Y-90455750D01*
X97426250Y-90297000D01*
X96477000Y-90297000D01*
X96477000Y-90317000D01*
X96223000Y-90317000D01*
X96223000Y-90297000D01*
X96203000Y-90297000D01*
X96203000Y-90043000D01*
X96223000Y-90043000D01*
X96223000Y-90023000D01*
X96477000Y-90023000D01*
X96477000Y-90043000D01*
X97426250Y-90043000D01*
X97585000Y-89884250D01*
X97585000Y-89443690D01*
X97488327Y-89210301D01*
X97309698Y-89031673D01*
X97076309Y-88935000D01*
X97002354Y-88935000D01*
X97147809Y-88837809D01*
X97288157Y-88627765D01*
X97337440Y-88380000D01*
X97337440Y-86880000D01*
X97288157Y-86632235D01*
X97147809Y-86422191D01*
X97002354Y-86325000D01*
X97076309Y-86325000D01*
X97309698Y-86228327D01*
X97488327Y-86049699D01*
X97585000Y-85816310D01*
X97585000Y-85375750D01*
X97426250Y-85217000D01*
X96477000Y-85217000D01*
X96477000Y-85237000D01*
X96223000Y-85237000D01*
X96223000Y-85217000D01*
X96203000Y-85217000D01*
X96203000Y-84963000D01*
X96223000Y-84963000D01*
X96223000Y-84943000D01*
X96477000Y-84943000D01*
X96477000Y-84963000D01*
X97426250Y-84963000D01*
X97585000Y-84804250D01*
X97585000Y-84363690D01*
X97488327Y-84130301D01*
X97309698Y-83951673D01*
X97076309Y-83855000D01*
X97002354Y-83855000D01*
X97147809Y-83757809D01*
X97288157Y-83547765D01*
X97337440Y-83300000D01*
X97337440Y-81800000D01*
X97288157Y-81552235D01*
X97147809Y-81342191D01*
X97002354Y-81245000D01*
X97076309Y-81245000D01*
X97309698Y-81148327D01*
X97488327Y-80969699D01*
X97585000Y-80736310D01*
X97585000Y-80295750D01*
X97426250Y-80137000D01*
X96477000Y-80137000D01*
X96477000Y-80157000D01*
X96223000Y-80157000D01*
X96223000Y-80137000D01*
X96203000Y-80137000D01*
X96203000Y-79883000D01*
X96223000Y-79883000D01*
X96223000Y-78933750D01*
X96477000Y-78933750D01*
X96477000Y-79883000D01*
X97426250Y-79883000D01*
X97585000Y-79724250D01*
X97585000Y-79410000D01*
X97982560Y-79410000D01*
X97982560Y-80610000D01*
X98031843Y-80857765D01*
X98172191Y-81067809D01*
X98382235Y-81208157D01*
X98470001Y-81225614D01*
X98470001Y-81316927D01*
X98432191Y-81342191D01*
X98291843Y-81552235D01*
X98242560Y-81800000D01*
X98242560Y-83300000D01*
X98291843Y-83547765D01*
X98432191Y-83757809D01*
X98575310Y-83853438D01*
X98382235Y-83891843D01*
X98172191Y-84032191D01*
X98031843Y-84242235D01*
X97982560Y-84490000D01*
X97982560Y-85690000D01*
X98031843Y-85937765D01*
X98172191Y-86147809D01*
X98382235Y-86288157D01*
X98470001Y-86305614D01*
X98470001Y-86396927D01*
X98432191Y-86422191D01*
X98291843Y-86632235D01*
X98242560Y-86880000D01*
X98242560Y-88380000D01*
X98291843Y-88627765D01*
X98432191Y-88837809D01*
X98575310Y-88933438D01*
X98382235Y-88971843D01*
X98172191Y-89112191D01*
X98031843Y-89322235D01*
X97982560Y-89570000D01*
X97982560Y-90770000D01*
X98031843Y-91017765D01*
X98172191Y-91227809D01*
X98382235Y-91368157D01*
X98470001Y-91385614D01*
X98470001Y-91476927D01*
X98432191Y-91502191D01*
X98291843Y-91712235D01*
X98242560Y-91960000D01*
X98242560Y-93460000D01*
X98291843Y-93707765D01*
X98432191Y-93917809D01*
X98575310Y-94013438D01*
X98382235Y-94051843D01*
X98172191Y-94192191D01*
X98031843Y-94402235D01*
X97982560Y-94650000D01*
X97982560Y-95850000D01*
X98031843Y-96097765D01*
X98172191Y-96307809D01*
X98382235Y-96448157D01*
X98470001Y-96465614D01*
X98470001Y-96556927D01*
X98432191Y-96582191D01*
X98291843Y-96792235D01*
X98242560Y-97040000D01*
X98242560Y-98540000D01*
X98291843Y-98787765D01*
X98432191Y-98997809D01*
X98575310Y-99093438D01*
X98382235Y-99131843D01*
X98172191Y-99272191D01*
X98031843Y-99482235D01*
X97982560Y-99730000D01*
X97982560Y-100930000D01*
X98031843Y-101177765D01*
X98172191Y-101387809D01*
X98382235Y-101528157D01*
X98470001Y-101545614D01*
X98470001Y-101636927D01*
X98432191Y-101662191D01*
X98291843Y-101872235D01*
X98242560Y-102120000D01*
X98242560Y-103620000D01*
X98291843Y-103867765D01*
X98432191Y-104077809D01*
X98642235Y-104218157D01*
X98890000Y-104267440D01*
X99860000Y-104267440D01*
X100107765Y-104218157D01*
X100317809Y-104077809D01*
X100330000Y-104059564D01*
X100342191Y-104077809D01*
X100552235Y-104218157D01*
X100800000Y-104267440D01*
X101770000Y-104267440D01*
X102017765Y-104218157D01*
X102227809Y-104077809D01*
X102368157Y-103867765D01*
X102417440Y-103620000D01*
X102417440Y-102120000D01*
X102368157Y-101872235D01*
X102227809Y-101662191D01*
X102082354Y-101565000D01*
X102156309Y-101565000D01*
X102389698Y-101468327D01*
X102568327Y-101289699D01*
X102665000Y-101056310D01*
X102665000Y-100615750D01*
X102506250Y-100457000D01*
X101557000Y-100457000D01*
X101557000Y-100477000D01*
X101303000Y-100477000D01*
X101303000Y-100457000D01*
X101283000Y-100457000D01*
X101283000Y-100203000D01*
X101303000Y-100203000D01*
X101303000Y-100183000D01*
X101557000Y-100183000D01*
X101557000Y-100203000D01*
X102506250Y-100203000D01*
X102665000Y-100044250D01*
X102665000Y-99603690D01*
X102568327Y-99370301D01*
X102389698Y-99191673D01*
X102156309Y-99095000D01*
X102082354Y-99095000D01*
X102227809Y-98997809D01*
X102368157Y-98787765D01*
X102417440Y-98540000D01*
X102417440Y-97040000D01*
X102368157Y-96792235D01*
X102227809Y-96582191D01*
X102082354Y-96485000D01*
X102156309Y-96485000D01*
X102389698Y-96388327D01*
X102568327Y-96209699D01*
X102665000Y-95976310D01*
X102665000Y-95535750D01*
X102506250Y-95377000D01*
X101557000Y-95377000D01*
X101557000Y-95397000D01*
X101303000Y-95397000D01*
X101303000Y-95377000D01*
X101283000Y-95377000D01*
X101283000Y-95123000D01*
X101303000Y-95123000D01*
X101303000Y-95103000D01*
X101557000Y-95103000D01*
X101557000Y-95123000D01*
X102506250Y-95123000D01*
X102665000Y-94964250D01*
X102665000Y-94523690D01*
X102568327Y-94290301D01*
X102389698Y-94111673D01*
X102156309Y-94015000D01*
X102082354Y-94015000D01*
X102227809Y-93917809D01*
X102368157Y-93707765D01*
X102417440Y-93460000D01*
X102417440Y-91960000D01*
X102368157Y-91712235D01*
X102227809Y-91502191D01*
X102082354Y-91405000D01*
X102156309Y-91405000D01*
X102389698Y-91308327D01*
X102568327Y-91129699D01*
X102665000Y-90896310D01*
X102665000Y-90455750D01*
X102506250Y-90297000D01*
X101557000Y-90297000D01*
X101557000Y-90317000D01*
X101303000Y-90317000D01*
X101303000Y-90297000D01*
X101283000Y-90297000D01*
X101283000Y-90043000D01*
X101303000Y-90043000D01*
X101303000Y-90023000D01*
X101557000Y-90023000D01*
X101557000Y-90043000D01*
X102506250Y-90043000D01*
X102665000Y-89884250D01*
X102665000Y-89443690D01*
X102568327Y-89210301D01*
X102389698Y-89031673D01*
X102156309Y-88935000D01*
X102082354Y-88935000D01*
X102227809Y-88837809D01*
X102368157Y-88627765D01*
X102417440Y-88380000D01*
X102417440Y-86880000D01*
X102368157Y-86632235D01*
X102227809Y-86422191D01*
X102082354Y-86325000D01*
X102156309Y-86325000D01*
X102389698Y-86228327D01*
X102568327Y-86049699D01*
X102665000Y-85816310D01*
X102665000Y-85375750D01*
X102506250Y-85217000D01*
X101557000Y-85217000D01*
X101557000Y-85237000D01*
X101303000Y-85237000D01*
X101303000Y-85217000D01*
X101283000Y-85217000D01*
X101283000Y-84963000D01*
X101303000Y-84963000D01*
X101303000Y-84943000D01*
X101557000Y-84943000D01*
X101557000Y-84963000D01*
X102506250Y-84963000D01*
X102665000Y-84804250D01*
X102665000Y-84363690D01*
X102568327Y-84130301D01*
X102389698Y-83951673D01*
X102156309Y-83855000D01*
X102082354Y-83855000D01*
X102227809Y-83757809D01*
X102368157Y-83547765D01*
X102417440Y-83300000D01*
X102417440Y-81800000D01*
X102368157Y-81552235D01*
X102227809Y-81342191D01*
X102082354Y-81245000D01*
X102156309Y-81245000D01*
X102389698Y-81148327D01*
X102568327Y-80969699D01*
X102665000Y-80736310D01*
X102665000Y-80295750D01*
X102506250Y-80137000D01*
X101557000Y-80137000D01*
X101557000Y-80157000D01*
X101303000Y-80157000D01*
X101303000Y-80137000D01*
X101283000Y-80137000D01*
X101283000Y-79883000D01*
X101303000Y-79883000D01*
X101303000Y-78933750D01*
X101557000Y-78933750D01*
X101557000Y-79883000D01*
X102506250Y-79883000D01*
X102665000Y-79724250D01*
X102665000Y-79283690D01*
X102568327Y-79050301D01*
X102389698Y-78871673D01*
X102156309Y-78775000D01*
X101715750Y-78775000D01*
X101557000Y-78933750D01*
X101303000Y-78933750D01*
X101144250Y-78775000D01*
X100703691Y-78775000D01*
X100470302Y-78871673D01*
X100328654Y-79013320D01*
X100287809Y-78952191D01*
X100077765Y-78811843D01*
X99830000Y-78762560D01*
X98630000Y-78762560D01*
X98382235Y-78811843D01*
X98172191Y-78952191D01*
X98031843Y-79162235D01*
X97982560Y-79410000D01*
X97585000Y-79410000D01*
X97585000Y-79283690D01*
X97488327Y-79050301D01*
X97309698Y-78871673D01*
X97076309Y-78775000D01*
X96635750Y-78775000D01*
X96477000Y-78933750D01*
X96223000Y-78933750D01*
X96064250Y-78775000D01*
X95623691Y-78775000D01*
X95390302Y-78871673D01*
X95248654Y-79013320D01*
X95207809Y-78952191D01*
X94997765Y-78811843D01*
X94750000Y-78762560D01*
X93550000Y-78762560D01*
X93302235Y-78811843D01*
X93092191Y-78952191D01*
X92951843Y-79162235D01*
X92902560Y-79410000D01*
X92505000Y-79410000D01*
X92505000Y-79283690D01*
X92408327Y-79050301D01*
X92229698Y-78871673D01*
X92097270Y-78816820D01*
X92510625Y-78540625D01*
X92838839Y-78049418D01*
X92954092Y-77470000D01*
X92842701Y-76910000D01*
X102033319Y-76910000D01*
X102035651Y-76921723D01*
X102035651Y-76921724D01*
X102141664Y-77177664D01*
X102472025Y-77672086D01*
X102662454Y-77862514D01*
X102667915Y-77867975D01*
X103162336Y-78198336D01*
X103312263Y-78260437D01*
X103418276Y-78304349D01*
X103430000Y-78306681D01*
X103430001Y-104573319D01*
X103418276Y-104575651D01*
X103312263Y-104619563D01*
X103162336Y-104681664D01*
X102667915Y-105012025D01*
X102667914Y-105012026D01*
X102472025Y-105207914D01*
X102141664Y-105702336D01*
X102123436Y-105746343D01*
X102035651Y-105958275D01*
X102033319Y-105970000D01*
X92874701Y-105970000D01*
X92986092Y-105410000D01*
X92870839Y-104830582D01*
X92542625Y-104339375D01*
X92051418Y-104011161D01*
X91618256Y-103925000D01*
X91325744Y-103925000D01*
X90892582Y-104011161D01*
X90401375Y-104339375D01*
X90386904Y-104361033D01*
X90320327Y-104200302D01*
X90141699Y-104021673D01*
X89908310Y-103925000D01*
X89217750Y-103925000D01*
X89059000Y-104083750D01*
X89059000Y-105283000D01*
X89079000Y-105283000D01*
X89079000Y-105537000D01*
X89059000Y-105537000D01*
X89059000Y-105557000D01*
X88805000Y-105557000D01*
X88805000Y-105537000D01*
X87605750Y-105537000D01*
X87447000Y-105695750D01*
X87447000Y-105970000D01*
X78306681Y-105970000D01*
X78304349Y-105958276D01*
X78216564Y-105746343D01*
X78198336Y-105702336D01*
X77867975Y-105207915D01*
X77784310Y-105124250D01*
X77672086Y-105012025D01*
X77177664Y-104681664D01*
X77027738Y-104619563D01*
X76921725Y-104575651D01*
X76910000Y-104573319D01*
X76910000Y-104433691D01*
X87447000Y-104433691D01*
X87447000Y-105124250D01*
X87605750Y-105283000D01*
X88805000Y-105283000D01*
X88805000Y-104083750D01*
X88646250Y-103925000D01*
X87955690Y-103925000D01*
X87722301Y-104021673D01*
X87543673Y-104200302D01*
X87447000Y-104433691D01*
X76910000Y-104433691D01*
X76910000Y-79410000D01*
X77662560Y-79410000D01*
X77662560Y-80610000D01*
X77711843Y-80857765D01*
X77852191Y-81067809D01*
X78062235Y-81208157D01*
X78150001Y-81225614D01*
X78150001Y-81316927D01*
X78112191Y-81342191D01*
X77971843Y-81552235D01*
X77922560Y-81800000D01*
X77922560Y-83300000D01*
X77971843Y-83547765D01*
X78112191Y-83757809D01*
X78255310Y-83853438D01*
X78062235Y-83891843D01*
X77852191Y-84032191D01*
X77711843Y-84242235D01*
X77662560Y-84490000D01*
X77662560Y-85690000D01*
X77711843Y-85937765D01*
X77852191Y-86147809D01*
X78062235Y-86288157D01*
X78150001Y-86305614D01*
X78150001Y-86396927D01*
X78112191Y-86422191D01*
X77971843Y-86632235D01*
X77922560Y-86880000D01*
X77922560Y-88380000D01*
X77971843Y-88627765D01*
X78112191Y-88837809D01*
X78255310Y-88933438D01*
X78062235Y-88971843D01*
X77852191Y-89112191D01*
X77711843Y-89322235D01*
X77662560Y-89570000D01*
X77662560Y-90770000D01*
X77711843Y-91017765D01*
X77852191Y-91227809D01*
X78062235Y-91368157D01*
X78150001Y-91385614D01*
X78150001Y-91476927D01*
X78112191Y-91502191D01*
X77971843Y-91712235D01*
X77922560Y-91960000D01*
X77922560Y-93460000D01*
X77971843Y-93707765D01*
X78112191Y-93917809D01*
X78255310Y-94013438D01*
X78062235Y-94051843D01*
X77852191Y-94192191D01*
X77711843Y-94402235D01*
X77662560Y-94650000D01*
X77662560Y-95850000D01*
X77711843Y-96097765D01*
X77852191Y-96307809D01*
X78062235Y-96448157D01*
X78150001Y-96465614D01*
X78150001Y-96556927D01*
X78112191Y-96582191D01*
X77971843Y-96792235D01*
X77922560Y-97040000D01*
X77922560Y-98540000D01*
X77971843Y-98787765D01*
X78112191Y-98997809D01*
X78255310Y-99093438D01*
X78062235Y-99131843D01*
X77852191Y-99272191D01*
X77711843Y-99482235D01*
X77662560Y-99730000D01*
X77662560Y-100930000D01*
X77711843Y-101177765D01*
X77852191Y-101387809D01*
X78062235Y-101528157D01*
X78150001Y-101545614D01*
X78150001Y-101636927D01*
X78112191Y-101662191D01*
X77971843Y-101872235D01*
X77922560Y-102120000D01*
X77922560Y-103620000D01*
X77971843Y-103867765D01*
X78112191Y-104077809D01*
X78322235Y-104218157D01*
X78570000Y-104267440D01*
X79540000Y-104267440D01*
X79787765Y-104218157D01*
X79997809Y-104077809D01*
X80010000Y-104059564D01*
X80022191Y-104077809D01*
X80232235Y-104218157D01*
X80480000Y-104267440D01*
X81450000Y-104267440D01*
X81697765Y-104218157D01*
X81907809Y-104077809D01*
X82048157Y-103867765D01*
X82097440Y-103620000D01*
X82097440Y-102120000D01*
X82048157Y-101872235D01*
X81907809Y-101662191D01*
X81762354Y-101565000D01*
X81836309Y-101565000D01*
X82069698Y-101468327D01*
X82248327Y-101289699D01*
X82345000Y-101056310D01*
X82345000Y-100615750D01*
X82186250Y-100457000D01*
X81237000Y-100457000D01*
X81237000Y-100477000D01*
X80983000Y-100477000D01*
X80983000Y-100457000D01*
X80963000Y-100457000D01*
X80963000Y-100203000D01*
X80983000Y-100203000D01*
X80983000Y-100183000D01*
X81237000Y-100183000D01*
X81237000Y-100203000D01*
X82186250Y-100203000D01*
X82345000Y-100044250D01*
X82345000Y-99603690D01*
X82248327Y-99370301D01*
X82069698Y-99191673D01*
X81836309Y-99095000D01*
X81762354Y-99095000D01*
X81907809Y-98997809D01*
X82048157Y-98787765D01*
X82097440Y-98540000D01*
X82097440Y-97040000D01*
X82048157Y-96792235D01*
X81907809Y-96582191D01*
X81762354Y-96485000D01*
X81836309Y-96485000D01*
X82069698Y-96388327D01*
X82248327Y-96209699D01*
X82345000Y-95976310D01*
X82345000Y-95535750D01*
X82186250Y-95377000D01*
X81237000Y-95377000D01*
X81237000Y-95397000D01*
X80983000Y-95397000D01*
X80983000Y-95377000D01*
X80963000Y-95377000D01*
X80963000Y-95123000D01*
X80983000Y-95123000D01*
X80983000Y-95103000D01*
X81237000Y-95103000D01*
X81237000Y-95123000D01*
X82186250Y-95123000D01*
X82345000Y-94964250D01*
X82345000Y-94523690D01*
X82248327Y-94290301D01*
X82069698Y-94111673D01*
X81836309Y-94015000D01*
X81762354Y-94015000D01*
X81907809Y-93917809D01*
X82048157Y-93707765D01*
X82097440Y-93460000D01*
X82097440Y-91960000D01*
X82048157Y-91712235D01*
X81907809Y-91502191D01*
X81762354Y-91405000D01*
X81836309Y-91405000D01*
X82069698Y-91308327D01*
X82248327Y-91129699D01*
X82345000Y-90896310D01*
X82345000Y-90455750D01*
X82186250Y-90297000D01*
X81237000Y-90297000D01*
X81237000Y-90317000D01*
X80983000Y-90317000D01*
X80983000Y-90297000D01*
X80963000Y-90297000D01*
X80963000Y-90043000D01*
X80983000Y-90043000D01*
X80983000Y-90023000D01*
X81237000Y-90023000D01*
X81237000Y-90043000D01*
X82186250Y-90043000D01*
X82345000Y-89884250D01*
X82345000Y-89443690D01*
X82248327Y-89210301D01*
X82069698Y-89031673D01*
X81836309Y-88935000D01*
X81762354Y-88935000D01*
X81907809Y-88837809D01*
X82048157Y-88627765D01*
X82097440Y-88380000D01*
X82097440Y-86880000D01*
X82048157Y-86632235D01*
X81907809Y-86422191D01*
X81762354Y-86325000D01*
X81836309Y-86325000D01*
X82069698Y-86228327D01*
X82248327Y-86049699D01*
X82345000Y-85816310D01*
X82345000Y-85375750D01*
X82186250Y-85217000D01*
X81237000Y-85217000D01*
X81237000Y-85237000D01*
X80983000Y-85237000D01*
X80983000Y-85217000D01*
X80963000Y-85217000D01*
X80963000Y-84963000D01*
X80983000Y-84963000D01*
X80983000Y-84943000D01*
X81237000Y-84943000D01*
X81237000Y-84963000D01*
X82186250Y-84963000D01*
X82345000Y-84804250D01*
X82345000Y-84363690D01*
X82248327Y-84130301D01*
X82069698Y-83951673D01*
X81836309Y-83855000D01*
X81762354Y-83855000D01*
X81907809Y-83757809D01*
X82048157Y-83547765D01*
X82097440Y-83300000D01*
X82097440Y-81800000D01*
X82048157Y-81552235D01*
X81907809Y-81342191D01*
X81762354Y-81245000D01*
X81836309Y-81245000D01*
X82069698Y-81148327D01*
X82248327Y-80969699D01*
X82345000Y-80736310D01*
X82345000Y-80295750D01*
X82186250Y-80137000D01*
X81237000Y-80137000D01*
X81237000Y-80157000D01*
X80983000Y-80157000D01*
X80983000Y-80137000D01*
X80963000Y-80137000D01*
X80963000Y-79883000D01*
X80983000Y-79883000D01*
X80983000Y-78933750D01*
X81237000Y-78933750D01*
X81237000Y-79883000D01*
X82186250Y-79883000D01*
X82345000Y-79724250D01*
X82345000Y-79410000D01*
X82742560Y-79410000D01*
X82742560Y-80610000D01*
X82791843Y-80857765D01*
X82932191Y-81067809D01*
X83142235Y-81208157D01*
X83230001Y-81225614D01*
X83230001Y-81316927D01*
X83192191Y-81342191D01*
X83051843Y-81552235D01*
X83002560Y-81800000D01*
X83002560Y-83300000D01*
X83051843Y-83547765D01*
X83192191Y-83757809D01*
X83335310Y-83853438D01*
X83142235Y-83891843D01*
X82932191Y-84032191D01*
X82791843Y-84242235D01*
X82742560Y-84490000D01*
X82742560Y-85690000D01*
X82791843Y-85937765D01*
X82932191Y-86147809D01*
X83142235Y-86288157D01*
X83230001Y-86305614D01*
X83230001Y-86396927D01*
X83192191Y-86422191D01*
X83051843Y-86632235D01*
X83002560Y-86880000D01*
X83002560Y-88380000D01*
X83051843Y-88627765D01*
X83192191Y-88837809D01*
X83335310Y-88933438D01*
X83142235Y-88971843D01*
X82932191Y-89112191D01*
X82791843Y-89322235D01*
X82742560Y-89570000D01*
X82742560Y-90770000D01*
X82791843Y-91017765D01*
X82932191Y-91227809D01*
X83142235Y-91368157D01*
X83230001Y-91385614D01*
X83230001Y-91476927D01*
X83192191Y-91502191D01*
X83051843Y-91712235D01*
X83002560Y-91960000D01*
X83002560Y-93460000D01*
X83051843Y-93707765D01*
X83192191Y-93917809D01*
X83335310Y-94013438D01*
X83142235Y-94051843D01*
X82932191Y-94192191D01*
X82791843Y-94402235D01*
X82742560Y-94650000D01*
X82742560Y-95850000D01*
X82791843Y-96097765D01*
X82932191Y-96307809D01*
X83142235Y-96448157D01*
X83230001Y-96465614D01*
X83230001Y-96556927D01*
X83192191Y-96582191D01*
X83051843Y-96792235D01*
X83002560Y-97040000D01*
X83002560Y-98540000D01*
X83051843Y-98787765D01*
X83192191Y-98997809D01*
X83335310Y-99093438D01*
X83142235Y-99131843D01*
X82932191Y-99272191D01*
X82791843Y-99482235D01*
X82742560Y-99730000D01*
X82742560Y-100930000D01*
X82791843Y-101177765D01*
X82932191Y-101387809D01*
X83142235Y-101528157D01*
X83230001Y-101545614D01*
X83230001Y-101636927D01*
X83192191Y-101662191D01*
X83051843Y-101872235D01*
X83002560Y-102120000D01*
X83002560Y-103620000D01*
X83051843Y-103867765D01*
X83192191Y-104077809D01*
X83402235Y-104218157D01*
X83650000Y-104267440D01*
X84620000Y-104267440D01*
X84867765Y-104218157D01*
X85077809Y-104077809D01*
X85090000Y-104059564D01*
X85102191Y-104077809D01*
X85312235Y-104218157D01*
X85560000Y-104267440D01*
X86530000Y-104267440D01*
X86777765Y-104218157D01*
X86987809Y-104077809D01*
X87128157Y-103867765D01*
X87177440Y-103620000D01*
X87177440Y-102120000D01*
X87128157Y-101872235D01*
X86987809Y-101662191D01*
X86842354Y-101565000D01*
X86916309Y-101565000D01*
X87149698Y-101468327D01*
X87328327Y-101289699D01*
X87425000Y-101056310D01*
X87425000Y-100615750D01*
X87266250Y-100457000D01*
X86317000Y-100457000D01*
X86317000Y-100477000D01*
X86063000Y-100477000D01*
X86063000Y-100457000D01*
X86043000Y-100457000D01*
X86043000Y-100203000D01*
X86063000Y-100203000D01*
X86063000Y-100183000D01*
X86317000Y-100183000D01*
X86317000Y-100203000D01*
X87266250Y-100203000D01*
X87425000Y-100044250D01*
X87425000Y-99603690D01*
X87328327Y-99370301D01*
X87149698Y-99191673D01*
X86916309Y-99095000D01*
X86842354Y-99095000D01*
X86987809Y-98997809D01*
X87128157Y-98787765D01*
X87177440Y-98540000D01*
X87177440Y-97040000D01*
X87128157Y-96792235D01*
X86987809Y-96582191D01*
X86842354Y-96485000D01*
X86916309Y-96485000D01*
X87149698Y-96388327D01*
X87328327Y-96209699D01*
X87425000Y-95976310D01*
X87425000Y-95535750D01*
X87266250Y-95377000D01*
X86317000Y-95377000D01*
X86317000Y-95397000D01*
X86063000Y-95397000D01*
X86063000Y-95377000D01*
X86043000Y-95377000D01*
X86043000Y-95123000D01*
X86063000Y-95123000D01*
X86063000Y-95103000D01*
X86317000Y-95103000D01*
X86317000Y-95123000D01*
X87266250Y-95123000D01*
X87425000Y-94964250D01*
X87425000Y-94523690D01*
X87328327Y-94290301D01*
X87149698Y-94111673D01*
X86916309Y-94015000D01*
X86842354Y-94015000D01*
X86987809Y-93917809D01*
X87128157Y-93707765D01*
X87177440Y-93460000D01*
X87177440Y-91960000D01*
X87128157Y-91712235D01*
X86987809Y-91502191D01*
X86842354Y-91405000D01*
X86916309Y-91405000D01*
X87149698Y-91308327D01*
X87328327Y-91129699D01*
X87425000Y-90896310D01*
X87425000Y-90455750D01*
X87266250Y-90297000D01*
X86317000Y-90297000D01*
X86317000Y-90317000D01*
X86063000Y-90317000D01*
X86063000Y-90297000D01*
X86043000Y-90297000D01*
X86043000Y-90043000D01*
X86063000Y-90043000D01*
X86063000Y-90023000D01*
X86317000Y-90023000D01*
X86317000Y-90043000D01*
X87266250Y-90043000D01*
X87425000Y-89884250D01*
X87425000Y-89443690D01*
X87328327Y-89210301D01*
X87149698Y-89031673D01*
X86916309Y-88935000D01*
X86842354Y-88935000D01*
X86987809Y-88837809D01*
X87128157Y-88627765D01*
X87177440Y-88380000D01*
X87177440Y-86880000D01*
X87128157Y-86632235D01*
X86987809Y-86422191D01*
X86842354Y-86325000D01*
X86916309Y-86325000D01*
X87149698Y-86228327D01*
X87328327Y-86049699D01*
X87425000Y-85816310D01*
X87425000Y-85375750D01*
X87266250Y-85217000D01*
X86317000Y-85217000D01*
X86317000Y-85237000D01*
X86063000Y-85237000D01*
X86063000Y-85217000D01*
X86043000Y-85217000D01*
X86043000Y-84963000D01*
X86063000Y-84963000D01*
X86063000Y-84943000D01*
X86317000Y-84943000D01*
X86317000Y-84963000D01*
X87266250Y-84963000D01*
X87425000Y-84804250D01*
X87425000Y-84363690D01*
X87328327Y-84130301D01*
X87149698Y-83951673D01*
X86916309Y-83855000D01*
X86842354Y-83855000D01*
X86987809Y-83757809D01*
X87128157Y-83547765D01*
X87177440Y-83300000D01*
X87177440Y-81800000D01*
X87128157Y-81552235D01*
X86987809Y-81342191D01*
X86842354Y-81245000D01*
X86916309Y-81245000D01*
X87149698Y-81148327D01*
X87328327Y-80969699D01*
X87425000Y-80736310D01*
X87425000Y-80295750D01*
X87266250Y-80137000D01*
X86317000Y-80137000D01*
X86317000Y-80157000D01*
X86063000Y-80157000D01*
X86063000Y-80137000D01*
X86043000Y-80137000D01*
X86043000Y-79883000D01*
X86063000Y-79883000D01*
X86063000Y-78933750D01*
X86317000Y-78933750D01*
X86317000Y-79883000D01*
X87266250Y-79883000D01*
X87425000Y-79724250D01*
X87425000Y-79283690D01*
X87328327Y-79050301D01*
X87149698Y-78871673D01*
X86916309Y-78775000D01*
X86475750Y-78775000D01*
X86317000Y-78933750D01*
X86063000Y-78933750D01*
X85904250Y-78775000D01*
X85463691Y-78775000D01*
X85230302Y-78871673D01*
X85088654Y-79013320D01*
X85047809Y-78952191D01*
X84837765Y-78811843D01*
X84590000Y-78762560D01*
X83390000Y-78762560D01*
X83142235Y-78811843D01*
X82932191Y-78952191D01*
X82791843Y-79162235D01*
X82742560Y-79410000D01*
X82345000Y-79410000D01*
X82345000Y-79283690D01*
X82248327Y-79050301D01*
X82069698Y-78871673D01*
X81836309Y-78775000D01*
X81395750Y-78775000D01*
X81237000Y-78933750D01*
X80983000Y-78933750D01*
X80824250Y-78775000D01*
X80383691Y-78775000D01*
X80150302Y-78871673D01*
X80008654Y-79013320D01*
X79967809Y-78952191D01*
X79757765Y-78811843D01*
X79510000Y-78762560D01*
X78310000Y-78762560D01*
X78062235Y-78811843D01*
X77852191Y-78952191D01*
X77711843Y-79162235D01*
X77662560Y-79410000D01*
X76910000Y-79410000D01*
X76910000Y-78306681D01*
X76921725Y-78304349D01*
X77027738Y-78260437D01*
X77177664Y-78198336D01*
X77672086Y-77867975D01*
X77867974Y-77672086D01*
X77867975Y-77672085D01*
X78198336Y-77177664D01*
X78271888Y-77000091D01*
X78304349Y-76921724D01*
X78306681Y-76910000D01*
X87415000Y-76910000D01*
X87415000Y-77184250D01*
M02*
