  0
SECTION
  2
HEADER
  9
$ACADVER
  1
AC1024
  9
$ACADMAINTVER
 70
     6
  9
$DWGCODEPAGE
  3
ANSI_1252
  9
$INSBASE
 10
0.0
 20
0.0
 30
0.0
  9
$EXTMIN
 10
1.000000000000000E+20
 20
1.000000000000000E+20
 30
1.000000000000000E+20
  9
$EXTMAX
 10
-1.000000000000000E+20
 20
-1.000000000000000E+20
 30
-1.000000000000000E+20
  9
$LIMMIN
 10
0.0
 20
0.0
  9
$LIMMAX
 10
12.0
 20
9.0
  9
$ORTHOMODE
 70
     0
  9
$REGENMODE
 70
     1
  9
$FILLMODE
 70
     1
  9
$QTEXTMODE
 70
     0
  9
$MIRRTEXT
 70
     1
  9
$LTSCALE
 40
1.0
  9
$ATTMODE
 70
     1
  9
$TEXTSIZE
 40
0.2
  9
$TRACEWID
 40
0.05
  9
$TEXTSTYLE
  7
Standard
  9
$CLAYER
  8
0
  9
$CELTYPE
  6
ByLayer
  9
$CECOLOR
 62
   256
  9
$CELTSCALE
 40
1.0
  9
$DISPSILH
 70
     0
  9
$DIMSCALE
 40
1.0
  9
$DIMASZ
 40
0.18
  9
$DIMEXO
 40
0.0625
  9
$DIMDLI
 40
0.38
  9
$DIMRND
 40
0.0
  9
$DIMDLE
 40
0.0
  9
$DIMEXE
 40
0.18
  9
$DIMTP
 40
0.0
  9
$DIMTM
 40
0.0
  9
$DIMTXT
 40
0.18
  9
$DIMCEN
 40
0.09
  9
$DIMTSZ
 40
0.0
  9
$DIMTOL
 70
     0
  9
$DIMLIM
 70
     0
  9
$DIMTIH
 70
     1
  9
$DIMTOH
 70
     1
  9
$DIMSE1
 70
     0
  9
$DIMSE2
 70
     0
  9
$DIMTAD
 70
     0
  9
$DIMZIN
 70
     0
  9
$DIMBLK
  1

  9
$DIMASO
 70
     1
  9
$DIMSHO
 70
     1
  9
$DIMPOST
  1

  9
$DIMAPOST
  1

  9
$DIMALT
 70
     0
  9
$DIMALTD
 70
     2
  9
$DIMALTF
 40
25.4
  9
$DIMLFAC
 40
1.0
  9
$DIMTOFL
 70
     0
  9
$DIMTVP
 40
0.0
  9
$DIMTIX
 70
     0
  9
$DIMSOXD
 70
     0
  9
$DIMSAH
 70
     0
  9
$DIMBLK1
  1

  9
$DIMBLK2
  1

  9
$DIMSTYLE
  2
Standard
  9
$DIMCLRD
 70
     0
  9
$DIMCLRE
 70
     0
  9
$DIMCLRT
 70
     0
  9
$DIMTFAC
 40
1.0
  9
$DIMGAP
 40
0.09
  9
$DIMJUST
 70
     0
  9
$DIMSD1
 70
     0
  9
$DIMSD2
 70
     0
  9
$DIMTOLJ
 70
     1
  9
$DIMTZIN
 70
     0
  9
$DIMALTZ
 70
     0
  9
$DIMALTTZ
 70
     0
  9
$DIMUPT
 70
     0
  9
$DIMDEC
 70
     4
  9
$DIMTDEC
 70
     4
  9
$DIMALTU
 70
     2
  9
$DIMALTTD
 70
     2
  9
$DIMTXSTY
  7
Standard
  9
$DIMAUNIT
 70
     0
  9
$DIMADEC
 70
     0
  9
$DIMALTRND
 40
0.0
  9
$DIMAZIN
 70
     0
  9
$DIMDSEP
 70
    46
  9
$DIMATFIT
 70
     3
  9
$DIMFRAC
 70
     0
  9
$DIMLDRBLK
  1

  9
$DIMLUNIT
 70
     2
  9
$DIMLWD
 70
    -2
  9
$DIMLWE
 70
    -2
  9
$DIMTMOVE
 70
     0
  9
$DIMFXL
 40
1.0
  9
$DIMFXLON
 70
     0
  9
$DIMJOGANG
 40
0.7853981633974483
  9
$DIMTFILL
 70
     0
  9
$DIMTFILLCLR
 70
     0
  9
$DIMARCSYM
 70
     0
  9
$DIMLTYPE
  6

  9
$DIMLTEX1
  6

  9
$DIMLTEX2
  6

  9
$DIMTXTDIRECTION
 70
     0
  9
$LUNITS
 70
     2
  9
$LUPREC
 70
     4
  9
$SKETCHINC
 40
0.1
  9
$FILLETRAD
 40
0.5
  9
$AUNITS
 70
     0
  9
$AUPREC
 70
     0
  9
$MENU
  1
.
  9
$ELEVATION
 40
0.0
  9
$PELEVATION
 40
0.0
  9
$THICKNESS
 40
0.0
  9
$LIMCHECK
 70
     0
  9
$CHAMFERA
 40
0.5
  9
$CHAMFERB
 40
0.5
  9
$CHAMFERC
 40
1.0
  9
$CHAMFERD
 40
0.0
  9
$SKPOLY
 70
     0
  9
$TDCREATE
 40
2458107.024690914
  9
$TDUCREATE
 40
2458107.233024247
  9
$TDUPDATE
 40
2458107.024690938
  9
$TDUUPDATE
 40
2458107.233024271
  9
$TDINDWG
 40
0.0000000116
  9
$TDUSRTIMER
 40
0.0000000116
  9
$USRTIMER
 70
     1
  9
$ANGBASE
 50
0.0
  9
$ANGDIR
 70
     0
  9
$PDMODE
 70
     0
  9
$PDSIZE
 40
0.0
  9
$PLINEWID
 40
0.0
  9
$SPLFRAME
 70
     0
  9
$SPLINETYPE
 70
     6
  9
$SPLINESEGS
 70
     8
  9
$HANDSEED
  5
44
  9
$SURFTAB1
 70
     6
  9
$SURFTAB2
 70
     6
  9
$SURFTYPE
 70
     6
  9
$SURFU
 70
     6
  9
$SURFV
 70
     6
  9
$UCSBASE
  2

  9
$UCSNAME
  2

  9
$UCSORG
 10
0.0
 20
0.0
 30
0.0
  9
$UCSXDIR
 10
1.0
 20
0.0
 30
0.0
  9
$UCSYDIR
 10
0.0
 20
1.0
 30
0.0
  9
$UCSORTHOREF
  2

  9
$UCSORTHOVIEW
 70
     0
  9
$UCSORGTOP
 10
0.0
 20
0.0
 30
0.0
  9
$UCSORGBOTTOM
 10
0.0
 20
0.0
 30
0.0
  9
$UCSORGLEFT
 10
0.0
 20
0.0
 30
0.0
  9
$UCSORGRIGHT
 10
0.0
 20
0.0
 30
0.0
  9
$UCSORGFRONT
 10
0.0
 20
0.0
 30
0.0
  9
$UCSORGBACK
 10
0.0
 20
0.0
 30
0.0
  9
$PUCSBASE
  2

  9
$PUCSNAME
  2

  9
$PUCSORG
 10
0.0
 20
0.0
 30
0.0
  9
$PUCSXDIR
 10
1.0
 20
0.0
 30
0.0
  9
$PUCSYDIR
 10
0.0
 20
1.0
 30
0.0
  9
$PUCSORTHOREF
  2

  9
$PUCSORTHOVIEW
 70
     0
  9
$PUCSORGTOP
 10
0.0
 20
0.0
 30
0.0
  9
$PUCSORGBOTTOM
 10
0.0
 20
0.0
 30
0.0
  9
$PUCSORGLEFT
 10
0.0
 20
0.0
 30
0.0
  9
$PUCSORGRIGHT
 10
0.0
 20
0.0
 30
0.0
  9
$PUCSORGFRONT
 10
0.0
 20
0.0
 30
0.0
  9
$PUCSORGBACK
 10
0.0
 20
0.0
 30
0.0
  9
$USERI1
 70
     0
  9
$USERI2
 70
     0
  9
$USERI3
 70
     0
  9
$USERI4
 70
     0
  9
$USERI5
 70
     0
  9
$USERR1
 40
0.0
  9
$USERR2
 40
0.0
  9
$USERR3
 40
0.0
  9
$USERR4
 40
0.0
  9
$USERR5
 40
0.0
  9
$WORLDVIEW
 70
     1
  9
$SHADEDGE
 70
     3
  9
$SHADEDIF
 70
    70
  9
$TILEMODE
 70
     1
  9
$MAXACTVP
 70
    64
  9
$PINSBASE
 10
0.0
 20
0.0
 30
0.0
  9
$PLIMCHECK
 70
     0
  9
$PEXTMIN
 10
1.000000000000000E+20
 20
1.000000000000000E+20
 30
1.000000000000000E+20
  9
$PEXTMAX
 10
-1.000000000000000E+20
 20
-1.000000000000000E+20
 30
-1.000000000000000E+20
  9
$PLIMMIN
 10
0.0
 20
0.0
  9
$PLIMMAX
 10
12.0
 20
9.0
  9
$UNITMODE
 70
     0
  9
$VISRETAIN
 70
     1
  9
$PLINEGEN
 70
     0
  9
$PSLTSCALE
 70
     1
  9
$TREEDEPTH
 70
  3020
  9
$CMLSTYLE
  2
Standard
  9
$CMLJUST
 70
     0
  9
$CMLSCALE
 40
1.0
  9
$PROXYGRAPHICS
 70
     1
  9
$MEASUREMENT
 70
     0
  9
$CELWEIGHT
370
    -1
  9
$ENDCAPS
280
     0
  9
$JOINSTYLE
280
     0
  9
$LWDISPLAY
290
     1
  9
$INSUNITS
 70
     1
  9
$HYPERLINKBASE
  1

  9
$STYLESHEET
  1

  9
$XEDIT
290
     1
  9
$CEPSNTYPE
380
     0
  9
$PSTYLEMODE
290
     1
  9
$FINGERPRINTGUID
  2
{80A6E9EF-8BA1-4960-B256-F334B7D7ECA2}
  9
$VERSIONGUID
  2
{FAEB1C32-E019-11D5-929B-00C0DF256EC4}
  9
$EXTNAMES
290
     1
  9
$PSVPSCALE
 40
0.0
  9
$OLESTARTUP
290
     0
  9
$SORTENTS
280
   127
  9
$INDEXCTL
280
     0
  9
$HIDETEXT
280
     1
  9
$XCLIPFRAME
280
     2
  9
$HALOGAP
280
     0
  9
$OBSCOLOR
 70
   257
  9
$OBSLTYPE
280
     0
  9
$INTERSECTIONDISPLAY
280
     0
  9
$INTERSECTIONCOLOR
 70
   257
  9
$DIMASSOC
280
     2
  9
$PROJECTNAME
  1

  9
$CAMERADISPLAY
290
     0
  9
$LENSLENGTH
 40
50.0
  9
$CAMERAHEIGHT
 40
0.0
  9
$STEPSPERSEC
 40
2.0
  9
$STEPSIZE
 40
6.0
  9
$3DDWFPREC
 40
2.0
  9
$PSOLWIDTH
 40
0.25
  9
$PSOLHEIGHT
 40
4.0
  9
$LOFTANG1
 40
1.570796326794897
  9
$LOFTANG2
 40
1.570796326794897
  9
$LOFTMAG1
 40
0.0
  9
$LOFTMAG2
 40
0.0
  9
$LOFTPARAM
 70
     7
  9
$LOFTNORMALS
280
     1
  9
$LATITUDE
 40
37.795
  9
$LONGITUDE
 40
-122.394
  9
$NORTHDIRECTION
 40
0.0
  9
$TIMEZONE
 70
 -8000
  9
$LIGHTGLYPHDISPLAY
280
     1
  9
$TILEMODELIGHTSYNCH
280
     1
  9
$CMATERIAL
347
3C
  9
$SOLIDHIST
280
     1
  9
$SHOWHIST
280
     1
  9
$DWFFRAME
280
     2
  9
$DGNFRAME
280
     2
  9
$REALWORLDSCALE
290
     1
  9
$INTERFERECOLOR
 62
   256
  9
$CSHADOW
280
     0
  9
$SHADOWPLANELOCATION
 40
0.0
  0
ENDSEC
  0
SECTION
  2
CLASSES
  0
CLASS
  1
ACDBDICTIONARYWDFLT
  2
AcDbDictionaryWithDefault
  3
ObjectDBX Classes
 90
        0
 91
        4
280
     0
281
     0
  0
CLASS
  1
VISUALSTYLE
  2
AcDbVisualStyle
  3
ObjectDBX Classes
 90
     4095
 91
        4
280
     0
281
     0
  0
CLASS
  1
MATERIAL
  2
AcDbMaterial
  3
ObjectDBX Classes
 90
     1153
 91
        4
280
     0
281
     0
  0
CLASS
  1
SUN
  2
AcDbSun
  3
SCENEOE
 90
     1024
 91
        4
280
     0
281
     0
  0
ENDSEC
  0
SECTION
  2
TABLES
  0
TABLE
  2
VPORT
  5
8
330
0
100
AcDbSymbolTable
 70
     1
  0
VPORT
  5
29
330
8
100
AcDbSymbolTableRecord
100
AcDbViewportTableRecord
  2
*Active
 70
     0
 10
0.0
 20
0.0
 11
1.0
 21
1.0
 12
0.0
 22
0.0
 13
0.0
 23
0.0
 14
0.5
 24
0.5
 15
0.5
 25
0.5
 16
0.0
 26
0.0
 36
1.0
 17
5.5
 27
-3.5
 37
0.0
 40
7.0
 41
1.571428571428571
 42
50.0
 43
0.0
 44
0.0
 50
0.0
 51
0.0
 71
     0
 72
   100
 73
     1
 74
     3
 75
     0
 76
     0
 77
     0
 78
     0
281
     0
 65
     1
110
0.0
120
0.0
130
0.0
111
1.0
121
0.0
131
0.0
112
0.0
122
1.0
132
0.0
 79
     0
146
0.0
 60
     3
 61
     5
292
     1
282
     1
141
0.0
142
0.0
 63
   250
361
3F
  0
ENDTAB
  0
TABLE
  2
LTYPE
  5
5
330
0
100
AcDbSymbolTable
 70
     1
  0
LTYPE
  5
14
330
5
100
AcDbSymbolTableRecord
100
AcDbLinetypeTableRecord
  2
ByBlock
 70
     0
  3

 72
    65
 73
     0
 40
0.0
  0
LTYPE
  5
15
330
5
100
AcDbSymbolTableRecord
100
AcDbLinetypeTableRecord
  2
ByLayer
 70
     0
  3

 72
    65
 73
     0
 40
0.0
  0
LTYPE
  5
16
330
5
100
AcDbSymbolTableRecord
100
AcDbLinetypeTableRecord
  2
Continuous
 70
     0
  3
Solid line
 72
    65
 73
     0
 40
0.0
  0
ENDTAB
  0
TABLE
  2
LAYER
  5
2
330
0
100
AcDbSymbolTable
 70
     2
  0
LAYER
  5
10
330
2
100
AcDbSymbolTableRecord
100
AcDbLayerTableRecord
  2
0
 70
     0
 62
     7
  6
Continuous
370
    -3
390
F
347
3E
  0
LAYER
  5
40
330
2
100
AcDbSymbolTableRecord
100
AcDbLayerTableRecord
  2
Layer 1
 70
     0
 62
     7
  6
Continuous
370
    -3
390
F
347
3E
  0
ENDTAB
  0
TABLE
  2
STYLE
  5
3
330
0
100
AcDbSymbolTable
 70
     1
  0
STYLE
  5
11
330
3
100
AcDbSymbolTableRecord
100
AcDbTextStyleTableRecord
  2
Standard
 70
     0
 40
0.0
 41
1.0
 50
0.0
 71
     0
 42
0.2
  3
txt
  4

  0
ENDTAB
  0
TABLE
  2
VIEW
  5
6
330
0
100
AcDbSymbolTable
 70
     0
  0
ENDTAB
  0
TABLE
  2
UCS
  5
7
330
0
100
AcDbSymbolTable
 70
     0
  0
ENDTAB
  0
TABLE
  2
APPID
  5
9
330
0
100
AcDbSymbolTable
 70
     1
  0
APPID
  5
12
330
9
100
AcDbSymbolTableRecord
100
AcDbRegAppTableRecord
  2
ACAD
 70
     0
  0
ENDTAB
  0
TABLE
  2
DIMSTYLE
  5
A
330
0
100
AcDbSymbolTable
 70
     1
100
AcDbDimStyleTable
  0
DIMSTYLE
105
27
330
A
100
AcDbSymbolTableRecord
100
AcDbDimStyleTableRecord
  2
Standard
 70
     0
178
     0
340
11
  0
ENDTAB
  0
TABLE
  2
BLOCK_RECORD
  5
1
330
0
100
AcDbSymbolTable
 70
     1
  0
BLOCK_RECORD
  5
1F
330
1
100
AcDbSymbolTableRecord
100
AcDbBlockTableRecord
  2
*Model_Space
340
22
 70
     0
280
     1
281
     0
  0
BLOCK_RECORD
  5
1B
330
1
100
AcDbSymbolTableRecord
100
AcDbBlockTableRecord
  2
*Paper_Space
340
1E
 70
     0
280
     1
281
     0
  0
BLOCK_RECORD
  5
23
330
1
100
AcDbSymbolTableRecord
100
AcDbBlockTableRecord
  2
*Paper_Space0
340
26
 70
     0
280
     1
281
     0
  0
ENDTAB
  0
ENDSEC
  0
SECTION
  2
BLOCKS
  0
BLOCK
  5
20
330
1F
100
AcDbEntity
  8
0
100
AcDbBlockBegin
  2
*Model_Space
 70
     0
 10
0.0
 20
0.0
 30
0.0
  3
*Model_Space
  1

  0
ENDBLK
  5
21
330
1F
100
AcDbEntity
  8
0
100
AcDbBlockEnd
  0
BLOCK
  5
1C
330
1B
100
AcDbEntity
 67
     1
  8
0
100
AcDbBlockBegin
  2
*Paper_Space
 70
     0
 10
0.0
 20
0.0
 30
0.0
  3
*Paper_Space
  1

  0
ENDBLK
  5
1D
330
1B
100
AcDbEntity
 67
     1
  8
0
100
AcDbBlockEnd
  0
BLOCK
  5
24
330
23
100
AcDbEntity
  8
0
100
AcDbBlockBegin
  2
*Paper_Space0
 70
     0
 10
0.0
 20
0.0
 30
0.0
  3
*Paper_Space0
  1

  0
ENDBLK
  5
25
330
23
100
AcDbEntity
  8
0
100
AcDbBlockEnd
  0
ENDSEC
  0
SECTION
  2
ENTITIES
  0
SPLINE
  5
41
330
1F
100
AcDbEntity
  8
Layer 1
 62
   250
420
  2301728
370
    35
100
AcDbSpline
210
0.0
220
0.0
230
1.0
 70
    11
 71
     3
 72
   326
 73
   322
 74
     0
 42
0.0000000001
 43
0.0000000001
 12
1.0
 22
0.0
 32
0.0
 13
1.0
 23
0.0
 33
0.0
 40
0.0
 40
0.0
 40
0.0
 40
0.0
 40
1.0
 40
1.0
 40
1.0
 40
2.0
 40
2.0
 40
2.0
 40
3.0
 40
3.0
 40
3.0
 40
4.0
 40
4.0
 40
4.0
 40
5.0
 40
5.0
 40
5.0
 40
6.0
 40
6.0
 40
6.0
 40
7.0
 40
7.0
 40
7.0
 40
8.0
 40
8.0
 40
8.0
 40
9.0
 40
9.0
 40
9.0
 40
10.0
 40
10.0
 40
10.0
 40
11.0
 40
11.0
 40
11.0
 40
12.0
 40
12.0
 40
12.0
 40
13.0
 40
13.0
 40
13.0
 40
14.0
 40
14.0
 40
14.0
 40
15.0
 40
15.0
 40
15.0
 40
16.0
 40
16.0
 40
16.0
 40
17.0
 40
17.0
 40
17.0
 40
18.0
 40
18.0
 40
18.0
 40
19.0
 40
19.0
 40
19.0
 40
20.0
 40
20.0
 40
20.0
 40
21.0
 40
21.0
 40
21.0
 40
22.0
 40
22.0
 40
22.0
 40
23.0
 40
23.0
 40
23.0
 40
24.0
 40
24.0
 40
24.0
 40
25.0
 40
25.0
 40
25.0
 40
26.0
 40
26.0
 40
26.0
 40
27.0
 40
27.0
 40
27.0
 40
28.0
 40
28.0
 40
28.0
 40
29.0
 40
29.0
 40
29.0
 40
30.0
 40
30.0
 40
30.0
 40
31.0
 40
31.0
 40
31.0
 40
32.0
 40
32.0
 40
32.0
 40
33.0
 40
33.0
 40
33.0
 40
34.0
 40
34.0
 40
34.0
 40
35.0
 40
35.0
 40
35.0
 40
36.0
 40
36.0
 40
36.0
 40
37.0
 40
37.0
 40
37.0
 40
38.0
 40
38.0
 40
38.0
 40
39.0
 40
39.0
 40
39.0
 40
40.0
 40
40.0
 40
40.0
 40
41.0
 40
41.0
 40
41.0
 40
42.0
 40
42.0
 40
42.0
 40
43.0
 40
43.0
 40
43.0
 40
44.0
 40
44.0
 40
44.0
 40
45.0
 40
45.0
 40
45.0
 40
46.0
 40
46.0
 40
46.0
 40
47.0
 40
47.0
 40
47.0
 40
48.0
 40
48.0
 40
48.0
 40
49.0
 40
49.0
 40
49.0
 40
50.0
 40
50.0
 40
50.0
 40
51.0
 40
51.0
 40
51.0
 40
52.0
 40
52.0
 40
52.0
 40
53.0
 40
53.0
 40
53.0
 40
54.0
 40
54.0
 40
54.0
 40
55.0
 40
55.0
 40
55.0
 40
56.0
 40
56.0
 40
56.0
 40
57.0
 40
57.0
 40
57.0
 40
58.0
 40
58.0
 40
58.0
 40
59.0
 40
59.0
 40
59.0
 40
60.0
 40
60.0
 40
60.0
 40
61.0
 40
61.0
 40
61.0
 40
62.0
 40
62.0
 40
62.0
 40
63.0
 40
63.0
 40
63.0
 40
64.0
 40
64.0
 40
64.0
 40
65.0
 40
65.0
 40
65.0
 40
66.0
 40
66.0
 40
66.0
 40
67.0
 40
67.0
 40
67.0
 40
68.0
 40
68.0
 40
68.0
 40
69.0
 40
69.0
 40
69.0
 40
70.0
 40
70.0
 40
70.0
 40
71.0
 40
71.0
 40
71.0
 40
72.0
 40
72.0
 40
72.0
 40
73.0
 40
73.0
 40
73.0
 40
74.0
 40
74.0
 40
74.0
 40
75.0
 40
75.0
 40
75.0
 40
76.0
 40
76.0
 40
76.0
 40
77.0
 40
77.0
 40
77.0
 40
78.0
 40
78.0
 40
78.0
 40
79.0
 40
79.0
 40
79.0
 40
80.0
 40
80.0
 40
80.0
 40
81.0
 40
81.0
 40
81.0
 40
82.0
 40
82.0
 40
82.0
 40
83.0
 40
83.0
 40
83.0
 40
84.0
 40
84.0
 40
84.0
 40
85.0
 40
85.0
 40
85.0
 40
86.0
 40
86.0
 40
86.0
 40
87.0
 40
87.0
 40
87.0
 40
88.0
 40
88.0
 40
88.0
 40
89.0
 40
89.0
 40
89.0
 40
90.0
 40
90.0
 40
90.0
 40
91.0
 40
91.0
 40
91.0
 40
92.0
 40
92.0
 40
92.0
 40
93.0
 40
93.0
 40
93.0
 40
94.0
 40
94.0
 40
94.0
 40
95.0
 40
95.0
 40
95.0
 40
96.0
 40
96.0
 40
96.0
 40
97.0
 40
97.0
 40
97.0
 40
98.0
 40
98.0
 40
98.0
 40
99.0
 40
99.0
 40
99.0
 40
100.0
 40
100.0
 40
100.0
 40
101.0
 40
101.0
 40
101.0
 40
102.0
 40
102.0
 40
102.0
 40
103.0
 40
103.0
 40
103.0
 40
104.0
 40
104.0
 40
104.0
 40
105.0
 40
105.0
 40
105.0
 40
106.0
 40
106.0
 40
106.0
 40
107.0
 40
107.0
 40
107.0
 40
107.0
 10
11.0
 20
-4.938509623209635
 30
0.0
 10
11.0
 20
-4.938509623209635
 30
0.0
 10
10.97361077202691
 20
-4.936110602484809
 30
0.0
 10
10.97361077202691
 20
-4.936110602484809
 30
0.0
 10
10.97361077202691
 20
-4.936110602484809
 30
0.0
 10
10.51111094156901
 20
-4.952777438693576
 30
0.0
 10
10.51111094156901
 20
-4.952777438693576
 30
0.0
 10
10.51111094156901
 20
-4.952777438693576
 30
0.0
 10
10.51944308810764
 20
-5.086111280653212
 30
0.0
 10
10.51944308810764
 20
-5.086111280653212
 30
0.0
 10
10.51944308810764
 20
-5.086111280653212
 30
0.0
 10
10.29444291856554
 20
-5.077777438693576
 30
0.0
 10
10.29444291856554
 20
-5.077777438693576
 30
0.0
 10
10.29444291856554
 20
-5.077777438693576
 30
0.0
 10
10.29444291856554
 20
-5.056944105360243
 30
0.0
 10
10.29444291856554
 20
-5.056944105360243
 30
0.0
 10
10.29444291856554
 20
-5.056944105360243
 30
0.0
 10
10.46527608235677
 20
-5.052777608235677
 30
0.0
 10
10.46527608235677
 20
-5.052777608235677
 30
0.0
 10
10.46527608235677
 20
-5.052777608235677
 30
0.0
 10
10.46527608235677
 20
-4.861111111111111
 30
0.0
 10
10.46527608235677
 20
-4.861111111111111
 30
0.0
 10
10.46527608235677
 20
-4.861111111111111
 30
0.0
 10
9.990275912814669
 20
-4.861111111111111
 30
0.0
 10
9.990275912814669
 20
-4.861111111111111
 30
0.0
 10
9.990275912814669
 20
-4.861111111111111
 30
0.0
 10
9.990275912814669
 20
-5.048611111111111
 30
0.0
 10
9.990275912814669
 20
-5.048611111111111
 30
0.0
 10
9.990275912814669
 20
-5.048611111111111
 30
0.0
 10
10.19444444444444
 20
-5.052777608235677
 30
0.0
 10
10.19444444444444
 20
-5.052777608235677
 30
0.0
 10
10.19444444444444
 20
-5.052777608235677
 30
0.0
 10
10.19027709960938
 20
-5.069444444444444
 30
0.0
 10
10.19027709960938
 20
-5.069444444444444
 30
0.0
 10
10.19027709960938
 20
-5.069444444444444
 30
0.0
 10
9.986109415690104
 20
-5.065277947319879
 30
0.0
 10
9.986109415690104
 20
-5.065277947319879
 30
0.0
 10
9.986109415690104
 20
-5.065277947319879
 30
0.0
 10
9.756944444444445
 20
-5.086111280653212
 30
0.0
 10
9.756944444444445
 20
-5.086111280653212
 30
0.0
 10
9.756944444444445
 20
-5.086111280653212
 30
0.0
 10
9.756944444444445
 20
-5.577777438693576
 30
0.0
 10
9.756944444444445
 20
-5.577777438693576
 30
0.0
 10
9.756944444444445
 20
-5.577777438693576
 30
0.0
 10
9.677775912814669
 20
-5.544444613986545
 30
0.0
 10
9.677775912814669
 20
-5.544444613986545
 30
0.0
 10
9.677775912814669
 20
-5.544444613986545
 30
0.0
 10
9.673609415690104
 20
-4.702777438693576
 30
0.0
 10
9.673609415690104
 20
-4.702777438693576
 30
0.0
 10
9.673609415690104
 20
-4.702777438693576
 30
0.0
 10
9.427775912814669
 20
-4.677777608235677
 30
0.0
 10
9.427775912814669
 20
-4.677777608235677
 30
0.0
 10
9.427775912814669
 20
-4.677777608235677
 30
0.0
 10
9.031942579481337
 20
-4.677777608235677
 30
0.0
 10
9.031942579481337
 20
-4.677777608235677
 30
0.0
 10
9.031942579481337
 20
-4.677777608235677
 30
0.0
 10
9.031942579481337
 20
-4.640277438693576
 30
0.0
 10
9.031942579481337
 20
-4.640277438693576
 30
0.0
 10
9.031942579481337
 20
-4.640277438693576
 30
0.0
 10
9.006942749023438
 20
-4.640277438693576
 30
0.0
 10
9.006942749023438
 20
-4.640277438693576
 30
0.0
 10
9.006942749023438
 20
-4.640277438693576
 30
0.0
 10
9.006942749023438
 20
-4.673609415690104
 30
0.0
 10
9.006942749023438
 20
-4.673609415690104
 30
0.0
 10
9.006942749023438
 20
-4.673609415690104
 30
0.0
 10
8.836111280653212
 20
-4.669444613986545
 30
0.0
 10
8.836111280653212
 20
-4.669444613986545
 30
0.0
 10
8.836111280653212
 20
-4.669444613986545
 30
0.0
 10
8.836111280653212
 20
-4.640277438693576
 30
0.0
 10
8.836111280653212
 20
-4.640277438693576
 30
0.0
 10
8.836111280653212
 20
-4.640277438693576
 30
0.0
 10
8.815277947319878
 20
-4.640277438693576
 30
0.0
 10
8.815277947319878
 20
-4.640277438693576
 30
0.0
 10
8.815277947319878
 20
-4.640277438693576
 30
0.0
 10
8.815277947319878
 20
-4.673609415690104
 30
0.0
 10
8.815277947319878
 20
-4.673609415690104
 30
0.0
 10
8.815277947319878
 20
-4.673609415690104
 30
0.0
 10
8.644443935818142
 20
-4.669444613986545
 30
0.0
 10
8.644443935818142
 20
-4.669444613986545
 30
0.0
 10
8.644443935818142
 20
-4.669444613986545
 30
0.0
 10
8.644443935818142
 20
-4.636109246148004
 30
0.0
 10
8.644443935818142
 20
-4.636109246148004
 30
0.0
 10
8.644443935818142
 20
-4.636109246148004
 30
0.0
 10
8.61527591281467
 20
-4.636109246148004
 30
0.0
 10
8.61527591281467
 20
-4.636109246148004
 30
0.0
 10
8.61527591281467
 20
-4.636109246148004
 30
0.0
 10
8.61527591281467
 20
-4.673609415690104
 30
0.0
 10
8.61527591281467
 20
-4.673609415690104
 30
0.0
 10
8.61527591281467
 20
-4.673609415690104
 30
0.0
 10
8.444444444444445
 20
-4.673609415690104
 30
0.0
 10
8.444444444444445
 20
-4.673609415690104
 30
0.0
 10
8.444444444444445
 20
-4.673609415690104
 30
0.0
 10
8.444444444444445
 20
-4.631944444444444
 30
0.0
 10
8.444444444444445
 20
-4.631944444444444
 30
0.0
 10
8.444444444444445
 20
-4.631944444444444
 30
0.0
 10
8.42777591281467
 20
-4.631944444444444
 30
0.0
 10
8.42777591281467
 20
-4.631944444444444
 30
0.0
 10
8.42777591281467
 20
-4.631944444444444
 30
0.0
 10
8.42777591281467
 20
-4.677777608235677
 30
0.0
 10
8.42777591281467
 20
-4.677777608235677
 30
0.0
 10
8.42777591281467
 20
-4.677777608235677
 30
0.0
 10
8.319442749023438
 20
-4.677777608235677
 30
0.0
 10
8.319442749023438
 20
-4.677777608235677
 30
0.0
 10
8.319442749023438
 20
-4.677777608235677
 30
0.0
 10
8.319442749023438
 20
-4.556944105360243
 30
0.0
 10
8.319442749023438
 20
-4.556944105360243
 30
0.0
 10
8.319442749023438
 20
-4.556944105360243
 30
0.0
 10
8.181943257649738
 20
-4.548611111111111
 30
0.0
 10
8.181943257649738
 20
-4.548611111111111
 30
0.0
 10
8.181943257649738
 20
-4.548611111111111
 30
0.0
 10
8.181943257649738
 20
-4.656944274902344
 30
0.0
 10
8.181943257649738
 20
-4.656944274902344
 30
0.0
 10
8.181943257649738
 20
-4.656944274902344
 30
0.0
 10
8.002777947319878
 20
-4.66111077202691
 30
0.0
 10
8.002777947319878
 20
-4.66111077202691
 30
0.0
 10
8.002777947319878
 20
-4.66111077202691
 30
0.0
 10
8.002777947319878
 20
-4.702777438693576
 30
0.0
 10
8.002777947319878
 20
-4.702777438693576
 30
0.0
 10
8.002777947319878
 20
-4.702777438693576
 30
0.0
 10
7.952777438693576
 20
-4.702777438693576
 30
0.0
 10
7.952777438693576
 20
-4.702777438693576
 30
0.0
 10
7.952777438693576
 20
-4.702777438693576
 30
0.0
 10
7.952777438693576
 20
-4.861111111111111
 30
0.0
 10
7.952777438693576
 20
-4.861111111111111
 30
0.0
 10
7.952777438693576
 20
-4.861111111111111
 30
0.0
 10
7.561109754774305
 20
-4.861111111111111
 30
0.0
 10
7.561109754774305
 20
-4.861111111111111
 30
0.0
 10
7.561109754774305
 20
-4.861111111111111
 30
0.0
 10
7.561109754774305
 20
-4.790277269151475
 30
0.0
 10
7.561109754774305
 20
-4.790277269151475
 30
0.0
 10
7.561109754774305
 20
-4.790277269151475
 30
0.0
 10
7.140277438693576
 20
-4.790277269151475
 30
0.0
 10
7.140277438693576
 20
-4.790277269151475
 30
0.0
 10
7.140277438693576
 20
-4.790277269151475
 30
0.0
 10
7.140277438693576
 20
-4.831943935818142
 30
0.0
 10
7.140277438693576
 20
-4.831943935818142
 30
0.0
 10
7.140277438693576
 20
-4.831943935818142
 30
0.0
 10
6.948609246148003
 20
-4.831943935818142
 30
0.0
 10
6.948609246148003
 20
-4.831943935818142
 30
0.0
 10
6.948609246148003
 20
-4.831943935818142
 30
0.0
 10
6.948609246148003
 20
-4.802777608235677
 30
0.0
 10
6.948609246148003
 20
-4.802777608235677
 30
0.0
 10
6.948609246148003
 20
-4.802777608235677
 30
0.0
 10
6.831943935818142
 20
-4.802777608235677
 30
0.0
 10
6.831943935818142
 20
-4.802777608235677
 30
0.0
 10
6.831943935818142
 20
-4.802777608235677
 30
0.0
 10
6.831943935818142
 20
-4.694444444444444
 30
0.0
 10
6.831943935818142
 20
-4.694444444444444
 30
0.0
 10
6.831943935818142
 20
-4.694444444444444
 30
0.0
 10
6.473609924316406
 20
-4.694444444444444
 30
0.0
 10
6.473609924316406
 20
-4.694444444444444
 30
0.0
 10
6.473609924316406
 20
-4.694444444444444
 30
0.0
 10
6.473609924316406
 20
-4.84861077202691
 30
0.0
 10
6.473609924316406
 20
-4.84861077202691
 30
0.0
 10
6.473609924316406
 20
-4.84861077202691
 30
0.0
 10
6.38611094156901
 20
-4.84861077202691
 30
0.0
 10
6.38611094156901
 20
-4.84861077202691
 30
0.0
 10
6.38611094156901
 20
-4.84861077202691
 30
0.0
 10
6.377777947319878
 20
-4.815277947319879
 30
0.0
 10
6.377777947319878
 20
-4.815277947319879
 30
0.0
 10
6.377777947319878
 20
-4.815277947319879
 30
0.0
 10
6.244443257649739
 20
-4.82361094156901
 30
0.0
 10
6.244443257649739
 20
-4.82361094156901
 30
0.0
 10
6.244443257649739
 20
-4.82361094156901
 30
0.0
 10
6.244443257649739
 20
-4.78611077202691
 30
0.0
 10
6.244443257649739
 20
-4.78611077202691
 30
0.0
 10
6.244443257649739
 20
-4.78611077202691
 30
0.0
 10
5.92777591281467
 20
-4.78611077202691
 30
0.0
 10
5.92777591281467
 20
-4.78611077202691
 30
0.0
 10
5.92777591281467
 20
-4.78611077202691
 30
0.0
 10
5.67777591281467
 20
-4.78611077202691
 30
0.0
 10
5.67777591281467
 20
-4.78611077202691
 30
0.0
 10
5.67777591281467
 20
-4.78611077202691
 30
0.0
 10
5.67777591281467
 20
-4.231944613986545
 30
0.0
 10
5.67777591281467
 20
-4.231944613986545
 30
0.0
 10
5.67777591281467
 20
-4.231944613986545
 30
0.0
 10
5.440277947319879
 20
-4.231944613986545
 30
0.0
 10
5.440277947319879
 20
-4.231944613986545
 30
0.0
 10
5.440277947319879
 20
-4.231944613986545
 30
0.0
 10
5.440277947319879
 20
-3.88611094156901
 30
0.0
 10
5.440277947319879
 20
-3.88611094156901
 30
0.0
 10
5.440277947319879
 20
-3.88611094156901
 30
0.0
 10
5.32361094156901
 20
-3.88611094156901
 30
0.0
 10
5.32361094156901
 20
-3.88611094156901
 30
0.0
 10
5.32361094156901
 20
-3.88611094156901
 30
0.0
 10
4.673609415690117
 20
-3.88611094156901
 30
0.0
 10
4.673609415690117
 20
-3.88611094156901
 30
0.0
 10
4.673609415690117
 20
-3.88611094156901
 30
0.0
 10
4.673609415690117
 20
-3.969444274902344
 30
0.0
 10
4.673609415690117
 20
-3.969444274902344
 30
0.0
 10
4.673609415690117
 20
-3.969444274902344
 30
0.0
 10
4.51111094156901
 20
-3.94861094156901
 30
0.0
 10
4.51111094156901
 20
-3.94861094156901
 30
0.0
 10
4.51111094156901
 20
-3.94861094156901
 30
0.0
 10
4.006944444444445
 20
-4.019443935818142
 30
0.0
 10
4.006944444444445
 20
-4.019443935818142
 30
0.0
 10
4.006944444444445
 20
-4.019443935818142
 30
0.0
 10
4.006944444444445
 20
-4.156944274902344
 30
0.0
 10
4.006944444444445
 20
-4.156944274902344
 30
0.0
 10
4.006944444444445
 20
-4.156944274902344
 30
0.0
 10
3.811109754774305
 20
-4.156944274902344
 30
0.0
 10
3.811109754774305
 20
-4.156944274902344
 30
0.0
 10
3.811109754774305
 20
-4.156944274902344
 30
0.0
 10
3.811109754774305
 20
-3.865277608235677
 30
0.0
 10
3.811109754774305
 20
-3.865277608235677
 30
0.0
 10
3.811109754774305
 20
-3.865277608235677
 30
0.0
 10
3.536109924316406
 20
-3.840277777777778
 30
0.0
 10
3.536109924316406
 20
-3.840277777777778
 30
0.0
 10
3.536109924316406
 20
-3.840277777777778
 30
0.0
 10
3.523609585232204
 20
-3.836111280653212
 30
0.0
 10
3.523609585232204
 20
-3.836111280653212
 30
0.0
 10
3.523609585232204
 20
-3.836111280653212
 30
0.0
 10
3.523609585232204
 20
-3.790277269151475
 30
0.0
 10
3.523609585232204
 20
-3.790277269151475
 30
0.0
 10
3.523609585232204
 20
-3.790277269151475
 30
0.0
 10
3.444444444444444
 20
-3.798609415690104
 30
0.0
 10
3.444444444444444
 20
-3.798609415690104
 30
0.0
 10
3.444444444444444
 20
-3.798609415690104
 30
0.0
 10
3.444444444444444
 20
-3.844444274902344
 30
0.0
 10
3.444444444444444
 20
-3.844444274902344
 30
0.0
 10
3.444444444444444
 20
-3.844444274902344
 30
0.0
 10
3.411110772026922
 20
-3.844444274902344
 30
0.0
 10
3.411110772026922
 20
-3.844444274902344
 30
0.0
 10
3.411110772026922
 20
-3.844444274902344
 30
0.0
 10
3.227776421440972
 20
-3.856944613986545
 30
0.0
 10
3.227776421440972
 20
-3.856944613986545
 30
0.0
 10
3.227776421440972
 20
-3.856944613986545
 30
0.0
 10
3.227776421440972
 20
-3.894443935818142
 30
0.0
 10
3.227776421440972
 20
-3.894443935818142
 30
0.0
 10
3.227776421440972
 20
-3.894443935818142
 30
0.0
 10
2.931943257649739
 20
-3.856944613986545
 30
0.0
 10
2.931943257649739
 20
-3.856944613986545
 30
0.0
 10
2.931943257649739
 20
-3.856944613986545
 30
0.0
 10
2.92777591281467
 20
-3.815277947319878
 30
0.0
 10
2.92777591281467
 20
-3.815277947319878
 30
0.0
 10
2.92777591281467
 20
-3.815277947319878
 30
0.0
 10
2.836109585232205
 20
-3.794444613986545
 30
0.0
 10
2.836109585232205
 20
-3.794444613986545
 30
0.0
 10
2.836109585232205
 20
-3.794444613986545
 30
0.0
 10
2.752777947319878
 20
-3.806944105360243
 30
0.0
 10
2.752777947319878
 20
-3.806944105360243
 30
0.0
 10
2.752777947319878
 20
-3.806944105360243
 30
0.0
 10
2.748609754774305
 20
-3.877777947319878
 30
0.0
 10
2.748609754774305
 20
-3.877777947319878
 30
0.0
 10
2.748609754774305
 20
-3.877777947319878
 30
0.0
 10
2.531942579481337
 20
-3.902777777777778
 30
0.0
 10
2.531942579481337
 20
-3.902777777777778
 30
0.0
 10
2.531942579481337
 20
-3.902777777777778
 30
0.0
 10
2.531942579481337
 20
-3.977777269151475
 30
0.0
 10
2.531942579481337
 20
-3.977777269151475
 30
0.0
 10
2.531942579481337
 20
-3.977777269151475
 30
0.0
 10
2.319444444444444
 20
-3.965277777777778
 30
0.0
 10
2.319444444444444
 20
-3.965277777777778
 30
0.0
 10
2.319444444444444
 20
-3.965277777777778
 30
0.0
 10
2.319444444444444
 20
-3.777777777777778
 30
0.0
 10
2.319444444444444
 20
-3.777777777777778
 30
0.0
 10
2.319444444444444
 20
-3.777777777777778
 30
0.0
 10
2.265276590983073
 20
-3.765277438693576
 30
0.0
 10
2.265276590983073
 20
-3.765277438693576
 30
0.0
 10
2.265276590983073
 20
-3.765277438693576
 30
0.0
 10
2.265276590983073
 20
-3.694444444444444
 30
0.0
 10
2.265276590983073
 20
-3.694444444444444
 30
0.0
 10
2.265276590983073
 20
-3.694444444444444
 30
0.0
 10
2.198609246148004
 20
-3.694444444444444
 30
0.0
 10
2.198609246148004
 20
-3.694444444444444
 30
0.0
 10
2.198609246148004
 20
-3.694444444444444
 30
0.0
 10
2.152776082356783
 20
-3.669444613986545
 30
0.0
 10
2.152776082356783
 20
-3.669444613986545
 30
0.0
 10
2.152776082356783
 20
-3.669444613986545
 30
0.0
 10
2.099115159776475
 20
-3.666734483506944
 30
0.0
 10
2.065277947319879
 20
-3.652777777777778
 30
0.0
 10
2.031439039442274
 20
-3.638819376627604
 30
0.0
 10
1.987269083658867
 20
-3.561031765407986
 30
0.0
 10
1.936109754774305
 20
-3.561110602484809
 30
0.0
 10
1.88495127360026
 20
-3.561188591851128
 30
0.0
 10
1.844443427191853
 20
-3.586111280653212
 30
0.0
 10
1.844443427191853
 20
-3.586111280653212
 30
0.0
 10
1.844443427191853
 20
-3.586111280653212
 30
0.0
 10
1.83363766140408
 20
-3.585613674587673
 30
0.0
 10
1.777776082356783
 20
-3.57361094156901
 30
0.0
 10
1.721917046440972
 20
-3.56160651312934
 30
0.0
 10
1.63611094156901
 20
-3.652777777777778
 30
0.0
 10
1.63611094156901
 20
-3.652777777777778
 30
0.0
 10
1.63611094156901
 20
-3.652777777777778
 30
0.0
 10
1.548609415690117
 20
-3.656944274902344
 30
0.0
 10
1.548609415690117
 20
-3.656944274902344
 30
0.0
 10
1.548609415690117
 20
-3.656944274902344
 30
0.0
 10
1.548609415690117
 20
-3.615277608235677
 30
0.0
 10
1.548609415690117
 20
-3.615277608235677
 30
0.0
 10
1.548609415690117
 20
-3.615277608235677
 30
0.0
 10
1.469443427191853
 20
-3.577777438693576
 30
0.0
 10
1.469443427191853
 20
-3.577777438693576
 30
0.0
 10
1.469443427191853
 20
-3.577777438693576
 30
0.0
 10
1.398611280653212
 20
-3.623610602484809
 30
0.0
 10
1.398611280653212
 20
-3.623610602484809
 30
0.0
 10
1.398611280653212
 20
-3.623610602484809
 30
0.0
 10
1.398611280653212
 20
-3.736111111111111
 30
0.0
 10
1.398611280653212
 20
-3.736111111111111
 30
0.0
 10
1.398611280653212
 20
-3.736111111111111
 30
0.0
 10
1.111109415690104
 20
-3.781944274902344
 30
0.0
 10
1.111109415690104
 20
-3.781944274902344
 30
0.0
 10
1.111109415690104
 20
-3.781944274902344
 30
0.0
 10
1.111109415690104
 20
-3.869444105360243
 30
0.0
 10
1.111109415690104
 20
-3.869444105360243
 30
0.0
 10
1.111109415690104
 20
-3.869444105360243
 30
0.0
 10
1.017323811848958
 20
-3.870474921332465
 30
0.0
 10
0.8836110432942708
 20
-3.871944003634983
 30
0.0
 10
0.8816579182942708
 20
-3.858044094509548
 30
0.0
 10
0.8861109415690104
 20
-3.752777947319878
 30
0.0
 10
0.8861109415690104
 20
-3.752777947319878
 30
0.0
 10
0.8861109415690104
 20
-3.752777947319878
 30
0.0
 10
0.0
 20
-3.756824069552951
 30
0.0
 10
0.0
 20
-3.756824069552951
 30
0.0
 10
0.0
 20
-3.756824069552951
 30
0.0
 10
0.0
 20
-7.000026279025607
 30
0.0
 10
0.0
 20
-7.000026279025607
 30
0.0
 10
0.0
 20
-7.000026279025607
 30
0.0
 10
11.0
 20
-7.000026279025607
 30
0.0
 10
11.0
 20
-7.000026279025607
 30
0.0
 10
11.0
 20
-7.000026279025607
 30
0.0
 10
11.0
 20
-4.938509623209635
 30
0.0
 10
11.0
 20
-4.938509623209635
 30
0.0
  0
ENDSEC
  0
SECTION
  2
OBJECTS
  0
DICTIONARY
  5
C
330
0
100
AcDbDictionary
281
     1
  3
ACAD_GROUP
350
D
  3
ACAD_LAYOUT
350
1A
  3
ACAD_MATERIAL
350
3B
  3
ACAD_MLEADERSTYLE
350
43
  3
ACAD_MLINESTYLE
350
17
  3
ACAD_PLOTSETTINGS
350
19
  3
ACAD_PLOTSTYLENAME
350
E
  3
ACAD_TABLESTYLE
350
42
  3
ACAD_VISUALSTYLE
350
2A
  0
SUN
  5
3F
330
29
100
AcDbSun
 90
        1
290
     0
 63
     7
421
 16777215
 40
1.0
291
     1
 91
  2455826
 92
 54000000
292
     0
 70
     2
 71
   256
280
     1
  0
DICTIONARY
  5
D
102
{ACAD_REACTORS
330
C
102
}
330
C
100
AcDbDictionary
281
     1
  0
DICTIONARY
  5
1A
102
{ACAD_REACTORS
330
C
102
}
330
C
100
AcDbDictionary
281
     1
  3
Layout1
350
1E
  3
Layout2
350
26
  3
Model
350
22
  0
DICTIONARY
  5
3B
102
{ACAD_REACTORS
330
C
102
}
330
C
100
AcDbDictionary
281
     1
  3
ByBlock
350
3D
  3
ByLayer
350
3C
  3
Global
350
3E
  0
DICTIONARY
  5
43
102
{ACAD_REACTORS
330
C
102
}
330
C
100
AcDbDictionary
281
     1
  0
DICTIONARY
  5
17
102
{ACAD_REACTORS
330
C
102
}
330
C
100
AcDbDictionary
281
     1
  3
Standard
350
18
  0
DICTIONARY
  5
19
102
{ACAD_REACTORS
330
C
102
}
330
C
100
AcDbDictionary
281
     1
  0
ACDBDICTIONARYWDFLT
  5
E
102
{ACAD_REACTORS
330
C
102
}
330
C
100
AcDbDictionary
281
     1
  3
Normal
350
F
100
AcDbDictionaryWithDefault
340
F
  0
DICTIONARY
  5
42
102
{ACAD_REACTORS
330
C
102
}
330
C
100
AcDbDictionary
281
     1
  0
DICTIONARY
  5
2A
102
{ACAD_REACTORS
330
C
102
}
330
C
100
AcDbDictionary
281
     1
  3
2dWireframe
350
2F
  3
3D Hidden
350
31
  3
3dWireframe
350
30
  3
Basic
350
32
  3
Brighten
350
36
  3
ColorChange
350
3A
  3
Conceptual
350
34
  3
Dim
350
35
  3
Facepattern
350
39
  3
Flat
350
2B
  3
FlatWithEdges
350
2C
  3
Gouraud
350
2D
  3
GouraudWithEdges
350
2E
  3
Linepattern
350
38
  3
Realistic
350
33
  3
Thicken
350
37
  0
LAYOUT
  5
1E
102
{ACAD_REACTORS
330
1A
102
}
330
1A
100
AcDbPlotSettings
  1

  2
none_device
  4

  6

 40
0.0
 41
0.0
 42
0.0
 43
0.0
 44
0.0
 45
0.0
 46
0.0
 47
0.0
 48
0.0
 49
0.0
140
0.0
141
0.0
142
1.0
143
1.0
 70
   688
 72
     0
 73
     0
 74
     5
  7

 75
    16
 76
     0
 77
     2
 78
   300
147
1.0
148
0.0
149
0.0
100
AcDbLayout
  1
Layout1
 70
     1
 71
     1
 10
0.0
 20
0.0
 11
12.0
 21
9.0
 12
0.0
 22
0.0
 32
0.0
 14
1.000000000000000E+20
 24
1.000000000000000E+20
 34
1.000000000000000E+20
 15
-1.000000000000000E+20
 25
-1.000000000000000E+20
 35
-1.000000000000000E+20
146
0.0
 13
0.0
 23
0.0
 33
0.0
 16
1.0
 26
0.0
 36
0.0
 17
0.0
 27
1.0
 37
0.0
 76
     0
330
1B
  0
LAYOUT
  5
26
102
{ACAD_REACTORS
330
1A
102
}
330
1A
100
AcDbPlotSettings
  1

  2
none_device
  4

  6

 40
0.0
 41
0.0
 42
0.0
 43
0.0
 44
0.0
 45
0.0
 46
0.0
 47
0.0
 48
0.0
 49
0.0
140
0.0
141
0.0
142
1.0
143
1.0
 70
   688
 72
     0
 73
     0
 74
     5
  7

 75
    16
 76
     0
 77
     2
 78
   300
147
1.0
148
0.0
149
0.0
100
AcDbLayout
  1
Layout2
 70
     1
 71
     2
 10
0.0
 20
0.0
 11
0.0
 21
0.0
 12
0.0
 22
0.0
 32
0.0
 14
0.0
 24
0.0
 34
0.0
 15
0.0
 25
0.0
 35
0.0
146
0.0
 13
0.0
 23
0.0
 33
0.0
 16
1.0
 26
0.0
 36
0.0
 17
0.0
 27
1.0
 37
0.0
 76
     0
330
23
  0
LAYOUT
  5
22
102
{ACAD_REACTORS
330
1A
102
}
330
1A
100
AcDbPlotSettings
  1

  2
none_device
  4

  6

 40
0.0
 41
0.0
 42
0.0
 43
0.0
 44
0.0
 45
0.0
 46
0.0
 47
0.0
 48
0.0
 49
0.0
140
0.0
141
0.0
142
1.0
143
1.0
 70
  1712
 72
     0
 73
     0
 74
     0
  7

 75
     0
 76
     0
 77
     2
 78
   300
147
1.0
148
0.0
149
0.0
100
AcDbLayout
  1
Model
 70
     1
 71
     0
 10
0.0
 20
0.0
 11
12.0
 21
9.0
 12
0.0
 22
0.0
 32
0.0
 14
1.000000000000000E+20
 24
1.000000000000000E+20
 34
1.000000000000000E+20
 15
-1.000000000000000E+20
 25
-1.000000000000000E+20
 35
-1.000000000000000E+20
146
0.0
 13
0.0
 23
0.0
 33
0.0
 16
1.0
 26
0.0
 36
0.0
 17
0.0
 27
1.0
 37
0.0
 76
     0
330
1F
331
29
  0
MATERIAL
  5
3D
102
{ACAD_REACTORS
330
3B
102
}
330
3B
100
AcDbMaterial
  1
ByBlock
 72
     1
 94
      127
  0
MATERIAL
  5
3C
102
{ACAD_REACTORS
330
3B
102
}
330
3B
100
AcDbMaterial
  1
ByLayer
 72
     1
 94
      127
  0
MATERIAL
  5
3E
102
{ACAD_REACTORS
330
3B
102
}
330
3B
100
AcDbMaterial
  1
Global
 72
     1
 94
      127
  0
MLINESTYLE
  5
18
102
{ACAD_REACTORS
330
17
102
}
330
17
100
AcDbMlineStyle
  2
Standard
 70
     0
  3

 62
   256
 51
90.0
 52
90.0
 71
     2
 49
0.5
 62
   256
  6
BYLAYER
 49
-0.5
 62
   256
  6
BYLAYER
  0
ACDBPLACEHOLDER
  5
F
102
{ACAD_REACTORS
330
E
102
}
330
E
  0
VISUALSTYLE
  5
2F
102
{ACAD_REACTORS
330
2A
102
}
330
2A
100
AcDbVisualStyle
  2
2dWireframe
 70
     4
177
     2
291
     0
 71
     0
176
     1
 72
     2
176
     1
 73
     0
176
     1
 90
        0
176
     1
 40
-0.6
176
     1
 41
-30.0
176
     1
 62
     5
 63
     7
421
 16777215
176
     1
 74
     1
176
     1
 91
        4
176
     1
 64
     7
176
     1
 65
   257
176
     1
 75
     1
176
     1
175
     1
176
     1
 42
1.0
176
     1
 92
        0
176
     1
 66
   257
176
     1
 43
1.0
176
     1
 76
     1
176
     1
 77
     6
176
     1
 78
     2
176
     1
 67
     7
176
     1
 79
     5
176
     1
170
     0
176
     1
171
     0
176
     1
290
     0
176
     1
 93
        1
176
     1
 44
0.0
176
     1
173
     0
176
     1
  0
VISUALSTYLE
  5
31
102
{ACAD_REACTORS
330
2A
102
}
330
2A
100
AcDbVisualStyle
  2
3D Hidden
 70
     6
177
     2
291
     0
 71
     1
176
     1
 72
     2
176
     1
 73
     2
176
     1
 90
        0
176
     1
 40
-0.6
176
     1
 41
-30.0
176
     1
 62
     5
 63
     7
421
 16777215
176
     1
 74
     2
176
     1
 91
        2
176
     1
 64
     7
176
     1
 65
   257
176
     1
 75
     2
176
     1
175
     1
176
     1
 42
40.0
176
     1
 92
        0
176
     1
 66
   257
176
     1
 43
1.0
176
     1
 76
     1
176
     1
 77
     6
176
     1
 78
     2
176
     1
 67
     7
176
     1
 79
     3
176
     1
170
     0
176
     1
171
     0
176
     1
290
     0
176
     1
 93
        1
176
     1
 44
0.0
176
     1
173
     0
176
     1
  0
VISUALSTYLE
  5
30
102
{ACAD_REACTORS
330
2A
102
}
330
2A
100
AcDbVisualStyle
  2
3dWireframe
 70
     5
177
     2
291
     0
 71
     0
176
     1
 72
     2
176
     1
 73
     0
176
     1
 90
        0
176
     1
 40
-0.6
176
     1
 41
-30.0
176
     1
 62
     5
 63
     7
421
 16777215
176
     1
 74
     1
176
     1
 91
        4
176
     1
 64
     7
176
     1
 65
   257
176
     1
 75
     1
176
     1
175
     1
176
     1
 42
1.0
176
     1
 92
        0
176
     1
 66
   257
176
     1
 43
1.0
176
     1
 76
     1
176
     1
 77
     6
176
     1
 78
     2
176
     1
 67
     7
176
     1
 79
     5
176
     1
170
     0
176
     1
171
     0
176
     1
290
     0
176
     1
 93
        1
176
     1
 44
0.0
176
     1
173
     0
176
     1
  0
VISUALSTYLE
  5
32
102
{ACAD_REACTORS
330
2A
102
}
330
2A
100
AcDbVisualStyle
  2
Basic
 70
     7
177
     2
291
     1
 71
     1
176
     1
 72
     0
176
     1
 73
     1
176
     1
 90
        0
176
     1
 40
-0.6
176
     1
 41
-30.0
176
     1
 62
     5
 63
     7
421
 16777215
176
     1
 74
     0
176
     1
 91
        4
176
     1
 64
     7
176
     1
 65
   257
176
     1
 75
     1
176
     1
175
     1
176
     1
 42
1.0
176
     1
 92
        8
176
     1
 66
     7
176
     1
 43
1.0
176
     1
 76
     1
176
     1
 77
     6
176
     1
 78
     2
176
     1
 67
     7
176
     1
 79
     5
176
     1
170
     0
176
     1
171
     0
176
     1
290
     0
176
     1
 93
        1
176
     1
 44
0.0
176
     1
173
     0
176
     1
  0
VISUALSTYLE
  5
36
102
{ACAD_REACTORS
330
2A
102
}
330
2A
100
AcDbVisualStyle
  2
Brighten
 70
    12
177
     2
291
     1
 71
     2
176
     1
 72
     2
176
     1
 73
     0
176
     1
 90
        0
176
     1
 40
-0.6
176
     1
 41
-30.0
176
     1
 62
     5
 63
     7
421
 16777215
176
     1
 74
     1
176
     1
 91
        4
176
     1
 64
     7
176
     1
 65
   257
176
     1
 75
     1
176
     1
175
     1
176
     1
 42
1.0
176
     1
 92
        8
176
     1
 66
     7
176
     1
 43
1.0
176
     1
 76
     1
176
     1
 77
     6
176
     1
 78
     2
176
     1
 67
     7
176
     1
 79
     5
176
     1
170
     0
176
     1
171
     0
176
     1
290
     0
176
     1
 93
        1
176
     1
 44
50.0
176
     1
173
     0
176
     1
  0
VISUALSTYLE
  5
3A
102
{ACAD_REACTORS
330
2A
102
}
330
2A
100
AcDbVisualStyle
  2
ColorChange
 70
    16
177
     2
291
     1
 71
     2
176
     1
 72
     2
176
     1
 73
     3
176
     1
 90
        0
176
     1
 40
-0.6
176
     1
 41
-30.0
176
     1
 62
     5
 63
     8
421
  8421504
176
     1
 74
     1
176
     1
 91
        4
176
     1
 64
     7
176
     1
 65
   257
176
     1
 75
     1
176
     1
175
     1
176
     1
 42
1.0
176
     1
 92
        8
176
     1
 66
     8
424
  8421504
176
     1
 43
1.0
176
     1
 76
     1
176
     1
 77
     6
176
     1
 78
     2
176
     1
 67
     7
176
     1
 79
     5
176
     1
170
     0
176
     1
171
     0
176
     1
290
     0
176
     1
 93
        1
176
     1
 44
0.0
176
     1
173
     0
176
     1
  0
VISUALSTYLE
  5
34
102
{ACAD_REACTORS
330
2A
102
}
330
2A
100
AcDbVisualStyle
  2
Conceptual
 70
     9
177
     2
291
     0
 71
     3
176
     1
 72
     2
176
     1
 73
     0
176
     1
 90
        0
176
     1
 40
-0.6
176
     1
 41
-30.0
176
     1
 62
     5
 63
     7
421
 16777215
176
     1
 74
     2
176
     1
 91
        2
176
     1
 64
     7
176
     1
 65
   257
176
     1
 75
     1
176
     1
175
     1
176
     1
 42
40.0
176
     1
 92
        8
176
     1
 66
     7
176
     1
 43
1.0
176
     1
 76
     1
176
     1
 77
     6
176
     1
 78
     2
176
     1
 67
     7
176
     1
 79
     3
176
     1
170
     0
176
     1
171
     0
176
     1
290
     0
176
     1
 93
        1
176
     1
 44
0.0
176
     1
173
     0
176
     1
  0
VISUALSTYLE
  5
35
102
{ACAD_REACTORS
330
2A
102
}
330
2A
100
AcDbVisualStyle
  2
Dim
 70
    11
177
     2
291
     1
 71
     2
176
     1
 72
     2
176
     1
 73
     0
176
     1
 90
        0
176
     1
 40
-0.6
176
     1
 41
-30.0
176
     1
 62
     5
 63
     7
421
 16777215
176
     1
 74
     1
176
     1
 91
        4
176
     1
 64
     7
176
     1
 65
   257
176
     1
 75
     1
176
     1
175
     1
176
     1
 42
1.0
176
     1
 92
        8
176
     1
 66
     7
176
     1
 43
1.0
176
     1
 76
     1
176
     1
 77
     6
176
     1
 78
     2
176
     1
 67
     7
176
     1
 79
     5
176
     1
170
     0
176
     1
171
     0
176
     1
290
     0
176
     1
 93
        1
176
     1
 44
-50.0
176
     1
173
     0
176
     1
  0
VISUALSTYLE
  5
39
102
{ACAD_REACTORS
330
2A
102
}
330
2A
100
AcDbVisualStyle
  2
Facepattern
 70
    15
177
     2
291
     1
 71
     2
176
     1
 72
     2
176
     1
 73
     0
176
     1
 90
        0
176
     1
 40
-0.6
176
     1
 41
-30.0
176
     1
 62
     5
 63
     7
421
 16777215
176
     1
 74
     1
176
     1
 91
        4
176
     1
 64
     7
176
     1
 65
   257
176
     1
 75
     1
176
     1
175
     1
176
     1
 42
1.0
176
     1
 92
        8
176
     1
 66
     7
176
     1
 43
1.0
176
     1
 76
     1
176
     1
 77
     6
176
     1
 78
     2
176
     1
 67
     7
176
     1
 79
     5
176
     1
170
     0
176
     1
171
     0
176
     1
290
     0
176
     1
 93
        1
176
     1
 44
0.0
176
     1
173
     0
176
     1
  0
VISUALSTYLE
  5
2B
102
{ACAD_REACTORS
330
2A
102
}
330
2A
100
AcDbVisualStyle
  2
Flat
 70
     0
177
     2
291
     1
 71
     2
176
     1
 72
     1
176
     1
 73
     1
176
     1
 90
        2
176
     1
 40
-0.6
176
     1
 41
30.0
176
     1
 62
     5
 63
     7
421
 16777215
176
     1
 74
     0
176
     1
 91
        4
176
     1
 64
     7
176
     1
 65
   257
176
     1
 75
     1
176
     1
175
     1
176
     1
 42
1.0
176
     1
 92
        8
176
     1
 66
     7
176
     1
 43
1.0
176
     1
 76
     1
176
     1
 77
     6
176
     1
 78
     2
176
     1
 67
     7
176
     1
 79
     5
176
     1
170
     0
176
     1
171
     0
176
     1
290
     0
176
     1
 93
       13
176
     1
 44
0.0
176
     1
173
     0
176
     1
  0
VISUALSTYLE
  5
2C
102
{ACAD_REACTORS
330
2A
102
}
330
2A
100
AcDbVisualStyle
  2
FlatWithEdges
 70
     1
177
     2
291
     1
 71
     2
176
     1
 72
     1
176
     1
 73
     1
176
     1
 90
        2
176
     1
 40
-0.6
176
     1
 41
30.0
176
     1
 62
     5
 63
     7
421
 16777215
176
     1
 74
     1
176
     1
 91
        4
176
     1
 64
     7
176
     1
 65
   257
176
     1
 75
     1
176
     1
175
     1
176
     1
 42
1.0
176
     1
 92
        0
176
     1
 66
   257
176
     1
 43
1.0
176
     1
 76
     1
176
     1
 77
     6
176
     1
 78
     2
176
     1
 67
     7
176
     1
 79
     5
176
     1
170
     0
176
     1
171
     0
176
     1
290
     0
176
     1
 93
       13
176
     1
 44
0.0
176
     1
173
     0
176
     1
  0
VISUALSTYLE
  5
2D
102
{ACAD_REACTORS
330
2A
102
}
330
2A
100
AcDbVisualStyle
  2
Gouraud
 70
     2
177
     2
291
     1
 71
     2
176
     1
 72
     2
176
     1
 73
     1
176
     1
 90
        2
176
     1
 40
-0.6
176
     1
 41
30.0
176
     1
 62
     5
 63
     7
421
 16777215
176
     1
 74
     0
176
     1
 91
        4
176
     1
 64
     7
176
     1
 65
   257
176
     1
 75
     1
176
     1
175
     1
176
     1
 42
1.0
176
     1
 92
        0
176
     1
 66
     7
176
     1
 43
1.0
176
     1
 76
     1
176
     1
 77
     6
176
     1
 78
     2
176
     1
 67
     7
176
     1
 79
     5
176
     1
170
     0
176
     1
171
     0
176
     1
290
     0
176
     1
 93
       13
176
     1
 44
0.0
176
     1
173
     0
176
     1
  0
VISUALSTYLE
  5
2E
102
{ACAD_REACTORS
330
2A
102
}
330
2A
100
AcDbVisualStyle
  2
GouraudWithEdges
 70
     3
177
     2
291
     1
 71
     2
176
     1
 72
     2
176
     1
 73
     1
176
     1
 90
        2
176
     1
 40
-0.6
176
     1
 41
30.0
176
     1
 62
     5
 63
     7
421
 16777215
176
     1
 74
     1
176
     1
 91
        4
176
     1
 64
     7
176
     1
 65
   257
176
     1
 75
     1
176
     1
175
     1
176
     1
 42
1.0
176
     1
 92
        0
176
     1
 66
   257
176
     1
 43
1.0
176
     1
 76
     1
176
     1
 77
     6
176
     1
 78
     2
176
     1
 67
     7
176
     1
 79
     5
176
     1
170
     0
176
     1
171
     0
176
     1
290
     0
176
     1
 93
       13
176
     1
 44
0.0
176
     1
173
     0
176
     1
  0
VISUALSTYLE
  5
38
102
{ACAD_REACTORS
330
2A
102
}
330
2A
100
AcDbVisualStyle
  2
Linepattern
 70
    14
177
     2
291
     1
 71
     2
176
     1
 72
     2
176
     1
 73
     0
176
     1
 90
        0
176
     1
 40
-0.6
176
     1
 41
-30.0
176
     1
 62
     5
 63
     7
421
 16777215
176
     1
 74
     1
176
     1
 91
        4
176
     1
 64
     7
176
     1
 65
   257
176
     1
 75
     7
176
     1
175
     7
176
     1
 42
1.0
176
     1
 92
        8
176
     1
 66
     7
176
     1
 43
1.0
176
     1
 76
     1
176
     1
 77
     6
176
     1
 78
     2
176
     1
 67
     7
176
     1
 79
     5
176
     1
170
     0
176
     1
171
     0
176
     1
290
     0
176
     1
 93
        1
176
     1
 44
0.0
176
     1
173
     0
176
     1
  0
VISUALSTYLE
  5
33
102
{ACAD_REACTORS
330
2A
102
}
330
2A
100
AcDbVisualStyle
  2
Realistic
 70
     8
177
     2
291
     0
 71
     2
176
     1
 72
     2
176
     1
 73
     0
176
     1
 90
        0
176
     1
 40
-0.6
176
     1
 41
-30.0
176
     1
 62
     5
 63
     7
421
 16777215
176
     1
 74
     1
176
     1
 91
        0
176
     1
 64
     7
176
     1
 65
   257
176
     1
 75
     1
176
     1
175
     1
176
     1
 42
1.0
176
     1
 92
        8
176
     1
 66
     8
424
  7895160
176
     1
 43
1.0
176
     1
 76
     1
176
     1
 77
     6
176
     1
 78
     2
176
     1
 67
     7
176
     1
 79
     5
176
     1
170
     0
176
     1
171
     0
176
     1
290
     0
176
     1
 93
       13
176
     1
 44
0.0
176
     1
173
     0
176
     1
  0
VISUALSTYLE
  5
37
102
{ACAD_REACTORS
330
2A
102
}
330
2A
100
AcDbVisualStyle
  2
Thicken
 70
    13
177
     2
291
     1
 71
     2
176
     1
 72
     2
176
     1
 73
     0
176
     1
 90
        0
176
     1
 40
-0.6
176
     1
 41
-30.0
176
     1
 62
     5
 63
     7
421
 16777215
176
     1
 74
     1
176
     1
 91
        4
176
     1
 64
     7
176
     1
 65
   257
176
     1
 75
     1
176
     1
175
     1
176
     1
 42
1.0
176
     1
 92
       12
176
     1
 66
     7
176
     1
 43
1.0
176
     1
 76
     1
176
     1
 77
     6
176
     1
 78
     2
176
     1
 67
     7
176
     1
 79
     5
176
     1
170
     0
176
     1
171
     0
176
     1
290
     0
176
     1
 93
        1
176
     1
 44
0.0
176
     1
173
     0
176
     1
  0
ENDSEC
  0
EOF
