  0
SECTION
  2
HEADER
  9
$ACADVER
  1
AC1024
  9
$ACADMAINTVER
 70
     6
  9
$DWGCODEPAGE
  3
ANSI_1252
  9
$INSBASE
 10
0.0
 20
0.0
 30
0.0
  9
$EXTMIN
 10
1.000000000000000E+20
 20
1.000000000000000E+20
 30
1.000000000000000E+20
  9
$EXTMAX
 10
-1.000000000000000E+20
 20
-1.000000000000000E+20
 30
-1.000000000000000E+20
  9
$LIMMIN
 10
0.0
 20
0.0
  9
$LIMMAX
 10
12.0
 20
9.0
  9
$ORTHOMODE
 70
     0
  9
$REGENMODE
 70
     1
  9
$FILLMODE
 70
     1
  9
$QTEXTMODE
 70
     0
  9
$MIRRTEXT
 70
     1
  9
$LTSCALE
 40
1.0
  9
$ATTMODE
 70
     1
  9
$TEXTSIZE
 40
0.2
  9
$TRACEWID
 40
0.05
  9
$TEXTSTYLE
  7
Standard
  9
$CLAYER
  8
0
  9
$CELTYPE
  6
ByLayer
  9
$CECOLOR
 62
   256
  9
$CELTSCALE
 40
1.0
  9
$DISPSILH
 70
     0
  9
$DIMSCALE
 40
1.0
  9
$DIMASZ
 40
0.18
  9
$DIMEXO
 40
0.0625
  9
$DIMDLI
 40
0.38
  9
$DIMRND
 40
0.0
  9
$DIMDLE
 40
0.0
  9
$DIMEXE
 40
0.18
  9
$DIMTP
 40
0.0
  9
$DIMTM
 40
0.0
  9
$DIMTXT
 40
0.18
  9
$DIMCEN
 40
0.09
  9
$DIMTSZ
 40
0.0
  9
$DIMTOL
 70
     0
  9
$DIMLIM
 70
     0
  9
$DIMTIH
 70
     1
  9
$DIMTOH
 70
     1
  9
$DIMSE1
 70
     0
  9
$DIMSE2
 70
     0
  9
$DIMTAD
 70
     0
  9
$DIMZIN
 70
     0
  9
$DIMBLK
  1

  9
$DIMASO
 70
     1
  9
$DIMSHO
 70
     1
  9
$DIMPOST
  1

  9
$DIMAPOST
  1

  9
$DIMALT
 70
     0
  9
$DIMALTD
 70
     2
  9
$DIMALTF
 40
25.4
  9
$DIMLFAC
 40
1.0
  9
$DIMTOFL
 70
     0
  9
$DIMTVP
 40
0.0
  9
$DIMTIX
 70
     0
  9
$DIMSOXD
 70
     0
  9
$DIMSAH
 70
     0
  9
$DIMBLK1
  1

  9
$DIMBLK2
  1

  9
$DIMSTYLE
  2
Standard
  9
$DIMCLRD
 70
     0
  9
$DIMCLRE
 70
     0
  9
$DIMCLRT
 70
     0
  9
$DIMTFAC
 40
1.0
  9
$DIMGAP
 40
0.09
  9
$DIMJUST
 70
     0
  9
$DIMSD1
 70
     0
  9
$DIMSD2
 70
     0
  9
$DIMTOLJ
 70
     1
  9
$DIMTZIN
 70
     0
  9
$DIMALTZ
 70
     0
  9
$DIMALTTZ
 70
     0
  9
$DIMUPT
 70
     0
  9
$DIMDEC
 70
     4
  9
$DIMTDEC
 70
     4
  9
$DIMALTU
 70
     2
  9
$DIMALTTD
 70
     2
  9
$DIMTXSTY
  7
Standard
  9
$DIMAUNIT
 70
     0
  9
$DIMADEC
 70
     0
  9
$DIMALTRND
 40
0.0
  9
$DIMAZIN
 70
     0
  9
$DIMDSEP
 70
    46
  9
$DIMATFIT
 70
     3
  9
$DIMFRAC
 70
     0
  9
$DIMLDRBLK
  1

  9
$DIMLUNIT
 70
     2
  9
$DIMLWD
 70
    -2
  9
$DIMLWE
 70
    -2
  9
$DIMTMOVE
 70
     0
  9
$DIMFXL
 40
1.0
  9
$DIMFXLON
 70
     0
  9
$DIMJOGANG
 40
0.7853981633974483
  9
$DIMTFILL
 70
     0
  9
$DIMTFILLCLR
 70
     0
  9
$DIMARCSYM
 70
     0
  9
$DIMLTYPE
  6

  9
$DIMLTEX1
  6

  9
$DIMLTEX2
  6

  9
$DIMTXTDIRECTION
 70
     0
  9
$LUNITS
 70
     2
  9
$LUPREC
 70
     4
  9
$SKETCHINC
 40
0.1
  9
$FILLETRAD
 40
0.5
  9
$AUNITS
 70
     0
  9
$AUPREC
 70
     0
  9
$MENU
  1
.
  9
$ELEVATION
 40
0.0
  9
$PELEVATION
 40
0.0
  9
$THICKNESS
 40
0.0
  9
$LIMCHECK
 70
     0
  9
$CHAMFERA
 40
0.5
  9
$CHAMFERB
 40
0.5
  9
$CHAMFERC
 40
1.0
  9
$CHAMFERD
 40
0.0
  9
$SKPOLY
 70
     0
  9
$TDCREATE
 40
2458107.02511272
  9
$TDUCREATE
 40
2458107.233446053
  9
$TDUPDATE
 40
2458107.025112743
  9
$TDUUPDATE
 40
2458107.233446077
  9
$TDINDWG
 40
0.0000000116
  9
$TDUSRTIMER
 40
0.0000000116
  9
$USRTIMER
 70
     1
  9
$ANGBASE
 50
0.0
  9
$ANGDIR
 70
     0
  9
$PDMODE
 70
     0
  9
$PDSIZE
 40
0.0
  9
$PLINEWID
 40
0.0
  9
$SPLFRAME
 70
     0
  9
$SPLINETYPE
 70
     6
  9
$SPLINESEGS
 70
     8
  9
$HANDSEED
  5
44
  9
$SURFTAB1
 70
     6
  9
$SURFTAB2
 70
     6
  9
$SURFTYPE
 70
     6
  9
$SURFU
 70
     6
  9
$SURFV
 70
     6
  9
$UCSBASE
  2

  9
$UCSNAME
  2

  9
$UCSORG
 10
0.0
 20
0.0
 30
0.0
  9
$UCSXDIR
 10
1.0
 20
0.0
 30
0.0
  9
$UCSYDIR
 10
0.0
 20
1.0
 30
0.0
  9
$UCSORTHOREF
  2

  9
$UCSORTHOVIEW
 70
     0
  9
$UCSORGTOP
 10
0.0
 20
0.0
 30
0.0
  9
$UCSORGBOTTOM
 10
0.0
 20
0.0
 30
0.0
  9
$UCSORGLEFT
 10
0.0
 20
0.0
 30
0.0
  9
$UCSORGRIGHT
 10
0.0
 20
0.0
 30
0.0
  9
$UCSORGFRONT
 10
0.0
 20
0.0
 30
0.0
  9
$UCSORGBACK
 10
0.0
 20
0.0
 30
0.0
  9
$PUCSBASE
  2

  9
$PUCSNAME
  2

  9
$PUCSORG
 10
0.0
 20
0.0
 30
0.0
  9
$PUCSXDIR
 10
1.0
 20
0.0
 30
0.0
  9
$PUCSYDIR
 10
0.0
 20
1.0
 30
0.0
  9
$PUCSORTHOREF
  2

  9
$PUCSORTHOVIEW
 70
     0
  9
$PUCSORGTOP
 10
0.0
 20
0.0
 30
0.0
  9
$PUCSORGBOTTOM
 10
0.0
 20
0.0
 30
0.0
  9
$PUCSORGLEFT
 10
0.0
 20
0.0
 30
0.0
  9
$PUCSORGRIGHT
 10
0.0
 20
0.0
 30
0.0
  9
$PUCSORGFRONT
 10
0.0
 20
0.0
 30
0.0
  9
$PUCSORGBACK
 10
0.0
 20
0.0
 30
0.0
  9
$USERI1
 70
     0
  9
$USERI2
 70
     0
  9
$USERI3
 70
     0
  9
$USERI4
 70
     0
  9
$USERI5
 70
     0
  9
$USERR1
 40
0.0
  9
$USERR2
 40
0.0
  9
$USERR3
 40
0.0
  9
$USERR4
 40
0.0
  9
$USERR5
 40
0.0
  9
$WORLDVIEW
 70
     1
  9
$SHADEDGE
 70
     3
  9
$SHADEDIF
 70
    70
  9
$TILEMODE
 70
     1
  9
$MAXACTVP
 70
    64
  9
$PINSBASE
 10
0.0
 20
0.0
 30
0.0
  9
$PLIMCHECK
 70
     0
  9
$PEXTMIN
 10
1.000000000000000E+20
 20
1.000000000000000E+20
 30
1.000000000000000E+20
  9
$PEXTMAX
 10
-1.000000000000000E+20
 20
-1.000000000000000E+20
 30
-1.000000000000000E+20
  9
$PLIMMIN
 10
0.0
 20
0.0
  9
$PLIMMAX
 10
12.0
 20
9.0
  9
$UNITMODE
 70
     0
  9
$VISRETAIN
 70
     1
  9
$PLINEGEN
 70
     0
  9
$PSLTSCALE
 70
     1
  9
$TREEDEPTH
 70
  3020
  9
$CMLSTYLE
  2
Standard
  9
$CMLJUST
 70
     0
  9
$CMLSCALE
 40
1.0
  9
$PROXYGRAPHICS
 70
     1
  9
$MEASUREMENT
 70
     0
  9
$CELWEIGHT
370
    -1
  9
$ENDCAPS
280
     0
  9
$JOINSTYLE
280
     0
  9
$LWDISPLAY
290
     1
  9
$INSUNITS
 70
     1
  9
$HYPERLINKBASE
  1

  9
$STYLESHEET
  1

  9
$XEDIT
290
     1
  9
$CEPSNTYPE
380
     0
  9
$PSTYLEMODE
290
     1
  9
$FINGERPRINTGUID
  2
{6A67956D-65D6-4F53-9145-439147B53835}
  9
$VERSIONGUID
  2
{FAEB1C32-E019-11D5-929B-00C0DF256EC4}
  9
$EXTNAMES
290
     1
  9
$PSVPSCALE
 40
0.0
  9
$OLESTARTUP
290
     0
  9
$SORTENTS
280
   127
  9
$INDEXCTL
280
     0
  9
$HIDETEXT
280
     1
  9
$XCLIPFRAME
280
     2
  9
$HALOGAP
280
     0
  9
$OBSCOLOR
 70
   257
  9
$OBSLTYPE
280
     0
  9
$INTERSECTIONDISPLAY
280
     0
  9
$INTERSECTIONCOLOR
 70
   257
  9
$DIMASSOC
280
     2
  9
$PROJECTNAME
  1

  9
$CAMERADISPLAY
290
     0
  9
$LENSLENGTH
 40
50.0
  9
$CAMERAHEIGHT
 40
0.0
  9
$STEPSPERSEC
 40
2.0
  9
$STEPSIZE
 40
6.0
  9
$3DDWFPREC
 40
2.0
  9
$PSOLWIDTH
 40
0.25
  9
$PSOLHEIGHT
 40
4.0
  9
$LOFTANG1
 40
1.570796326794897
  9
$LOFTANG2
 40
1.570796326794897
  9
$LOFTMAG1
 40
0.0
  9
$LOFTMAG2
 40
0.0
  9
$LOFTPARAM
 70
     7
  9
$LOFTNORMALS
280
     1
  9
$LATITUDE
 40
37.795
  9
$LONGITUDE
 40
-122.394
  9
$NORTHDIRECTION
 40
0.0
  9
$TIMEZONE
 70
 -8000
  9
$LIGHTGLYPHDISPLAY
280
     1
  9
$TILEMODELIGHTSYNCH
280
     1
  9
$CMATERIAL
347
3C
  9
$SOLIDHIST
280
     1
  9
$SHOWHIST
280
     1
  9
$DWFFRAME
280
     2
  9
$DGNFRAME
280
     2
  9
$REALWORLDSCALE
290
     1
  9
$INTERFERECOLOR
 62
   256
  9
$CSHADOW
280
     0
  9
$SHADOWPLANELOCATION
 40
0.0
  0
ENDSEC
  0
SECTION
  2
CLASSES
  0
CLASS
  1
ACDBDICTIONARYWDFLT
  2
AcDbDictionaryWithDefault
  3
ObjectDBX Classes
 90
        0
 91
        4
280
     0
281
     0
  0
CLASS
  1
VISUALSTYLE
  2
AcDbVisualStyle
  3
ObjectDBX Classes
 90
     4095
 91
        4
280
     0
281
     0
  0
CLASS
  1
MATERIAL
  2
AcDbMaterial
  3
ObjectDBX Classes
 90
     1153
 91
        4
280
     0
281
     0
  0
CLASS
  1
SUN
  2
AcDbSun
  3
SCENEOE
 90
     1024
 91
        4
280
     0
281
     0
  0
ENDSEC
  0
SECTION
  2
TABLES
  0
TABLE
  2
VPORT
  5
8
330
0
100
AcDbSymbolTable
 70
     1
  0
VPORT
  5
29
330
8
100
AcDbSymbolTableRecord
100
AcDbViewportTableRecord
  2
*Active
 70
     0
 10
0.0
 20
0.0
 11
1.0
 21
1.0
 12
0.0
 22
0.0
 13
0.0
 23
0.0
 14
0.5
 24
0.5
 15
0.5
 25
0.5
 16
0.0
 26
0.0
 36
1.0
 17
5.5
 27
-3.5
 37
0.0
 40
7.0
 41
1.571428571428571
 42
50.0
 43
0.0
 44
0.0
 50
0.0
 51
0.0
 71
     0
 72
   100
 73
     1
 74
     3
 75
     0
 76
     0
 77
     0
 78
     0
281
     0
 65
     1
110
0.0
120
0.0
130
0.0
111
1.0
121
0.0
131
0.0
112
0.0
122
1.0
132
0.0
 79
     0
146
0.0
 60
     3
 61
     5
292
     1
282
     1
141
0.0
142
0.0
 63
   250
361
3F
  0
ENDTAB
  0
TABLE
  2
LTYPE
  5
5
330
0
100
AcDbSymbolTable
 70
     1
  0
LTYPE
  5
14
330
5
100
AcDbSymbolTableRecord
100
AcDbLinetypeTableRecord
  2
ByBlock
 70
     0
  3

 72
    65
 73
     0
 40
0.0
  0
LTYPE
  5
15
330
5
100
AcDbSymbolTableRecord
100
AcDbLinetypeTableRecord
  2
ByLayer
 70
     0
  3

 72
    65
 73
     0
 40
0.0
  0
LTYPE
  5
16
330
5
100
AcDbSymbolTableRecord
100
AcDbLinetypeTableRecord
  2
Continuous
 70
     0
  3
Solid line
 72
    65
 73
     0
 40
0.0
  0
ENDTAB
  0
TABLE
  2
LAYER
  5
2
330
0
100
AcDbSymbolTable
 70
     2
  0
LAYER
  5
10
330
2
100
AcDbSymbolTableRecord
100
AcDbLayerTableRecord
  2
0
 70
     0
 62
     7
  6
Continuous
370
    -3
390
F
347
3E
  0
LAYER
  5
40
330
2
100
AcDbSymbolTableRecord
100
AcDbLayerTableRecord
  2
Layer 1
 70
     0
 62
     7
  6
Continuous
370
    -3
390
F
347
3E
  0
ENDTAB
  0
TABLE
  2
STYLE
  5
3
330
0
100
AcDbSymbolTable
 70
     1
  0
STYLE
  5
11
330
3
100
AcDbSymbolTableRecord
100
AcDbTextStyleTableRecord
  2
Standard
 70
     0
 40
0.0
 41
1.0
 50
0.0
 71
     0
 42
0.2
  3
txt
  4

  0
ENDTAB
  0
TABLE
  2
VIEW
  5
6
330
0
100
AcDbSymbolTable
 70
     0
  0
ENDTAB
  0
TABLE
  2
UCS
  5
7
330
0
100
AcDbSymbolTable
 70
     0
  0
ENDTAB
  0
TABLE
  2
APPID
  5
9
330
0
100
AcDbSymbolTable
 70
     1
  0
APPID
  5
12
330
9
100
AcDbSymbolTableRecord
100
AcDbRegAppTableRecord
  2
ACAD
 70
     0
  0
ENDTAB
  0
TABLE
  2
DIMSTYLE
  5
A
330
0
100
AcDbSymbolTable
 70
     1
100
AcDbDimStyleTable
  0
DIMSTYLE
105
27
330
A
100
AcDbSymbolTableRecord
100
AcDbDimStyleTableRecord
  2
Standard
 70
     0
178
     0
340
11
  0
ENDTAB
  0
TABLE
  2
BLOCK_RECORD
  5
1
330
0
100
AcDbSymbolTable
 70
     1
  0
BLOCK_RECORD
  5
1F
330
1
100
AcDbSymbolTableRecord
100
AcDbBlockTableRecord
  2
*Model_Space
340
22
 70
     0
280
     1
281
     0
  0
BLOCK_RECORD
  5
1B
330
1
100
AcDbSymbolTableRecord
100
AcDbBlockTableRecord
  2
*Paper_Space
340
1E
 70
     0
280
     1
281
     0
  0
BLOCK_RECORD
  5
23
330
1
100
AcDbSymbolTableRecord
100
AcDbBlockTableRecord
  2
*Paper_Space0
340
26
 70
     0
280
     1
281
     0
  0
ENDTAB
  0
ENDSEC
  0
SECTION
  2
BLOCKS
  0
BLOCK
  5
20
330
1F
100
AcDbEntity
  8
0
100
AcDbBlockBegin
  2
*Model_Space
 70
     0
 10
0.0
 20
0.0
 30
0.0
  3
*Model_Space
  1

  0
ENDBLK
  5
21
330
1F
100
AcDbEntity
  8
0
100
AcDbBlockEnd
  0
BLOCK
  5
1C
330
1B
100
AcDbEntity
 67
     1
  8
0
100
AcDbBlockBegin
  2
*Paper_Space
 70
     0
 10
0.0
 20
0.0
 30
0.0
  3
*Paper_Space
  1

  0
ENDBLK
  5
1D
330
1B
100
AcDbEntity
 67
     1
  8
0
100
AcDbBlockEnd
  0
BLOCK
  5
24
330
23
100
AcDbEntity
  8
0
100
AcDbBlockBegin
  2
*Paper_Space0
 70
     0
 10
0.0
 20
0.0
 30
0.0
  3
*Paper_Space0
  1

  0
ENDBLK
  5
25
330
23
100
AcDbEntity
  8
0
100
AcDbBlockEnd
  0
ENDSEC
  0
SECTION
  2
ENTITIES
  0
SPLINE
  5
41
330
1F
100
AcDbEntity
  8
Layer 1
 62
   250
420
  2301728
370
    35
100
AcDbSpline
210
0.0
220
0.0
230
1.0
 70
    11
 71
     3
 72
  1043
 73
  1039
 74
     0
 42
0.0000000001
 43
0.0000000001
 12
1.0
 22
0.0
 32
0.0
 13
1.0
 23
0.0
 33
0.0
 40
0.0
 40
0.0
 40
0.0
 40
0.0
 40
1.0
 40
1.0
 40
1.0
 40
2.0
 40
2.0
 40
2.0
 40
3.0
 40
3.0
 40
3.0
 40
4.0
 40
4.0
 40
4.0
 40
5.0
 40
5.0
 40
5.0
 40
6.0
 40
6.0
 40
6.0
 40
7.0
 40
7.0
 40
7.0
 40
8.0
 40
8.0
 40
8.0
 40
9.0
 40
9.0
 40
9.0
 40
10.0
 40
10.0
 40
10.0
 40
11.0
 40
11.0
 40
11.0
 40
12.0
 40
12.0
 40
12.0
 40
13.0
 40
13.0
 40
13.0
 40
14.0
 40
14.0
 40
14.0
 40
15.0
 40
15.0
 40
15.0
 40
16.0
 40
16.0
 40
16.0
 40
17.0
 40
17.0
 40
17.0
 40
18.0
 40
18.0
 40
18.0
 40
19.0
 40
19.0
 40
19.0
 40
20.0
 40
20.0
 40
20.0
 40
21.0
 40
21.0
 40
21.0
 40
22.0
 40
22.0
 40
22.0
 40
23.0
 40
23.0
 40
23.0
 40
24.0
 40
24.0
 40
24.0
 40
25.0
 40
25.0
 40
25.0
 40
26.0
 40
26.0
 40
26.0
 40
27.0
 40
27.0
 40
27.0
 40
28.0
 40
28.0
 40
28.0
 40
29.0
 40
29.0
 40
29.0
 40
30.0
 40
30.0
 40
30.0
 40
31.0
 40
31.0
 40
31.0
 40
32.0
 40
32.0
 40
32.0
 40
33.0
 40
33.0
 40
33.0
 40
34.0
 40
34.0
 40
34.0
 40
35.0
 40
35.0
 40
35.0
 40
36.0
 40
36.0
 40
36.0
 40
37.0
 40
37.0
 40
37.0
 40
38.0
 40
38.0
 40
38.0
 40
39.0
 40
39.0
 40
39.0
 40
40.0
 40
40.0
 40
40.0
 40
41.0
 40
41.0
 40
41.0
 40
42.0
 40
42.0
 40
42.0
 40
43.0
 40
43.0
 40
43.0
 40
44.0
 40
44.0
 40
44.0
 40
45.0
 40
45.0
 40
45.0
 40
46.0
 40
46.0
 40
46.0
 40
47.0
 40
47.0
 40
47.0
 40
48.0
 40
48.0
 40
48.0
 40
49.0
 40
49.0
 40
49.0
 40
50.0
 40
50.0
 40
50.0
 40
51.0
 40
51.0
 40
51.0
 40
52.0
 40
52.0
 40
52.0
 40
53.0
 40
53.0
 40
53.0
 40
54.0
 40
54.0
 40
54.0
 40
55.0
 40
55.0
 40
55.0
 40
56.0
 40
56.0
 40
56.0
 40
57.0
 40
57.0
 40
57.0
 40
58.0
 40
58.0
 40
58.0
 40
59.0
 40
59.0
 40
59.0
 40
60.0
 40
60.0
 40
60.0
 40
61.0
 40
61.0
 40
61.0
 40
62.0
 40
62.0
 40
62.0
 40
63.0
 40
63.0
 40
63.0
 40
64.0
 40
64.0
 40
64.0
 40
65.0
 40
65.0
 40
65.0
 40
66.0
 40
66.0
 40
66.0
 40
67.0
 40
67.0
 40
67.0
 40
68.0
 40
68.0
 40
68.0
 40
69.0
 40
69.0
 40
69.0
 40
70.0
 40
70.0
 40
70.0
 40
71.0
 40
71.0
 40
71.0
 40
72.0
 40
72.0
 40
72.0
 40
73.0
 40
73.0
 40
73.0
 40
74.0
 40
74.0
 40
74.0
 40
75.0
 40
75.0
 40
75.0
 40
76.0
 40
76.0
 40
76.0
 40
77.0
 40
77.0
 40
77.0
 40
78.0
 40
78.0
 40
78.0
 40
79.0
 40
79.0
 40
79.0
 40
80.0
 40
80.0
 40
80.0
 40
81.0
 40
81.0
 40
81.0
 40
82.0
 40
82.0
 40
82.0
 40
83.0
 40
83.0
 40
83.0
 40
84.0
 40
84.0
 40
84.0
 40
85.0
 40
85.0
 40
85.0
 40
86.0
 40
86.0
 40
86.0
 40
87.0
 40
87.0
 40
87.0
 40
88.0
 40
88.0
 40
88.0
 40
89.0
 40
89.0
 40
89.0
 40
90.0
 40
90.0
 40
90.0
 40
91.0
 40
91.0
 40
91.0
 40
92.0
 40
92.0
 40
92.0
 40
93.0
 40
93.0
 40
93.0
 40
94.0
 40
94.0
 40
94.0
 40
95.0
 40
95.0
 40
95.0
 40
96.0
 40
96.0
 40
96.0
 40
97.0
 40
97.0
 40
97.0
 40
98.0
 40
98.0
 40
98.0
 40
99.0
 40
99.0
 40
99.0
 40
100.0
 40
100.0
 40
100.0
 40
101.0
 40
101.0
 40
101.0
 40
102.0
 40
102.0
 40
102.0
 40
103.0
 40
103.0
 40
103.0
 40
104.0
 40
104.0
 40
104.0
 40
105.0
 40
105.0
 40
105.0
 40
106.0
 40
106.0
 40
106.0
 40
107.0
 40
107.0
 40
107.0
 40
108.0
 40
108.0
 40
108.0
 40
109.0
 40
109.0
 40
109.0
 40
110.0
 40
110.0
 40
110.0
 40
111.0
 40
111.0
 40
111.0
 40
112.0
 40
112.0
 40
112.0
 40
113.0
 40
113.0
 40
113.0
 40
114.0
 40
114.0
 40
114.0
 40
115.0
 40
115.0
 40
115.0
 40
116.0
 40
116.0
 40
116.0
 40
117.0
 40
117.0
 40
117.0
 40
118.0
 40
118.0
 40
118.0
 40
119.0
 40
119.0
 40
119.0
 40
120.0
 40
120.0
 40
120.0
 40
121.0
 40
121.0
 40
121.0
 40
122.0
 40
122.0
 40
122.0
 40
123.0
 40
123.0
 40
123.0
 40
124.0
 40
124.0
 40
124.0
 40
125.0
 40
125.0
 40
125.0
 40
126.0
 40
126.0
 40
126.0
 40
127.0
 40
127.0
 40
127.0
 40
128.0
 40
128.0
 40
128.0
 40
129.0
 40
129.0
 40
129.0
 40
130.0
 40
130.0
 40
130.0
 40
131.0
 40
131.0
 40
131.0
 40
132.0
 40
132.0
 40
132.0
 40
133.0
 40
133.0
 40
133.0
 40
134.0
 40
134.0
 40
134.0
 40
135.0
 40
135.0
 40
135.0
 40
136.0
 40
136.0
 40
136.0
 40
137.0
 40
137.0
 40
137.0
 40
138.0
 40
138.0
 40
138.0
 40
139.0
 40
139.0
 40
139.0
 40
140.0
 40
140.0
 40
140.0
 40
141.0
 40
141.0
 40
141.0
 40
142.0
 40
142.0
 40
142.0
 40
143.0
 40
143.0
 40
143.0
 40
144.0
 40
144.0
 40
144.0
 40
145.0
 40
145.0
 40
145.0
 40
146.0
 40
146.0
 40
146.0
 40
147.0
 40
147.0
 40
147.0
 40
148.0
 40
148.0
 40
148.0
 40
149.0
 40
149.0
 40
149.0
 40
150.0
 40
150.0
 40
150.0
 40
151.0
 40
151.0
 40
151.0
 40
152.0
 40
152.0
 40
152.0
 40
153.0
 40
153.0
 40
153.0
 40
154.0
 40
154.0
 40
154.0
 40
155.0
 40
155.0
 40
155.0
 40
156.0
 40
156.0
 40
156.0
 40
157.0
 40
157.0
 40
157.0
 40
158.0
 40
158.0
 40
158.0
 40
159.0
 40
159.0
 40
159.0
 40
160.0
 40
160.0
 40
160.0
 40
161.0
 40
161.0
 40
161.0
 40
162.0
 40
162.0
 40
162.0
 40
163.0
 40
163.0
 40
163.0
 40
164.0
 40
164.0
 40
164.0
 40
165.0
 40
165.0
 40
165.0
 40
166.0
 40
166.0
 40
166.0
 40
167.0
 40
167.0
 40
167.0
 40
168.0
 40
168.0
 40
168.0
 40
169.0
 40
169.0
 40
169.0
 40
170.0
 40
170.0
 40
170.0
 40
171.0
 40
171.0
 40
171.0
 40
172.0
 40
172.0
 40
172.0
 40
173.0
 40
173.0
 40
173.0
 40
174.0
 40
174.0
 40
174.0
 40
175.0
 40
175.0
 40
175.0
 40
176.0
 40
176.0
 40
176.0
 40
177.0
 40
177.0
 40
177.0
 40
178.0
 40
178.0
 40
178.0
 40
179.0
 40
179.0
 40
179.0
 40
180.0
 40
180.0
 40
180.0
 40
181.0
 40
181.0
 40
181.0
 40
182.0
 40
182.0
 40
182.0
 40
183.0
 40
183.0
 40
183.0
 40
184.0
 40
184.0
 40
184.0
 40
185.0
 40
185.0
 40
185.0
 40
186.0
 40
186.0
 40
186.0
 40
187.0
 40
187.0
 40
187.0
 40
188.0
 40
188.0
 40
188.0
 40
189.0
 40
189.0
 40
189.0
 40
190.0
 40
190.0
 40
190.0
 40
191.0
 40
191.0
 40
191.0
 40
192.0
 40
192.0
 40
192.0
 40
193.0
 40
193.0
 40
193.0
 40
194.0
 40
194.0
 40
194.0
 40
195.0
 40
195.0
 40
195.0
 40
196.0
 40
196.0
 40
196.0
 40
197.0
 40
197.0
 40
197.0
 40
198.0
 40
198.0
 40
198.0
 40
199.0
 40
199.0
 40
199.0
 40
200.0
 40
200.0
 40
200.0
 40
201.0
 40
201.0
 40
201.0
 40
202.0
 40
202.0
 40
202.0
 40
203.0
 40
203.0
 40
203.0
 40
204.0
 40
204.0
 40
204.0
 40
205.0
 40
205.0
 40
205.0
 40
206.0
 40
206.0
 40
206.0
 40
207.0
 40
207.0
 40
207.0
 40
208.0
 40
208.0
 40
208.0
 40
209.0
 40
209.0
 40
209.0
 40
210.0
 40
210.0
 40
210.0
 40
211.0
 40
211.0
 40
211.0
 40
212.0
 40
212.0
 40
212.0
 40
213.0
 40
213.0
 40
213.0
 40
214.0
 40
214.0
 40
214.0
 40
215.0
 40
215.0
 40
215.0
 40
216.0
 40
216.0
 40
216.0
 40
217.0
 40
217.0
 40
217.0
 40
218.0
 40
218.0
 40
218.0
 40
219.0
 40
219.0
 40
219.0
 40
220.0
 40
220.0
 40
220.0
 40
221.0
 40
221.0
 40
221.0
 40
222.0
 40
222.0
 40
222.0
 40
223.0
 40
223.0
 40
223.0
 40
224.0
 40
224.0
 40
224.0
 40
225.0
 40
225.0
 40
225.0
 40
226.0
 40
226.0
 40
226.0
 40
227.0
 40
227.0
 40
227.0
 40
228.0
 40
228.0
 40
228.0
 40
229.0
 40
229.0
 40
229.0
 40
230.0
 40
230.0
 40
230.0
 40
231.0
 40
231.0
 40
231.0
 40
232.0
 40
232.0
 40
232.0
 40
233.0
 40
233.0
 40
233.0
 40
234.0
 40
234.0
 40
234.0
 40
235.0
 40
235.0
 40
235.0
 40
236.0
 40
236.0
 40
236.0
 40
237.0
 40
237.0
 40
237.0
 40
238.0
 40
238.0
 40
238.0
 40
239.0
 40
239.0
 40
239.0
 40
240.0
 40
240.0
 40
240.0
 40
241.0
 40
241.0
 40
241.0
 40
242.0
 40
242.0
 40
242.0
 40
243.0
 40
243.0
 40
243.0
 40
244.0
 40
244.0
 40
244.0
 40
245.0
 40
245.0
 40
245.0
 40
246.0
 40
246.0
 40
246.0
 40
247.0
 40
247.0
 40
247.0
 40
248.0
 40
248.0
 40
248.0
 40
249.0
 40
249.0
 40
249.0
 40
250.0
 40
250.0
 40
250.0
 40
251.0
 40
251.0
 40
251.0
 40
252.0
 40
252.0
 40
252.0
 40
253.0
 40
253.0
 40
253.0
 40
254.0
 40
254.0
 40
254.0
 40
255.0
 40
255.0
 40
255.0
 40
256.0
 40
256.0
 40
256.0
 40
257.0
 40
257.0
 40
257.0
 40
258.0
 40
258.0
 40
258.0
 40
259.0
 40
259.0
 40
259.0
 40
260.0
 40
260.0
 40
260.0
 40
261.0
 40
261.0
 40
261.0
 40
262.0
 40
262.0
 40
262.0
 40
263.0
 40
263.0
 40
263.0
 40
264.0
 40
264.0
 40
264.0
 40
265.0
 40
265.0
 40
265.0
 40
266.0
 40
266.0
 40
266.0
 40
267.0
 40
267.0
 40
267.0
 40
268.0
 40
268.0
 40
268.0
 40
269.0
 40
269.0
 40
269.0
 40
270.0
 40
270.0
 40
270.0
 40
271.0
 40
271.0
 40
271.0
 40
272.0
 40
272.0
 40
272.0
 40
273.0
 40
273.0
 40
273.0
 40
274.0
 40
274.0
 40
274.0
 40
275.0
 40
275.0
 40
275.0
 40
276.0
 40
276.0
 40
276.0
 40
277.0
 40
277.0
 40
277.0
 40
278.0
 40
278.0
 40
278.0
 40
279.0
 40
279.0
 40
279.0
 40
280.0
 40
280.0
 40
280.0
 40
281.0
 40
281.0
 40
281.0
 40
282.0
 40
282.0
 40
282.0
 40
283.0
 40
283.0
 40
283.0
 40
284.0
 40
284.0
 40
284.0
 40
285.0
 40
285.0
 40
285.0
 40
286.0
 40
286.0
 40
286.0
 40
287.0
 40
287.0
 40
287.0
 40
288.0
 40
288.0
 40
288.0
 40
289.0
 40
289.0
 40
289.0
 40
290.0
 40
290.0
 40
290.0
 40
291.0
 40
291.0
 40
291.0
 40
292.0
 40
292.0
 40
292.0
 40
293.0
 40
293.0
 40
293.0
 40
294.0
 40
294.0
 40
294.0
 40
295.0
 40
295.0
 40
295.0
 40
296.0
 40
296.0
 40
296.0
 40
297.0
 40
297.0
 40
297.0
 40
298.0
 40
298.0
 40
298.0
 40
299.0
 40
299.0
 40
299.0
 40
300.0
 40
300.0
 40
300.0
 40
301.0
 40
301.0
 40
301.0
 40
302.0
 40
302.0
 40
302.0
 40
303.0
 40
303.0
 40
303.0
 40
304.0
 40
304.0
 40
304.0
 40
305.0
 40
305.0
 40
305.0
 40
306.0
 40
306.0
 40
306.0
 40
307.0
 40
307.0
 40
307.0
 40
308.0
 40
308.0
 40
308.0
 40
309.0
 40
309.0
 40
309.0
 40
310.0
 40
310.0
 40
310.0
 40
311.0
 40
311.0
 40
311.0
 40
312.0
 40
312.0
 40
312.0
 40
313.0
 40
313.0
 40
313.0
 40
314.0
 40
314.0
 40
314.0
 40
315.0
 40
315.0
 40
315.0
 40
316.0
 40
316.0
 40
316.0
 40
317.0
 40
317.0
 40
317.0
 40
318.0
 40
318.0
 40
318.0
 40
319.0
 40
319.0
 40
319.0
 40
320.0
 40
320.0
 40
320.0
 40
321.0
 40
321.0
 40
321.0
 40
322.0
 40
322.0
 40
322.0
 40
323.0
 40
323.0
 40
323.0
 40
324.0
 40
324.0
 40
324.0
 40
325.0
 40
325.0
 40
325.0
 40
326.0
 40
326.0
 40
326.0
 40
327.0
 40
327.0
 40
327.0
 40
328.0
 40
328.0
 40
328.0
 40
329.0
 40
329.0
 40
329.0
 40
330.0
 40
330.0
 40
330.0
 40
331.0
 40
331.0
 40
331.0
 40
332.0
 40
332.0
 40
332.0
 40
333.0
 40
333.0
 40
333.0
 40
334.0
 40
334.0
 40
334.0
 40
335.0
 40
335.0
 40
335.0
 40
336.0
 40
336.0
 40
336.0
 40
337.0
 40
337.0
 40
337.0
 40
338.0
 40
338.0
 40
338.0
 40
339.0
 40
339.0
 40
339.0
 40
340.0
 40
340.0
 40
340.0
 40
341.0
 40
341.0
 40
341.0
 40
342.0
 40
342.0
 40
342.0
 40
343.0
 40
343.0
 40
343.0
 40
344.0
 40
344.0
 40
344.0
 40
345.0
 40
345.0
 40
345.0
 40
346.0
 40
346.0
 40
346.0
 40
346.0
 10
11.0
 20
-4.462500015894571
 30
0.0
 10
11.0
 20
-5.306944465637216
 30
0.0
 10
11.0
 20
-6.151388931274419
 30
0.0
 10
11.0
 20
-6.995833333333343
 30
0.0
 10
10.6007120768229
 20
-6.995807902018239
 30
0.0
 10
10.20142313639323
 20
-6.995763142903646
 30
0.0
 10
9.802135213216134
 20
-6.99593378702798
 30
0.0
 10
9.795866902669255
 20
-6.995936584472676
 30
0.0
 10
9.789600626627614
 20
-6.998585764567072
 30
0.0
 10
9.783333333333328
 20
-7.0
 30
0.0
 10
6.522222391764317
 20
-7.0
 30
0.0
 10
3.261111195882146
 20
-7.0
 30
0.0
 10
0.0000000004967104
 20
-7.0
 30
0.0
 10
0.0
 20
-6.104166666666666
 30
0.0
 10
0.0
 20
-5.208333333333333
 30
0.0
 10
0.0
 20
-4.3125
 30
0.0
 10
0.0372398614883372
 20
-4.315715213616689
 30
0.0
 10
0.0254556834697723
 20
-4.350487907727559
 30
0.0
 10
0.0358940998713201
 20
-4.370602774620086
 30
0.0
 10
0.0577646970748826
 20
-4.355187447865799
 30
0.0
 10
0.0872638543446808
 20
-4.358153883616144
 30
0.0
 10
0.1049604018529256
 20
-4.335914194583918
 30
0.0
 10
0.1083092530568466
 20
-4.331705609957377
 30
0.0
 10
0.1200192451477101
 20
-4.334150151411677
 30
0.0
 10
0.1275917847951354
 20
-4.333547083536788
 30
0.0
 10
0.1291242440541585
 20
-4.344314912954966
 30
0.0
 10
0.1303200721740723
 20
-4.352717407544484
 30
0.0
 10
0.1316932042439778
 20
-4.362365667025238
 30
0.0
 10
0.147105344136561
 20
-4.354611404736842
 30
0.0
 10
0.1594435214996363
 20
-4.343899436791743
 30
0.0
 10
0.1727233409881642
 20
-4.342566116650914
 30
0.0
 10
0.212701829274503
 20
-4.338552180925995
 30
0.0
 10
0.253046989440918
 20
-4.338190019130732
 30
0.0
 10
0.2927318255106507
 20
-4.336426583925888
 30
0.0
 10
0.2960238456726074
 20
-4.326426891485855
 30
0.0
 10
0.298000049591072
 20
-4.320094362894704
 30
0.0
 10
0.3001903216044057
 20
-4.313836757342036
 30
0.0
 10
0.3054820696512858
 20
-4.298718161384285
 30
0.0
 10
0.3203978220621795
 20
-4.293439133962011
 30
0.0
 10
0.3312554041544647
 20
-4.305096584558517
 30
0.0
 10
0.3446321487426758
 20
-4.319458742936478
 30
0.0
 10
0.3600555737813238
 20
-4.321429451306686
 30
0.0
 10
0.3778701464335149
 20
-4.321211834748586
 30
0.0
 10
0.3913661321004282
 20
-4.321046972274795
 30
0.0
 10
0.4051376660664801
 20
-4.322480086485535
 30
0.0
 10
0.4183495839436849
 20
-4.325270811716715
 30
0.0
 10
0.4352749824523951
 20
-4.328845930099507
 30
0.0
 10
0.4452597300211588
 20
-4.324127511183431
 30
0.0
 10
0.4503554979960048
 20
-4.30705774029098
 30
0.0
 10
0.4524736404418945
 20
-4.299962330857903
 30
0.0
 10
0.4583387692769318
 20
-4.29398549497129
 30
0.0
 10
0.4625000000000025
 20
-4.287500000496721
 30
0.0
 10
0.4736111005147323
 20
-4.28750000000001
 30
0.0
 10
0.4847222328186009
 20
-4.28750000000001
 30
0.0
 10
0.4958333333333308
 20
-4.28750000000001
 30
0.0
 10
0.5069418271382599
 20
-4.32337100108465
 30
0.0
 10
0.5335615158080979
 20
-4.308703418572754
 30
0.0
 10
0.5549681981404622
 20
-4.303073018789291
 30
0.0
 10
0.5609130223592097
 20
-4.325135548909505
 30
0.0
 10
0.5652905782063852
 20
-4.344208808739975
 30
0.0
 10
0.5716774622599258
 20
-4.362583581606562
 30
0.0
 10
0.5728848775227864
 20
-4.366057260831212
 30
0.0
 10
0.5822923024495341
 20
-4.368845033645635
 30
0.0
 10
0.5875438054402669
 20
-4.368308099110942
 30
0.0
 10
0.599278450012207
 20
-4.367108313242599
 30
0.0
 10
0.6107783635457306
 20
-4.363612365722676
 30
0.0
 10
0.6259219487508163
 20
-4.360268274943033
 30
0.0
 10
0.6189768473307266
 20
-4.3903201977412
 30
0.0
 10
0.6346810658772786
 20
-4.406818278630579
 30
0.0
 10
0.6547639211018779
 20
-4.413820576667805
 30
0.0
 10
0.6787792205810521
 20
-4.422194035848002
 30
0.0
 10
0.6871169408162434
 20
-4.393772904078156
 30
0.0
 10
0.6988504409789963
 20
-4.386999011039759
 30
0.0
 10
0.7214555740356445
 20
-4.389683349927256
 30
0.0
 10
0.7392435073852539
 20
-4.391795659065261
 30
0.0
 10
0.7585435231526768
 20
-4.394087529182444
 30
0.0
 10
0.7556490580240809
 20
-4.411428236961379
 30
0.0
 10
0.7563999176025314
 20
-4.430524428685506
 30
0.0
 10
0.7488457997639999
 20
-4.445404386520395
 30
0.0
 10
0.7416095733642578
 20
-4.459658018747986
 30
0.0
 10
0.7257493336995442
 20
-4.469533443450953
 30
0.0
 10
0.7115747451782176
 20
-4.483390490214029
 30
0.0
 10
0.737521489461263
 20
-4.479346211751312
 30
0.0
 10
0.7383279164632136
 20
-4.501631657282511
 30
0.0
 10
0.7478829065958558
 20
-4.513484509785965
 30
0.0
 10
0.7609004974365234
 20
-4.529632552464818
 30
0.0
 10
0.7747080485026142
 20
-4.534022331237793
 30
0.0
 10
0.7909418106079076
 20
-4.52328114509583
 30
0.0
 10
0.8123300552368214
 20
-4.509129349390681
 30
0.0
 10
0.8506027857462565
 20
-4.512755266825352
 30
0.0
 10
0.8714157740275065
 20
-4.531585804621373
 30
0.0
 10
0.8530076980590718
 20
-4.565239938100174
 30
0.0
 10
0.8344740549723231
 20
-4.599123573303232
 30
0.0
 10
0.814523824055982
 20
-4.635597038269048
 30
0.0
 10
0.8376284917195562
 20
-4.629661814371755
 30
0.0
 10
0.8596324920654297
 20
-4.624009291330973
 30
0.0
 10
0.8834220250447515
 20
-4.617898114522303
 30
0.0
 10
0.8834220250447515
 20
-4.613309129079198
 30
0.0
 10
0.8815492630004781
 20
-4.606894874572768
 30
0.0
 10
0.8837952295939051
 20
-4.602670447031667
 30
0.0
 10
0.8891843159993489
 20
-4.592534097035746
 30
0.0
 10
0.8950951258341445
 20
-4.581877549489339
 30
0.0
 10
0.9034077326456705
 20
-4.574294757843012
 30
0.0
 10
0.9138137817382761
 20
-4.564802360534663
 30
0.0
 10
0.9211545944213841
 20
-4.575225957234705
 30
0.0
 10
0.9297777175903295
 20
-4.581201394399032
 30
0.0
 10
0.9363371531168619
 20
-4.585746796925857
 30
0.0
 10
0.946085103352857
 20
-4.586990229288731
 30
0.0
 10
0.9545029958089167
 20
-4.587300650278721
 30
0.0
 10
0.9762032826741536
 20
-4.588100910186768
 30
0.0
 10
0.9979527155558242
 20
-4.587568505605051
 30
0.0
 10
1.020910008748375
 20
-4.587568505605051
 30
0.0
 10
1.020910008748375
 20
-4.572805309295669
 30
0.0
 10
1.020909055074058
 20
-4.556189982096359
 30
0.0
 10
1.020910263061523
 20
-4.539574654897074
 30
0.0
 10
1.020912297566724
 20
-4.510958258310969
 30
0.0
 10
1.030660756429029
 20
-4.493454583485926
 30
0.0
 10
1.059177080790189
 20
-4.488214222590133
 30
0.0
 10
1.084063975016268
 20
-4.483640845616669
 30
0.0
 10
1.112228139241539
 20
-4.481997791926056
 30
0.0
 10
1.135802714029953
 20
-4.489259370168055
 30
0.0
 10
1.160793813069669
 20
-4.496957238515228
 30
0.0
 10
1.191707102457687
 20
-4.499403858184829
 30
0.0
 10
1.206973012288409
 20
-4.528636614481607
 30
0.0
 10
1.209845097859695
 20
-4.534136311213185
 30
0.0
 10
1.22271423339843
 20
-4.538197692235321
 30
0.0
 10
1.229987843831383
 20
-4.53699288368226
 30
0.0
 10
1.27217407226562
 20
-4.530005153020233
 30
0.0
 10
1.314322153727213
 20
-4.528444735209152
 30
0.0
 10
1.35671819051106
 20
-4.533469581603994
 30
0.0
 10
1.375281397501617
 20
-4.535669740041107
 30
0.0
 10
1.393768056233726
 20
-4.538518158594772
 30
0.0
 10
1.411439132690425
 20
-4.540954939524327
 30
0.0
 10
1.412349319458018
 20
-4.556248219807937
 30
0.0
 10
1.413016128540031
 20
-4.567450714111323
 30
0.0
 10
1.41368293762207
 20
-4.578653208414708
 30
0.0
 10
1.422576141357417
 20
-4.570745468139648
 30
0.0
 10
1.427170308430984
 20
-4.562067095438654
 30
0.0
 10
1.431860224405934
 20
-4.55344082514446
 30
0.0
 10
1.439194869995112
 20
-4.539949909845998
 30
0.0
 10
1.454012044270813
 20
-4.536787303288772
 30
0.0
 10
1.465461222330722
 20
-4.547046899795532
 30
0.0
 10
1.470959726969403
 20
-4.551974137624105
 30
0.0
 10
1.474480311075846
 20
-4.559054025014246
 30
0.0
 10
1.479723993937177
 20
-4.564337984720876
 30
0.0
 10
1.483879089355469
 20
-4.568524869283061
 30
0.0
 10
1.491668319702159
 20
-4.575546900431315
 30
0.0
 10
1.493783060709638
 20
-4.574318599700947
 30
0.0
 10
1.514480336507151
 20
-4.562297312418624
 30
0.0
 10
1.530829111735026
 20
-4.572760677337656
 30
0.0
 10
1.55011113484698
 20
-4.587660725911468
 30
0.0
 10
1.563284937540693
 20
-4.564662233988454
 30
0.0
 10
1.574970626831057
 20
-4.544261614481607
 30
0.0
 10
1.588780339558917
 20
-4.520152870813996
 30
0.0
 10
1.594247309366867
 20
-4.5215160369873
 30
0.0
 10
1.605167261759448
 20
-4.525514078140279
 30
0.0
 10
1.616378657023107
 20
-4.526660601298014
 30
0.0
 10
1.626712290445969
 20
-4.52771733601887
 30
0.0
 10
1.63937695821125
 20
-4.529139073689799
 30
0.0
 10
1.647468312581383
 20
-4.524375661214208
 30
0.0
 10
1.667287572224925
 20
-4.512707869211832
 30
0.0
 10
1.684046300252286
 20
-4.513592847188319
 30
0.0
 10
1.704089736938461
 20
-4.524266115824402
 30
0.0
 10
1.716346232096359
 20
-4.530792888005585
 30
0.0
 10
1.73272514343263
 20
-4.533602301279719
 30
0.0
 10
1.746589660644519
 20
-4.532072766621923
 30
0.0
 10
1.764133071899411
 20
-4.530137411753331
 30
0.0
 10
1.772523244222005
 20
-4.536888678868611
 30
0.0
 10
1.780200576782224
 20
-4.552273146311436
 30
0.0
 10
1.756265385945641
 20
-4.554667282104522
 30
0.0
 10
1.749670155843091
 20
-4.570725631713887
 30
0.0
 10
1.746136220296219
 20
-4.59362834294638
 30
0.0
 10
1.764276250203453
 20
-4.591222000122065
 30
0.0
 10
1.781477991739899
 20
-4.590749168396011
 30
0.0
 10
1.797573343912758
 20
-4.586286226908365
 30
0.0
 10
1.813057581583659
 20
-4.581992689768488
 30
0.0
 10
1.827025222778325
 20
-4.572492663065607
 30
0.0
 10
1.842326227823883
 20
-4.567213630676279
 30
0.0
 10
1.865936660766617
 20
-4.559067853291834
 30
0.0
 10
1.904260253906247
 20
-4.576662190755213
 30
0.0
 10
1.916302235921219
 20
-4.600886408487971
 30
0.0
 10
1.925248209635419
 20
-4.618882687886576
 30
0.0
 10
1.932459894816083
 20
-4.634809271494557
 30
0.0
 10
1.95897394816081
 20
-4.630209032694489
 30
0.0
 10
1.975446446736656
 20
-4.627351093292241
 30
0.0
 10
1.991239547729492
 20
-4.663928985595703
 30
0.0
 10
1.981612396240242
 20
-4.678765328725199
 30
0.0
 10
1.976242446899416
 20
-4.687041187286367
 30
0.0
 10
1.971620559692383
 20
-4.693628311157227
 30
0.0
 10
1.977947998046855
 20
-4.705141735076924
 30
0.0
 10
1.981026331583659
 20
-4.710742632548039
 30
0.0
 10
1.974597295125325
 20
-4.722478516896571
 30
0.0
 10
1.970809809366857
 20
-4.73066844940187
 30
0.0
 10
1.9675085703532
 20
-4.737806797027613
 30
0.0
 10
1.961873118082672
 20
-4.743865648905436
 30
0.0
 10
1.955757013956701
 20
-4.752547931671137
 30
0.0
 10
1.983312225341794
 20
-4.758147970835378
 30
0.0
 10
1.997289530436193
 20
-4.77716461817426
 30
0.0
 10
1.994136937459302
 20
-4.799197451273585
 30
0.0
 10
1.990508143107099
 20
-4.824558893839518
 30
0.0
 10
1.965143712361648
 20
-4.82870667775473
 30
0.0
 10
1.935716883341481
 20
-4.82994867960613
 30
0.0
 10
1.941816075642893
 20
-4.840381050109878
 30
0.0
 10
1.944364547729505
 20
-4.850129063924164
 30
0.0
 10
1.950265121459956
 20
-4.853008906046549
 30
0.0
 10
1.954459508260091
 20
-4.855055936177576
 30
0.0
 10
1.967118581136055
 20
-4.849471346537257
 30
0.0
 10
1.969175084431956
 20
-4.844480514526392
 30
0.0
 10
1.977435557047518
 20
-4.824434534708669
 30
0.0
 10
1.99593149820963
 20
-4.823636945088714
 30
0.0
 10
2.011563618977864
 20
-4.822266387939483
 30
0.0
 10
2.023129781087239
 20
-4.821252250671401
 30
0.0
 10
2.037583414713544
 20
-4.826672999064132
 30
0.0
 10
2.046717071533193
 20
-4.834152539571126
 30
0.0
 10
2.052375284830747
 20
-4.838786061604828
 30
0.0
 10
2.053038024902333
 20
-4.853117370605483
 30
0.0
 10
2.051315561930349
 20
-4.862219683329284
 30
0.0
 10
2.049334971110031
 20
-4.872685178120946
 30
0.0
 10
2.042246373494461
 20
-4.882183965047211
 30
0.0
 10
2.035677719116216
 20
-4.895562426249196
 30
0.0
 10
2.030994415283203
 20
-4.896985562642436
 30
0.0
 10
2.021645100911453
 20
-4.899826622009287
 30
0.0
 10
2.010339228312167
 20
-4.903262201944977
 30
0.0
 10
2.019900894165036
 20
-4.923539161682154
 30
0.0
 10
2.030370076497408
 20
-4.943043581644688
 30
0.0
 10
2.006421661376963
 20
-4.961873944600433
 30
0.0
 10
2.027860514322911
 20
-4.962006759643574
 30
0.0
 10
2.045683161417641
 20
-4.957535807291682
 30
0.0
 10
2.062986501057948
 20
-4.95903956095377
 30
0.0
 10
2.089445368448891
 20
-4.961339124043787
 30
0.0
 10
2.115546162923175
 20
-4.967761166890467
 30
0.0
 10
2.141765340169273
 20
-4.972427177429204
 30
0.0
 10
2.161620330810542
 20
-4.928041076660166
 30
0.0
 10
2.161620330810542
 20
-4.928041076660166
 30
0.0
 10
2.183486938476575
 20
-4.932177861531575
 30
0.0
 10
2.183486938476575
 20
-4.940011787414581
 30
0.0
 10
2.183486938476575
 20
-4.948119036356602
 30
0.0
 10
2.183486938476575
 20
-4.958436393737783
 30
0.0
 10
2.200598144531253
 20
-4.958436393737783
 30
0.0
 10
2.218051401774094
 20
-4.95413290659586
 30
0.0
 10
2.231809488932286
 20
-4.95942866007489
 30
0.0
 10
2.2533177693685
 20
-4.967707633972193
 30
0.0
 10
2.270549774169922
 20
-4.967276255289713
 30
0.0
 10
2.292900339762355
 20
-4.959991010030105
 30
0.0
 10
2.314754486083984
 20
-4.952867444356293
 30
0.0
 10
2.34074783325194
 20
-4.958440971374531
 30
0.0
 10
2.365574645996086
 20
-4.958440971374531
 30
0.0
 10
2.36637776692708
 20
-4.966134262084981
 30
0.0
 10
2.367005920410166
 20
-4.972153727213557
 30
0.0
 10
2.36781005859373
 20
-4.979857254028325
 30
0.0
 10
2.394944000244133
 20
-4.974419021606435
 30
0.0
 10
2.421391042073575
 20
-4.969118436177571
 30
0.0
 10
2.452900441487625
 20
-4.962803268432607
 30
0.0
 10
2.448510487874362
 20
-4.975373586018905
 30
0.0
 10
2.44558842976888
 20
-4.980867385864258
 30
0.0
 10
2.444944000244138
 20
-4.986616643269877
 30
0.0
 10
2.444528198242197
 20
-4.9903247833252
 30
0.0
 10
2.446532440185542
 20
-4.997056833903015
 30
0.0
 10
2.449019877115903
 20
-4.997920989990234
 30
0.0
 10
2.481356302897123
 20
-5.009154319763208
 30
0.0
 10
2.48142700195313
 20
-5.008950551350911
 30
0.0
 10
2.474648030598953
 20
-5.042993418375671
 30
0.0
 10
2.488394927978523
 20
-5.042993418375671
 30
0.0
 10
2.50165100097657
 20
-5.044964218139638
 30
0.0
 10
2.514079538981125
 20
-5.042594464619949
 30
0.0
 10
2.542375183105466
 20
-5.037199338277181
 30
0.0
 10
2.562280273437497
 20
-5.041360473632822
 30
0.0
 10
2.57064895629882
 20
-5.061055310567225
 30
0.0
 10
2.579242197672518
 20
-5.081279500325536
 30
0.0
 10
2.590167744954429
 20
-5.074856821695954
 30
0.0
 10
2.604169209798177
 20
-5.069282086690261
 30
0.0
 10
2.615440368652344
 20
-5.064794413248718
 30
0.0
 10
2.628050231933596
 20
-5.063669713338211
 30
0.0
 10
2.641956075032542
 20
-5.060641415913905
 30
0.0
 10
2.641282908121739
 20
-5.074095090230306
 30
0.0
 10
2.64086125691732
 20
-5.082527351379414
 30
0.0
 10
2.640446472167973
 20
-5.090821647644058
 30
0.0
 10
2.653735097249346
 20
-5.09439226786296
 30
0.0
 10
2.676629892985034
 20
-5.08411496480307
 30
0.0
 10
2.674194081624351
 20
-5.109051831563319
 30
0.0
 10
2.671292114257805
 20
-5.138766543070485
 30
0.0
 10
2.679313151041646
 20
-5.160372225443527
 30
0.0
 10
2.705744934082026
 20
-5.174597676595062
 30
0.0
 10
2.706328582763679
 20
-5.174911753336598
 30
0.0
 10
2.706801859537753
 20
-5.175513140360534
 30
0.0
 10
2.707204437255857
 20
-5.176069005330419
 30
0.0
 10
2.717886606852213
 20
-5.19081293741864
 30
0.0
 10
2.730388387044261
 20
-5.189320437113464
 30
0.0
 10
2.745285542806009
 20
-5.182250912984222
 30
0.0
 10
2.753050994873042
 20
-5.17856572469077
 30
0.0
 10
2.763562266031891
 20
-5.176456514994318
 30
0.0
 10
2.771629079182945
 20
-5.178467178344741
 30
0.0
 10
2.790159352620448
 20
-5.183085568745961
 30
0.0
 10
2.807951863606768
 20
-5.190664927164713
 30
0.0
 10
2.82853647867839
 20
-5.19792111714681
 30
0.0
 10
2.824834950764992
 20
-5.213592974344894
 30
0.0
 10
2.837699890136719
 20
-5.235447438557963
 30
0.0
 10
2.819466400146489
 20
-5.254306093851735
 30
0.0
 10
2.825454966227211
 20
-5.270416704813644
 30
0.0
 10
2.830861409505208
 20
-5.288934326171884
 30
0.0
 10
2.856593577067049
 20
-5.283902104695648
 30
0.0
 10
2.859402720133441
 20
-5.283352788289398
 30
0.0
 10
2.863559468587242
 20
-5.289212544759139
 30
0.0
 10
2.866957092285159
 20
-5.292249488830596
 30
0.0
 10
2.876340993245448
 20
-5.300637690226242
 30
0.0
 10
2.879825846354177
 20
-5.321561940511073
 30
0.0
 10
2.898156992594409
 20
-5.311724599202484
 30
0.0
 10
2.920690155029294
 20
-5.299632453918447
 30
0.0
 10
2.940712483723978
 20
-5.299042892456074
 30
0.0
 10
2.962408447265615
 20
-5.314801152547211
 30
0.0
 10
2.99556274414062
 20
-5.338881429036468
 30
0.0
 10
3.005823262532545
 20
-5.338769976298029
 30
0.0
 10
3.038798014322917
 20
-5.318290583292637
 30
0.0
 10
3.044782257080063
 20
-5.314574050903325
 30
0.0
 10
3.058870697021487
 20
-5.313675244649276
 30
0.0
 10
3.062054951985677
 20
-5.317476272583033
 30
0.0
 10
3.074944559733075
 20
-5.332861900329615
 30
0.0
 10
3.091142527262377
 20
-5.328923225402857
 30
0.0
 10
3.106889343261716
 20
-5.329211171468109
 30
0.0
 10
3.116429392496747
 20
-5.329385630289708
 30
0.0
 10
3.125975036621096
 20
-5.329243342081705
 30
0.0
 10
3.136289215087888
 20
-5.329243342081705
 30
0.0
 10
3.137138366699206
 20
-5.341218249003077
 30
0.0
 10
3.137849426269529
 20
-5.351247406005869
 30
0.0
 10
3.138602193196625
 20
-5.361865997314453
 30
0.0
 10
3.150813039143877
 20
-5.361865997314453
 30
0.0
 10
3.161742401123054
 20
-5.361865997314453
 30
0.0
 10
3.172961425781245
 20
-5.361865997314453
 30
0.0
 10
3.17076059977214
 20
-5.348765627543141
 30
0.0
 10
3.168657938639323
 20
-5.336250241597503
 30
0.0
 10
3.167406463623062
 20
-5.328801282246912
 30
0.0
 10
3.188533274332674
 20
-5.313553682963048
 30
0.0
 10
3.207358551025385
 20
-5.301048024495458
 30
0.0
 10
3.224910990397133
 20
-5.286956532796239
 30
0.0
 10
3.238950093587227
 20
-5.275685628255208
 30
0.0
 10
3.256700134277341
 20
-5.27662493387859
 30
0.0
 10
3.267836252848307
 20
-5.290176137288427
 30
0.0
 10
3.286873881022125
 20
-5.313342539469406
 30
0.0
 10
3.30801213582356
 20
-5.331772232055679
 30
0.0
 10
3.340931701660161
 20
-5.334200477600082
 30
0.0
 10
3.36078008015948
 20
-5.335664558410675
 30
0.0
 10
3.378785705566416
 20
-5.341641871134445
 30
0.0
 10
3.399974568684898
 20
-5.334518559773768
 30
0.0
 10
3.422005971272786
 20
-5.327111943562841
 30
0.0
 10
3.446853383382151
 20
-5.3280253728231
 30
0.0
 10
3.470495859781901
 20
-5.325552050272614
 30
0.0
 10
3.472906239827466
 20
-5.325299962361669
 30
0.0
 10
3.475710042317688
 20
-5.326354471842452
 30
0.0
 10
3.477969868977867
 20
-5.32750968933106
 30
0.0
 10
3.496269480387355
 20
-5.336863962809249
 30
0.0
 10
3.525471242268875
 20
-5.331557401021326
 30
0.0
 10
3.538924407958992
 20
-5.316276168823252
 30
0.0
 10
3.558507283528633
 20
-5.294032096862818
 30
0.0
 10
3.562182108561185
 20
-5.294734573364267
 30
0.0
 10
3.574035135904953
 20
-5.323202768961614
 30
0.0
 10
3.575281524658193
 20
-5.326195653279632
 30
0.0
 10
3.575871785481783
 20
-5.329461606343608
 30
0.0
 10
3.576483408610026
 20
-5.331607182820638
 30
0.0
 10
3.603652191162117
 20
-5.333653322855652
 30
0.0
 10
3.629756673177086
 20
-5.337684122721359
 30
0.0
 10
3.655724334716789
 20
-5.336939048767085
 30
0.0
 10
3.677557627360026
 20
-5.336312611897786
 30
0.0
 10
3.687049357096359
 20
-5.342493120829279
 30
0.0
 10
3.683597310384104
 20
-5.364737065633133
 30
0.0
 10
3.683348337809245
 20
-5.366341145833328
 30
0.0
 10
3.685015869140645
 20
-5.368242772420268
 30
0.0
 10
3.684340922037765
 20
-5.366710027058919
 30
0.0
 10
3.73524780273437
 20
-5.366710027058919
 30
0.0
 10
3.784217834472656
 20
-5.3672779083252
 30
0.0
 10
3.83313725789387
 20
-5.365954335530609
 30
0.0
 10
3.838918050130196
 20
-5.365797932942718
 30
0.0
 10
3.84856618245442
 20
-5.355738449096685
 30
0.0
 10
3.849268341064455
 20
-5.349468739827494
 30
0.0
 10
3.851336415608721
 20
-5.330998229980474
 30
0.0
 10
3.860498301188159
 20
-5.324393653869643
 30
0.0
 10
3.877718607584635
 20
-5.324883524576813
 30
0.0
 10
3.880954996744789
 20
-5.324975585937509
 30
0.0
 10
3.884254201253245
 20
-5.322856076558436
 30
0.0
 10
3.889438883463539
 20
-5.32111390431722
 30
0.0
 10
3.861829376220688
 20
-5.308279927571625
 30
0.0
 10
3.859494018554692
 20
-5.302179400126129
 30
0.0
 10
3.864259847005188
 20
-5.259522056579599
 30
0.0
 10
3.889076232910156
 20
-5.250982475280757
 30
0.0
 10
3.920449066162114
 20
-5.260050582885747
 30
0.0
 10
3.939808400472
 20
-5.234287007649755
 30
0.0
 10
3.940411122639981
 20
-5.233484903971354
 30
0.0
 10
3.942552185058604
 20
-5.23328984578451
 30
0.0
 10
3.943785858154292
 20
-5.233590888977081
 30
0.0
 10
3.977937571207677
 20
-5.241924667358413
 30
0.0
 10
4.005155181884776
 20
-5.216076596577977
 30
0.0
 10
4.037318929036448
 20
-5.214675013224299
 30
0.0
 10
4.052465057373044
 20
-5.214015070597346
 30
0.0
 10
4.07059402465821
 20
-5.218181991577163
 30
0.0
 10
4.082120513916013
 20
-5.211329332987462
 30
0.0
 10
4.106069691975904
 20
-5.197091102600098
 30
0.0
 10
4.124950917561856
 20
-5.204136975606287
 30
0.0
 10
4.14513600667317
 20
-5.215980656941737
 30
0.0
 10
4.145643870035807
 20
-5.222728538513214
 30
0.0
 10
4.146151479085271
 20
-5.229466883341476
 30
0.0
 10
4.14665908813476
 20
-5.236205228169764
 30
0.0
 10
4.148369598388664
 20
-5.237392934163432
 30
0.0
 10
4.150079854329432
 20
-5.238580703735352
 30
0.0
 10
4.151790364583336
 20
-5.239768473307296
 30
0.0
 10
4.155384318033851
 20
-5.235538927714035
 30
0.0
 10
4.161732991536458
 20
-5.231516710917149
 30
0.0
 10
4.16206970214844
 20
-5.227042134602875
 30
0.0
 10
4.163207753499352
 20
-5.211922200520854
 30
0.0
 10
4.170354461669919
 20
-5.206797281901041
 30
0.0
 10
4.184767150878896
 20
-5.208249473571792
 30
0.0
 10
4.193468983968109
 20
-5.209126218160009
 30
0.0
 10
4.202330780029292
 20
-5.20841077168782
 30
0.0
 10
4.211376190185547
 20
-5.20841077168782
 30
0.0
 10
4.212277730305989
 20
-5.21953608194988
 30
0.0
 10
4.212980651855471
 20
-5.2282081604004
 30
0.0
 10
4.213777414957677
 20
-5.238040161132807
 30
0.0
 10
4.22125727335611
 20
-5.237226549784357
 30
0.0
 10
4.22705866495768
 20
-5.236595471700057
 30
0.0
 10
4.232829030354815
 20
-5.235967763264979
 30
0.0
 10
4.233319854736313
 20
-5.224773152669286
 30
0.0
 10
4.23373489379882
 20
-5.215307553609237
 30
0.0
 10
4.234190368652346
 20
-5.204920832316096
 30
0.0
 10
4.272106933593729
 20
-5.20389035542808
 30
0.0
 10
4.309175109863278
 20
-5.196018727620463
 30
0.0
 10
4.333624776204437
 20
-5.236802864074712
 30
0.0
 10
4.340811665852862
 20
-5.248791249593094
 30
0.0
 10
4.358303833007804
 20
-5.25580825805663
 30
0.0
 10
4.372401936848948
 20
-5.262149620056157
 30
0.0
 10
4.3911895751953
 20
-5.27060076395671
 30
0.0
 10
4.41123911539714
 20
-5.276276079813644
 30
0.0
 10
4.430821736653658
 20
-5.282922108968124
 30
0.0
 10
4.440256754557279
 20
-5.286124165852875
 30
0.0
 10
4.449693806966163
 20
-5.289699745178218
 30
0.0
 10
4.459424845377598
 20
-5.291577275594086
 30
0.0
 10
4.488414001464839
 20
-5.29717038472495
 30
0.0
 10
4.522109985351549
 20
-5.291695976257314
 30
0.0
 10
4.538047281901046
 20
-5.326653861999501
 30
0.0
 10
4.538706970214839
 20
-5.328100649515792
 30
0.0
 10
4.541372172037755
 20
-5.328868738810241
 30
0.0
 10
4.543256123860689
 20
-5.329485956827789
 30
0.0
 10
4.572415161132804
 20
-5.339041074117024
 30
0.0
 10
4.589405822753898
 20
-5.356988271077474
 30
0.0
 10
4.582986450195309
 20
-5.389758555094406
 30
0.0
 10
4.586882019042958
 20
-5.390712738037109
 30
0.0
 10
4.588762919108072
 20
-5.391368230183919
 30
0.0
 10
4.590693664550776
 20
-5.391593297322591
 30
0.0
 10
4.592749532063812
 20
-5.391832860310867
 30
0.0
 10
4.595070902506513
 20
-5.392259597778345
 30
0.0
 10
4.596903991699226
 20
-5.391587956746434
 30
0.0
 10
4.64056701660157
 20
-5.375589879353861
 30
0.0
 10
4.66878356933594
 20
-5.405472437540715
 30
0.0
 10
4.695432535807312
 20
-5.429603703816737
 30
0.0
 10
4.706175231933596
 20
-5.439331817626958
 30
0.0
 10
4.713035074869771
 20
-5.448480224609384
 30
0.0
 10
4.727343749999995
 20
-5.445720672607422
 30
0.0
 10
4.766286722819005
 20
-5.438209915161147
 30
0.0
 10
4.788886515299484
 20
-5.465559260050465
 30
0.0
 10
4.812845357259119
 20
-5.487024180094395
 30
0.0
 10
4.830549112955723
 20
-5.502885309855174
 30
0.0
 10
4.829619852701827
 20
-5.504153823852548
 30
0.0
 10
4.846873982747398
 20
-5.485927200317392
 30
0.0
 10
4.864339192708333
 20
-5.467477162679036
 30
0.0
 10
4.883794657389317
 20
-5.450817743937174
 30
0.0
 10
4.912507120768219
 20
-5.454113896687836
 30
0.0
 10
4.919348144531252
 20
-5.454899342854838
 30
0.0
 10
4.927300516764313
 20
-5.456191635131845
 30
0.0
 10
4.933168538411463
 20
-5.453637695312509
 30
0.0
 10
4.975594075520854
 20
-5.435171763102213
 30
0.0
 10
5.016831461588544
 20
-5.450361760457377
 30
0.0
 10
5.058569844563812
 20
-5.456325022379562
 30
0.0
 10
5.085187784830723
 20
-5.460127894083674
 30
0.0
 10
5.111793518066406
 20
-5.470042673746749
 30
0.0
 10
5.138893127441406
 20
-5.455683008829762
 30
0.0
 10
5.17161204020182
 20
-5.438345591227213
 30
0.0
 10
5.198587544759119
 20
-5.445546468098958
 30
0.0
 10
5.223111979166687
 20
-5.474609629313161
 30
0.0
 10
5.227964782714833
 20
-5.480360539754226
 30
0.0
 10
5.239615885416671
 20
-5.488038253784175
 30
0.0
 10
5.24300435384114
 20
-5.486057281494141
 30
0.0
 10
5.25911560058594
 20
-5.476637903849274
 30
0.0
 10
5.269257609049482
 20
-5.487604649861674
 30
0.0
 10
5.275290425618487
 20
-5.496724319458028
 30
0.0
 10
5.281936136881515
 20
-5.506770324707026
 30
0.0
 10
5.282294718424471
 20
-5.520981979370137
 30
0.0
 10
5.285356648763026
 20
-5.533387756347666
 30
0.0
 10
5.286030069986976
 20
-5.536116663614899
 30
0.0
 10
5.285841878255206
 20
-5.539336649576827
 30
0.0
 10
5.287258911132804
 20
-5.541560236612971
 30
0.0
 10
5.300533548990895
 20
-5.56238899230958
 30
0.0
 10
5.314460754394531
 20
-5.566766103108724
 30
0.0
 10
5.340296427408867
 20
-5.561761093139643
 30
0.0
 10
5.349511210123688
 20
-5.559976069132492
 30
0.0
 10
5.363909403483072
 20
-5.559176762898763
 30
0.0
 10
5.36859486897788
 20
-5.564452362060542
 30
0.0
 10
5.384783426920572
 20
-5.582679112752303
 30
0.0
 10
5.400994873046884
 20
-5.58084589640301
 30
0.0
 10
5.420068359375009
 20
-5.57180926005046
 30
0.0
 10
5.424665832519521
 20
-5.569631195068369
 30
0.0
 10
5.431080118815101
 20
-5.571652348836273
 30
0.0
 10
5.436517333984372
 20
-5.570819727579747
 30
0.0
 10
5.465253702799473
 20
-5.566418711344391
 30
0.0
 10
5.493905131022125
 20
-5.582983016967773
 30
0.0
 10
5.522709655761724
 20
-5.57109006245931
 30
0.0
 10
5.524987792968735
 20
-5.570149358113617
 30
0.0
 10
5.528162638346354
 20
-5.571247863769536
 30
0.0
 10
5.530900065104157
 20
-5.571571985880559
 30
0.0
 10
5.564057922363266
 20
-5.575499089558914
 30
0.0
 10
5.597145589192678
 20
-5.580205917358398
 30
0.0
 10
5.630391438802083
 20
-5.583117167154973
 30
0.0
 10
5.648996480305994
 20
-5.584746424357111
 30
0.0
 10
5.667996724446614
 20
-5.582079696655303
 30
0.0
 10
5.686552937825505
 20
-5.583966191609711
 30
0.0
 10
5.696117655436208
 20
-5.584938557942729
 30
0.0
 10
5.709229532877594
 20
-5.589140192667653
 30
0.0
 10
5.71352183024088
 20
-5.596243413289408
 30
0.0
 10
5.723755900065119
 20
-5.613179906209325
 30
0.0
 10
5.729866536458354
 20
-5.610027313232447
 30
0.0
 10
5.739165751139327
 20
-5.596585083007818
 30
0.0
 10
5.748341369628911
 20
-5.583319981892903
 30
0.0
 10
5.756134541829447
 20
-5.565487289428701
 30
0.0
 10
5.769120788574203
 20
-5.559327316284199
 30
0.0
 10
5.787993367513005
 20
-5.55037485758463
 30
0.0
 10
5.810883076985672
 20
-5.549397150675455
 30
0.0
 10
5.832253011067703
 20
-5.54639778137208
 30
0.0
 10
5.84393564860026
 20
-5.544758097330739
 30
0.0
 10
5.856779479980483
 20
-5.548534393310547
 30
0.0
 10
5.867744445800781
 20
-5.545288721720377
 30
0.0
 10
5.885612487792969
 20
-5.539999516805033
 30
0.0
 10
5.898876444498683
 20
-5.54383316040038
 30
0.0
 10
5.912478637695307
 20
-5.555649058024098
 30
0.0
 10
5.922055562337239
 20
-5.563968276977548
 30
0.0
 10
5.934423828125015
 20
-5.575399017333994
 30
0.0
 10
5.944911193847651
 20
-5.574775187174484
 30
0.0
 10
5.958601379394546
 20
-5.573961003621434
 30
0.0
 10
5.971517944335952
 20
-5.562298329671244
 30
0.0
 10
5.985034179687495
 20
-5.55586433410647
 30
0.0
 10
6.003762817382822
 20
-5.54694938659668
 30
0.0
 10
5.999147542317713
 20
-5.528992335001627
 30
0.0
 10
6.001781209309885
 20
-5.508616002400711
 30
0.0
 10
6.040128580729161
 20
-5.519966634114604
 30
0.0
 10
6.072912089029942
 20
-5.504904047648122
 30
0.0
 10
6.105214436848958
 20
-5.487833531697611
 30
0.0
 10
6.106321716308608
 20
-5.487248229980499
 30
0.0
 10
6.107980346679697
 20
-5.487449264526377
 30
0.0
 10
6.109335835774724
 20
-5.487630971272791
 30
0.0
 10
6.125775655110677
 20
-5.489833196004256
 30
0.0
 10
6.128999837239588
 20
-5.479971313476577
 30
0.0
 10
6.129392496744786
 20
-5.466558456420898
 30
0.0
 10
6.129608154296849
 20
-5.459204991658528
 30
0.0
 10
6.130020141601562
 20
-5.451336288452138
 30
0.0
 10
6.13273213704426
 20
-5.444671758015955
 30
0.0
 10
6.142057291666661
 20
-5.421755981445332
 30
0.0
 10
6.156593831380203
 20
-5.41845474243165
 30
0.0
 10
6.193700154622396
 20
-5.437871678670237
 30
0.0
 10
6.200925191243489
 20
-5.429593912760411
 30
0.0
 10
6.20839487711588
 20
-5.421035639445007
 30
0.0
 10
6.218467712402344
 20
-5.409495544433613
 30
0.0
 10
6.239044189453125
 20
-5.429524739583333
 30
0.0
 10
6.258899943033864
 20
-5.448852030436202
 30
0.0
 10
6.277847290039062
 20
-5.467295074462905
 30
0.0
 10
6.281619771321604
 20
-5.46201896667483
 30
0.0
 10
6.286678059895823
 20
-5.454785919189463
 30
0.0
 10
6.291900126139327
 20
-5.447673543294286
 30
0.0
 10
6.301298522949208
 20
-5.434871927897145
 30
0.0
 10
6.30896250406901
 20
-5.429039891560882
 30
0.0
 10
6.318460083007797
 20
-5.448919296264673
 30
0.0
 10
6.326968892415354
 20
-5.46672999064127
 30
0.0
 10
6.346697489420572
 20
-5.469384002685552
 30
0.0
 10
6.363077290852869
 20
-5.467500559488927
 30
0.0
 10
6.370679219563802
 20
-5.466626230875641
 30
0.0
 10
6.381297302246089
 20
-5.452103042602529
 30
0.0
 10
6.382346089680974
 20
-5.442838668823267
 30
0.0
 10
6.384241739908854
 20
-5.426092656453471
 30
0.0
 10
6.392970784505198
 20
-5.422485097249338
 30
0.0
 10
6.406394449869771
 20
-5.42074216206869
 30
0.0
 10
6.410855611165364
 20
-5.420162836710611
 30
0.0
 10
6.41503448486325
 20
-5.417567571004231
 30
0.0
 10
6.419398498535151
 20
-5.416055552164708
 30
0.0
 10
6.428755187988296
 20
-5.412813822428385
 30
0.0
 10
6.438147989908859
 20
-5.409677124023447
 30
0.0
 10
6.448629760742177
 20
-5.406123352050801
 30
0.0
 10
6.449749247233058
 20
-5.419501622517903
 30
0.0
 10
6.449561055501312
 20
-5.427900695800796
 30
0.0
 10
6.451299540201817
 20
-5.435879898071284
 30
0.0
 10
6.455350748697911
 20
-5.454467519124338
 30
0.0
 10
6.469240315755187
 20
-5.473593139648452
 30
0.0
 10
6.445561726888021
 20
-5.489511108398447
 30
0.0
 10
6.442644246419276
 20
-5.49147224426272
 30
0.0
 10
6.44258778889975
 20
-5.49768816630045
 30
0.0
 10
6.442057291666666
 20
-5.499317296346034
 30
0.0
 10
6.454447937011714
 20
-5.504859415690109
 30
0.0
 10
6.466210428873687
 20
-5.507912190755229
 30
0.0
 10
6.475292460123708
 20
-5.514602533976231
 30
0.0
 10
6.501062520345031
 20
-5.533585739135762
 30
0.0
 10
6.52150777180989
 20
-5.532891337076813
 30
0.0
 10
6.533515421549484
 20
-5.502437591552734
 30
0.0
 10
6.535587565104152
 20
-5.497183481852213
 30
0.0
 10
6.538801066080749
 20
-5.489236958821619
 30
0.0
 10
6.54274190266925
 20
-5.488393274943038
 30
0.0
 10
6.562301127115865
 20
-5.484205881754557
 30
0.0
 10
6.582279968261723
 20
-5.481981531778981
 30
0.0
 10
6.605098978678395
 20
-5.478626124064122
 30
0.0
 10
6.60328979492187
 20
-5.518677139282241
 30
0.0
 10
6.601567586263021
 20
-5.556797790527349
 30
0.0
 10
6.599845886230443
 20
-5.594918568929036
 30
0.0
 10
6.601920572916671
 20
-5.596234766642257
 30
0.0
 10
6.603995259602875
 20
-5.597550964355478
 30
0.0
 10
6.606069946289052
 20
-5.598867162068674
 30
0.0
 10
6.617966715494781
 20
-5.587484868367508
 30
0.0
 10
6.628450520833312
 20
-5.573800277709981
 30
0.0
 10
6.642167663574203
 20
-5.565385182698567
 30
0.0
 10
6.655169169108072
 20
-5.557408777872726
 30
0.0
 10
6.654840596516932
 20
-5.550855509440124
 30
0.0
 10
6.649569193522135
 20
-5.538995488484716
 30
0.0
 10
6.639126078287745
 20
-5.515499623616557
 30
0.0
 10
6.650437418619781
 20
-5.499426778157562
 30
0.0
 10
6.675710550944005
 20
-5.500041707356786
 30
0.0
 10
6.683646138509099
 20
-5.500234858194997
 30
0.0
 10
6.692593892415364
 20
-5.50232302347821
 30
0.0
 10
6.699348958333328
 20
-5.499462127685572
 30
0.0
 10
6.720310465494801
 20
-5.490584437052424
 30
0.0
 10
6.74044087727864
 20
-5.479745229085286
 30
0.0
 10
6.76298472086589
 20
-5.468637084960947
 30
0.0
 10
6.76009775797527
 20
-5.462465540568044
 30
0.0
 10
6.755656433105464
 20
-5.454268010457377
 30
0.0
 10
6.752356974283859
 20
-5.445634460449228
 30
0.0
 10
6.746519470214858
 20
-5.43035647074382
 30
0.0
 10
6.735475158691416
 20
-5.414135487874369
 30
0.0
 10
6.737152608235672
 20
-5.399519729614263
 30
0.0
 10
6.740797424316396
 20
-5.367769495646169
 30
0.0
 10
6.770806376139338
 20
-5.346005694071462
 30
0.0
 10
6.80303853352863
 20
-5.341331164042154
 30
0.0
 10
6.824978637695317
 20
-5.338149388631185
 30
0.0
 10
6.846347554524729
 20
-5.331033325195322
 30
0.0
 10
6.870138549804677
 20
-5.325139872233093
 30
0.0
 10
6.882590738932296
 20
-5.328605016072616
 30
0.0
 10
6.898733011881505
 20
-5.333974456787119
 30
0.0
 10
6.915290323893234
 20
-5.337252553304046
 30
0.0
 10
6.921509806315093
 20
-5.33848381042483
 30
0.0
 10
6.929451497395828
 20
-5.336302884419764
 30
0.0
 10
6.935309346516937
 20
-5.33321431477864
 30
0.0
 10
6.971652730306005
 20
-5.314051755269373
 30
0.0
 10
7.006938680013036
 20
-5.292760467529306
 30
0.0
 10
7.043909200032531
 20
-5.274943033854166
 30
0.0
 10
7.084212239583318
 20
-5.25551999409994
 30
0.0
 10
7.095391337076812
 20
-5.258967971801767
 30
0.0
 10
7.113593037923161
 20
-5.288560740153015
 30
0.0
 10
7.113916524251307
 20
-5.289087549845387
 30
0.0
 10
7.1158447265625
 20
-5.288627115885421
 30
0.0
 10
7.119840494791661
 20
-5.288627115885421
 30
0.0
 10
7.120185852050781
 20
-5.282408396402994
 30
0.0
 10
7.120780944824219
 20
-5.27588996887208
 30
0.0
 10
7.120869954427083
 20
-5.269364547729487
 30
0.0
 10
7.121241760253901
 20
-5.242082659403498
 30
0.0
 10
7.125762430826827
 20
-5.239441299438491
 30
0.0
 10
7.153560892740895
 20
-5.24524720509847
 30
0.0
 10
7.168832397460922
 20
-5.248436800638829
 30
0.0
 10
7.185189310709625
 20
-5.250995763142909
 30
0.0
 10
7.200338745117177
 20
-5.24882526397707
 30
0.0
 10
7.213558959960942
 20
-5.246931139628107
 30
0.0
 10
7.225773111979176
 20
-5.238011233011876
 30
0.0
 10
7.238431803385411
 20
-5.232195409138992
 30
0.0
 10
7.240650431315089
 20
-5.233391507466649
 30
0.0
 10
7.242869567871089
 20
-5.234587542215977
 30
0.0
 10
7.245088195800791
 20
-5.235783576965332
 30
0.0
 10
7.245088195800791
 20
-5.212251981099446
 30
0.0
 10
7.245088195800791
 20
-5.188720385233561
 30
0.0
 10
7.245088195800791
 20
-5.163140487670918
 30
0.0
 10
7.250810750325526
 20
-5.161936378479013
 30
0.0
 10
7.259454854329432
 20
-5.160604858398427
 30
0.0
 10
7.267809041341151
 20
-5.158245913187683
 30
0.0
 10
7.280533345540359
 20
-5.154653040568038
 30
0.0
 10
7.296843973795577
 20
-5.153980318705231
 30
0.0
 10
7.304882303873708
 20
-5.145596504211426
 30
0.0
 10
7.322034200032552
 20
-5.127708371480316
 30
0.0
 10
7.337799580891922
 20
-5.11306889851888
 30
0.0
 10
7.364864603678395
 20
-5.120535977681483
 30
0.0
 10
7.368991088867182
 20
-5.121674410502136
 30
0.0
 10
7.374617513020843
 20
-5.118370819091802
 30
0.0
 10
7.379264831542969
 20
-5.116436258951833
 30
0.0
 10
7.391636149088551
 20
-5.111287371317555
 30
0.0
 10
7.403600565592442
 20
-5.105005709330245
 30
0.0
 10
7.416271464029933
 20
-5.100825627644856
 30
0.0
 10
7.420384724934896
 20
-5.099468612670888
 30
0.0
 10
7.427989705403635
 20
-5.101783688863128
 30
0.0
 10
7.430629475911448
 20
-5.105100440979034
 30
0.0
 10
7.432670593261719
 20
-5.107664489746108
 30
0.0
 10
7.42974497477212
 20
-5.114484341939311
 30
0.0
 10
7.428522745768229
 20
-5.119283421834325
 30
0.0
 10
7.425373840332036
 20
-5.131650161743184
 30
0.0
 10
7.421945190429697
 20
-5.143945503234868
 30
0.0
 10
7.417248026529933
 20
-5.161396280924489
 30
0.0
 10
7.429213968912765
 20
-5.155439885457377
 30
0.0
 10
7.434262593587239
 20
-5.151689656575526
 30
0.0
 10
7.439887491861984
 20
-5.150336138407409
 30
0.0
 10
7.467608133951822
 20
-5.1436663945516
 30
0.0
 10
7.48486684163413
 20
-5.12418581644695
 30
0.0
 10
7.499432881673151
 20
-5.10186030069988
 30
0.0
 10
7.506681315104187
 20
-5.090750058492024
 30
0.0
 10
7.531444295247385
 20
-5.076579348246266
 30
0.0
 10
7.54136606852214
 20
-5.08142401377361
 30
0.0
 10
7.560570780436187
 20
-5.090801048278814
 30
0.0
 10
7.578881327311213
 20
-5.10201473236086
 30
0.0
 10
7.59812011718749
 20
-5.111313311258956
 30
0.0
 10
7.602930704752604
 20
-5.113638369242381
 30
0.0
 10
7.610752868652323
 20
-5.113500340779612
 30
0.0
 10
7.615675354003896
 20
-5.111221122741704
 30
0.0
 10
7.649404907226552
 20
-5.095600827535009
 30
0.0
 10
7.672518920898432
 20
-5.109671147664383
 30
0.0
 10
7.673086547851577
 20
-5.146282704671244
 30
0.0
 10
7.673173014322932
 20
-5.15185858408611
 30
0.0
 10
7.677829996744801
 20
-5.157213656107589
 30
0.0
 10
7.679196166992167
 20
-5.162951024373393
 30
0.0
 10
7.681972249348948
 20
-5.174612236022969
 30
0.0
 10
7.684567769368489
 20
-5.1863915761312
 30
0.0
 10
7.685964457194005
 20
-5.198271751403833
 30
0.0
 10
7.686596679687504
 20
-5.203652636210133
 30
0.0
 10
7.68418833414714
 20
-5.209390767415369
 30
0.0
 10
7.68255615234375
 20
-5.218232790629068
 30
0.0
 10
7.711460876464823
 20
-5.210532569885268
 30
0.0
 10
7.733780924479156
 20
-5.222408676147476
 30
0.0
 10
7.734904479980464
 20
-5.245290438334147
 30
0.0
 10
7.73571675618488
 20
-5.261813799540201
 30
0.0
 10
7.716263326009109
 20
-5.279332669576029
 30
0.0
 10
7.705848185221359
 20
-5.296407508850103
 30
0.0
 10
7.70363159179687
 20
-5.295773442586273
 30
0.0
 10
7.701414998372406
 20
-5.295139439900746
 30
0.0
 10
7.699198913574214
 20
-5.294505373636891
 30
0.0
 10
7.703024291992177
 20
-5.302220153808599
 30
0.0
 10
7.706849670410166
 20
-5.309934870402028
 30
0.0
 10
7.71311543782551
 20
-5.322570419311533
 30
0.0
 10
7.722172037760426
 20
-5.304930750528961
 30
0.0
 10
7.728513081868489
 20
-5.292343584696482
 30
0.0
 10
7.735067240397105
 20
-5.279868316650385
 30
0.0
 10
7.746918233235672
 20
-5.257312711079925
 30
0.0
 10
7.766697692871073
 20
-5.246690305074076
 30
0.0
 10
7.79173838297528
 20
-5.250377464294439
 30
0.0
 10
7.797334289550766
 20
-5.251201502482116
 30
0.0
 10
7.806173706054702
 20
-5.25429999033612
 30
0.0
 10
7.807156372070317
 20
-5.258028602600107
 30
0.0
 10
7.811952718098963
 20
-5.276222483317067
 30
0.0
 10
7.814591471354156
 20
-5.294985008239741
 30
0.0
 10
7.817902119954422
 20
-5.313044548034693
 30
0.0
 10
7.806938171386719
 20
-5.319125938415532
 30
0.0
 10
7.787492879231776
 20
-5.323719278971364
 30
0.0
 10
7.802494812011723
 20
-5.335690879821792
 30
0.0
 10
7.818098449707021
 20
-5.348142941792831
 30
0.0
 10
7.821987915039067
 20
-5.361563618977875
 30
0.0
 10
7.821498107910151
 20
-5.383597564697285
 30
0.0
 10
7.861097208658848
 20
-5.360775629679361
 30
0.0
 10
7.896863810221374
 20
-5.337751960754404
 30
0.0
 10
7.938082885742182
 20
-5.341652170817042
 30
0.0
 10
7.942244466145818
 20
-5.319738578796382
 30
0.0
 10
7.945772806803385
 20
-5.301161448160807
 30
0.0
 10
7.949301147460927
 20
-5.282584253946955
 30
0.0
 10
7.952759806315093
 20
-5.281387519836421
 30
0.0
 10
7.956218465169286
 20
-5.280190785725911
 30
0.0
 10
7.95967763264975
 20
-5.278994051615402
 30
0.0
 10
7.965872701009099
 20
-5.287544631958022
 30
0.0
 10
7.972067769368474
 20
-5.296095148722316
 30
0.0
 10
7.977924092610666
 20
-5.304177284240723
 30
0.0
 10
7.98101806640625
 20
-5.303917948404938
 30
0.0
 10
7.98319600423176
 20
-5.304147720336939
 30
0.0
 10
7.985085042317728
 20
-5.303514099121103
 30
0.0
 10
8.00655771891277
 20
-5.296312650044759
 30
0.0
 10
8.023001607259124
 20
-5.274024772644048
 30
0.0
 10
8.050111897786463
 20
-5.28246218363443
 30
0.0
 10
8.052713521321595
 20
-5.283272043863942
 30
0.0
 10
8.058283996582025
 20
-5.274207750956243
 30
0.0
 10
8.062619018554692
 20
-5.269870122273763
 30
0.0
 10
8.067960611979187
 20
-5.264524968465164
 30
0.0
 10
8.07260487874348
 20
-5.257667986551925
 30
0.0
 10
8.079040018717453
 20
-5.254385948181152
 30
0.0
 10
8.09723154703776
 20
-5.24510879516601
 30
0.0
 10
8.116183471679681
 20
-5.237323697408025
 30
0.0
 10
8.131524658203135
 20
-5.230436960856145
 30
0.0
 10
8.142527262369791
 20
-5.234292729695653
 30
0.0
 10
8.153120422363296
 20
-5.24067497253418
 30
0.0
 10
8.163660685221354
 20
-5.24058837890627
 30
0.0
 10
8.169047546386713
 20
-5.240544064839696
 30
0.0
 10
8.175697835286453
 20
-5.229599952697754
 30
0.0
 10
8.179386393229176
 20
-5.222363599141444
 30
0.0
 10
8.186707560221368
 20
-5.207999356587733
 30
0.0
 10
8.198561604817693
 20
-5.19838809967041
 30
0.0
 10
8.213156636555999
 20
-5.201681518554702
 30
0.0
 10
8.220253499348953
 20
-5.203282864888529
 30
0.0
 10
8.224399820963551
 20
-5.217960929870615
 30
0.0
 10
8.230053202311208
 20
-5.226993624369318
 30
0.0
 10
8.257368977864592
 20
-5.213294410705556
 30
0.0
 10
8.269400533040349
 20
-5.220324007670089
 30
0.0
 10
8.277743530273431
 20
-5.258269055684423
 30
0.0
 10
8.292993672688807
 20
-5.251156552632639
 30
0.0
 10
8.309519958496088
 20
-5.246093050638844
 30
0.0
 10
8.322882080078115
 20
-5.236583073933919
 30
0.0
 10
8.34182027180989
 20
-5.223104413350433
 30
0.0
 10
8.361772155761729
 20
-5.221384175618494
 30
0.0
 10
8.378666178385426
 20
-5.236159896850595
 30
0.0
 10
8.382304890950511
 20
-5.239342435200999
 30
0.0
 10
8.386085510253906
 20
-5.242362531026225
 30
0.0
 10
8.390528361002604
 20
-5.246063359578455
 30
0.0
 10
8.39594726562498
 20
-5.237359746297216
 30
0.0
 10
8.398996988932266
 20
-5.229100608825673
 30
0.0
 10
8.404799906412766
 20
-5.223934618632003
 30
0.0
 10
8.413349914550786
 20
-5.216323343912765
 30
0.0
 10
8.42386220296223
 20
-5.210916328430181
 30
0.0
 10
8.433538818359365
 20
-5.204570770263697
 30
0.0
 10
8.437345886230458
 20
-5.212576293945327
 30
0.0
 10
8.44115244547528
 20
-5.220581817626958
 30
0.0
 10
8.444953918457031
 20
-5.228575325012216
 30
0.0
 10
8.475355529785146
 20
-5.213838450113952
 30
0.0
 10
8.487696329752604
 20
-5.220309702555343
 30
0.0
 10
8.496381123860676
 20
-5.255060831705729
 30
0.0
 10
8.498164876302074
 20
-5.262195777893086
 30
0.0
 10
8.506362915039038
 20
-5.26950626373294
 30
0.0
 10
8.51344858805338
 20
-5.273110961914072
 30
0.0
 10
8.52351226806642
 20
-5.2782304763794
 30
0.0
 10
8.535122680664067
 20
-5.281084187825526
 30
0.0
 10
8.546390787760402
 20
-5.2827470779419
 30
0.0
 10
8.552415974934876
 20
-5.283636347452809
 30
0.0
 10
8.55960795084636
 20
-5.281022707621256
 30
0.0
 10
8.565404256184895
 20
-5.278204472859721
 30
0.0
 10
8.580680338541672
 20
-5.270777257283549
 30
0.0
 10
8.595023600260395
 20
-5.261269442240391
 30
0.0
 10
8.610647583007802
 20
-5.254780260721847
 30
0.0
 10
8.619792683919261
 20
-5.250981712341323
 30
0.0
 10
8.630641682942699
 20
-5.250773938496928
 30
0.0
 10
8.640799967447922
 20
-5.250082206726094
 30
0.0
 10
8.648819986979156
 20
-5.249536069234207
 30
0.0
 10
8.662608846028636
 20
-5.248219553629572
 30
0.0
 10
8.664081827799464
 20
-5.251553599039728
 30
0.0
 10
8.671082560221343
 20
-5.267403284708658
 30
0.0
 10
8.674745686848963
 20
-5.284727859497075
 30
0.0
 10
8.681061808268218
 20
-5.306597201029464
 30
0.0
 10
8.689007568359354
 20
-5.313721974690755
 30
0.0
 10
8.703615315755213
 20
-5.320945994059255
 30
0.0
 10
8.72232666015624
 20
-5.309286435445149
 30
0.0
 10
8.72622070312501
 20
-5.306859525044754
 30
0.0
 10
8.736196899414052
 20
-5.312587738037134
 30
0.0
 10
8.742521158854162
 20
-5.316089248657236
 30
0.0
 10
8.749642944335921
 20
-5.320031420389796
 30
0.0
 10
8.755804443359365
 20
-5.325706100463877
 30
0.0
 10
8.762504069010422
 20
-5.330717086791992
 30
0.0
 10
8.788405354817717
 20
-5.290263366699238
 30
0.0
 10
8.782340494791645
 20
-5.2924701054891
 30
0.0
 10
8.830520629882812
 20
-5.299490038553889
 30
0.0
 10
8.840080769856765
 20
-5.300882975260416
 30
0.0
 10
8.852614339192693
 20
-5.300387191772466
 30
0.0
 10
8.859883626302082
 20
-5.295251592000315
 30
0.0
 10
8.876937866210938
 20
-5.283205159505238
 30
0.0
 10
8.90367329915365
 20
-5.283075459798182
 30
0.0
 10
8.910043334960948
 20
-5.256473859151204
 30
0.0
 10
8.910515340169265
 20
-5.254502042134592
 30
0.0
 10
8.922235107421859
 20
-5.252837689717631
 30
0.0
 10
8.927276611328125
 20
-5.254785346984868
 30
0.0
 10
8.94358927408853
 20
-5.261087989807113
 30
0.0
 10
8.9561767578125
 20
-5.25397052764894
 30
0.0
 10
8.96881103515625
 20
-5.245850245157877
 30
0.0
 10
8.990667724609365
 20
-5.231802368164052
 30
0.0
 10
8.997187296549454
 20
-5.2333875020345
 30
0.0
 10
9.010658772786453
 20
-5.257190704345728
 30
0.0
 10
9.021227010091126
 20
-5.253154627482116
 30
0.0
 10
9.031905110677092
 20
-5.24907608032226
 30
0.0
 10
9.041430664062494
 20
-5.245438003540054
 30
0.0
 10
9.03306172688801
 20
-5.232781600952168
 30
0.0
 10
9.026564534505217
 20
-5.222957928975423
 30
0.0
 10
9.022463989257806
 20
-5.216756820678736
 30
0.0
 10
9.035749308268224
 20
-5.193384933471685
 30
0.0
 10
9.047777303059876
 20
-5.173339398702006
 30
0.0
 10
9.058619181315104
 20
-5.152672195434585
 30
0.0
 10
9.063871256510412
 20
-5.142659250895197
 30
0.0
 10
9.0692881266276
 20
-5.134141095479359
 30
0.0
 10
9.08189086914063
 20
-5.137783241271968
 30
0.0
 10
9.092736816406234
 20
-5.140917460123697
 30
0.0
 10
9.103040568033874
 20
-5.145901234944682
 30
0.0
 10
9.113636271158864
 20
-5.149931208292653
 30
0.0
 10
9.138693237304702
 20
-5.15946172078452
 30
0.0
 10
9.163681030273438
 20
-5.155835024515808
 30
0.0
 10
9.187832641601567
 20
-5.147417195638026
 30
0.0
 10
9.20433756510417
 20
-5.141664123535166
 30
0.0
 10
9.220011393229166
 20
-5.132015101114903
 30
0.0
 10
9.235171508789056
 20
-5.124771245320643
 30
0.0
 10
9.26515299479168
 20
-5.110445340474471
 30
0.0
 10
9.289717610677092
 20
-5.086481030782074
 30
0.0
 10
9.323742675781254
 20
-5.078366788228347
 30
0.0
 10
9.34641825358075
 20
-5.072959009806305
 30
0.0
 10
9.360264078776051
 20
-5.05269718170166
 30
0.0
 10
9.352770996093744
 20
-5.021154721577962
 30
0.0
 10
9.364411417643218
 20
-5.02729110717774
 30
0.0
 10
9.371129353841145
 20
-5.031552569071462
 30
0.0
 10
9.378385416666662
 20
-5.034486770629883
 30
0.0
 10
9.388920084635426
 20
-5.03874651590983
 30
0.0
 10
9.40223490397135
 20
-5.047913169860849
 30
0.0
 10
9.41015625
 20
-5.044679133097335
 30
0.0
 10
9.435869344075526
 20
-5.034181849161794
 30
0.0
 10
9.459665934244791
 20
-5.018991470336914
 30
0.0
 10
9.48431193033851
 20
-5.00554739634198
 30
0.0
 10
9.488303629557295
 20
-5.008879089355483
 30
0.0
 10
9.49560546875
 20
-5.011906560262054
 30
0.0
 10
9.496823120117192
 20
-5.01653467814127
 30
0.0
 10
9.50151062011716
 20
-5.034354273478205
 30
0.0
 10
9.51238911946613
 20
-5.030063247680673
 30
0.0
 10
9.523014322916652
 20
-5.024920399983734
 30
0.0
 10
9.561803181966145
 20
-5.006145159403482
 30
0.0
 10
9.600430297851542
 20
-4.987025133768737
 30
0.0
 10
9.63887125651043
 20
-4.967546971638992
 30
0.0
 10
9.642143758138015
 20
-4.965889040629084
 30
0.0
 10
9.645667521158858
 20
-4.960551261901855
 30
0.0
 10
9.645545450846358
 20
-4.957046127319345
 30
0.0
 10
9.644770304361954
 20
-4.934808349609384
 30
0.0
 10
9.64698994954425
 20
-4.914206250508641
 30
0.0
 10
9.66355997721353
 20
-4.905671946207677
 30
0.0
 10
9.656190999348963
 20
-4.902068328857417
 30
0.0
 10
9.646175130208348
 20
-4.898787625630701
 30
0.0
 10
9.638308715820306
 20
-4.892720031738286
 30
0.0
 10
9.633574422200505
 20
-4.889069048563644
 30
0.0
 10
9.63255004882813
 20
-4.880869102478022
 30
0.0
 10
9.629220581054671
 20
-4.875080235799159
 30
0.0
 10
9.621946207682287
 20
-4.862432161966959
 30
0.0
 10
9.623326619466145
 20
-4.852985254923497
 30
0.0
 10
9.638119506835917
 20
-4.847592163085943
 30
0.0
 10
9.659826660156265
 20
-4.839678573608404
 30
0.0
 10
9.674033610026045
 20
-4.8261407852173
 30
0.0
 10
9.671331787109365
 20
-4.800790246327728
 30
0.0
 10
9.686723836263
 20
-4.794260946909591
 30
0.0
 10
9.70120137532553
 20
-4.788324165344243
 30
0.0
 10
9.715468343098967
 20
-4.781921577453633
 30
0.0
 10
9.71893208821613
 20
-4.780367056528752
 30
0.0
 10
9.723092651367198
 20
-4.777933025360122
 30
0.0
 10
9.724578857421875
 20
-4.774790509541819
 30
0.0
 10
9.734906005859354
 20
-4.752937889099131
 30
0.0
 10
9.75274658203125
 20
-4.741272672017431
 30
0.0
 10
9.774684651692723
 20
-4.732695547739669
 30
0.0
 10
9.787129720052082
 20
-4.727829392751068
 30
0.0
 10
9.796892293294276
 20
-4.716463629404719
 30
0.0
 10
9.8090342203776
 20
-4.71035483678184
 30
0.0
 10
9.821492513020832
 20
-4.704087066650396
 30
0.0
 10
9.835120646158858
 20
-4.698938783009857
 30
0.0
 10
9.848775227864582
 20
-4.696896648406992
 30
0.0
 10
9.853719075520832
 20
-4.696157169342061
 30
0.0
 10
9.859882609049489
 20
-4.706324132283549
 30
0.0
 10
9.866140747070302
 20
-4.710550085703542
 30
0.0
 10
9.869716389973947
 20
-4.712963708241785
 30
0.0
 10
9.874603271484375
 20
-4.713435077667226
 30
0.0
 10
9.878900146484359
 20
-4.71478099823
 30
0.0
 10
9.879350789388026
 20
-4.710666561126699
 30
0.0
 10
9.881667073567693
 20
-4.705392265319814
 30
0.0
 10
9.879946899414056
 20
-4.702627817789713
 30
0.0
 10
9.869699096679698
 20
-4.686151695251485
 30
0.0
 10
9.87695922851564
 20
-4.677999528249099
 30
0.0
 10
9.892445882161457
 20
-4.6723534901937
 30
0.0
 10
9.89993184407553
 20
-4.669624805450464
 30
0.0
 10
9.906990559895853
 20
-4.665728060404464
 30
0.0
 10
9.915230305989578
 20
-4.661901887257904
 30
0.0
 10
9.919652303059895
 20
-4.67124932607016
 30
0.0
 10
9.92353515624998
 20
-4.679456265767436
 30
0.0
 10
9.927802530924483
 20
-4.688477134704599
 30
0.0
 10
9.940195719401041
 20
-4.682004038492829
 30
0.0
 10
9.94211425781249
 20
-4.675291379292831
 30
0.0
 10
9.937139892578115
 20
-4.663226636250808
 30
0.0
 10
9.935041300455724
 20
-4.658139387766545
 30
0.0
 10
9.940089925130223
 20
-4.646856625874862
 30
0.0
 10
9.945315551757831
 20
-4.642745971679712
 30
0.0
 10
9.953451538085927
 20
-4.636345545450872
 30
0.0
 10
9.964895629882802
 20
-4.63436365127566
 30
0.0
 10
9.9742431640625
 20
-4.629240131378183
 30
0.0
 10
9.988926188151027
 20
-4.621192042032868
 30
0.0
 10
10.00171101888019
 20
-4.620065148671478
 30
0.0
 10
10.01848144531252
 20
-4.627249590555847
 30
0.0
 10
10.04269612630206
 20
-4.637623564402272
 30
0.0
 10
10.06812337239585
 20
-4.655969715118418
 30
0.0
 10
10.09626057942708
 20
-4.633981132507314
 30
0.0
 10
10.09912923177083
 20
-4.631739807128901
 30
0.0
 10
10.10561726888022
 20
-4.6343795458476
 30
0.0
 10
10.11041971842448
 20
-4.63432305653891
 30
0.0
 10
10.13145548502606
 20
-4.634075736999521
 30
0.0
 10
10.15276896158854
 20
-4.635635026295985
 30
0.0
 10
10.17343343098959
 20
-4.632693513234472
 30
0.0
 10
10.18970133463543
 20
-4.63037776947024
 30
0.0
 10
10.20483601888021
 20
-4.620385901133229
 30
0.0
 10
10.22111409505209
 20
-4.61773710250855
 30
0.0
 10
10.23166503906249
 20
-4.616020043690999
 30
0.0
 10
10.24342244466147
 20
-4.621135139465347
 30
0.0
 10
10.25452982584635
 20
-4.623671627044687
 30
0.0
 10
10.26028442382812
 20
-4.624985599517837
 30
0.0
 10
10.2661387125651
 20
-4.629641596476252
 30
0.0
 10
10.27136332194009
 20
-4.628861618041987
 30
0.0
 10
10.30195210774741
 20
-4.624293581644704
 30
0.0
 10
10.31817932128906
 20
-4.640613683064808
 30
0.0
 10
10.32839660644532
 20
-4.668734455108657
 30
0.0
 10
10.3376983642578
 20
-4.662888622283945
 30
0.0
 10
10.34528503417967
 20
-4.657407442728678
 30
0.0
 10
10.35350036621094
 20
-4.653134727478042
 30
0.0
 10
10.36429138183593
 20
-4.647521940867111
 30
0.0
 10
10.37674763997395
 20
-4.637008984883626
 30
0.0
 10
10.38641764322915
 20
-4.638945134480815
 30
0.0
 10
10.41037902832032
 20
-4.643742529551193
 30
0.0
 10
10.43304036458335
 20
-4.654794756571442
 30
0.0
 10
10.45651143391928
 20
-4.662454541524261
 30
0.0
 10
10.46207275390626
 20
-4.664269415537521
 30
0.0
 10
10.47073669433593
 20
-4.665176041920985
 30
0.0
 10
10.47462158203123
 20
-4.662169392903656
 30
0.0
 10
10.50582885742188
 20
-4.63801155090333
 30
0.0
 10
10.5378672281901
 20
-4.646452744801839
 30
0.0
 10
10.57133178710938
 20
-4.655897776285807
 30
0.0
 10
10.58226013183594
 20
-4.658981863657648
 30
0.0
 10
10.5990997314453
 20
-4.657516829172764
 30
0.0
 10
10.60697631835938
 20
-4.650796031951914
 30
0.0
 10
10.61647033691406
 20
-4.642693678538004
 30
0.0
 10
10.6213897705078
 20
-4.627280616760268
 30
0.0
 10
10.62453308105468
 20
-4.614133993784612
 30
0.0
 10
10.62940063476561
 20
-4.59377638498942
 30
0.0
 10
10.64204406738281
 20
-4.584177430470795
 30
0.0
 10
10.66060384114583
 20
-4.577901871999099
 30
0.0
 10
10.6711944580078
 20
-4.5743206659953
 30
0.0
 10
10.68412882486981
 20
-4.569302972157806
 30
0.0
 10
10.6896006266276
 20
-4.560805733998627
 30
0.0
 10
10.69915364583332
 20
-4.545970439910889
 30
0.0
 10
10.70981343587237
 20
-4.539949480692536
 30
0.0
 10
10.72685648600261
 20
-4.541399113337193
 30
0.0
 10
10.73327840169271
 20
-4.541945298512776
 30
0.0
 10
10.74008483886718
 20
-4.538969771067311
 30
0.0
 10
10.74660237630208
 20
-4.53718303044636
 30
0.0
 10
10.77115783691407
 20
-4.530451520284032
 30
0.0
 10
10.79569498697917
 20
-4.523650821050018
 30
0.0
 10
10.82015787760419
 20
-4.516594775517786
 30
0.0
 10
10.82362467447916
 20
-4.515595038731893
 30
0.0
 10
10.82672729492186
 20
-4.51317392985028
 30
0.0
 10
10.82985636393227
 20
-4.511188141504918
 30
0.0
 10
10.85455220540365
 20
-4.495513916015625
 30
0.0
 10
10.86976318359375
 20
-4.466661866505951
 30
0.0
 10
10.90402221679688
 20
-4.46312751770021
 30
0.0
 10
10.91434936523438
 20
-4.462062104543065
 30
0.0
 10
10.92130940755209
 20
-4.458975760142013
 30
0.0
 10
10.93124084472657
 20
-4.465222358703613
 30
0.0
 10
10.93893229166666
 20
-4.470059760411585
 30
0.0
 10
10.94987792968752
 20
-4.472359259923299
 30
0.0
 10
10.9590362548828
 20
-4.471612230936696
 30
0.0
 10
10.97284647623698
 20
-4.470485893885299
 30
0.0
 10
10.98636067708331
 20
-4.465719334284459
 30
0.0
 10
11.0
 20
-4.462500015894571
 30
0.0
  0
ENDSEC
  0
SECTION
  2
OBJECTS
  0
DICTIONARY
  5
C
330
0
100
AcDbDictionary
281
     1
  3
ACAD_GROUP
350
D
  3
ACAD_LAYOUT
350
1A
  3
ACAD_MATERIAL
350
3B
  3
ACAD_MLEADERSTYLE
350
43
  3
ACAD_MLINESTYLE
350
17
  3
ACAD_PLOTSETTINGS
350
19
  3
ACAD_PLOTSTYLENAME
350
E
  3
ACAD_TABLESTYLE
350
42
  3
ACAD_VISUALSTYLE
350
2A
  0
SUN
  5
3F
330
29
100
AcDbSun
 90
        1
290
     0
 63
     7
421
 16777215
 40
1.0
291
     1
 91
  2455826
 92
 54000000
292
     0
 70
     2
 71
   256
280
     1
  0
DICTIONARY
  5
D
102
{ACAD_REACTORS
330
C
102
}
330
C
100
AcDbDictionary
281
     1
  0
DICTIONARY
  5
1A
102
{ACAD_REACTORS
330
C
102
}
330
C
100
AcDbDictionary
281
     1
  3
Layout1
350
1E
  3
Layout2
350
26
  3
Model
350
22
  0
DICTIONARY
  5
3B
102
{ACAD_REACTORS
330
C
102
}
330
C
100
AcDbDictionary
281
     1
  3
ByBlock
350
3D
  3
ByLayer
350
3C
  3
Global
350
3E
  0
DICTIONARY
  5
43
102
{ACAD_REACTORS
330
C
102
}
330
C
100
AcDbDictionary
281
     1
  0
DICTIONARY
  5
17
102
{ACAD_REACTORS
330
C
102
}
330
C
100
AcDbDictionary
281
     1
  3
Standard
350
18
  0
DICTIONARY
  5
19
102
{ACAD_REACTORS
330
C
102
}
330
C
100
AcDbDictionary
281
     1
  0
ACDBDICTIONARYWDFLT
  5
E
102
{ACAD_REACTORS
330
C
102
}
330
C
100
AcDbDictionary
281
     1
  3
Normal
350
F
100
AcDbDictionaryWithDefault
340
F
  0
DICTIONARY
  5
42
102
{ACAD_REACTORS
330
C
102
}
330
C
100
AcDbDictionary
281
     1
  0
DICTIONARY
  5
2A
102
{ACAD_REACTORS
330
C
102
}
330
C
100
AcDbDictionary
281
     1
  3
2dWireframe
350
2F
  3
3D Hidden
350
31
  3
3dWireframe
350
30
  3
Basic
350
32
  3
Brighten
350
36
  3
ColorChange
350
3A
  3
Conceptual
350
34
  3
Dim
350
35
  3
Facepattern
350
39
  3
Flat
350
2B
  3
FlatWithEdges
350
2C
  3
Gouraud
350
2D
  3
GouraudWithEdges
350
2E
  3
Linepattern
350
38
  3
Realistic
350
33
  3
Thicken
350
37
  0
LAYOUT
  5
1E
102
{ACAD_REACTORS
330
1A
102
}
330
1A
100
AcDbPlotSettings
  1

  2
none_device
  4

  6

 40
0.0
 41
0.0
 42
0.0
 43
0.0
 44
0.0
 45
0.0
 46
0.0
 47
0.0
 48
0.0
 49
0.0
140
0.0
141
0.0
142
1.0
143
1.0
 70
   688
 72
     0
 73
     0
 74
     5
  7

 75
    16
 76
     0
 77
     2
 78
   300
147
1.0
148
0.0
149
0.0
100
AcDbLayout
  1
Layout1
 70
     1
 71
     1
 10
0.0
 20
0.0
 11
12.0
 21
9.0
 12
0.0
 22
0.0
 32
0.0
 14
1.000000000000000E+20
 24
1.000000000000000E+20
 34
1.000000000000000E+20
 15
-1.000000000000000E+20
 25
-1.000000000000000E+20
 35
-1.000000000000000E+20
146
0.0
 13
0.0
 23
0.0
 33
0.0
 16
1.0
 26
0.0
 36
0.0
 17
0.0
 27
1.0
 37
0.0
 76
     0
330
1B
  0
LAYOUT
  5
26
102
{ACAD_REACTORS
330
1A
102
}
330
1A
100
AcDbPlotSettings
  1

  2
none_device
  4

  6

 40
0.0
 41
0.0
 42
0.0
 43
0.0
 44
0.0
 45
0.0
 46
0.0
 47
0.0
 48
0.0
 49
0.0
140
0.0
141
0.0
142
1.0
143
1.0
 70
   688
 72
     0
 73
     0
 74
     5
  7

 75
    16
 76
     0
 77
     2
 78
   300
147
1.0
148
0.0
149
0.0
100
AcDbLayout
  1
Layout2
 70
     1
 71
     2
 10
0.0
 20
0.0
 11
0.0
 21
0.0
 12
0.0
 22
0.0
 32
0.0
 14
0.0
 24
0.0
 34
0.0
 15
0.0
 25
0.0
 35
0.0
146
0.0
 13
0.0
 23
0.0
 33
0.0
 16
1.0
 26
0.0
 36
0.0
 17
0.0
 27
1.0
 37
0.0
 76
     0
330
23
  0
LAYOUT
  5
22
102
{ACAD_REACTORS
330
1A
102
}
330
1A
100
AcDbPlotSettings
  1

  2
none_device
  4

  6

 40
0.0
 41
0.0
 42
0.0
 43
0.0
 44
0.0
 45
0.0
 46
0.0
 47
0.0
 48
0.0
 49
0.0
140
0.0
141
0.0
142
1.0
143
1.0
 70
  1712
 72
     0
 73
     0
 74
     0
  7

 75
     0
 76
     0
 77
     2
 78
   300
147
1.0
148
0.0
149
0.0
100
AcDbLayout
  1
Model
 70
     1
 71
     0
 10
0.0
 20
0.0
 11
12.0
 21
9.0
 12
0.0
 22
0.0
 32
0.0
 14
1.000000000000000E+20
 24
1.000000000000000E+20
 34
1.000000000000000E+20
 15
-1.000000000000000E+20
 25
-1.000000000000000E+20
 35
-1.000000000000000E+20
146
0.0
 13
0.0
 23
0.0
 33
0.0
 16
1.0
 26
0.0
 36
0.0
 17
0.0
 27
1.0
 37
0.0
 76
     0
330
1F
331
29
  0
MATERIAL
  5
3D
102
{ACAD_REACTORS
330
3B
102
}
330
3B
100
AcDbMaterial
  1
ByBlock
 72
     1
 94
      127
  0
MATERIAL
  5
3C
102
{ACAD_REACTORS
330
3B
102
}
330
3B
100
AcDbMaterial
  1
ByLayer
 72
     1
 94
      127
  0
MATERIAL
  5
3E
102
{ACAD_REACTORS
330
3B
102
}
330
3B
100
AcDbMaterial
  1
Global
 72
     1
 94
      127
  0
MLINESTYLE
  5
18
102
{ACAD_REACTORS
330
17
102
}
330
17
100
AcDbMlineStyle
  2
Standard
 70
     0
  3

 62
   256
 51
90.0
 52
90.0
 71
     2
 49
0.5
 62
   256
  6
BYLAYER
 49
-0.5
 62
   256
  6
BYLAYER
  0
ACDBPLACEHOLDER
  5
F
102
{ACAD_REACTORS
330
E
102
}
330
E
  0
VISUALSTYLE
  5
2F
102
{ACAD_REACTORS
330
2A
102
}
330
2A
100
AcDbVisualStyle
  2
2dWireframe
 70
     4
177
     2
291
     0
 71
     0
176
     1
 72
     2
176
     1
 73
     0
176
     1
 90
        0
176
     1
 40
-0.6
176
     1
 41
-30.0
176
     1
 62
     5
 63
     7
421
 16777215
176
     1
 74
     1
176
     1
 91
        4
176
     1
 64
     7
176
     1
 65
   257
176
     1
 75
     1
176
     1
175
     1
176
     1
 42
1.0
176
     1
 92
        0
176
     1
 66
   257
176
     1
 43
1.0
176
     1
 76
     1
176
     1
 77
     6
176
     1
 78
     2
176
     1
 67
     7
176
     1
 79
     5
176
     1
170
     0
176
     1
171
     0
176
     1
290
     0
176
     1
 93
        1
176
     1
 44
0.0
176
     1
173
     0
176
     1
  0
VISUALSTYLE
  5
31
102
{ACAD_REACTORS
330
2A
102
}
330
2A
100
AcDbVisualStyle
  2
3D Hidden
 70
     6
177
     2
291
     0
 71
     1
176
     1
 72
     2
176
     1
 73
     2
176
     1
 90
        0
176
     1
 40
-0.6
176
     1
 41
-30.0
176
     1
 62
     5
 63
     7
421
 16777215
176
     1
 74
     2
176
     1
 91
        2
176
     1
 64
     7
176
     1
 65
   257
176
     1
 75
     2
176
     1
175
     1
176
     1
 42
40.0
176
     1
 92
        0
176
     1
 66
   257
176
     1
 43
1.0
176
     1
 76
     1
176
     1
 77
     6
176
     1
 78
     2
176
     1
 67
     7
176
     1
 79
     3
176
     1
170
     0
176
     1
171
     0
176
     1
290
     0
176
     1
 93
        1
176
     1
 44
0.0
176
     1
173
     0
176
     1
  0
VISUALSTYLE
  5
30
102
{ACAD_REACTORS
330
2A
102
}
330
2A
100
AcDbVisualStyle
  2
3dWireframe
 70
     5
177
     2
291
     0
 71
     0
176
     1
 72
     2
176
     1
 73
     0
176
     1
 90
        0
176
     1
 40
-0.6
176
     1
 41
-30.0
176
     1
 62
     5
 63
     7
421
 16777215
176
     1
 74
     1
176
     1
 91
        4
176
     1
 64
     7
176
     1
 65
   257
176
     1
 75
     1
176
     1
175
     1
176
     1
 42
1.0
176
     1
 92
        0
176
     1
 66
   257
176
     1
 43
1.0
176
     1
 76
     1
176
     1
 77
     6
176
     1
 78
     2
176
     1
 67
     7
176
     1
 79
     5
176
     1
170
     0
176
     1
171
     0
176
     1
290
     0
176
     1
 93
        1
176
     1
 44
0.0
176
     1
173
     0
176
     1
  0
VISUALSTYLE
  5
32
102
{ACAD_REACTORS
330
2A
102
}
330
2A
100
AcDbVisualStyle
  2
Basic
 70
     7
177
     2
291
     1
 71
     1
176
     1
 72
     0
176
     1
 73
     1
176
     1
 90
        0
176
     1
 40
-0.6
176
     1
 41
-30.0
176
     1
 62
     5
 63
     7
421
 16777215
176
     1
 74
     0
176
     1
 91
        4
176
     1
 64
     7
176
     1
 65
   257
176
     1
 75
     1
176
     1
175
     1
176
     1
 42
1.0
176
     1
 92
        8
176
     1
 66
     7
176
     1
 43
1.0
176
     1
 76
     1
176
     1
 77
     6
176
     1
 78
     2
176
     1
 67
     7
176
     1
 79
     5
176
     1
170
     0
176
     1
171
     0
176
     1
290
     0
176
     1
 93
        1
176
     1
 44
0.0
176
     1
173
     0
176
     1
  0
VISUALSTYLE
  5
36
102
{ACAD_REACTORS
330
2A
102
}
330
2A
100
AcDbVisualStyle
  2
Brighten
 70
    12
177
     2
291
     1
 71
     2
176
     1
 72
     2
176
     1
 73
     0
176
     1
 90
        0
176
     1
 40
-0.6
176
     1
 41
-30.0
176
     1
 62
     5
 63
     7
421
 16777215
176
     1
 74
     1
176
     1
 91
        4
176
     1
 64
     7
176
     1
 65
   257
176
     1
 75
     1
176
     1
175
     1
176
     1
 42
1.0
176
     1
 92
        8
176
     1
 66
     7
176
     1
 43
1.0
176
     1
 76
     1
176
     1
 77
     6
176
     1
 78
     2
176
     1
 67
     7
176
     1
 79
     5
176
     1
170
     0
176
     1
171
     0
176
     1
290
     0
176
     1
 93
        1
176
     1
 44
50.0
176
     1
173
     0
176
     1
  0
VISUALSTYLE
  5
3A
102
{ACAD_REACTORS
330
2A
102
}
330
2A
100
AcDbVisualStyle
  2
ColorChange
 70
    16
177
     2
291
     1
 71
     2
176
     1
 72
     2
176
     1
 73
     3
176
     1
 90
        0
176
     1
 40
-0.6
176
     1
 41
-30.0
176
     1
 62
     5
 63
     8
421
  8421504
176
     1
 74
     1
176
     1
 91
        4
176
     1
 64
     7
176
     1
 65
   257
176
     1
 75
     1
176
     1
175
     1
176
     1
 42
1.0
176
     1
 92
        8
176
     1
 66
     8
424
  8421504
176
     1
 43
1.0
176
     1
 76
     1
176
     1
 77
     6
176
     1
 78
     2
176
     1
 67
     7
176
     1
 79
     5
176
     1
170
     0
176
     1
171
     0
176
     1
290
     0
176
     1
 93
        1
176
     1
 44
0.0
176
     1
173
     0
176
     1
  0
VISUALSTYLE
  5
34
102
{ACAD_REACTORS
330
2A
102
}
330
2A
100
AcDbVisualStyle
  2
Conceptual
 70
     9
177
     2
291
     0
 71
     3
176
     1
 72
     2
176
     1
 73
     0
176
     1
 90
        0
176
     1
 40
-0.6
176
     1
 41
-30.0
176
     1
 62
     5
 63
     7
421
 16777215
176
     1
 74
     2
176
     1
 91
        2
176
     1
 64
     7
176
     1
 65
   257
176
     1
 75
     1
176
     1
175
     1
176
     1
 42
40.0
176
     1
 92
        8
176
     1
 66
     7
176
     1
 43
1.0
176
     1
 76
     1
176
     1
 77
     6
176
     1
 78
     2
176
     1
 67
     7
176
     1
 79
     3
176
     1
170
     0
176
     1
171
     0
176
     1
290
     0
176
     1
 93
        1
176
     1
 44
0.0
176
     1
173
     0
176
     1
  0
VISUALSTYLE
  5
35
102
{ACAD_REACTORS
330
2A
102
}
330
2A
100
AcDbVisualStyle
  2
Dim
 70
    11
177
     2
291
     1
 71
     2
176
     1
 72
     2
176
     1
 73
     0
176
     1
 90
        0
176
     1
 40
-0.6
176
     1
 41
-30.0
176
     1
 62
     5
 63
     7
421
 16777215
176
     1
 74
     1
176
     1
 91
        4
176
     1
 64
     7
176
     1
 65
   257
176
     1
 75
     1
176
     1
175
     1
176
     1
 42
1.0
176
     1
 92
        8
176
     1
 66
     7
176
     1
 43
1.0
176
     1
 76
     1
176
     1
 77
     6
176
     1
 78
     2
176
     1
 67
     7
176
     1
 79
     5
176
     1
170
     0
176
     1
171
     0
176
     1
290
     0
176
     1
 93
        1
176
     1
 44
-50.0
176
     1
173
     0
176
     1
  0
VISUALSTYLE
  5
39
102
{ACAD_REACTORS
330
2A
102
}
330
2A
100
AcDbVisualStyle
  2
Facepattern
 70
    15
177
     2
291
     1
 71
     2
176
     1
 72
     2
176
     1
 73
     0
176
     1
 90
        0
176
     1
 40
-0.6
176
     1
 41
-30.0
176
     1
 62
     5
 63
     7
421
 16777215
176
     1
 74
     1
176
     1
 91
        4
176
     1
 64
     7
176
     1
 65
   257
176
     1
 75
     1
176
     1
175
     1
176
     1
 42
1.0
176
     1
 92
        8
176
     1
 66
     7
176
     1
 43
1.0
176
     1
 76
     1
176
     1
 77
     6
176
     1
 78
     2
176
     1
 67
     7
176
     1
 79
     5
176
     1
170
     0
176
     1
171
     0
176
     1
290
     0
176
     1
 93
        1
176
     1
 44
0.0
176
     1
173
     0
176
     1
  0
VISUALSTYLE
  5
2B
102
{ACAD_REACTORS
330
2A
102
}
330
2A
100
AcDbVisualStyle
  2
Flat
 70
     0
177
     2
291
     1
 71
     2
176
     1
 72
     1
176
     1
 73
     1
176
     1
 90
        2
176
     1
 40
-0.6
176
     1
 41
30.0
176
     1
 62
     5
 63
     7
421
 16777215
176
     1
 74
     0
176
     1
 91
        4
176
     1
 64
     7
176
     1
 65
   257
176
     1
 75
     1
176
     1
175
     1
176
     1
 42
1.0
176
     1
 92
        8
176
     1
 66
     7
176
     1
 43
1.0
176
     1
 76
     1
176
     1
 77
     6
176
     1
 78
     2
176
     1
 67
     7
176
     1
 79
     5
176
     1
170
     0
176
     1
171
     0
176
     1
290
     0
176
     1
 93
       13
176
     1
 44
0.0
176
     1
173
     0
176
     1
  0
VISUALSTYLE
  5
2C
102
{ACAD_REACTORS
330
2A
102
}
330
2A
100
AcDbVisualStyle
  2
FlatWithEdges
 70
     1
177
     2
291
     1
 71
     2
176
     1
 72
     1
176
     1
 73
     1
176
     1
 90
        2
176
     1
 40
-0.6
176
     1
 41
30.0
176
     1
 62
     5
 63
     7
421
 16777215
176
     1
 74
     1
176
     1
 91
        4
176
     1
 64
     7
176
     1
 65
   257
176
     1
 75
     1
176
     1
175
     1
176
     1
 42
1.0
176
     1
 92
        0
176
     1
 66
   257
176
     1
 43
1.0
176
     1
 76
     1
176
     1
 77
     6
176
     1
 78
     2
176
     1
 67
     7
176
     1
 79
     5
176
     1
170
     0
176
     1
171
     0
176
     1
290
     0
176
     1
 93
       13
176
     1
 44
0.0
176
     1
173
     0
176
     1
  0
VISUALSTYLE
  5
2D
102
{ACAD_REACTORS
330
2A
102
}
330
2A
100
AcDbVisualStyle
  2
Gouraud
 70
     2
177
     2
291
     1
 71
     2
176
     1
 72
     2
176
     1
 73
     1
176
     1
 90
        2
176
     1
 40
-0.6
176
     1
 41
30.0
176
     1
 62
     5
 63
     7
421
 16777215
176
     1
 74
     0
176
     1
 91
        4
176
     1
 64
     7
176
     1
 65
   257
176
     1
 75
     1
176
     1
175
     1
176
     1
 42
1.0
176
     1
 92
        0
176
     1
 66
     7
176
     1
 43
1.0
176
     1
 76
     1
176
     1
 77
     6
176
     1
 78
     2
176
     1
 67
     7
176
     1
 79
     5
176
     1
170
     0
176
     1
171
     0
176
     1
290
     0
176
     1
 93
       13
176
     1
 44
0.0
176
     1
173
     0
176
     1
  0
VISUALSTYLE
  5
2E
102
{ACAD_REACTORS
330
2A
102
}
330
2A
100
AcDbVisualStyle
  2
GouraudWithEdges
 70
     3
177
     2
291
     1
 71
     2
176
     1
 72
     2
176
     1
 73
     1
176
     1
 90
        2
176
     1
 40
-0.6
176
     1
 41
30.0
176
     1
 62
     5
 63
     7
421
 16777215
176
     1
 74
     1
176
     1
 91
        4
176
     1
 64
     7
176
     1
 65
   257
176
     1
 75
     1
176
     1
175
     1
176
     1
 42
1.0
176
     1
 92
        0
176
     1
 66
   257
176
     1
 43
1.0
176
     1
 76
     1
176
     1
 77
     6
176
     1
 78
     2
176
     1
 67
     7
176
     1
 79
     5
176
     1
170
     0
176
     1
171
     0
176
     1
290
     0
176
     1
 93
       13
176
     1
 44
0.0
176
     1
173
     0
176
     1
  0
VISUALSTYLE
  5
38
102
{ACAD_REACTORS
330
2A
102
}
330
2A
100
AcDbVisualStyle
  2
Linepattern
 70
    14
177
     2
291
     1
 71
     2
176
     1
 72
     2
176
     1
 73
     0
176
     1
 90
        0
176
     1
 40
-0.6
176
     1
 41
-30.0
176
     1
 62
     5
 63
     7
421
 16777215
176
     1
 74
     1
176
     1
 91
        4
176
     1
 64
     7
176
     1
 65
   257
176
     1
 75
     7
176
     1
175
     7
176
     1
 42
1.0
176
     1
 92
        8
176
     1
 66
     7
176
     1
 43
1.0
176
     1
 76
     1
176
     1
 77
     6
176
     1
 78
     2
176
     1
 67
     7
176
     1
 79
     5
176
     1
170
     0
176
     1
171
     0
176
     1
290
     0
176
     1
 93
        1
176
     1
 44
0.0
176
     1
173
     0
176
     1
  0
VISUALSTYLE
  5
33
102
{ACAD_REACTORS
330
2A
102
}
330
2A
100
AcDbVisualStyle
  2
Realistic
 70
     8
177
     2
291
     0
 71
     2
176
     1
 72
     2
176
     1
 73
     0
176
     1
 90
        0
176
     1
 40
-0.6
176
     1
 41
-30.0
176
     1
 62
     5
 63
     7
421
 16777215
176
     1
 74
     1
176
     1
 91
        0
176
     1
 64
     7
176
     1
 65
   257
176
     1
 75
     1
176
     1
175
     1
176
     1
 42
1.0
176
     1
 92
        8
176
     1
 66
     8
424
  7895160
176
     1
 43
1.0
176
     1
 76
     1
176
     1
 77
     6
176
     1
 78
     2
176
     1
 67
     7
176
     1
 79
     5
176
     1
170
     0
176
     1
171
     0
176
     1
290
     0
176
     1
 93
       13
176
     1
 44
0.0
176
     1
173
     0
176
     1
  0
VISUALSTYLE
  5
37
102
{ACAD_REACTORS
330
2A
102
}
330
2A
100
AcDbVisualStyle
  2
Thicken
 70
    13
177
     2
291
     1
 71
     2
176
     1
 72
     2
176
     1
 73
     0
176
     1
 90
        0
176
     1
 40
-0.6
176
     1
 41
-30.0
176
     1
 62
     5
 63
     7
421
 16777215
176
     1
 74
     1
176
     1
 91
        4
176
     1
 64
     7
176
     1
 65
   257
176
     1
 75
     1
176
     1
175
     1
176
     1
 42
1.0
176
     1
 92
       12
176
     1
 66
     7
176
     1
 43
1.0
176
     1
 76
     1
176
     1
 77
     6
176
     1
 78
     2
176
     1
 67
     7
176
     1
 79
     5
176
     1
170
     0
176
     1
171
     0
176
     1
290
     0
176
     1
 93
        1
176
     1
 44
0.0
176
     1
173
     0
176
     1
  0
ENDSEC
  0
EOF
