G04 #@! TF.GenerationSoftware,KiCad,Pcbnew,(5.0.0-rc2-dev-352-g017154715)*
G04 #@! TF.CreationDate,2018-06-03T23:58:02-04:00*
G04 #@! TF.ProjectId,DayClock Circuit,446179436C6F636B2043697263756974,rev?*
G04 #@! TF.SameCoordinates,Original*
G04 #@! TF.FileFunction,Soldermask,Bot*
G04 #@! TF.FilePolarity,Negative*
%FSLAX46Y46*%
G04 Gerber Fmt 4.6, Leading zero omitted, Abs format (unit mm)*
G04 Created by KiCad (PCBNEW (5.0.0-rc2-dev-352-g017154715)) date 06/03/18 23:58:02*
%MOMM*%
%LPD*%
G01*
G04 APERTURE LIST*
%ADD10O,2.127200X2.127200*%
%ADD11C,3.600000*%
%ADD12C,2.400000*%
%ADD13C,1.900000*%
%ADD14R,1.900000X1.900000*%
%ADD15C,3.700000*%
%ADD16R,2.100000X2.350000*%
%ADD17O,2.100000X2.350000*%
%ADD18C,2.000000*%
%ADD19R,2.000000X2.000000*%
%ADD20R,3.500000X3.500000*%
%ADD21C,3.500000*%
%ADD22O,2.100000X2.100000*%
%ADD23R,2.100000X2.100000*%
%ADD24O,4.360000X2.380000*%
%ADD25R,4.360000X2.380000*%
%ADD26O,2.350000X2.100000*%
%ADD27R,2.350000X2.100000*%
%ADD28R,1.800000X1.800000*%
%ADD29O,1.800000X1.800000*%
%ADD30O,2.000000X2.000000*%
%ADD31C,2.220000*%
%ADD32C,1.924000*%
%ADD33R,1.924000X1.924000*%
G04 APERTURE END LIST*
D10*
X111504000Y-65680000D03*
X108964000Y-65680000D03*
X111504000Y-63140000D03*
X108964000Y-63140000D03*
X111504000Y-60600000D03*
X108964000Y-60600000D03*
X111504000Y-58060000D03*
X108964000Y-58060000D03*
X111504000Y-55520000D03*
X108964000Y-55520000D03*
X111504000Y-52980000D03*
X108964000Y-52980000D03*
X111504000Y-50440000D03*
X108964000Y-50440000D03*
X111504000Y-47900000D03*
X108964000Y-47900000D03*
X111504000Y-45360000D03*
X108964000Y-45360000D03*
X111504000Y-42820000D03*
X108964000Y-42820000D03*
X111504000Y-40280000D03*
X108964000Y-40280000D03*
X111504000Y-37740000D03*
X108964000Y-37740000D03*
X111504000Y-35200000D03*
X108964000Y-35200000D03*
X111504000Y-32660000D03*
X108964000Y-32660000D03*
X111504000Y-30120000D03*
X108964000Y-30120000D03*
X111504000Y-27580000D03*
X108964000Y-27580000D03*
X111504000Y-25040000D03*
X108964000Y-25040000D03*
X111504000Y-22500000D03*
X108964000Y-22500000D03*
X106424000Y-70760000D03*
X103884000Y-70760000D03*
X101344000Y-70760000D03*
X98804000Y-70760000D03*
X96264000Y-70760000D03*
X93724000Y-70760000D03*
X91184000Y-70760000D03*
X88644000Y-70760000D03*
X83564000Y-70760000D03*
X81024000Y-70760000D03*
X78484000Y-70760000D03*
X75944000Y-70760000D03*
X73404000Y-70760000D03*
X70864000Y-70760000D03*
X68324000Y-70760000D03*
X42924000Y-70760000D03*
X49020000Y-22500000D03*
X46480000Y-22500000D03*
X43940000Y-22500000D03*
X38860000Y-22500000D03*
X36320000Y-22500000D03*
X33780000Y-22500000D03*
D11*
X28954000Y-70760000D03*
X111504000Y-70760000D03*
X30224000Y-22500000D03*
X105154000Y-22500000D03*
X81024000Y-37740000D03*
X81024000Y-65680000D03*
D10*
X51560000Y-22500000D03*
X54100000Y-22500000D03*
X56640000Y-22500000D03*
X41400000Y-22500000D03*
X60704000Y-22500000D03*
X63244000Y-22500000D03*
X65784000Y-22500000D03*
X68324000Y-22500000D03*
X70864000Y-22500000D03*
X73404000Y-22500000D03*
X75944000Y-22500000D03*
X78484000Y-22500000D03*
X83564000Y-22500000D03*
X86104000Y-22500000D03*
X88644000Y-22500000D03*
X91184000Y-22500000D03*
X93724000Y-22500000D03*
X96264000Y-22500000D03*
X98804000Y-22500000D03*
X101344000Y-22500000D03*
X45464000Y-70760000D03*
X48004000Y-70760000D03*
X50544000Y-70760000D03*
X53084000Y-70760000D03*
X55624000Y-70760000D03*
X58164000Y-70760000D03*
X60704000Y-70760000D03*
X65784000Y-70760000D03*
D12*
X20730000Y-43230000D03*
D13*
X26440000Y-58210000D03*
X26440000Y-55930000D03*
X26440000Y-46780000D03*
X26440000Y-44500000D03*
X21620000Y-47800000D03*
X21620000Y-49830000D03*
X21620000Y-51860000D03*
X21620000Y-53890000D03*
X19840000Y-50850000D03*
X19840000Y-52880000D03*
X19840000Y-48810000D03*
D14*
X19840000Y-54910000D03*
D15*
X17300000Y-57700000D03*
X17300000Y-45000000D03*
D12*
X20730000Y-59480000D03*
D16*
X92250000Y-29150000D03*
D17*
X89750000Y-29150000D03*
X87250000Y-29150000D03*
D18*
X98600000Y-81900000D03*
D19*
X98600000Y-79400000D03*
D20*
X87300000Y-44020000D03*
D21*
X87300000Y-49100000D03*
X87300000Y-54180000D03*
X87300000Y-59260000D03*
D22*
X102040000Y-49580000D03*
X99500000Y-49580000D03*
X102040000Y-47040000D03*
X99500000Y-47040000D03*
X102040000Y-44500000D03*
X99500000Y-44500000D03*
X102040000Y-41960000D03*
X99500000Y-41960000D03*
X102040000Y-39420000D03*
X99500000Y-39420000D03*
X102040000Y-36880000D03*
X99500000Y-36880000D03*
X102040000Y-34340000D03*
X99500000Y-34340000D03*
X102040000Y-31800000D03*
D23*
X99500000Y-31800000D03*
D24*
X99700000Y-59900000D03*
D25*
X99700000Y-64900000D03*
D17*
X75950000Y-29050000D03*
X78450000Y-29050000D03*
D16*
X80950000Y-29050000D03*
D26*
X109000000Y-94500000D03*
X109000000Y-92000000D03*
X109000000Y-89500000D03*
X109000000Y-87000000D03*
X109000000Y-84500000D03*
D27*
X109000000Y-82000000D03*
D17*
X61900000Y-38250000D03*
X64400000Y-38250000D03*
X66900000Y-38250000D03*
D16*
X69400000Y-38250000D03*
X69000000Y-49400000D03*
D17*
X66500000Y-49400000D03*
X64000000Y-49400000D03*
X61500000Y-49400000D03*
X61650000Y-61600000D03*
X64150000Y-61600000D03*
X66650000Y-61600000D03*
D16*
X69150000Y-61600000D03*
D28*
X35900000Y-37450000D03*
D29*
X38200000Y-37450000D03*
X40500000Y-37450000D03*
X48400000Y-37450000D03*
X46100000Y-37450000D03*
D28*
X43800000Y-37450000D03*
D29*
X56100000Y-37450000D03*
X53800000Y-37450000D03*
D28*
X51500000Y-37450000D03*
X35200000Y-48600000D03*
D29*
X37500000Y-48600000D03*
X39800000Y-48600000D03*
X47850000Y-48600000D03*
X45550000Y-48600000D03*
D28*
X43250000Y-48600000D03*
X51250000Y-48600000D03*
D29*
X53550000Y-48600000D03*
X55850000Y-48600000D03*
X39700000Y-60550000D03*
X37400000Y-60550000D03*
D28*
X35100000Y-60550000D03*
X43150000Y-60550000D03*
D29*
X45450000Y-60550000D03*
X47750000Y-60550000D03*
X55950000Y-60550000D03*
X53650000Y-60550000D03*
D28*
X51350000Y-60550000D03*
D30*
X64220000Y-77200000D03*
X56600000Y-82280000D03*
X64220000Y-79740000D03*
X56600000Y-79740000D03*
X64220000Y-82280000D03*
D19*
X56600000Y-77200000D03*
D31*
X92680000Y-79490000D03*
X92680000Y-82030000D03*
X92680000Y-84570000D03*
X92680000Y-87110000D03*
X92680000Y-89650000D03*
X92680000Y-92190000D03*
X92680000Y-94730000D03*
X92680000Y-97270000D03*
X79980000Y-97270000D03*
X79980000Y-94730000D03*
X79980000Y-92190000D03*
X79980000Y-89650000D03*
X79980000Y-87110000D03*
X79980000Y-84570000D03*
X79980000Y-82030000D03*
X79980000Y-79490000D03*
D32*
X45464000Y-93620000D03*
X42924000Y-93620000D03*
X40384000Y-93620000D03*
X37844000Y-93620000D03*
D33*
X35304000Y-93620000D03*
D23*
X105860000Y-17100000D03*
D22*
X103320000Y-17100000D03*
X100780000Y-17100000D03*
X98240000Y-17100000D03*
X95700000Y-17100000D03*
X93160000Y-17100000D03*
X90620000Y-17100000D03*
X88080000Y-17100000D03*
X85540000Y-17100000D03*
X83000000Y-17100000D03*
D11*
X20000000Y-95000000D03*
X99000000Y-96000000D03*
M02*
