M48
INCH,TZ
T1C0.0157
T2C0.0300
T3C0.0315
T4C0.0350
T5C0.0374
T6C0.0394
T7C0.0400
T8C0.0402
T9C0.0520
T10C0.0618
T11C0.0701
%
G90
G05
T1
X8071Y-29016
X8150Y-22480
X9488Y-30433
X9646Y-21850
X31850Y-9606
X32520Y-8071
X33819Y-29409
X33819Y-30748
X35715Y-9606
X36969Y-9646
X37047Y-16417
T2
X13899Y-36858
X14899Y-36858
X15899Y-36858
X16899Y-36858
X17899Y-36858
T3
X13819Y-23839
X14724Y-23839
X15630Y-23839
X16988Y-23839
X17894Y-23839
X18799Y-23839
X17244Y-14744
X18150Y-14744
X19055Y-14744
X20177Y-19134
X21083Y-19134
X21988Y-19134
X22283Y-30394
X22283Y-31394
X22283Y-32394
X25283Y-30394
X25283Y-31394
X25283Y-32394
X14134Y-14744
X15039Y-14744
X15945Y-14744
X20276Y-14744
X21181Y-14744
X22087Y-14744
X20217Y-23839
X21122Y-23839
X22028Y-23839
X38819Y-31260
X38819Y-32244
X17028Y-19134
X17933Y-19134
X18839Y-19134
X13858Y-19134
X14764Y-19134
X15669Y-19134
T4
X7811Y-19217
X7811Y-20020
X7811Y-20819
X7811Y-21618
X8512Y-18819
X8512Y-19618
X8512Y-20417
X8512Y-21217
X10409Y-17520
X10409Y-18417
X10409Y-22020
X10409Y-22917
T5
X24213Y-19449
X25197Y-19449
X26181Y-19449
X27165Y-19449
X42913Y-32283
X42913Y-33268
X42913Y-34252
X42913Y-35236
X42913Y-36220
X42913Y-37205
X24370Y-15059
X25354Y-15059
X26339Y-15059
X27323Y-15059
X34350Y-11476
X35335Y-11476
X36319Y-11476
X24272Y-24252
X25256Y-24252
X26240Y-24252
X27224Y-24252
X29902Y-11437
X30886Y-11437
X31870Y-11437
T6
X32677Y-6732
X33677Y-6732
X34677Y-6732
X35677Y-6732
X36677Y-6732
X37677Y-6732
X38677Y-6732
X39677Y-6732
X40677Y-6732
X41677Y-6732
X39173Y-12520
X39173Y-13520
X39173Y-14520
X39173Y-15520
X39173Y-16520
X39173Y-17520
X39173Y-18520
X39173Y-19520
X40173Y-12520
X40173Y-13520
X40173Y-14520
X40173Y-15520
X40173Y-16520
X40173Y-17520
X40173Y-18520
X40173Y-19520
T7
X13299Y-8858
X14299Y-8858
X15299Y-8858
X16299Y-8858
X16899Y-27858
X17299Y-8858
X17899Y-27858
X18299Y-8858
X18899Y-27858
X19299Y-8858
X19899Y-27858
X20299Y-8858
X20899Y-27858
X21299Y-8858
X21899Y-27858
X22299Y-8858
X22899Y-27858
X23899Y-8858
X23899Y-27858
X24899Y-8858
X25899Y-8858
X25899Y-27858
X26899Y-8858
X26899Y-27858
X27899Y-8858
X27899Y-27858
X28899Y-8858
X28899Y-27858
X29899Y-8858
X29899Y-27858
X30899Y-8858
X30899Y-27858
X31899Y-27858
X32899Y-8858
X32899Y-27858
X33899Y-8858
X34899Y-8858
X34899Y-27858
X35899Y-8858
X35899Y-27858
X36899Y-8858
X36899Y-27858
X37899Y-8858
X37899Y-27858
X38899Y-8858
X38899Y-27858
X39899Y-8858
X39899Y-27858
X40899Y-27858
X41899Y-27858
X42899Y-8858
X42899Y-9858
X42899Y-10858
X42899Y-11858
X42899Y-12858
X42899Y-13858
X42899Y-14858
X42899Y-15858
X42899Y-16858
X42899Y-17858
X42899Y-18858
X42899Y-19858
X42899Y-20858
X42899Y-21858
X42899Y-22858
X42899Y-23858
X42899Y-24858
X42899Y-25858
X43899Y-8858
X43899Y-9858
X43899Y-10858
X43899Y-11858
X43899Y-12858
X43899Y-13858
X43899Y-14858
X43899Y-15858
X43899Y-16858
X43899Y-17858
X43899Y-18858
X43899Y-19858
X43899Y-20858
X43899Y-21858
X43899Y-22858
X43899Y-23858
X43899Y-24858
X43899Y-25858
T8
X31488Y-31295
X31488Y-32295
X31488Y-33295
X31488Y-34295
X31488Y-35295
X31488Y-36295
X31488Y-37295
X31488Y-38295
X36488Y-31295
X36488Y-32295
X36488Y-33295
X36488Y-34295
X36488Y-35295
X36488Y-36295
X36488Y-37295
X36488Y-38295
T9
X39252Y-23583
X39252Y-25551
T10
X8161Y-17020
X8161Y-23417
T11
X34370Y-17331
X34370Y-19331
X34370Y-21331
X34370Y-23331
T0
M30
