G04 #@! TF.GenerationSoftware,KiCad,Pcbnew,(5.0.0-rc2-dev-352-g017154715)*
G04 #@! TF.CreationDate,2018-06-03T23:58:01-04:00*
G04 #@! TF.ProjectId,DayClock Circuit,446179436C6F636B2043697263756974,rev?*
G04 #@! TF.SameCoordinates,Original*
G04 #@! TF.FileFunction,Legend,Top*
G04 #@! TF.FilePolarity,Positive*
%FSLAX46Y46*%
G04 Gerber Fmt 4.6, Leading zero omitted, Abs format (unit mm)*
G04 Created by KiCad (PCBNEW (5.0.0-rc2-dev-352-g017154715)) date 06/03/18 23:58:01*
%MOMM*%
%LPD*%
G01*
G04 APERTURE LIST*
%ADD10C,0.250000*%
%ADD11C,0.300000*%
%ADD12C,0.100000*%
%ADD13C,0.150000*%
%ADD14C,0.120000*%
%ADD15C,0.200000*%
%ADD16C,1.000000*%
G04 APERTURE END LIST*
D10*
X85757142Y-32452380D02*
X85757142Y-33261904D01*
X85804761Y-33357142D01*
X85852380Y-33404761D01*
X85947619Y-33452380D01*
X86138095Y-33452380D01*
X86233333Y-33404761D01*
X86280952Y-33357142D01*
X86328571Y-33261904D01*
X86328571Y-32452380D01*
X86804761Y-32785714D02*
X86804761Y-33785714D01*
X86804761Y-32833333D02*
X86900000Y-32785714D01*
X87090476Y-32785714D01*
X87185714Y-32833333D01*
X87233333Y-32880952D01*
X87280952Y-32976190D01*
X87280952Y-33261904D01*
X87233333Y-33357142D01*
X87185714Y-33404761D01*
X87090476Y-33452380D01*
X86900000Y-33452380D01*
X86804761Y-33404761D01*
X87709523Y-32785714D02*
X87709523Y-33785714D01*
X87709523Y-32833333D02*
X87804761Y-32785714D01*
X87995238Y-32785714D01*
X88090476Y-32833333D01*
X88138095Y-32880952D01*
X88185714Y-32976190D01*
X88185714Y-33261904D01*
X88138095Y-33357142D01*
X88090476Y-33404761D01*
X87995238Y-33452380D01*
X87804761Y-33452380D01*
X87709523Y-33404761D01*
X88995238Y-33404761D02*
X88899999Y-33452380D01*
X88709523Y-33452380D01*
X88614285Y-33404761D01*
X88566666Y-33309523D01*
X88566666Y-32928571D01*
X88614285Y-32833333D01*
X88709523Y-32785714D01*
X88899999Y-32785714D01*
X88995238Y-32833333D01*
X89042857Y-32928571D01*
X89042857Y-33023809D01*
X88566666Y-33119047D01*
X89471428Y-33452380D02*
X89471428Y-32785714D01*
X89471428Y-32976190D02*
X89519047Y-32880952D01*
X89566666Y-32833333D01*
X89661904Y-32785714D01*
X89757142Y-32785714D01*
X91328571Y-33452380D02*
X90852380Y-33452380D01*
X90852380Y-32452380D01*
X91661904Y-33452380D02*
X91661904Y-32785714D01*
X91661904Y-32452380D02*
X91614285Y-32500000D01*
X91661904Y-32547619D01*
X91709523Y-32500000D01*
X91661904Y-32452380D01*
X91661904Y-32547619D01*
X92138095Y-33452380D02*
X92138095Y-32785714D01*
X92138095Y-32880952D02*
X92185714Y-32833333D01*
X92280952Y-32785714D01*
X92423809Y-32785714D01*
X92519047Y-32833333D01*
X92566666Y-32928571D01*
X92566666Y-33452380D01*
X92566666Y-32928571D02*
X92614285Y-32833333D01*
X92709523Y-32785714D01*
X92852380Y-32785714D01*
X92947619Y-32833333D01*
X92995238Y-32928571D01*
X92995238Y-33452380D01*
X93471428Y-33452380D02*
X93471428Y-32785714D01*
X93471428Y-32452380D02*
X93423809Y-32500000D01*
X93471428Y-32547619D01*
X93519047Y-32500000D01*
X93471428Y-32452380D01*
X93471428Y-32547619D01*
X93804761Y-32785714D02*
X94185714Y-32785714D01*
X93947619Y-32452380D02*
X93947619Y-33309523D01*
X93995238Y-33404761D01*
X94090476Y-33452380D01*
X94185714Y-33452380D01*
X74580952Y-33352380D02*
X74104761Y-33352380D01*
X74104761Y-32352380D01*
X75057142Y-33352380D02*
X74961904Y-33304761D01*
X74914285Y-33257142D01*
X74866666Y-33161904D01*
X74866666Y-32876190D01*
X74914285Y-32780952D01*
X74961904Y-32733333D01*
X75057142Y-32685714D01*
X75200000Y-32685714D01*
X75295238Y-32733333D01*
X75342857Y-32780952D01*
X75390476Y-32876190D01*
X75390476Y-33161904D01*
X75342857Y-33257142D01*
X75295238Y-33304761D01*
X75200000Y-33352380D01*
X75057142Y-33352380D01*
X75723809Y-32685714D02*
X75914285Y-33352380D01*
X76104761Y-32876190D01*
X76295238Y-33352380D01*
X76485714Y-32685714D01*
X77247619Y-33304761D02*
X77152380Y-33352380D01*
X76961904Y-33352380D01*
X76866666Y-33304761D01*
X76819047Y-33209523D01*
X76819047Y-32828571D01*
X76866666Y-32733333D01*
X76961904Y-32685714D01*
X77152380Y-32685714D01*
X77247619Y-32733333D01*
X77295238Y-32828571D01*
X77295238Y-32923809D01*
X76819047Y-33019047D01*
X77723809Y-33352380D02*
X77723809Y-32685714D01*
X77723809Y-32876190D02*
X77771428Y-32780952D01*
X77819047Y-32733333D01*
X77914285Y-32685714D01*
X78009523Y-32685714D01*
X79580952Y-33352380D02*
X79104761Y-33352380D01*
X79104761Y-32352380D01*
X79914285Y-33352380D02*
X79914285Y-32685714D01*
X79914285Y-32352380D02*
X79866666Y-32400000D01*
X79914285Y-32447619D01*
X79961904Y-32400000D01*
X79914285Y-32352380D01*
X79914285Y-32447619D01*
X80390476Y-33352380D02*
X80390476Y-32685714D01*
X80390476Y-32780952D02*
X80438095Y-32733333D01*
X80533333Y-32685714D01*
X80676190Y-32685714D01*
X80771428Y-32733333D01*
X80819047Y-32828571D01*
X80819047Y-33352380D01*
X80819047Y-32828571D02*
X80866666Y-32733333D01*
X80961904Y-32685714D01*
X81104761Y-32685714D01*
X81200000Y-32733333D01*
X81247619Y-32828571D01*
X81247619Y-33352380D01*
X81723809Y-33352380D02*
X81723809Y-32685714D01*
X81723809Y-32352380D02*
X81676190Y-32400000D01*
X81723809Y-32447619D01*
X81771428Y-32400000D01*
X81723809Y-32352380D01*
X81723809Y-32447619D01*
X82057142Y-32685714D02*
X82438095Y-32685714D01*
X82200000Y-32352380D02*
X82200000Y-33209523D01*
X82247619Y-33304761D01*
X82342857Y-33352380D01*
X82438095Y-33352380D01*
D11*
X112692857Y-81992857D02*
X112907142Y-82064285D01*
X112978571Y-82135714D01*
X113050000Y-82278571D01*
X113050000Y-82492857D01*
X112978571Y-82635714D01*
X112907142Y-82707142D01*
X112764285Y-82778571D01*
X112192857Y-82778571D01*
X112192857Y-81278571D01*
X112692857Y-81278571D01*
X112835714Y-81350000D01*
X112907142Y-81421428D01*
X112978571Y-81564285D01*
X112978571Y-81707142D01*
X112907142Y-81850000D01*
X112835714Y-81921428D01*
X112692857Y-81992857D01*
X112192857Y-81992857D01*
X113621428Y-81421428D02*
X113692857Y-81350000D01*
X113835714Y-81278571D01*
X114192857Y-81278571D01*
X114335714Y-81350000D01*
X114407142Y-81421428D01*
X114478571Y-81564285D01*
X114478571Y-81707142D01*
X114407142Y-81921428D01*
X113550000Y-82778571D01*
X114478571Y-82778571D01*
X112792857Y-86992857D02*
X113007142Y-87064285D01*
X113078571Y-87135714D01*
X113150000Y-87278571D01*
X113150000Y-87492857D01*
X113078571Y-87635714D01*
X113007142Y-87707142D01*
X112864285Y-87778571D01*
X112292857Y-87778571D01*
X112292857Y-86278571D01*
X112792857Y-86278571D01*
X112935714Y-86350000D01*
X113007142Y-86421428D01*
X113078571Y-86564285D01*
X113078571Y-86707142D01*
X113007142Y-86850000D01*
X112935714Y-86921428D01*
X112792857Y-86992857D01*
X112292857Y-86992857D01*
X114578571Y-87778571D02*
X113721428Y-87778571D01*
X114150000Y-87778571D02*
X114150000Y-86278571D01*
X114007142Y-86492857D01*
X113864285Y-86635714D01*
X113721428Y-86707142D01*
X112328571Y-89850000D02*
X113042857Y-89850000D01*
X112185714Y-90278571D02*
X112685714Y-88778571D01*
X113185714Y-90278571D01*
X113614285Y-88921428D02*
X113685714Y-88850000D01*
X113828571Y-88778571D01*
X114185714Y-88778571D01*
X114328571Y-88850000D01*
X114400000Y-88921428D01*
X114471428Y-89064285D01*
X114471428Y-89207142D01*
X114400000Y-89421428D01*
X113542857Y-90278571D01*
X114471428Y-90278571D01*
X112228571Y-94650000D02*
X112942857Y-94650000D01*
X112085714Y-95078571D02*
X112585714Y-93578571D01*
X113085714Y-95078571D01*
X114371428Y-95078571D02*
X113514285Y-95078571D01*
X113942857Y-95078571D02*
X113942857Y-93578571D01*
X113800000Y-93792857D01*
X113657142Y-93935714D01*
X113514285Y-94007142D01*
X104307142Y-98078571D02*
X104378571Y-97864285D01*
X104378571Y-97507142D01*
X104307142Y-97364285D01*
X104235714Y-97292857D01*
X104092857Y-97221428D01*
X103950000Y-97221428D01*
X103807142Y-97292857D01*
X103735714Y-97364285D01*
X103664285Y-97507142D01*
X103592857Y-97792857D01*
X103521428Y-97935714D01*
X103450000Y-98007142D01*
X103307142Y-98078571D01*
X103164285Y-98078571D01*
X103021428Y-98007142D01*
X102950000Y-97935714D01*
X102878571Y-97792857D01*
X102878571Y-97435714D01*
X102950000Y-97221428D01*
X103378571Y-96792857D02*
X103378571Y-96221428D01*
X102878571Y-96578571D02*
X104164285Y-96578571D01*
X104307142Y-96507142D01*
X104378571Y-96364285D01*
X104378571Y-96221428D01*
X104307142Y-95150000D02*
X104378571Y-95292857D01*
X104378571Y-95578571D01*
X104307142Y-95721428D01*
X104164285Y-95792857D01*
X103592857Y-95792857D01*
X103450000Y-95721428D01*
X103378571Y-95578571D01*
X103378571Y-95292857D01*
X103450000Y-95150000D01*
X103592857Y-95078571D01*
X103735714Y-95078571D01*
X103878571Y-95792857D01*
X103378571Y-94435714D02*
X104878571Y-94435714D01*
X103450000Y-94435714D02*
X103378571Y-94292857D01*
X103378571Y-94007142D01*
X103450000Y-93864285D01*
X103521428Y-93792857D01*
X103664285Y-93721428D01*
X104092857Y-93721428D01*
X104235714Y-93792857D01*
X104307142Y-93864285D01*
X104378571Y-94007142D01*
X104378571Y-94292857D01*
X104307142Y-94435714D01*
X103378571Y-93078571D02*
X104878571Y-93078571D01*
X103450000Y-93078571D02*
X103378571Y-92935714D01*
X103378571Y-92650000D01*
X103450000Y-92507142D01*
X103521428Y-92435714D01*
X103664285Y-92364285D01*
X104092857Y-92364285D01*
X104235714Y-92435714D01*
X104307142Y-92507142D01*
X104378571Y-92650000D01*
X104378571Y-92935714D01*
X104307142Y-93078571D01*
X104307142Y-91150000D02*
X104378571Y-91292857D01*
X104378571Y-91578571D01*
X104307142Y-91721428D01*
X104164285Y-91792857D01*
X103592857Y-91792857D01*
X103450000Y-91721428D01*
X103378571Y-91578571D01*
X103378571Y-91292857D01*
X103450000Y-91150000D01*
X103592857Y-91078571D01*
X103735714Y-91078571D01*
X103878571Y-91792857D01*
X104378571Y-90435714D02*
X103378571Y-90435714D01*
X103664285Y-90435714D02*
X103521428Y-90364285D01*
X103450000Y-90292857D01*
X103378571Y-90150000D01*
X103378571Y-90007142D01*
X104235714Y-87507142D02*
X104307142Y-87578571D01*
X104378571Y-87792857D01*
X104378571Y-87935714D01*
X104307142Y-88150000D01*
X104164285Y-88292857D01*
X104021428Y-88364285D01*
X103735714Y-88435714D01*
X103521428Y-88435714D01*
X103235714Y-88364285D01*
X103092857Y-88292857D01*
X102950000Y-88150000D01*
X102878571Y-87935714D01*
X102878571Y-87792857D01*
X102950000Y-87578571D01*
X103021428Y-87507142D01*
X104378571Y-86650000D02*
X104307142Y-86792857D01*
X104235714Y-86864285D01*
X104092857Y-86935714D01*
X103664285Y-86935714D01*
X103521428Y-86864285D01*
X103450000Y-86792857D01*
X103378571Y-86650000D01*
X103378571Y-86435714D01*
X103450000Y-86292857D01*
X103521428Y-86221428D01*
X103664285Y-86150000D01*
X104092857Y-86150000D01*
X104235714Y-86221428D01*
X104307142Y-86292857D01*
X104378571Y-86435714D01*
X104378571Y-86650000D01*
X103378571Y-85507142D02*
X104378571Y-85507142D01*
X103521428Y-85507142D02*
X103450000Y-85435714D01*
X103378571Y-85292857D01*
X103378571Y-85078571D01*
X103450000Y-84935714D01*
X103592857Y-84864285D01*
X104378571Y-84864285D01*
X103378571Y-84150000D02*
X104378571Y-84150000D01*
X103521428Y-84150000D02*
X103450000Y-84078571D01*
X103378571Y-83935714D01*
X103378571Y-83721428D01*
X103450000Y-83578571D01*
X103592857Y-83507142D01*
X104378571Y-83507142D01*
X104307142Y-82221428D02*
X104378571Y-82364285D01*
X104378571Y-82650000D01*
X104307142Y-82792857D01*
X104164285Y-82864285D01*
X103592857Y-82864285D01*
X103450000Y-82792857D01*
X103378571Y-82650000D01*
X103378571Y-82364285D01*
X103450000Y-82221428D01*
X103592857Y-82150000D01*
X103735714Y-82150000D01*
X103878571Y-82864285D01*
X104307142Y-80864285D02*
X104378571Y-81007142D01*
X104378571Y-81292857D01*
X104307142Y-81435714D01*
X104235714Y-81507142D01*
X104092857Y-81578571D01*
X103664285Y-81578571D01*
X103521428Y-81507142D01*
X103450000Y-81435714D01*
X103378571Y-81292857D01*
X103378571Y-81007142D01*
X103450000Y-80864285D01*
X103378571Y-80435714D02*
X103378571Y-79864285D01*
X102878571Y-80221428D02*
X104164285Y-80221428D01*
X104307142Y-80150000D01*
X104378571Y-80007142D01*
X104378571Y-79864285D01*
X104378571Y-79150000D02*
X104307142Y-79292857D01*
X104235714Y-79364285D01*
X104092857Y-79435714D01*
X103664285Y-79435714D01*
X103521428Y-79364285D01*
X103450000Y-79292857D01*
X103378571Y-79150000D01*
X103378571Y-78935714D01*
X103450000Y-78792857D01*
X103521428Y-78721428D01*
X103664285Y-78650000D01*
X104092857Y-78650000D01*
X104235714Y-78721428D01*
X104307142Y-78792857D01*
X104378571Y-78935714D01*
X104378571Y-79150000D01*
X104378571Y-78007142D02*
X103378571Y-78007142D01*
X103664285Y-78007142D02*
X103521428Y-77935714D01*
X103450000Y-77864285D01*
X103378571Y-77721428D01*
X103378571Y-77578571D01*
X86578571Y-92342857D02*
X85078571Y-92342857D01*
X85078571Y-91985714D01*
X85150000Y-91771428D01*
X85292857Y-91628571D01*
X85435714Y-91557142D01*
X85721428Y-91485714D01*
X85935714Y-91485714D01*
X86221428Y-91557142D01*
X86364285Y-91628571D01*
X86507142Y-91771428D01*
X86578571Y-91985714D01*
X86578571Y-92342857D01*
X86578571Y-89985714D02*
X85864285Y-90485714D01*
X86578571Y-90842857D02*
X85078571Y-90842857D01*
X85078571Y-90271428D01*
X85150000Y-90128571D01*
X85221428Y-90057142D01*
X85364285Y-89985714D01*
X85578571Y-89985714D01*
X85721428Y-90057142D01*
X85792857Y-90128571D01*
X85864285Y-90271428D01*
X85864285Y-90842857D01*
X85078571Y-89557142D02*
X86578571Y-89057142D01*
X85078571Y-88557142D01*
X85721428Y-87842857D02*
X85650000Y-87985714D01*
X85578571Y-88057142D01*
X85435714Y-88128571D01*
X85364285Y-88128571D01*
X85221428Y-88057142D01*
X85150000Y-87985714D01*
X85078571Y-87842857D01*
X85078571Y-87557142D01*
X85150000Y-87414285D01*
X85221428Y-87342857D01*
X85364285Y-87271428D01*
X85435714Y-87271428D01*
X85578571Y-87342857D01*
X85650000Y-87414285D01*
X85721428Y-87557142D01*
X85721428Y-87842857D01*
X85792857Y-87985714D01*
X85864285Y-88057142D01*
X86007142Y-88128571D01*
X86292857Y-88128571D01*
X86435714Y-88057142D01*
X86507142Y-87985714D01*
X86578571Y-87842857D01*
X86578571Y-87557142D01*
X86507142Y-87414285D01*
X86435714Y-87342857D01*
X86292857Y-87271428D01*
X86007142Y-87271428D01*
X85864285Y-87342857D01*
X85792857Y-87414285D01*
X85721428Y-87557142D01*
X85721428Y-86414285D02*
X85650000Y-86557142D01*
X85578571Y-86628571D01*
X85435714Y-86700000D01*
X85364285Y-86700000D01*
X85221428Y-86628571D01*
X85150000Y-86557142D01*
X85078571Y-86414285D01*
X85078571Y-86128571D01*
X85150000Y-85985714D01*
X85221428Y-85914285D01*
X85364285Y-85842857D01*
X85435714Y-85842857D01*
X85578571Y-85914285D01*
X85650000Y-85985714D01*
X85721428Y-86128571D01*
X85721428Y-86414285D01*
X85792857Y-86557142D01*
X85864285Y-86628571D01*
X86007142Y-86700000D01*
X86292857Y-86700000D01*
X86435714Y-86628571D01*
X86507142Y-86557142D01*
X86578571Y-86414285D01*
X86578571Y-86128571D01*
X86507142Y-85985714D01*
X86435714Y-85914285D01*
X86292857Y-85842857D01*
X86007142Y-85842857D01*
X85864285Y-85914285D01*
X85792857Y-85985714D01*
X85721428Y-86128571D01*
X85221428Y-85271428D02*
X85150000Y-85200000D01*
X85078571Y-85057142D01*
X85078571Y-84700000D01*
X85150000Y-84557142D01*
X85221428Y-84485714D01*
X85364285Y-84414285D01*
X85507142Y-84414285D01*
X85721428Y-84485714D01*
X86578571Y-85342857D01*
X86578571Y-84414285D01*
X85078571Y-83057142D02*
X85078571Y-83771428D01*
X85792857Y-83842857D01*
X85721428Y-83771428D01*
X85650000Y-83628571D01*
X85650000Y-83271428D01*
X85721428Y-83128571D01*
X85792857Y-83057142D01*
X85935714Y-82985714D01*
X86292857Y-82985714D01*
X86435714Y-83057142D01*
X86507142Y-83128571D01*
X86578571Y-83271428D01*
X86578571Y-83628571D01*
X86507142Y-83771428D01*
X86435714Y-83842857D01*
X78914285Y-76807142D02*
X79128571Y-76878571D01*
X79485714Y-76878571D01*
X79628571Y-76807142D01*
X79700000Y-76735714D01*
X79771428Y-76592857D01*
X79771428Y-76450000D01*
X79700000Y-76307142D01*
X79628571Y-76235714D01*
X79485714Y-76164285D01*
X79200000Y-76092857D01*
X79057142Y-76021428D01*
X78985714Y-75950000D01*
X78914285Y-75807142D01*
X78914285Y-75664285D01*
X78985714Y-75521428D01*
X79057142Y-75450000D01*
X79200000Y-75378571D01*
X79557142Y-75378571D01*
X79771428Y-75450000D01*
X80200000Y-75878571D02*
X80771428Y-75878571D01*
X80414285Y-75378571D02*
X80414285Y-76664285D01*
X80485714Y-76807142D01*
X80628571Y-76878571D01*
X80771428Y-76878571D01*
X81842857Y-76807142D02*
X81700000Y-76878571D01*
X81414285Y-76878571D01*
X81271428Y-76807142D01*
X81200000Y-76664285D01*
X81200000Y-76092857D01*
X81271428Y-75950000D01*
X81414285Y-75878571D01*
X81700000Y-75878571D01*
X81842857Y-75950000D01*
X81914285Y-76092857D01*
X81914285Y-76235714D01*
X81200000Y-76378571D01*
X82557142Y-75878571D02*
X82557142Y-77378571D01*
X82557142Y-75950000D02*
X82700000Y-75878571D01*
X82985714Y-75878571D01*
X83128571Y-75950000D01*
X83200000Y-76021428D01*
X83271428Y-76164285D01*
X83271428Y-76592857D01*
X83200000Y-76735714D01*
X83128571Y-76807142D01*
X82985714Y-76878571D01*
X82700000Y-76878571D01*
X82557142Y-76807142D01*
X83914285Y-75878571D02*
X83914285Y-77378571D01*
X83914285Y-75950000D02*
X84057142Y-75878571D01*
X84342857Y-75878571D01*
X84485714Y-75950000D01*
X84557142Y-76021428D01*
X84628571Y-76164285D01*
X84628571Y-76592857D01*
X84557142Y-76735714D01*
X84485714Y-76807142D01*
X84342857Y-76878571D01*
X84057142Y-76878571D01*
X83914285Y-76807142D01*
X85842857Y-76807142D02*
X85700000Y-76878571D01*
X85414285Y-76878571D01*
X85271428Y-76807142D01*
X85200000Y-76664285D01*
X85200000Y-76092857D01*
X85271428Y-75950000D01*
X85414285Y-75878571D01*
X85700000Y-75878571D01*
X85842857Y-75950000D01*
X85914285Y-76092857D01*
X85914285Y-76235714D01*
X85200000Y-76378571D01*
X86557142Y-76878571D02*
X86557142Y-75878571D01*
X86557142Y-76164285D02*
X86628571Y-76021428D01*
X86700000Y-75950000D01*
X86842857Y-75878571D01*
X86985714Y-75878571D01*
X88628571Y-76878571D02*
X88628571Y-75378571D01*
X88985714Y-75378571D01*
X89200000Y-75450000D01*
X89342857Y-75592857D01*
X89414285Y-75735714D01*
X89485714Y-76021428D01*
X89485714Y-76235714D01*
X89414285Y-76521428D01*
X89342857Y-76664285D01*
X89200000Y-76807142D01*
X88985714Y-76878571D01*
X88628571Y-76878571D01*
X90128571Y-76878571D02*
X90128571Y-75878571D01*
X90128571Y-76164285D02*
X90200000Y-76021428D01*
X90271428Y-75950000D01*
X90414285Y-75878571D01*
X90557142Y-75878571D01*
X91057142Y-76878571D02*
X91057142Y-75878571D01*
X91057142Y-75378571D02*
X90985714Y-75450000D01*
X91057142Y-75521428D01*
X91128571Y-75450000D01*
X91057142Y-75378571D01*
X91057142Y-75521428D01*
X91628571Y-75878571D02*
X91985714Y-76878571D01*
X92342857Y-75878571D01*
X93485714Y-76807142D02*
X93342857Y-76878571D01*
X93057142Y-76878571D01*
X92914285Y-76807142D01*
X92842857Y-76664285D01*
X92842857Y-76092857D01*
X92914285Y-75950000D01*
X93057142Y-75878571D01*
X93342857Y-75878571D01*
X93485714Y-75950000D01*
X93557142Y-76092857D01*
X93557142Y-76235714D01*
X92842857Y-76378571D01*
X94200000Y-76878571D02*
X94200000Y-75878571D01*
X94200000Y-76164285D02*
X94271428Y-76021428D01*
X94342857Y-75950000D01*
X94485714Y-75878571D01*
X94628571Y-75878571D01*
X65785714Y-83078571D02*
X65785714Y-81578571D01*
X66285714Y-82650000D01*
X66785714Y-81578571D01*
X66785714Y-83078571D01*
X67428571Y-81721428D02*
X67500000Y-81650000D01*
X67642857Y-81578571D01*
X68000000Y-81578571D01*
X68142857Y-81650000D01*
X68214285Y-81721428D01*
X68285714Y-81864285D01*
X68285714Y-82007142D01*
X68214285Y-82221428D01*
X67357142Y-83078571D01*
X68285714Y-83078571D01*
X65885714Y-80578571D02*
X65885714Y-79078571D01*
X66385714Y-80150000D01*
X66885714Y-79078571D01*
X66885714Y-80578571D01*
X68385714Y-80578571D02*
X67528571Y-80578571D01*
X67957142Y-80578571D02*
X67957142Y-79078571D01*
X67814285Y-79292857D01*
X67671428Y-79435714D01*
X67528571Y-79507142D01*
X65885714Y-77978571D02*
X65885714Y-76478571D01*
X66385714Y-77550000D01*
X66885714Y-76478571D01*
X66885714Y-77978571D01*
X67885714Y-76478571D02*
X68028571Y-76478571D01*
X68171428Y-76550000D01*
X68242857Y-76621428D01*
X68314285Y-76764285D01*
X68385714Y-77050000D01*
X68385714Y-77407142D01*
X68314285Y-77692857D01*
X68242857Y-77835714D01*
X68171428Y-77907142D01*
X68028571Y-77978571D01*
X67885714Y-77978571D01*
X67742857Y-77907142D01*
X67671428Y-77835714D01*
X67600000Y-77692857D01*
X67528571Y-77407142D01*
X67528571Y-77050000D01*
X67600000Y-76764285D01*
X67671428Y-76621428D01*
X67742857Y-76550000D01*
X67885714Y-76478571D01*
D12*
X70600000Y-87900000D02*
X70600000Y-98500000D01*
X56000000Y-87900000D02*
X56000000Y-98500000D01*
X56000000Y-98500000D02*
X70600000Y-98500000D01*
X70600000Y-96700000D02*
X56000000Y-96700000D01*
X56000000Y-94900000D02*
X70600000Y-94900000D01*
X70600000Y-93100000D02*
X56000000Y-93100000D01*
X56000000Y-91400000D02*
X70600000Y-91400000D01*
X70600000Y-89600000D02*
X56000000Y-89600000D01*
X56000000Y-87900000D02*
X70600000Y-87900000D01*
D10*
X66342857Y-87454761D02*
X66485714Y-87502380D01*
X66723809Y-87502380D01*
X66819047Y-87454761D01*
X66866666Y-87407142D01*
X66914285Y-87311904D01*
X66914285Y-87216666D01*
X66866666Y-87121428D01*
X66819047Y-87073809D01*
X66723809Y-87026190D01*
X66533333Y-86978571D01*
X66438095Y-86930952D01*
X66390476Y-86883333D01*
X66342857Y-86788095D01*
X66342857Y-86692857D01*
X66390476Y-86597619D01*
X66438095Y-86550000D01*
X66533333Y-86502380D01*
X66771428Y-86502380D01*
X66914285Y-86550000D01*
X67200000Y-86835714D02*
X67580952Y-86835714D01*
X67342857Y-86502380D02*
X67342857Y-87359523D01*
X67390476Y-87454761D01*
X67485714Y-87502380D01*
X67580952Y-87502380D01*
X68295238Y-87454761D02*
X68200000Y-87502380D01*
X68009523Y-87502380D01*
X67914285Y-87454761D01*
X67866666Y-87359523D01*
X67866666Y-86978571D01*
X67914285Y-86883333D01*
X68009523Y-86835714D01*
X68200000Y-86835714D01*
X68295238Y-86883333D01*
X68342857Y-86978571D01*
X68342857Y-87073809D01*
X67866666Y-87169047D01*
X68771428Y-86835714D02*
X68771428Y-87835714D01*
X68771428Y-86883333D02*
X68866666Y-86835714D01*
X69057142Y-86835714D01*
X69152380Y-86883333D01*
X69200000Y-86930952D01*
X69247619Y-87026190D01*
X69247619Y-87311904D01*
X69200000Y-87407142D01*
X69152380Y-87454761D01*
X69057142Y-87502380D01*
X68866666Y-87502380D01*
X68771428Y-87454761D01*
X69628571Y-87454761D02*
X69723809Y-87502380D01*
X69914285Y-87502380D01*
X70009523Y-87454761D01*
X70057142Y-87359523D01*
X70057142Y-87311904D01*
X70009523Y-87216666D01*
X69914285Y-87169047D01*
X69771428Y-87169047D01*
X69676190Y-87121428D01*
X69628571Y-87026190D01*
X69628571Y-86978571D01*
X69676190Y-86883333D01*
X69771428Y-86835714D01*
X69914285Y-86835714D01*
X70009523Y-86883333D01*
X67366666Y-88728571D02*
X67033333Y-88728571D01*
X67033333Y-89252380D02*
X67033333Y-88252380D01*
X67509523Y-88252380D01*
X68319047Y-88585714D02*
X68319047Y-89252380D01*
X67890476Y-88585714D02*
X67890476Y-89109523D01*
X67938095Y-89204761D01*
X68033333Y-89252380D01*
X68176190Y-89252380D01*
X68271428Y-89204761D01*
X68319047Y-89157142D01*
X68938095Y-89252380D02*
X68842857Y-89204761D01*
X68795238Y-89109523D01*
X68795238Y-88252380D01*
X69461904Y-89252380D02*
X69366666Y-89204761D01*
X69319047Y-89109523D01*
X69319047Y-88252380D01*
X66914285Y-91002380D02*
X66914285Y-90002380D01*
X66914285Y-90478571D02*
X67485714Y-90478571D01*
X67485714Y-91002380D02*
X67485714Y-90002380D01*
X68390476Y-91002380D02*
X68390476Y-90478571D01*
X68342857Y-90383333D01*
X68247619Y-90335714D01*
X68057142Y-90335714D01*
X67961904Y-90383333D01*
X68390476Y-90954761D02*
X68295238Y-91002380D01*
X68057142Y-91002380D01*
X67961904Y-90954761D01*
X67914285Y-90859523D01*
X67914285Y-90764285D01*
X67961904Y-90669047D01*
X68057142Y-90621428D01*
X68295238Y-90621428D01*
X68390476Y-90573809D01*
X69009523Y-91002380D02*
X68914285Y-90954761D01*
X68866666Y-90859523D01*
X68866666Y-90002380D01*
X69247619Y-90335714D02*
X69628571Y-90335714D01*
X69390476Y-91002380D02*
X69390476Y-90145238D01*
X69438095Y-90050000D01*
X69533333Y-90002380D01*
X69628571Y-90002380D01*
X67485714Y-92752380D02*
X66914285Y-92752380D01*
X67200000Y-92752380D02*
X67200000Y-91752380D01*
X67104761Y-91895238D01*
X67009523Y-91990476D01*
X66914285Y-92038095D01*
X68628571Y-91704761D02*
X67771428Y-92990476D01*
X69390476Y-92085714D02*
X69390476Y-92752380D01*
X69152380Y-91704761D02*
X68914285Y-92419047D01*
X69533333Y-92419047D01*
X67485714Y-94502380D02*
X66914285Y-94502380D01*
X67200000Y-94502380D02*
X67200000Y-93502380D01*
X67104761Y-93645238D01*
X67009523Y-93740476D01*
X66914285Y-93788095D01*
X68628571Y-93454761D02*
X67771428Y-94740476D01*
X69104761Y-93930952D02*
X69009523Y-93883333D01*
X68961904Y-93835714D01*
X68914285Y-93740476D01*
X68914285Y-93692857D01*
X68961904Y-93597619D01*
X69009523Y-93550000D01*
X69104761Y-93502380D01*
X69295238Y-93502380D01*
X69390476Y-93550000D01*
X69438095Y-93597619D01*
X69485714Y-93692857D01*
X69485714Y-93740476D01*
X69438095Y-93835714D01*
X69390476Y-93883333D01*
X69295238Y-93930952D01*
X69104761Y-93930952D01*
X69009523Y-93978571D01*
X68961904Y-94026190D01*
X68914285Y-94121428D01*
X68914285Y-94311904D01*
X68961904Y-94407142D01*
X69009523Y-94454761D01*
X69104761Y-94502380D01*
X69295238Y-94502380D01*
X69390476Y-94454761D01*
X69438095Y-94407142D01*
X69485714Y-94311904D01*
X69485714Y-94121428D01*
X69438095Y-94026190D01*
X69390476Y-93978571D01*
X69295238Y-93930952D01*
X67009523Y-96252380D02*
X66438095Y-96252380D01*
X66723809Y-96252380D02*
X66723809Y-95252380D01*
X66628571Y-95395238D01*
X66533333Y-95490476D01*
X66438095Y-95538095D01*
X68152380Y-95204761D02*
X67295238Y-96490476D01*
X69009523Y-96252380D02*
X68438095Y-96252380D01*
X68723809Y-96252380D02*
X68723809Y-95252380D01*
X68628571Y-95395238D01*
X68533333Y-95490476D01*
X68438095Y-95538095D01*
X69866666Y-95252380D02*
X69676190Y-95252380D01*
X69580952Y-95300000D01*
X69533333Y-95347619D01*
X69438095Y-95490476D01*
X69390476Y-95680952D01*
X69390476Y-96061904D01*
X69438095Y-96157142D01*
X69485714Y-96204761D01*
X69580952Y-96252380D01*
X69771428Y-96252380D01*
X69866666Y-96204761D01*
X69914285Y-96157142D01*
X69961904Y-96061904D01*
X69961904Y-95823809D01*
X69914285Y-95728571D01*
X69866666Y-95680952D01*
X69771428Y-95633333D01*
X69580952Y-95633333D01*
X69485714Y-95680952D01*
X69438095Y-95728571D01*
X69390476Y-95823809D01*
X67009523Y-98002380D02*
X66438095Y-98002380D01*
X66723809Y-98002380D02*
X66723809Y-97002380D01*
X66628571Y-97145238D01*
X66533333Y-97240476D01*
X66438095Y-97288095D01*
X68152380Y-96954761D02*
X67295238Y-98240476D01*
X68390476Y-97002380D02*
X69009523Y-97002380D01*
X68676190Y-97383333D01*
X68819047Y-97383333D01*
X68914285Y-97430952D01*
X68961904Y-97478571D01*
X69009523Y-97573809D01*
X69009523Y-97811904D01*
X68961904Y-97907142D01*
X68914285Y-97954761D01*
X68819047Y-98002380D01*
X68533333Y-98002380D01*
X68438095Y-97954761D01*
X68390476Y-97907142D01*
X69390476Y-97097619D02*
X69438095Y-97050000D01*
X69533333Y-97002380D01*
X69771428Y-97002380D01*
X69866666Y-97050000D01*
X69914285Y-97097619D01*
X69961904Y-97192857D01*
X69961904Y-97288095D01*
X69914285Y-97430952D01*
X69342857Y-98002380D01*
X69961904Y-98002380D01*
X63290476Y-87502380D02*
X63290476Y-86502380D01*
X63623809Y-87216666D01*
X63957142Y-86502380D01*
X63957142Y-87502380D01*
X64385714Y-86597619D02*
X64433333Y-86550000D01*
X64528571Y-86502380D01*
X64766666Y-86502380D01*
X64861904Y-86550000D01*
X64909523Y-86597619D01*
X64957142Y-86692857D01*
X64957142Y-86788095D01*
X64909523Y-86930952D01*
X64338095Y-87502380D01*
X64957142Y-87502380D01*
X64052380Y-88252380D02*
X64147619Y-88252380D01*
X64242857Y-88300000D01*
X64290476Y-88347619D01*
X64338095Y-88442857D01*
X64385714Y-88633333D01*
X64385714Y-88871428D01*
X64338095Y-89061904D01*
X64290476Y-89157142D01*
X64242857Y-89204761D01*
X64147619Y-89252380D01*
X64052380Y-89252380D01*
X63957142Y-89204761D01*
X63909523Y-89157142D01*
X63861904Y-89061904D01*
X63814285Y-88871428D01*
X63814285Y-88633333D01*
X63861904Y-88442857D01*
X63909523Y-88347619D01*
X63957142Y-88300000D01*
X64052380Y-88252380D01*
X64052380Y-90002380D02*
X64147619Y-90002380D01*
X64242857Y-90050000D01*
X64290476Y-90097619D01*
X64338095Y-90192857D01*
X64385714Y-90383333D01*
X64385714Y-90621428D01*
X64338095Y-90811904D01*
X64290476Y-90907142D01*
X64242857Y-90954761D01*
X64147619Y-91002380D01*
X64052380Y-91002380D01*
X63957142Y-90954761D01*
X63909523Y-90907142D01*
X63861904Y-90811904D01*
X63814285Y-90621428D01*
X63814285Y-90383333D01*
X63861904Y-90192857D01*
X63909523Y-90097619D01*
X63957142Y-90050000D01*
X64052380Y-90002380D01*
X64052380Y-91752380D02*
X64147619Y-91752380D01*
X64242857Y-91800000D01*
X64290476Y-91847619D01*
X64338095Y-91942857D01*
X64385714Y-92133333D01*
X64385714Y-92371428D01*
X64338095Y-92561904D01*
X64290476Y-92657142D01*
X64242857Y-92704761D01*
X64147619Y-92752380D01*
X64052380Y-92752380D01*
X63957142Y-92704761D01*
X63909523Y-92657142D01*
X63861904Y-92561904D01*
X63814285Y-92371428D01*
X63814285Y-92133333D01*
X63861904Y-91942857D01*
X63909523Y-91847619D01*
X63957142Y-91800000D01*
X64052380Y-91752380D01*
X64052380Y-93502380D02*
X64147619Y-93502380D01*
X64242857Y-93550000D01*
X64290476Y-93597619D01*
X64338095Y-93692857D01*
X64385714Y-93883333D01*
X64385714Y-94121428D01*
X64338095Y-94311904D01*
X64290476Y-94407142D01*
X64242857Y-94454761D01*
X64147619Y-94502380D01*
X64052380Y-94502380D01*
X63957142Y-94454761D01*
X63909523Y-94407142D01*
X63861904Y-94311904D01*
X63814285Y-94121428D01*
X63814285Y-93883333D01*
X63861904Y-93692857D01*
X63909523Y-93597619D01*
X63957142Y-93550000D01*
X64052380Y-93502380D01*
X64385714Y-96252380D02*
X63814285Y-96252380D01*
X64100000Y-96252380D02*
X64100000Y-95252380D01*
X64004761Y-95395238D01*
X63909523Y-95490476D01*
X63814285Y-95538095D01*
X64385714Y-98002380D02*
X63814285Y-98002380D01*
X64100000Y-98002380D02*
X64100000Y-97002380D01*
X64004761Y-97145238D01*
X63909523Y-97240476D01*
X63814285Y-97288095D01*
X59990476Y-87502380D02*
X59990476Y-86502380D01*
X60323809Y-87216666D01*
X60657142Y-86502380D01*
X60657142Y-87502380D01*
X61657142Y-87502380D02*
X61085714Y-87502380D01*
X61371428Y-87502380D02*
X61371428Y-86502380D01*
X61276190Y-86645238D01*
X61180952Y-86740476D01*
X61085714Y-86788095D01*
X60752380Y-88252380D02*
X60847619Y-88252380D01*
X60942857Y-88300000D01*
X60990476Y-88347619D01*
X61038095Y-88442857D01*
X61085714Y-88633333D01*
X61085714Y-88871428D01*
X61038095Y-89061904D01*
X60990476Y-89157142D01*
X60942857Y-89204761D01*
X60847619Y-89252380D01*
X60752380Y-89252380D01*
X60657142Y-89204761D01*
X60609523Y-89157142D01*
X60561904Y-89061904D01*
X60514285Y-88871428D01*
X60514285Y-88633333D01*
X60561904Y-88442857D01*
X60609523Y-88347619D01*
X60657142Y-88300000D01*
X60752380Y-88252380D01*
X60752380Y-90002380D02*
X60847619Y-90002380D01*
X60942857Y-90050000D01*
X60990476Y-90097619D01*
X61038095Y-90192857D01*
X61085714Y-90383333D01*
X61085714Y-90621428D01*
X61038095Y-90811904D01*
X60990476Y-90907142D01*
X60942857Y-90954761D01*
X60847619Y-91002380D01*
X60752380Y-91002380D01*
X60657142Y-90954761D01*
X60609523Y-90907142D01*
X60561904Y-90811904D01*
X60514285Y-90621428D01*
X60514285Y-90383333D01*
X60561904Y-90192857D01*
X60609523Y-90097619D01*
X60657142Y-90050000D01*
X60752380Y-90002380D01*
X61085714Y-92752380D02*
X60514285Y-92752380D01*
X60800000Y-92752380D02*
X60800000Y-91752380D01*
X60704761Y-91895238D01*
X60609523Y-91990476D01*
X60514285Y-92038095D01*
X61085714Y-94502380D02*
X60514285Y-94502380D01*
X60800000Y-94502380D02*
X60800000Y-93502380D01*
X60704761Y-93645238D01*
X60609523Y-93740476D01*
X60514285Y-93788095D01*
X60752380Y-95252380D02*
X60847619Y-95252380D01*
X60942857Y-95300000D01*
X60990476Y-95347619D01*
X61038095Y-95442857D01*
X61085714Y-95633333D01*
X61085714Y-95871428D01*
X61038095Y-96061904D01*
X60990476Y-96157142D01*
X60942857Y-96204761D01*
X60847619Y-96252380D01*
X60752380Y-96252380D01*
X60657142Y-96204761D01*
X60609523Y-96157142D01*
X60561904Y-96061904D01*
X60514285Y-95871428D01*
X60514285Y-95633333D01*
X60561904Y-95442857D01*
X60609523Y-95347619D01*
X60657142Y-95300000D01*
X60752380Y-95252380D01*
X60752380Y-97002380D02*
X60847619Y-97002380D01*
X60942857Y-97050000D01*
X60990476Y-97097619D01*
X61038095Y-97192857D01*
X61085714Y-97383333D01*
X61085714Y-97621428D01*
X61038095Y-97811904D01*
X60990476Y-97907142D01*
X60942857Y-97954761D01*
X60847619Y-98002380D01*
X60752380Y-98002380D01*
X60657142Y-97954761D01*
X60609523Y-97907142D01*
X60561904Y-97811904D01*
X60514285Y-97621428D01*
X60514285Y-97383333D01*
X60561904Y-97192857D01*
X60609523Y-97097619D01*
X60657142Y-97050000D01*
X60752380Y-97002380D01*
X56490476Y-87502380D02*
X56490476Y-86502380D01*
X56823809Y-87216666D01*
X57157142Y-86502380D01*
X57157142Y-87502380D01*
X57823809Y-86502380D02*
X57919047Y-86502380D01*
X58014285Y-86550000D01*
X58061904Y-86597619D01*
X58109523Y-86692857D01*
X58157142Y-86883333D01*
X58157142Y-87121428D01*
X58109523Y-87311904D01*
X58061904Y-87407142D01*
X58014285Y-87454761D01*
X57919047Y-87502380D01*
X57823809Y-87502380D01*
X57728571Y-87454761D01*
X57680952Y-87407142D01*
X57633333Y-87311904D01*
X57585714Y-87121428D01*
X57585714Y-86883333D01*
X57633333Y-86692857D01*
X57680952Y-86597619D01*
X57728571Y-86550000D01*
X57823809Y-86502380D01*
X57252380Y-88252380D02*
X57347619Y-88252380D01*
X57442857Y-88300000D01*
X57490476Y-88347619D01*
X57538095Y-88442857D01*
X57585714Y-88633333D01*
X57585714Y-88871428D01*
X57538095Y-89061904D01*
X57490476Y-89157142D01*
X57442857Y-89204761D01*
X57347619Y-89252380D01*
X57252380Y-89252380D01*
X57157142Y-89204761D01*
X57109523Y-89157142D01*
X57061904Y-89061904D01*
X57014285Y-88871428D01*
X57014285Y-88633333D01*
X57061904Y-88442857D01*
X57109523Y-88347619D01*
X57157142Y-88300000D01*
X57252380Y-88252380D01*
X57585714Y-91002380D02*
X57014285Y-91002380D01*
X57300000Y-91002380D02*
X57300000Y-90002380D01*
X57204761Y-90145238D01*
X57109523Y-90240476D01*
X57014285Y-90288095D01*
X57252380Y-91752380D02*
X57347619Y-91752380D01*
X57442857Y-91800000D01*
X57490476Y-91847619D01*
X57538095Y-91942857D01*
X57585714Y-92133333D01*
X57585714Y-92371428D01*
X57538095Y-92561904D01*
X57490476Y-92657142D01*
X57442857Y-92704761D01*
X57347619Y-92752380D01*
X57252380Y-92752380D01*
X57157142Y-92704761D01*
X57109523Y-92657142D01*
X57061904Y-92561904D01*
X57014285Y-92371428D01*
X57014285Y-92133333D01*
X57061904Y-91942857D01*
X57109523Y-91847619D01*
X57157142Y-91800000D01*
X57252380Y-91752380D01*
X57585714Y-94502380D02*
X57014285Y-94502380D01*
X57300000Y-94502380D02*
X57300000Y-93502380D01*
X57204761Y-93645238D01*
X57109523Y-93740476D01*
X57014285Y-93788095D01*
X57252380Y-95252380D02*
X57347619Y-95252380D01*
X57442857Y-95300000D01*
X57490476Y-95347619D01*
X57538095Y-95442857D01*
X57585714Y-95633333D01*
X57585714Y-95871428D01*
X57538095Y-96061904D01*
X57490476Y-96157142D01*
X57442857Y-96204761D01*
X57347619Y-96252380D01*
X57252380Y-96252380D01*
X57157142Y-96204761D01*
X57109523Y-96157142D01*
X57061904Y-96061904D01*
X57014285Y-95871428D01*
X57014285Y-95633333D01*
X57061904Y-95442857D01*
X57109523Y-95347619D01*
X57157142Y-95300000D01*
X57252380Y-95252380D01*
X57585714Y-98002380D02*
X57014285Y-98002380D01*
X57300000Y-98002380D02*
X57300000Y-97002380D01*
X57204761Y-97145238D01*
X57109523Y-97240476D01*
X57014285Y-97288095D01*
D11*
X39242857Y-96978571D02*
X38742857Y-96264285D01*
X38385714Y-96978571D02*
X38385714Y-95478571D01*
X38957142Y-95478571D01*
X39100000Y-95550000D01*
X39171428Y-95621428D01*
X39242857Y-95764285D01*
X39242857Y-95978571D01*
X39171428Y-96121428D01*
X39100000Y-96192857D01*
X38957142Y-96264285D01*
X38385714Y-96264285D01*
X39671428Y-95478571D02*
X40528571Y-95478571D01*
X40100000Y-96978571D02*
X40100000Y-95478571D01*
X41885714Y-96835714D02*
X41814285Y-96907142D01*
X41600000Y-96978571D01*
X41457142Y-96978571D01*
X41242857Y-96907142D01*
X41100000Y-96764285D01*
X41028571Y-96621428D01*
X40957142Y-96335714D01*
X40957142Y-96121428D01*
X41028571Y-95835714D01*
X41100000Y-95692857D01*
X41242857Y-95550000D01*
X41457142Y-95478571D01*
X41600000Y-95478571D01*
X41814285Y-95550000D01*
X41885714Y-95621428D01*
X29635714Y-62978571D02*
X29707142Y-63050000D01*
X29778571Y-63264285D01*
X29778571Y-63407142D01*
X29707142Y-63621428D01*
X29564285Y-63764285D01*
X29421428Y-63835714D01*
X29135714Y-63907142D01*
X28921428Y-63907142D01*
X28635714Y-63835714D01*
X28492857Y-63764285D01*
X28350000Y-63621428D01*
X28278571Y-63407142D01*
X28278571Y-63264285D01*
X28350000Y-63050000D01*
X28421428Y-62978571D01*
X29778571Y-62121428D02*
X29707142Y-62264285D01*
X29635714Y-62335714D01*
X29492857Y-62407142D01*
X29064285Y-62407142D01*
X28921428Y-62335714D01*
X28850000Y-62264285D01*
X28778571Y-62121428D01*
X28778571Y-61907142D01*
X28850000Y-61764285D01*
X28921428Y-61692857D01*
X29064285Y-61621428D01*
X29492857Y-61621428D01*
X29635714Y-61692857D01*
X29707142Y-61764285D01*
X29778571Y-61907142D01*
X29778571Y-62121428D01*
X28778571Y-60978571D02*
X29778571Y-60978571D01*
X28921428Y-60978571D02*
X28850000Y-60907142D01*
X28778571Y-60764285D01*
X28778571Y-60550000D01*
X28850000Y-60407142D01*
X28992857Y-60335714D01*
X29778571Y-60335714D01*
X28778571Y-59835714D02*
X28778571Y-59264285D01*
X28278571Y-59621428D02*
X29564285Y-59621428D01*
X29707142Y-59550000D01*
X29778571Y-59407142D01*
X29778571Y-59264285D01*
X29778571Y-58764285D02*
X28778571Y-58764285D01*
X29064285Y-58764285D02*
X28921428Y-58692857D01*
X28850000Y-58621428D01*
X28778571Y-58478571D01*
X28778571Y-58335714D01*
X29778571Y-57621428D02*
X29707142Y-57764285D01*
X29635714Y-57835714D01*
X29492857Y-57907142D01*
X29064285Y-57907142D01*
X28921428Y-57835714D01*
X28850000Y-57764285D01*
X28778571Y-57621428D01*
X28778571Y-57407142D01*
X28850000Y-57264285D01*
X28921428Y-57192857D01*
X29064285Y-57121428D01*
X29492857Y-57121428D01*
X29635714Y-57192857D01*
X29707142Y-57264285D01*
X29778571Y-57407142D01*
X29778571Y-57621428D01*
X29778571Y-56264285D02*
X29707142Y-56407142D01*
X29564285Y-56478571D01*
X28278571Y-56478571D01*
X28992857Y-54050000D02*
X29064285Y-53835714D01*
X29135714Y-53764285D01*
X29278571Y-53692857D01*
X29492857Y-53692857D01*
X29635714Y-53764285D01*
X29707142Y-53835714D01*
X29778571Y-53978571D01*
X29778571Y-54550000D01*
X28278571Y-54550000D01*
X28278571Y-54050000D01*
X28350000Y-53907142D01*
X28421428Y-53835714D01*
X28564285Y-53764285D01*
X28707142Y-53764285D01*
X28850000Y-53835714D01*
X28921428Y-53907142D01*
X28992857Y-54050000D01*
X28992857Y-54550000D01*
X29778571Y-52835714D02*
X29707142Y-52978571D01*
X29635714Y-53050000D01*
X29492857Y-53121428D01*
X29064285Y-53121428D01*
X28921428Y-53050000D01*
X28850000Y-52978571D01*
X28778571Y-52835714D01*
X28778571Y-52621428D01*
X28850000Y-52478571D01*
X28921428Y-52407142D01*
X29064285Y-52335714D01*
X29492857Y-52335714D01*
X29635714Y-52407142D01*
X29707142Y-52478571D01*
X29778571Y-52621428D01*
X29778571Y-52835714D01*
X29778571Y-51835714D02*
X28778571Y-51050000D01*
X28778571Y-51835714D02*
X29778571Y-51050000D01*
X29635714Y-48478571D02*
X29707142Y-48550000D01*
X29778571Y-48764285D01*
X29778571Y-48907142D01*
X29707142Y-49121428D01*
X29564285Y-49264285D01*
X29421428Y-49335714D01*
X29135714Y-49407142D01*
X28921428Y-49407142D01*
X28635714Y-49335714D01*
X28492857Y-49264285D01*
X28350000Y-49121428D01*
X28278571Y-48907142D01*
X28278571Y-48764285D01*
X28350000Y-48550000D01*
X28421428Y-48478571D01*
X29778571Y-47621428D02*
X29707142Y-47764285D01*
X29635714Y-47835714D01*
X29492857Y-47907142D01*
X29064285Y-47907142D01*
X28921428Y-47835714D01*
X28850000Y-47764285D01*
X28778571Y-47621428D01*
X28778571Y-47407142D01*
X28850000Y-47264285D01*
X28921428Y-47192857D01*
X29064285Y-47121428D01*
X29492857Y-47121428D01*
X29635714Y-47192857D01*
X29707142Y-47264285D01*
X29778571Y-47407142D01*
X29778571Y-47621428D01*
X28778571Y-46478571D02*
X29778571Y-46478571D01*
X28921428Y-46478571D02*
X28850000Y-46407142D01*
X28778571Y-46264285D01*
X28778571Y-46050000D01*
X28850000Y-45907142D01*
X28992857Y-45835714D01*
X29778571Y-45835714D01*
X28778571Y-45121428D02*
X29778571Y-45121428D01*
X28921428Y-45121428D02*
X28850000Y-45050000D01*
X28778571Y-44907142D01*
X28778571Y-44692857D01*
X28850000Y-44550000D01*
X28992857Y-44478571D01*
X29778571Y-44478571D01*
X29707142Y-43192857D02*
X29778571Y-43335714D01*
X29778571Y-43621428D01*
X29707142Y-43764285D01*
X29564285Y-43835714D01*
X28992857Y-43835714D01*
X28850000Y-43764285D01*
X28778571Y-43621428D01*
X28778571Y-43335714D01*
X28850000Y-43192857D01*
X28992857Y-43121428D01*
X29135714Y-43121428D01*
X29278571Y-43835714D01*
X29707142Y-41835714D02*
X29778571Y-41978571D01*
X29778571Y-42264285D01*
X29707142Y-42407142D01*
X29635714Y-42478571D01*
X29492857Y-42550000D01*
X29064285Y-42550000D01*
X28921428Y-42478571D01*
X28850000Y-42407142D01*
X28778571Y-42264285D01*
X28778571Y-41978571D01*
X28850000Y-41835714D01*
X28778571Y-41407142D02*
X28778571Y-40835714D01*
X28278571Y-41192857D02*
X29564285Y-41192857D01*
X29707142Y-41121428D01*
X29778571Y-40978571D01*
X29778571Y-40835714D01*
X29778571Y-40121428D02*
X29707142Y-40264285D01*
X29635714Y-40335714D01*
X29492857Y-40407142D01*
X29064285Y-40407142D01*
X28921428Y-40335714D01*
X28850000Y-40264285D01*
X28778571Y-40121428D01*
X28778571Y-39907142D01*
X28850000Y-39764285D01*
X28921428Y-39692857D01*
X29064285Y-39621428D01*
X29492857Y-39621428D01*
X29635714Y-39692857D01*
X29707142Y-39764285D01*
X29778571Y-39907142D01*
X29778571Y-40121428D01*
X29778571Y-38978571D02*
X28778571Y-38978571D01*
X29064285Y-38978571D02*
X28921428Y-38907142D01*
X28850000Y-38835714D01*
X28778571Y-38692857D01*
X28778571Y-38549999D01*
X56957142Y-66378571D02*
X56457142Y-65664285D01*
X56100000Y-66378571D02*
X56100000Y-64878571D01*
X56671428Y-64878571D01*
X56814285Y-64950000D01*
X56885714Y-65021428D01*
X56957142Y-65164285D01*
X56957142Y-65378571D01*
X56885714Y-65521428D01*
X56814285Y-65592857D01*
X56671428Y-65664285D01*
X56100000Y-65664285D01*
X58385714Y-64950000D02*
X58242857Y-64878571D01*
X58028571Y-64878571D01*
X57814285Y-64950000D01*
X57671428Y-65092857D01*
X57600000Y-65235714D01*
X57528571Y-65521428D01*
X57528571Y-65735714D01*
X57600000Y-66021428D01*
X57671428Y-66164285D01*
X57814285Y-66307142D01*
X58028571Y-66378571D01*
X58171428Y-66378571D01*
X58385714Y-66307142D01*
X58457142Y-66235714D01*
X58457142Y-65735714D01*
X58171428Y-65735714D01*
X59600000Y-65592857D02*
X59814285Y-65664285D01*
X59885714Y-65735714D01*
X59957142Y-65878571D01*
X59957142Y-66092857D01*
X59885714Y-66235714D01*
X59814285Y-66307142D01*
X59671428Y-66378571D01*
X59100000Y-66378571D01*
X59100000Y-64878571D01*
X59600000Y-64878571D01*
X59742857Y-64950000D01*
X59814285Y-65021428D01*
X59885714Y-65164285D01*
X59885714Y-65307142D01*
X59814285Y-65450000D01*
X59742857Y-65521428D01*
X59600000Y-65592857D01*
X59100000Y-65592857D01*
X62457142Y-66378571D02*
X61742857Y-66378571D01*
X61742857Y-64878571D01*
X62957142Y-65592857D02*
X63457142Y-65592857D01*
X63671428Y-66378571D02*
X62957142Y-66378571D01*
X62957142Y-64878571D01*
X63671428Y-64878571D01*
X64314285Y-66378571D02*
X64314285Y-64878571D01*
X64671428Y-64878571D01*
X64885714Y-64950000D01*
X65028571Y-65092857D01*
X65100000Y-65235714D01*
X65171428Y-65521428D01*
X65171428Y-65735714D01*
X65100000Y-66021428D01*
X65028571Y-66164285D01*
X64885714Y-66307142D01*
X64671428Y-66378571D01*
X64314285Y-66378571D01*
X66885714Y-66307142D02*
X67100000Y-66378571D01*
X67457142Y-66378571D01*
X67600000Y-66307142D01*
X67671428Y-66235714D01*
X67742857Y-66092857D01*
X67742857Y-65950000D01*
X67671428Y-65807142D01*
X67600000Y-65735714D01*
X67457142Y-65664285D01*
X67171428Y-65592857D01*
X67028571Y-65521428D01*
X66957142Y-65450000D01*
X66885714Y-65307142D01*
X66885714Y-65164285D01*
X66957142Y-65021428D01*
X67028571Y-64950000D01*
X67171428Y-64878571D01*
X67528571Y-64878571D01*
X67742857Y-64950000D01*
X68171428Y-65378571D02*
X68742857Y-65378571D01*
X68385714Y-64878571D02*
X68385714Y-66164285D01*
X68457142Y-66307142D01*
X68600000Y-66378571D01*
X68742857Y-66378571D01*
X69242857Y-66378571D02*
X69242857Y-65378571D01*
X69242857Y-65664285D02*
X69314285Y-65521428D01*
X69385714Y-65450000D01*
X69528571Y-65378571D01*
X69671428Y-65378571D01*
X70171428Y-66378571D02*
X70171428Y-65378571D01*
X70171428Y-64878571D02*
X70100000Y-64950000D01*
X70171428Y-65021428D01*
X70242857Y-64950000D01*
X70171428Y-64878571D01*
X70171428Y-65021428D01*
X70885714Y-65378571D02*
X70885714Y-66878571D01*
X70885714Y-65450000D02*
X71028571Y-65378571D01*
X71314285Y-65378571D01*
X71457142Y-65450000D01*
X71528571Y-65521428D01*
X71600000Y-65664285D01*
X71600000Y-66092857D01*
X71528571Y-66235714D01*
X71457142Y-66307142D01*
X71314285Y-66378571D01*
X71028571Y-66378571D01*
X70885714Y-66307142D01*
X73242857Y-64878571D02*
X74171428Y-64878571D01*
X73671428Y-65450000D01*
X73885714Y-65450000D01*
X74028571Y-65521428D01*
X74100000Y-65592857D01*
X74171428Y-65735714D01*
X74171428Y-66092857D01*
X74100000Y-66235714D01*
X74028571Y-66307142D01*
X73885714Y-66378571D01*
X73457142Y-66378571D01*
X73314285Y-66307142D01*
X73242857Y-66235714D01*
X57257142Y-54078571D02*
X56757142Y-53364285D01*
X56400000Y-54078571D02*
X56400000Y-52578571D01*
X56971428Y-52578571D01*
X57114285Y-52650000D01*
X57185714Y-52721428D01*
X57257142Y-52864285D01*
X57257142Y-53078571D01*
X57185714Y-53221428D01*
X57114285Y-53292857D01*
X56971428Y-53364285D01*
X56400000Y-53364285D01*
X58685714Y-52650000D02*
X58542857Y-52578571D01*
X58328571Y-52578571D01*
X58114285Y-52650000D01*
X57971428Y-52792857D01*
X57900000Y-52935714D01*
X57828571Y-53221428D01*
X57828571Y-53435714D01*
X57900000Y-53721428D01*
X57971428Y-53864285D01*
X58114285Y-54007142D01*
X58328571Y-54078571D01*
X58471428Y-54078571D01*
X58685714Y-54007142D01*
X58757142Y-53935714D01*
X58757142Y-53435714D01*
X58471428Y-53435714D01*
X59900000Y-53292857D02*
X60114285Y-53364285D01*
X60185714Y-53435714D01*
X60257142Y-53578571D01*
X60257142Y-53792857D01*
X60185714Y-53935714D01*
X60114285Y-54007142D01*
X59971428Y-54078571D01*
X59400000Y-54078571D01*
X59400000Y-52578571D01*
X59900000Y-52578571D01*
X60042857Y-52650000D01*
X60114285Y-52721428D01*
X60185714Y-52864285D01*
X60185714Y-53007142D01*
X60114285Y-53150000D01*
X60042857Y-53221428D01*
X59900000Y-53292857D01*
X59400000Y-53292857D01*
X62757142Y-54078571D02*
X62042857Y-54078571D01*
X62042857Y-52578571D01*
X63257142Y-53292857D02*
X63757142Y-53292857D01*
X63971428Y-54078571D02*
X63257142Y-54078571D01*
X63257142Y-52578571D01*
X63971428Y-52578571D01*
X64614285Y-54078571D02*
X64614285Y-52578571D01*
X64971428Y-52578571D01*
X65185714Y-52650000D01*
X65328571Y-52792857D01*
X65400000Y-52935714D01*
X65471428Y-53221428D01*
X65471428Y-53435714D01*
X65400000Y-53721428D01*
X65328571Y-53864285D01*
X65185714Y-54007142D01*
X64971428Y-54078571D01*
X64614285Y-54078571D01*
X67185714Y-54007142D02*
X67400000Y-54078571D01*
X67757142Y-54078571D01*
X67900000Y-54007142D01*
X67971428Y-53935714D01*
X68042857Y-53792857D01*
X68042857Y-53650000D01*
X67971428Y-53507142D01*
X67900000Y-53435714D01*
X67757142Y-53364285D01*
X67471428Y-53292857D01*
X67328571Y-53221428D01*
X67257142Y-53150000D01*
X67185714Y-53007142D01*
X67185714Y-52864285D01*
X67257142Y-52721428D01*
X67328571Y-52650000D01*
X67471428Y-52578571D01*
X67828571Y-52578571D01*
X68042857Y-52650000D01*
X68471428Y-53078571D02*
X69042857Y-53078571D01*
X68685714Y-52578571D02*
X68685714Y-53864285D01*
X68757142Y-54007142D01*
X68900000Y-54078571D01*
X69042857Y-54078571D01*
X69542857Y-54078571D02*
X69542857Y-53078571D01*
X69542857Y-53364285D02*
X69614285Y-53221428D01*
X69685714Y-53150000D01*
X69828571Y-53078571D01*
X69971428Y-53078571D01*
X70471428Y-54078571D02*
X70471428Y-53078571D01*
X70471428Y-52578571D02*
X70400000Y-52650000D01*
X70471428Y-52721428D01*
X70542857Y-52650000D01*
X70471428Y-52578571D01*
X70471428Y-52721428D01*
X71185714Y-53078571D02*
X71185714Y-54578571D01*
X71185714Y-53150000D02*
X71328571Y-53078571D01*
X71614285Y-53078571D01*
X71757142Y-53150000D01*
X71828571Y-53221428D01*
X71900000Y-53364285D01*
X71900000Y-53792857D01*
X71828571Y-53935714D01*
X71757142Y-54007142D01*
X71614285Y-54078571D01*
X71328571Y-54078571D01*
X71185714Y-54007142D01*
X73614285Y-52721428D02*
X73685714Y-52650000D01*
X73828571Y-52578571D01*
X74185714Y-52578571D01*
X74328571Y-52650000D01*
X74400000Y-52721428D01*
X74471428Y-52864285D01*
X74471428Y-53007142D01*
X74400000Y-53221428D01*
X73542857Y-54078571D01*
X74471428Y-54078571D01*
X57257142Y-42978571D02*
X56757142Y-42264285D01*
X56400000Y-42978571D02*
X56400000Y-41478571D01*
X56971428Y-41478571D01*
X57114285Y-41550000D01*
X57185714Y-41621428D01*
X57257142Y-41764285D01*
X57257142Y-41978571D01*
X57185714Y-42121428D01*
X57114285Y-42192857D01*
X56971428Y-42264285D01*
X56400000Y-42264285D01*
X58685714Y-41550000D02*
X58542857Y-41478571D01*
X58328571Y-41478571D01*
X58114285Y-41550000D01*
X57971428Y-41692857D01*
X57900000Y-41835714D01*
X57828571Y-42121428D01*
X57828571Y-42335714D01*
X57900000Y-42621428D01*
X57971428Y-42764285D01*
X58114285Y-42907142D01*
X58328571Y-42978571D01*
X58471428Y-42978571D01*
X58685714Y-42907142D01*
X58757142Y-42835714D01*
X58757142Y-42335714D01*
X58471428Y-42335714D01*
X59900000Y-42192857D02*
X60114285Y-42264285D01*
X60185714Y-42335714D01*
X60257142Y-42478571D01*
X60257142Y-42692857D01*
X60185714Y-42835714D01*
X60114285Y-42907142D01*
X59971428Y-42978571D01*
X59400000Y-42978571D01*
X59400000Y-41478571D01*
X59900000Y-41478571D01*
X60042857Y-41550000D01*
X60114285Y-41621428D01*
X60185714Y-41764285D01*
X60185714Y-41907142D01*
X60114285Y-42050000D01*
X60042857Y-42121428D01*
X59900000Y-42192857D01*
X59400000Y-42192857D01*
X62757142Y-42978571D02*
X62042857Y-42978571D01*
X62042857Y-41478571D01*
X63257142Y-42192857D02*
X63757142Y-42192857D01*
X63971428Y-42978571D02*
X63257142Y-42978571D01*
X63257142Y-41478571D01*
X63971428Y-41478571D01*
X64614285Y-42978571D02*
X64614285Y-41478571D01*
X64971428Y-41478571D01*
X65185714Y-41550000D01*
X65328571Y-41692857D01*
X65400000Y-41835714D01*
X65471428Y-42121428D01*
X65471428Y-42335714D01*
X65400000Y-42621428D01*
X65328571Y-42764285D01*
X65185714Y-42907142D01*
X64971428Y-42978571D01*
X64614285Y-42978571D01*
X67185714Y-42907142D02*
X67400000Y-42978571D01*
X67757142Y-42978571D01*
X67900000Y-42907142D01*
X67971428Y-42835714D01*
X68042857Y-42692857D01*
X68042857Y-42550000D01*
X67971428Y-42407142D01*
X67900000Y-42335714D01*
X67757142Y-42264285D01*
X67471428Y-42192857D01*
X67328571Y-42121428D01*
X67257142Y-42050000D01*
X67185714Y-41907142D01*
X67185714Y-41764285D01*
X67257142Y-41621428D01*
X67328571Y-41550000D01*
X67471428Y-41478571D01*
X67828571Y-41478571D01*
X68042857Y-41550000D01*
X68471428Y-41978571D02*
X69042857Y-41978571D01*
X68685714Y-41478571D02*
X68685714Y-42764285D01*
X68757142Y-42907142D01*
X68900000Y-42978571D01*
X69042857Y-42978571D01*
X69542857Y-42978571D02*
X69542857Y-41978571D01*
X69542857Y-42264285D02*
X69614285Y-42121428D01*
X69685714Y-42050000D01*
X69828571Y-41978571D01*
X69971428Y-41978571D01*
X70471428Y-42978571D02*
X70471428Y-41978571D01*
X70471428Y-41478571D02*
X70400000Y-41550000D01*
X70471428Y-41621428D01*
X70542857Y-41550000D01*
X70471428Y-41478571D01*
X70471428Y-41621428D01*
X71185714Y-41978571D02*
X71185714Y-43478571D01*
X71185714Y-42050000D02*
X71328571Y-41978571D01*
X71614285Y-41978571D01*
X71757142Y-42050000D01*
X71828571Y-42121428D01*
X71900000Y-42264285D01*
X71900000Y-42692857D01*
X71828571Y-42835714D01*
X71757142Y-42907142D01*
X71614285Y-42978571D01*
X71328571Y-42978571D01*
X71185714Y-42907142D01*
X74471428Y-42978571D02*
X73614285Y-42978571D01*
X74042857Y-42978571D02*
X74042857Y-41478571D01*
X73900000Y-41692857D01*
X73757142Y-41835714D01*
X73614285Y-41907142D01*
X107278571Y-68428571D02*
X105778571Y-68428571D01*
X106850000Y-67928571D01*
X105778571Y-67428571D01*
X107278571Y-67428571D01*
X107278571Y-66071428D02*
X106492857Y-66071428D01*
X106350000Y-66142857D01*
X106278571Y-66285714D01*
X106278571Y-66571428D01*
X106350000Y-66714285D01*
X107207142Y-66071428D02*
X107278571Y-66214285D01*
X107278571Y-66571428D01*
X107207142Y-66714285D01*
X107064285Y-66785714D01*
X106921428Y-66785714D01*
X106778571Y-66714285D01*
X106707142Y-66571428D01*
X106707142Y-66214285D01*
X106635714Y-66071428D01*
X106278571Y-65571428D02*
X106278571Y-65000000D01*
X105778571Y-65357142D02*
X107064285Y-65357142D01*
X107207142Y-65285714D01*
X107278571Y-65142857D01*
X107278571Y-65000000D01*
X107278571Y-64500000D02*
X106278571Y-64500000D01*
X106564285Y-64500000D02*
X106421428Y-64428571D01*
X106350000Y-64357142D01*
X106278571Y-64214285D01*
X106278571Y-64071428D01*
X107278571Y-63571428D02*
X106278571Y-63571428D01*
X105778571Y-63571428D02*
X105850000Y-63642857D01*
X105921428Y-63571428D01*
X105850000Y-63500000D01*
X105778571Y-63571428D01*
X105921428Y-63571428D01*
X107278571Y-63000000D02*
X106278571Y-62214285D01*
X106278571Y-63000000D02*
X107278571Y-62214285D01*
X107278571Y-60500000D02*
X105778571Y-60500000D01*
X105778571Y-59928571D01*
X105850000Y-59785714D01*
X105921428Y-59714285D01*
X106064285Y-59642857D01*
X106278571Y-59642857D01*
X106421428Y-59714285D01*
X106492857Y-59785714D01*
X106564285Y-59928571D01*
X106564285Y-60500000D01*
X107278571Y-58785714D02*
X107207142Y-58928571D01*
X107135714Y-59000000D01*
X106992857Y-59071428D01*
X106564285Y-59071428D01*
X106421428Y-59000000D01*
X106350000Y-58928571D01*
X106278571Y-58785714D01*
X106278571Y-58571428D01*
X106350000Y-58428571D01*
X106421428Y-58357142D01*
X106564285Y-58285714D01*
X106992857Y-58285714D01*
X107135714Y-58357142D01*
X107207142Y-58428571D01*
X107278571Y-58571428D01*
X107278571Y-58785714D01*
X106278571Y-57785714D02*
X107278571Y-57500000D01*
X106564285Y-57214285D01*
X107278571Y-56928571D01*
X106278571Y-56642857D01*
X107207142Y-55500000D02*
X107278571Y-55642857D01*
X107278571Y-55928571D01*
X107207142Y-56071428D01*
X107064285Y-56142857D01*
X106492857Y-56142857D01*
X106350000Y-56071428D01*
X106278571Y-55928571D01*
X106278571Y-55642857D01*
X106350000Y-55500000D01*
X106492857Y-55428571D01*
X106635714Y-55428571D01*
X106778571Y-56142857D01*
X107278571Y-54785714D02*
X106278571Y-54785714D01*
X106564285Y-54785714D02*
X106421428Y-54714285D01*
X106350000Y-54642857D01*
X106278571Y-54500000D01*
X106278571Y-54357142D01*
X81150000Y-60628571D02*
X81150000Y-59914285D01*
X81578571Y-60771428D02*
X80078571Y-60271428D01*
X81578571Y-59771428D01*
X80078571Y-59485714D02*
X80078571Y-58628571D01*
X81578571Y-59057142D02*
X80078571Y-59057142D01*
X80078571Y-58271428D02*
X81578571Y-57271428D01*
X80078571Y-57271428D02*
X81578571Y-58271428D01*
X81578571Y-55557142D02*
X80078571Y-55557142D01*
X80078571Y-54985714D01*
X80150000Y-54842857D01*
X80221428Y-54771428D01*
X80364285Y-54700000D01*
X80578571Y-54700000D01*
X80721428Y-54771428D01*
X80792857Y-54842857D01*
X80864285Y-54985714D01*
X80864285Y-55557142D01*
X81578571Y-53842857D02*
X81507142Y-53985714D01*
X81435714Y-54057142D01*
X81292857Y-54128571D01*
X80864285Y-54128571D01*
X80721428Y-54057142D01*
X80650000Y-53985714D01*
X80578571Y-53842857D01*
X80578571Y-53628571D01*
X80650000Y-53485714D01*
X80721428Y-53414285D01*
X80864285Y-53342857D01*
X81292857Y-53342857D01*
X81435714Y-53414285D01*
X81507142Y-53485714D01*
X81578571Y-53628571D01*
X81578571Y-53842857D01*
X80578571Y-52842857D02*
X81578571Y-52557142D01*
X80864285Y-52271428D01*
X81578571Y-51985714D01*
X80578571Y-51700000D01*
X81507142Y-50557142D02*
X81578571Y-50700000D01*
X81578571Y-50985714D01*
X81507142Y-51128571D01*
X81364285Y-51200000D01*
X80792857Y-51200000D01*
X80650000Y-51128571D01*
X80578571Y-50985714D01*
X80578571Y-50700000D01*
X80650000Y-50557142D01*
X80792857Y-50485714D01*
X80935714Y-50485714D01*
X81078571Y-51200000D01*
X81578571Y-49842857D02*
X80578571Y-49842857D01*
X80864285Y-49842857D02*
X80721428Y-49771428D01*
X80650000Y-49700000D01*
X80578571Y-49557142D01*
X80578571Y-49414285D01*
X81578571Y-47771428D02*
X80078571Y-47771428D01*
X80578571Y-47057142D02*
X81578571Y-47057142D01*
X80721428Y-47057142D02*
X80650000Y-46985714D01*
X80578571Y-46842857D01*
X80578571Y-46628571D01*
X80650000Y-46485714D01*
X80792857Y-46414285D01*
X81578571Y-46414285D01*
X80578571Y-45700000D02*
X82078571Y-45700000D01*
X80650000Y-45700000D02*
X80578571Y-45557142D01*
X80578571Y-45271428D01*
X80650000Y-45128571D01*
X80721428Y-45057142D01*
X80864285Y-44985714D01*
X81292857Y-44985714D01*
X81435714Y-45057142D01*
X81507142Y-45128571D01*
X81578571Y-45271428D01*
X81578571Y-45557142D01*
X81507142Y-45700000D01*
X80578571Y-43700000D02*
X81578571Y-43700000D01*
X80578571Y-44342857D02*
X81364285Y-44342857D01*
X81507142Y-44271428D01*
X81578571Y-44128571D01*
X81578571Y-43914285D01*
X81507142Y-43771428D01*
X81435714Y-43700000D01*
X80578571Y-43200000D02*
X80578571Y-42628571D01*
X80078571Y-42985714D02*
X81364285Y-42985714D01*
X81507142Y-42914285D01*
X81578571Y-42771428D01*
X81578571Y-42628571D01*
X105778571Y-50921428D02*
X105778571Y-49992857D01*
X106350000Y-50492857D01*
X106350000Y-50278571D01*
X106421428Y-50135714D01*
X106492857Y-50064285D01*
X106635714Y-49992857D01*
X106992857Y-49992857D01*
X107135714Y-50064285D01*
X107207142Y-50135714D01*
X107278571Y-50278571D01*
X107278571Y-50707142D01*
X107207142Y-50850000D01*
X107135714Y-50921428D01*
X105921428Y-49421428D02*
X105850000Y-49350000D01*
X105778571Y-49207142D01*
X105778571Y-48850000D01*
X105850000Y-48707142D01*
X105921428Y-48635714D01*
X106064285Y-48564285D01*
X106207142Y-48564285D01*
X106421428Y-48635714D01*
X107278571Y-49492857D01*
X107278571Y-48564285D01*
X107278571Y-48064285D02*
X106278571Y-47278571D01*
X106278571Y-48064285D02*
X107278571Y-47278571D01*
X105778571Y-46064285D02*
X105778571Y-46350000D01*
X105850000Y-46492857D01*
X105921428Y-46564285D01*
X106135714Y-46707142D01*
X106421428Y-46778571D01*
X106992857Y-46778571D01*
X107135714Y-46707142D01*
X107207142Y-46635714D01*
X107278571Y-46492857D01*
X107278571Y-46207142D01*
X107207142Y-46064285D01*
X107135714Y-45992857D01*
X106992857Y-45921428D01*
X106635714Y-45921428D01*
X106492857Y-45992857D01*
X106421428Y-46064285D01*
X106350000Y-46207142D01*
X106350000Y-46492857D01*
X106421428Y-46635714D01*
X106492857Y-46707142D01*
X106635714Y-46778571D01*
X106278571Y-44635714D02*
X107278571Y-44635714D01*
X105707142Y-44992857D02*
X106778571Y-45350000D01*
X106778571Y-44421428D01*
X107278571Y-41992857D02*
X107278571Y-42707142D01*
X105778571Y-42707142D01*
X106492857Y-41492857D02*
X106492857Y-40992857D01*
X107278571Y-40778571D02*
X107278571Y-41492857D01*
X105778571Y-41492857D01*
X105778571Y-40778571D01*
X107278571Y-40135714D02*
X105778571Y-40135714D01*
X105778571Y-39778571D01*
X105850000Y-39564285D01*
X105992857Y-39421428D01*
X106135714Y-39350000D01*
X106421428Y-39278571D01*
X106635714Y-39278571D01*
X106921428Y-39350000D01*
X107064285Y-39421428D01*
X107207142Y-39564285D01*
X107278571Y-39778571D01*
X107278571Y-40135714D01*
X107278571Y-37492857D02*
X105778571Y-37492857D01*
X106850000Y-36992857D01*
X105778571Y-36492857D01*
X107278571Y-36492857D01*
X107278571Y-35135714D02*
X106492857Y-35135714D01*
X106350000Y-35207142D01*
X106278571Y-35350000D01*
X106278571Y-35635714D01*
X106350000Y-35778571D01*
X107207142Y-35135714D02*
X107278571Y-35278571D01*
X107278571Y-35635714D01*
X107207142Y-35778571D01*
X107064285Y-35850000D01*
X106921428Y-35850000D01*
X106778571Y-35778571D01*
X106707142Y-35635714D01*
X106707142Y-35278571D01*
X106635714Y-35135714D01*
X106278571Y-34635714D02*
X106278571Y-34064285D01*
X105778571Y-34421428D02*
X107064285Y-34421428D01*
X107207142Y-34350000D01*
X107278571Y-34207142D01*
X107278571Y-34064285D01*
X107278571Y-33564285D02*
X106278571Y-33564285D01*
X106564285Y-33564285D02*
X106421428Y-33492857D01*
X106350000Y-33421428D01*
X106278571Y-33278571D01*
X106278571Y-33135714D01*
X107278571Y-32635714D02*
X106278571Y-32635714D01*
X105778571Y-32635714D02*
X105850000Y-32707142D01*
X105921428Y-32635714D01*
X105850000Y-32564285D01*
X105778571Y-32635714D01*
X105921428Y-32635714D01*
X107278571Y-32064285D02*
X106278571Y-31278571D01*
X106278571Y-32064285D02*
X107278571Y-31278571D01*
D10*
X105452380Y-19890476D02*
X105452380Y-20366666D01*
X105928571Y-20414285D01*
X105880952Y-20366666D01*
X105833333Y-20271428D01*
X105833333Y-20033333D01*
X105880952Y-19938095D01*
X105928571Y-19890476D01*
X106023809Y-19842857D01*
X106261904Y-19842857D01*
X106357142Y-19890476D01*
X106404761Y-19938095D01*
X106452380Y-20033333D01*
X106452380Y-20271428D01*
X106404761Y-20366666D01*
X106357142Y-20414285D01*
X105452380Y-19557142D02*
X106452380Y-19223809D01*
X105452380Y-18890476D01*
X102800000Y-20761904D02*
X102752380Y-20857142D01*
X102752380Y-21000000D01*
X102800000Y-21142857D01*
X102895238Y-21238095D01*
X102990476Y-21285714D01*
X103180952Y-21333333D01*
X103323809Y-21333333D01*
X103514285Y-21285714D01*
X103609523Y-21238095D01*
X103704761Y-21142857D01*
X103752380Y-21000000D01*
X103752380Y-20904761D01*
X103704761Y-20761904D01*
X103657142Y-20714285D01*
X103323809Y-20714285D01*
X103323809Y-20904761D01*
X103752380Y-20285714D02*
X102752380Y-20285714D01*
X103752380Y-19714285D01*
X102752380Y-19714285D01*
X103752380Y-19238095D02*
X102752380Y-19238095D01*
X102752380Y-19000000D01*
X102800000Y-18857142D01*
X102895238Y-18761904D01*
X102990476Y-18714285D01*
X103180952Y-18666666D01*
X103323809Y-18666666D01*
X103514285Y-18714285D01*
X103609523Y-18761904D01*
X103704761Y-18857142D01*
X103752380Y-19000000D01*
X103752380Y-19238095D01*
D11*
X100121428Y-20942857D02*
X100050000Y-20871428D01*
X99978571Y-20728571D01*
X99978571Y-20371428D01*
X100050000Y-20228571D01*
X100121428Y-20157142D01*
X100264285Y-20085714D01*
X100407142Y-20085714D01*
X100621428Y-20157142D01*
X101478571Y-21014285D01*
X101478571Y-20085714D01*
X101478571Y-18657142D02*
X101478571Y-19514285D01*
X101478571Y-19085714D02*
X99978571Y-19085714D01*
X100192857Y-19228571D01*
X100335714Y-19371428D01*
X100407142Y-19514285D01*
X97621428Y-21042857D02*
X97550000Y-20971428D01*
X97478571Y-20828571D01*
X97478571Y-20471428D01*
X97550000Y-20328571D01*
X97621428Y-20257142D01*
X97764285Y-20185714D01*
X97907142Y-20185714D01*
X98121428Y-20257142D01*
X98978571Y-21114285D01*
X98978571Y-20185714D01*
X97478571Y-19257142D02*
X97478571Y-19114285D01*
X97550000Y-18971428D01*
X97621428Y-18900000D01*
X97764285Y-18828571D01*
X98050000Y-18757142D01*
X98407142Y-18757142D01*
X98692857Y-18828571D01*
X98835714Y-18900000D01*
X98907142Y-18971428D01*
X98978571Y-19114285D01*
X98978571Y-19257142D01*
X98907142Y-19400000D01*
X98835714Y-19471428D01*
X98692857Y-19542857D01*
X98407142Y-19614285D01*
X98050000Y-19614285D01*
X97764285Y-19542857D01*
X97621428Y-19471428D01*
X97550000Y-19400000D01*
X97478571Y-19257142D01*
X96478571Y-20185714D02*
X96478571Y-21042857D01*
X96478571Y-20614285D02*
X94978571Y-20614285D01*
X95192857Y-20757142D01*
X95335714Y-20900000D01*
X95407142Y-21042857D01*
X94978571Y-18900000D02*
X94978571Y-19185714D01*
X95050000Y-19328571D01*
X95121428Y-19400000D01*
X95335714Y-19542857D01*
X95621428Y-19614285D01*
X96192857Y-19614285D01*
X96335714Y-19542857D01*
X96407142Y-19471428D01*
X96478571Y-19328571D01*
X96478571Y-19042857D01*
X96407142Y-18900000D01*
X96335714Y-18828571D01*
X96192857Y-18757142D01*
X95835714Y-18757142D01*
X95692857Y-18828571D01*
X95621428Y-18900000D01*
X95550000Y-19042857D01*
X95550000Y-19328571D01*
X95621428Y-19471428D01*
X95692857Y-19542857D01*
X95835714Y-19614285D01*
X93878571Y-20185714D02*
X93878571Y-21042857D01*
X93878571Y-20614285D02*
X92378571Y-20614285D01*
X92592857Y-20757142D01*
X92735714Y-20900000D01*
X92807142Y-21042857D01*
X92378571Y-18828571D02*
X92378571Y-19542857D01*
X93092857Y-19614285D01*
X93021428Y-19542857D01*
X92950000Y-19400000D01*
X92950000Y-19042857D01*
X93021428Y-18900000D01*
X93092857Y-18828571D01*
X93235714Y-18757142D01*
X93592857Y-18757142D01*
X93735714Y-18828571D01*
X93807142Y-18900000D01*
X93878571Y-19042857D01*
X93878571Y-19400000D01*
X93807142Y-19542857D01*
X93735714Y-19614285D01*
X91278571Y-20285714D02*
X91278571Y-21142857D01*
X91278571Y-20714285D02*
X89778571Y-20714285D01*
X89992857Y-20857142D01*
X90135714Y-21000000D01*
X90207142Y-21142857D01*
X90278571Y-19000000D02*
X91278571Y-19000000D01*
X89707142Y-19357142D02*
X90778571Y-19714285D01*
X90778571Y-18785714D01*
X86078571Y-19271428D02*
X86078571Y-20128571D01*
X86078571Y-19700000D02*
X84578571Y-19700000D01*
X84792857Y-19842857D01*
X84935714Y-19985714D01*
X85007142Y-20128571D01*
D10*
X87278571Y-19971428D02*
X87278571Y-19828571D01*
X87350000Y-19685714D01*
X87421428Y-19614285D01*
X87564285Y-19542857D01*
X87850000Y-19471428D01*
X88207142Y-19471428D01*
X88492857Y-19542857D01*
X88635714Y-19614285D01*
X88707142Y-19685714D01*
X88778571Y-19828571D01*
X88778571Y-19971428D01*
X88707142Y-20114285D01*
X88635714Y-20185714D01*
X88492857Y-20257142D01*
X88207142Y-20328571D01*
X87850000Y-20328571D01*
X87564285Y-20257142D01*
X87421428Y-20185714D01*
X87350000Y-20114285D01*
X87278571Y-19971428D01*
X83252380Y-20519047D02*
X83252380Y-21090476D01*
X83252380Y-20804761D02*
X82252380Y-20804761D01*
X82395238Y-20900000D01*
X82490476Y-20995238D01*
X82538095Y-21090476D01*
X82347619Y-20138095D02*
X82300000Y-20090476D01*
X82252380Y-19995238D01*
X82252380Y-19757142D01*
X82300000Y-19661904D01*
X82347619Y-19614285D01*
X82442857Y-19566666D01*
X82538095Y-19566666D01*
X82680952Y-19614285D01*
X83252380Y-20185714D01*
X83252380Y-19566666D01*
X82252380Y-19280952D02*
X83252380Y-18947619D01*
X82252380Y-18614285D01*
D13*
X14984000Y-19960000D02*
X112520000Y-19960000D01*
X14984000Y-73300000D02*
X114044000Y-73300000D01*
X112520000Y-19960000D02*
X114044000Y-21484000D01*
X114044000Y-73300000D02*
X114044000Y-72030000D01*
X114044000Y-72030000D02*
X116584000Y-69490000D01*
X116584000Y-69490000D02*
X116584000Y-35200000D01*
X116584000Y-35200000D02*
X114044000Y-32660000D01*
X114044000Y-32660000D02*
X114044000Y-21484000D01*
X14984000Y-19960000D02*
X14984000Y-73300000D01*
D14*
X27460000Y-43040000D02*
X21940000Y-43040000D01*
X27460000Y-59670000D02*
X21940000Y-59670000D01*
X11650000Y-43040000D02*
X11650000Y-59670000D01*
X11650000Y-43040000D02*
X19520000Y-43040000D01*
X11650000Y-59670000D02*
X19520000Y-59670000D01*
X27460000Y-43040000D02*
X27460000Y-59670000D01*
X46010000Y-27007500D02*
X46010000Y-26707500D01*
X44590000Y-27007500D02*
X44590000Y-26707500D01*
X49110000Y-27050000D02*
X49110000Y-26750000D01*
X47690000Y-27050000D02*
X47690000Y-26750000D01*
X58310000Y-27192500D02*
X58310000Y-26892500D01*
X56890000Y-27192500D02*
X56890000Y-26892500D01*
X59890000Y-27207500D02*
X59890000Y-26907500D01*
X61310000Y-27207500D02*
X61310000Y-26907500D01*
X94810000Y-31610000D02*
X94810000Y-25640000D01*
X94810000Y-25640000D02*
X84690000Y-25640000D01*
X84690000Y-25640000D02*
X84690000Y-31610000D01*
X84690000Y-31610000D02*
X94810000Y-31610000D01*
X91500000Y-31600000D02*
X91500000Y-30850000D01*
X91500000Y-30850000D02*
X88000000Y-30850000D01*
X88000000Y-30850000D02*
X88000000Y-31600000D01*
X88000000Y-31600000D02*
X91500000Y-31600000D01*
X94800000Y-31600000D02*
X94800000Y-30850000D01*
X94800000Y-30850000D02*
X93000000Y-30850000D01*
X93000000Y-30850000D02*
X93000000Y-31600000D01*
X93000000Y-31600000D02*
X94800000Y-31600000D01*
X86500000Y-31600000D02*
X86500000Y-30850000D01*
X86500000Y-30850000D02*
X84700000Y-30850000D01*
X84700000Y-30850000D02*
X84700000Y-31600000D01*
X84700000Y-31600000D02*
X86500000Y-31600000D01*
X94800000Y-29350000D02*
X94050000Y-29350000D01*
X94050000Y-29350000D02*
X94050000Y-26400000D01*
X94050000Y-26400000D02*
X89750000Y-26400000D01*
X84700000Y-29350000D02*
X85450000Y-29350000D01*
X85450000Y-29350000D02*
X85450000Y-26400000D01*
X85450000Y-26400000D02*
X89750000Y-26400000D01*
X93850000Y-31900000D02*
X95100000Y-31900000D01*
X95100000Y-31900000D02*
X95100000Y-30650000D01*
X100754000Y-77464759D02*
X100124000Y-77464759D01*
X100439000Y-77149759D02*
X100439000Y-77779759D01*
X99002000Y-83891000D02*
X98198000Y-83891000D01*
X99233000Y-83851000D02*
X97967000Y-83851000D01*
X99402000Y-83811000D02*
X97798000Y-83811000D01*
X99540000Y-83771000D02*
X97660000Y-83771000D01*
X99659000Y-83731000D02*
X97541000Y-83731000D01*
X99765000Y-83691000D02*
X97435000Y-83691000D01*
X99862000Y-83651000D02*
X97338000Y-83651000D01*
X99950000Y-83611000D02*
X97250000Y-83611000D01*
X100032000Y-83571000D02*
X97168000Y-83571000D01*
X100109000Y-83531000D02*
X97091000Y-83531000D01*
X100181000Y-83491000D02*
X97019000Y-83491000D01*
X100250000Y-83451000D02*
X96950000Y-83451000D01*
X100314000Y-83411000D02*
X96886000Y-83411000D01*
X100376000Y-83371000D02*
X96824000Y-83371000D01*
X100434000Y-83331000D02*
X96766000Y-83331000D01*
X100490000Y-83291000D02*
X96710000Y-83291000D01*
X100544000Y-83251000D02*
X96656000Y-83251000D01*
X100595000Y-83211000D02*
X96605000Y-83211000D01*
X100644000Y-83171000D02*
X96556000Y-83171000D01*
X100692000Y-83131000D02*
X96508000Y-83131000D01*
X100737000Y-83091000D02*
X96463000Y-83091000D01*
X100782000Y-83051000D02*
X96418000Y-83051000D01*
X100824000Y-83011000D02*
X96376000Y-83011000D01*
X100865000Y-82971000D02*
X96335000Y-82971000D01*
X97560000Y-82931000D02*
X96295000Y-82931000D01*
X100905000Y-82931000D02*
X99640000Y-82931000D01*
X97560000Y-82891000D02*
X96257000Y-82891000D01*
X100943000Y-82891000D02*
X99640000Y-82891000D01*
X97560000Y-82851000D02*
X96220000Y-82851000D01*
X100980000Y-82851000D02*
X99640000Y-82851000D01*
X97560000Y-82811000D02*
X96184000Y-82811000D01*
X101016000Y-82811000D02*
X99640000Y-82811000D01*
X97560000Y-82771000D02*
X96150000Y-82771000D01*
X101050000Y-82771000D02*
X99640000Y-82771000D01*
X97560000Y-82731000D02*
X96116000Y-82731000D01*
X101084000Y-82731000D02*
X99640000Y-82731000D01*
X97560000Y-82691000D02*
X96084000Y-82691000D01*
X101116000Y-82691000D02*
X99640000Y-82691000D01*
X97560000Y-82651000D02*
X96052000Y-82651000D01*
X101148000Y-82651000D02*
X99640000Y-82651000D01*
X97560000Y-82611000D02*
X96022000Y-82611000D01*
X101178000Y-82611000D02*
X99640000Y-82611000D01*
X97560000Y-82571000D02*
X95993000Y-82571000D01*
X101207000Y-82571000D02*
X99640000Y-82571000D01*
X97560000Y-82531000D02*
X95964000Y-82531000D01*
X101236000Y-82531000D02*
X99640000Y-82531000D01*
X97560000Y-82491000D02*
X95936000Y-82491000D01*
X101264000Y-82491000D02*
X99640000Y-82491000D01*
X97560000Y-82451000D02*
X95910000Y-82451000D01*
X101290000Y-82451000D02*
X99640000Y-82451000D01*
X97560000Y-82411000D02*
X95884000Y-82411000D01*
X101316000Y-82411000D02*
X99640000Y-82411000D01*
X97560000Y-82371000D02*
X95858000Y-82371000D01*
X101342000Y-82371000D02*
X99640000Y-82371000D01*
X97560000Y-82331000D02*
X95834000Y-82331000D01*
X101366000Y-82331000D02*
X99640000Y-82331000D01*
X97560000Y-82291000D02*
X95810000Y-82291000D01*
X101390000Y-82291000D02*
X99640000Y-82291000D01*
X97560000Y-82251000D02*
X95788000Y-82251000D01*
X101412000Y-82251000D02*
X99640000Y-82251000D01*
X97560000Y-82211000D02*
X95766000Y-82211000D01*
X101434000Y-82211000D02*
X99640000Y-82211000D01*
X97560000Y-82171000D02*
X95744000Y-82171000D01*
X101456000Y-82171000D02*
X99640000Y-82171000D01*
X97560000Y-82131000D02*
X95724000Y-82131000D01*
X101476000Y-82131000D02*
X99640000Y-82131000D01*
X97560000Y-82091000D02*
X95704000Y-82091000D01*
X101496000Y-82091000D02*
X99640000Y-82091000D01*
X97560000Y-82051000D02*
X95684000Y-82051000D01*
X101516000Y-82051000D02*
X99640000Y-82051000D01*
X97560000Y-82011000D02*
X95666000Y-82011000D01*
X101534000Y-82011000D02*
X99640000Y-82011000D01*
X97560000Y-81971000D02*
X95648000Y-81971000D01*
X101552000Y-81971000D02*
X99640000Y-81971000D01*
X97560000Y-81931000D02*
X95630000Y-81931000D01*
X101570000Y-81931000D02*
X99640000Y-81931000D01*
X97560000Y-81891000D02*
X95614000Y-81891000D01*
X101586000Y-81891000D02*
X99640000Y-81891000D01*
X97560000Y-81851000D02*
X95598000Y-81851000D01*
X101602000Y-81851000D02*
X99640000Y-81851000D01*
X97560000Y-81811000D02*
X95582000Y-81811000D01*
X101618000Y-81811000D02*
X99640000Y-81811000D01*
X97560000Y-81771000D02*
X95567000Y-81771000D01*
X101633000Y-81771000D02*
X99640000Y-81771000D01*
X97560000Y-81731000D02*
X95553000Y-81731000D01*
X101647000Y-81731000D02*
X99640000Y-81731000D01*
X97560000Y-81691000D02*
X95539000Y-81691000D01*
X101661000Y-81691000D02*
X99640000Y-81691000D01*
X97560000Y-81651000D02*
X95526000Y-81651000D01*
X101674000Y-81651000D02*
X99640000Y-81651000D01*
X97560000Y-81611000D02*
X95514000Y-81611000D01*
X101686000Y-81611000D02*
X99640000Y-81611000D01*
X97560000Y-81571000D02*
X95502000Y-81571000D01*
X101698000Y-81571000D02*
X99640000Y-81571000D01*
X97560000Y-81531000D02*
X95490000Y-81531000D01*
X101710000Y-81531000D02*
X99640000Y-81531000D01*
X97560000Y-81491000D02*
X95479000Y-81491000D01*
X101721000Y-81491000D02*
X99640000Y-81491000D01*
X97560000Y-81451000D02*
X95469000Y-81451000D01*
X101731000Y-81451000D02*
X99640000Y-81451000D01*
X97560000Y-81411000D02*
X95459000Y-81411000D01*
X101741000Y-81411000D02*
X99640000Y-81411000D01*
X97560000Y-81371000D02*
X95450000Y-81371000D01*
X101750000Y-81371000D02*
X99640000Y-81371000D01*
X97560000Y-81330000D02*
X95441000Y-81330000D01*
X101759000Y-81330000D02*
X99640000Y-81330000D01*
X97560000Y-81290000D02*
X95433000Y-81290000D01*
X101767000Y-81290000D02*
X99640000Y-81290000D01*
X97560000Y-81250000D02*
X95425000Y-81250000D01*
X101775000Y-81250000D02*
X99640000Y-81250000D01*
X97560000Y-81210000D02*
X95418000Y-81210000D01*
X101782000Y-81210000D02*
X99640000Y-81210000D01*
X97560000Y-81170000D02*
X95411000Y-81170000D01*
X101789000Y-81170000D02*
X99640000Y-81170000D01*
X97560000Y-81130000D02*
X95405000Y-81130000D01*
X101795000Y-81130000D02*
X99640000Y-81130000D01*
X97560000Y-81090000D02*
X95399000Y-81090000D01*
X101801000Y-81090000D02*
X99640000Y-81090000D01*
X97560000Y-81050000D02*
X95394000Y-81050000D01*
X101806000Y-81050000D02*
X99640000Y-81050000D01*
X97560000Y-81010000D02*
X95389000Y-81010000D01*
X101811000Y-81010000D02*
X99640000Y-81010000D01*
X97560000Y-80970000D02*
X95385000Y-80970000D01*
X101815000Y-80970000D02*
X99640000Y-80970000D01*
X97560000Y-80930000D02*
X95382000Y-80930000D01*
X101818000Y-80930000D02*
X99640000Y-80930000D01*
X97560000Y-80890000D02*
X95378000Y-80890000D01*
X101822000Y-80890000D02*
X99640000Y-80890000D01*
X101824000Y-80850000D02*
X95376000Y-80850000D01*
X101827000Y-80810000D02*
X95373000Y-80810000D01*
X101828000Y-80770000D02*
X95372000Y-80770000D01*
X101830000Y-80730000D02*
X95370000Y-80730000D01*
X101830000Y-80690000D02*
X95370000Y-80690000D01*
X101830000Y-80650000D02*
X95370000Y-80650000D01*
X101870000Y-80650000D02*
G75*
G03X101870000Y-80650000I-3270000J0D01*
G01*
X88100617Y-45819726D02*
G75*
G02X86500000Y-45820000I-800617J1799726D01*
G01*
X89100001Y-43220001D02*
G75*
G02X89100000Y-44820000I-1800001J-799999D01*
G01*
X86499383Y-42220274D02*
G75*
G02X88100000Y-42220000I800617J-1799726D01*
G01*
X85500000Y-45020000D02*
G75*
G02X85500000Y-43020000I1800000J1000000D01*
G01*
X89220000Y-49100000D02*
G75*
G03X89220000Y-49100000I-1920000J0D01*
G01*
X89140000Y-54180000D02*
G75*
G03X89140000Y-54180000I-1840000J0D01*
G01*
X89060000Y-59260000D02*
G75*
G03X89060000Y-59260000I-1760000J0D01*
G01*
D15*
X92050000Y-63670000D02*
X92050000Y-39670000D01*
X92050000Y-39670000D02*
X84300000Y-39670000D01*
X82550000Y-41420000D02*
X82550000Y-61920000D01*
X84300000Y-63670000D02*
X92050000Y-63670000D01*
X84300000Y-39670000D02*
X82550000Y-41420000D01*
X84300000Y-63670000D02*
X82550000Y-61920000D01*
X96452000Y-54660000D02*
X96452000Y-43230000D01*
X96452000Y-26720000D02*
X96452000Y-38150000D01*
X105088000Y-54660000D02*
X105088000Y-26720000D01*
X96452000Y-54660000D02*
X105088000Y-54660000D01*
X105088000Y-26720000D02*
X96452000Y-26720000D01*
D14*
X98170000Y-30470000D02*
X99500000Y-30470000D01*
X98170000Y-31800000D02*
X98170000Y-30470000D01*
X100770000Y-30470000D02*
X103370000Y-30470000D01*
X100770000Y-33070000D02*
X100770000Y-30470000D01*
X98170000Y-33070000D02*
X100770000Y-33070000D01*
X103370000Y-30470000D02*
X103370000Y-50910000D01*
X98170000Y-33070000D02*
X98170000Y-50910000D01*
X98170000Y-50910000D02*
X103370000Y-50910000D01*
X93400000Y-56700000D02*
X93400000Y-67550000D01*
X98500000Y-56700000D02*
X93400000Y-56700000D01*
X98200000Y-57200000D02*
X98500000Y-56700000D01*
X103600000Y-57200000D02*
X98200000Y-57200000D01*
X103350000Y-56700000D02*
X103600000Y-57200000D01*
X103400000Y-56700000D02*
X103350000Y-56700000D01*
X105300000Y-56700000D02*
X103400000Y-56700000D01*
X105050000Y-57200000D02*
X105300000Y-56700000D01*
X106000000Y-57200000D02*
X105050000Y-57200000D01*
X106000000Y-67550000D02*
X106000000Y-57200000D01*
X93400000Y-67550000D02*
X106000000Y-67550000D01*
X83800000Y-31800000D02*
X83800000Y-30550000D01*
X82550000Y-31800000D02*
X83800000Y-31800000D01*
X74150000Y-26300000D02*
X78450000Y-26300000D01*
X74150000Y-29250000D02*
X74150000Y-26300000D01*
X73400000Y-29250000D02*
X74150000Y-29250000D01*
X82750000Y-26300000D02*
X78450000Y-26300000D01*
X82750000Y-29250000D02*
X82750000Y-26300000D01*
X83500000Y-29250000D02*
X82750000Y-29250000D01*
X73400000Y-31500000D02*
X75200000Y-31500000D01*
X73400000Y-30750000D02*
X73400000Y-31500000D01*
X75200000Y-30750000D02*
X73400000Y-30750000D01*
X75200000Y-31500000D02*
X75200000Y-30750000D01*
X81700000Y-31500000D02*
X83500000Y-31500000D01*
X81700000Y-30750000D02*
X81700000Y-31500000D01*
X83500000Y-30750000D02*
X81700000Y-30750000D01*
X83500000Y-31500000D02*
X83500000Y-30750000D01*
X76700000Y-31500000D02*
X80200000Y-31500000D01*
X76700000Y-30750000D02*
X76700000Y-31500000D01*
X80200000Y-30750000D02*
X76700000Y-30750000D01*
X80200000Y-31500000D02*
X80200000Y-30750000D01*
X73390000Y-31510000D02*
X83510000Y-31510000D01*
X73390000Y-25540000D02*
X73390000Y-31510000D01*
X83510000Y-25540000D02*
X73390000Y-25540000D01*
X83510000Y-31510000D02*
X83510000Y-25540000D01*
X111750000Y-79150000D02*
X110500000Y-79150000D01*
X111750000Y-80400000D02*
X111750000Y-79150000D01*
X106250000Y-96300000D02*
X106250000Y-88250000D01*
X109200000Y-96300000D02*
X106250000Y-96300000D01*
X109200000Y-97050000D02*
X109200000Y-96300000D01*
X106250000Y-80200000D02*
X106250000Y-88250000D01*
X109200000Y-80200000D02*
X106250000Y-80200000D01*
X109200000Y-79450000D02*
X109200000Y-80200000D01*
X111450000Y-97050000D02*
X111450000Y-95250000D01*
X110700000Y-97050000D02*
X111450000Y-97050000D01*
X110700000Y-95250000D02*
X110700000Y-97050000D01*
X111450000Y-95250000D02*
X110700000Y-95250000D01*
X111450000Y-81250000D02*
X111450000Y-79450000D01*
X110700000Y-81250000D02*
X111450000Y-81250000D01*
X110700000Y-79450000D02*
X110700000Y-81250000D01*
X111450000Y-79450000D02*
X110700000Y-79450000D01*
X111450000Y-93750000D02*
X111450000Y-82750000D01*
X110700000Y-93750000D02*
X111450000Y-93750000D01*
X110700000Y-82750000D02*
X110700000Y-93750000D01*
X111450000Y-82750000D02*
X110700000Y-82750000D01*
X111460000Y-97060000D02*
X111460000Y-79440000D01*
X105490000Y-97060000D02*
X111460000Y-97060000D01*
X105490000Y-79440000D02*
X105490000Y-97060000D01*
X111460000Y-79440000D02*
X105490000Y-79440000D01*
X72250000Y-41000000D02*
X72250000Y-39750000D01*
X71000000Y-41000000D02*
X72250000Y-41000000D01*
X60100000Y-35500000D02*
X65650000Y-35500000D01*
X60100000Y-38450000D02*
X60100000Y-35500000D01*
X59350000Y-38450000D02*
X60100000Y-38450000D01*
X71200000Y-35500000D02*
X65650000Y-35500000D01*
X71200000Y-38450000D02*
X71200000Y-35500000D01*
X71950000Y-38450000D02*
X71200000Y-38450000D01*
X59350000Y-40700000D02*
X61150000Y-40700000D01*
X59350000Y-39950000D02*
X59350000Y-40700000D01*
X61150000Y-39950000D02*
X59350000Y-39950000D01*
X61150000Y-40700000D02*
X61150000Y-39950000D01*
X70150000Y-40700000D02*
X71950000Y-40700000D01*
X70150000Y-39950000D02*
X70150000Y-40700000D01*
X71950000Y-39950000D02*
X70150000Y-39950000D01*
X71950000Y-40700000D02*
X71950000Y-39950000D01*
X62650000Y-40700000D02*
X68650000Y-40700000D01*
X62650000Y-39950000D02*
X62650000Y-40700000D01*
X68650000Y-39950000D02*
X62650000Y-39950000D01*
X68650000Y-40700000D02*
X68650000Y-39950000D01*
X59340000Y-40710000D02*
X71960000Y-40710000D01*
X59340000Y-34740000D02*
X59340000Y-40710000D01*
X71960000Y-34740000D02*
X59340000Y-34740000D01*
X71960000Y-40710000D02*
X71960000Y-34740000D01*
X71560000Y-51860000D02*
X71560000Y-45890000D01*
X71560000Y-45890000D02*
X58940000Y-45890000D01*
X58940000Y-45890000D02*
X58940000Y-51860000D01*
X58940000Y-51860000D02*
X71560000Y-51860000D01*
X68250000Y-51850000D02*
X68250000Y-51100000D01*
X68250000Y-51100000D02*
X62250000Y-51100000D01*
X62250000Y-51100000D02*
X62250000Y-51850000D01*
X62250000Y-51850000D02*
X68250000Y-51850000D01*
X71550000Y-51850000D02*
X71550000Y-51100000D01*
X71550000Y-51100000D02*
X69750000Y-51100000D01*
X69750000Y-51100000D02*
X69750000Y-51850000D01*
X69750000Y-51850000D02*
X71550000Y-51850000D01*
X60750000Y-51850000D02*
X60750000Y-51100000D01*
X60750000Y-51100000D02*
X58950000Y-51100000D01*
X58950000Y-51100000D02*
X58950000Y-51850000D01*
X58950000Y-51850000D02*
X60750000Y-51850000D01*
X71550000Y-49600000D02*
X70800000Y-49600000D01*
X70800000Y-49600000D02*
X70800000Y-46650000D01*
X70800000Y-46650000D02*
X65250000Y-46650000D01*
X58950000Y-49600000D02*
X59700000Y-49600000D01*
X59700000Y-49600000D02*
X59700000Y-46650000D01*
X59700000Y-46650000D02*
X65250000Y-46650000D01*
X70600000Y-52150000D02*
X71850000Y-52150000D01*
X71850000Y-52150000D02*
X71850000Y-50900000D01*
X72000000Y-64350000D02*
X72000000Y-63100000D01*
X70750000Y-64350000D02*
X72000000Y-64350000D01*
X59850000Y-58850000D02*
X65400000Y-58850000D01*
X59850000Y-61800000D02*
X59850000Y-58850000D01*
X59100000Y-61800000D02*
X59850000Y-61800000D01*
X70950000Y-58850000D02*
X65400000Y-58850000D01*
X70950000Y-61800000D02*
X70950000Y-58850000D01*
X71700000Y-61800000D02*
X70950000Y-61800000D01*
X59100000Y-64050000D02*
X60900000Y-64050000D01*
X59100000Y-63300000D02*
X59100000Y-64050000D01*
X60900000Y-63300000D02*
X59100000Y-63300000D01*
X60900000Y-64050000D02*
X60900000Y-63300000D01*
X69900000Y-64050000D02*
X71700000Y-64050000D01*
X69900000Y-63300000D02*
X69900000Y-64050000D01*
X71700000Y-63300000D02*
X69900000Y-63300000D01*
X71700000Y-64050000D02*
X71700000Y-63300000D01*
X62400000Y-64050000D02*
X68400000Y-64050000D01*
X62400000Y-63300000D02*
X62400000Y-64050000D01*
X68400000Y-63300000D02*
X62400000Y-63300000D01*
X68400000Y-64050000D02*
X68400000Y-63300000D01*
X59090000Y-64060000D02*
X71710000Y-64060000D01*
X59090000Y-58090000D02*
X59090000Y-64060000D01*
X71710000Y-58090000D02*
X59090000Y-58090000D01*
X71710000Y-64060000D02*
X71710000Y-58090000D01*
X34829000Y-36330000D02*
X41570000Y-36330000D01*
X34829000Y-38870000D02*
X41570000Y-38870000D01*
X34829000Y-36330000D02*
X34829000Y-38870000D01*
X41570000Y-36330000D02*
X41570000Y-38870000D01*
X34829000Y-37069000D02*
X35050000Y-37069000D01*
X36750000Y-37069000D02*
X37362000Y-37069000D01*
X39039000Y-37069000D02*
X39662000Y-37069000D01*
X41339000Y-37069000D02*
X41570000Y-37069000D01*
X49239000Y-37069000D02*
X49470000Y-37069000D01*
X46939000Y-37069000D02*
X47562000Y-37069000D01*
X44650000Y-37069000D02*
X45262000Y-37069000D01*
X42729000Y-37069000D02*
X42950000Y-37069000D01*
X49470000Y-36330000D02*
X49470000Y-38870000D01*
X42729000Y-36330000D02*
X42729000Y-38870000D01*
X42729000Y-38870000D02*
X49470000Y-38870000D01*
X42729000Y-36330000D02*
X49470000Y-36330000D01*
X56939000Y-37069000D02*
X57170000Y-37069000D01*
X54639000Y-37069000D02*
X55262000Y-37069000D01*
X52350000Y-37069000D02*
X52962000Y-37069000D01*
X50429000Y-37069000D02*
X50650000Y-37069000D01*
X57170000Y-36330000D02*
X57170000Y-38870000D01*
X50429000Y-36330000D02*
X50429000Y-38870000D01*
X50429000Y-38870000D02*
X57170000Y-38870000D01*
X50429000Y-36330000D02*
X57170000Y-36330000D01*
X34129000Y-47480000D02*
X40870000Y-47480000D01*
X34129000Y-50020000D02*
X40870000Y-50020000D01*
X34129000Y-47480000D02*
X34129000Y-50020000D01*
X40870000Y-47480000D02*
X40870000Y-50020000D01*
X34129000Y-48219000D02*
X34350000Y-48219000D01*
X36050000Y-48219000D02*
X36662000Y-48219000D01*
X38339000Y-48219000D02*
X38962000Y-48219000D01*
X40639000Y-48219000D02*
X40870000Y-48219000D01*
X48689000Y-48219000D02*
X48920000Y-48219000D01*
X46389000Y-48219000D02*
X47012000Y-48219000D01*
X44100000Y-48219000D02*
X44712000Y-48219000D01*
X42179000Y-48219000D02*
X42400000Y-48219000D01*
X48920000Y-47480000D02*
X48920000Y-50020000D01*
X42179000Y-47480000D02*
X42179000Y-50020000D01*
X42179000Y-50020000D02*
X48920000Y-50020000D01*
X42179000Y-47480000D02*
X48920000Y-47480000D01*
X50179000Y-47480000D02*
X56920000Y-47480000D01*
X50179000Y-50020000D02*
X56920000Y-50020000D01*
X50179000Y-47480000D02*
X50179000Y-50020000D01*
X56920000Y-47480000D02*
X56920000Y-50020000D01*
X50179000Y-48219000D02*
X50400000Y-48219000D01*
X52100000Y-48219000D02*
X52712000Y-48219000D01*
X54389000Y-48219000D02*
X55012000Y-48219000D01*
X56689000Y-48219000D02*
X56920000Y-48219000D01*
X40539000Y-60169000D02*
X40770000Y-60169000D01*
X38239000Y-60169000D02*
X38862000Y-60169000D01*
X35950000Y-60169000D02*
X36562000Y-60169000D01*
X34029000Y-60169000D02*
X34250000Y-60169000D01*
X40770000Y-59430000D02*
X40770000Y-61970000D01*
X34029000Y-59430000D02*
X34029000Y-61970000D01*
X34029000Y-61970000D02*
X40770000Y-61970000D01*
X34029000Y-59430000D02*
X40770000Y-59430000D01*
X42079000Y-59430000D02*
X48820000Y-59430000D01*
X42079000Y-61970000D02*
X48820000Y-61970000D01*
X42079000Y-59430000D02*
X42079000Y-61970000D01*
X48820000Y-59430000D02*
X48820000Y-61970000D01*
X42079000Y-60169000D02*
X42300000Y-60169000D01*
X44000000Y-60169000D02*
X44612000Y-60169000D01*
X46289000Y-60169000D02*
X46912000Y-60169000D01*
X48589000Y-60169000D02*
X48820000Y-60169000D01*
X56789000Y-60169000D02*
X57020000Y-60169000D01*
X54489000Y-60169000D02*
X55112000Y-60169000D01*
X52200000Y-60169000D02*
X52812000Y-60169000D01*
X50279000Y-60169000D02*
X50500000Y-60169000D01*
X57020000Y-59430000D02*
X57020000Y-61970000D01*
X50279000Y-59430000D02*
X50279000Y-61970000D01*
X50279000Y-61970000D02*
X57020000Y-61970000D01*
X50279000Y-59430000D02*
X57020000Y-59430000D01*
X64410000Y-27292500D02*
X64410000Y-26992500D01*
X62990000Y-27292500D02*
X62990000Y-26992500D01*
X66090000Y-27307500D02*
X66090000Y-27007500D01*
X67510000Y-27307500D02*
X67510000Y-27007500D01*
X69190000Y-27307500D02*
X69190000Y-27007500D01*
X70610000Y-27307500D02*
X70610000Y-27007500D01*
X55310000Y-27192500D02*
X55310000Y-26892500D01*
X53890000Y-27192500D02*
X53890000Y-26892500D01*
X92410000Y-36392500D02*
X92410000Y-36692500D01*
X90990000Y-36392500D02*
X90990000Y-36692500D01*
X95060000Y-36692500D02*
X95060000Y-36392500D01*
X93640000Y-36692500D02*
X93640000Y-36392500D01*
X86010000Y-36192500D02*
X86010000Y-36492500D01*
X84590000Y-36192500D02*
X84590000Y-36492500D01*
X88710000Y-36592500D02*
X88710000Y-36292500D01*
X87290000Y-36592500D02*
X87290000Y-36292500D01*
X73807500Y-94210000D02*
X74107500Y-94210000D01*
X73807500Y-92790000D02*
X74107500Y-92790000D01*
X73707500Y-98010000D02*
X74007500Y-98010000D01*
X73707500Y-96590000D02*
X74007500Y-96590000D01*
X73850000Y-80690000D02*
X74150000Y-80690000D01*
X73850000Y-82110000D02*
X74150000Y-82110000D01*
X73750000Y-84490000D02*
X74050000Y-84490000D01*
X73750000Y-85910000D02*
X74050000Y-85910000D01*
X73707500Y-88290000D02*
X74007500Y-88290000D01*
X73707500Y-89710000D02*
X74007500Y-89710000D01*
X59806667Y-81645000D02*
X59806667Y-82915000D01*
X58600000Y-82845000D02*
X59806667Y-82845000D01*
X58600000Y-82725000D02*
X59806667Y-82725000D01*
X58600000Y-82605000D02*
X59806667Y-82605000D01*
X58600000Y-82485000D02*
X59806667Y-82485000D01*
X58600000Y-82365000D02*
X59806667Y-82365000D01*
X58600000Y-82245000D02*
X59806667Y-82245000D01*
X58600000Y-82125000D02*
X59806667Y-82125000D01*
X58600000Y-82005000D02*
X59806667Y-82005000D01*
X58600000Y-81885000D02*
X59806667Y-81885000D01*
X58600000Y-81765000D02*
X59806667Y-81765000D01*
X62220000Y-81645000D02*
X58600000Y-81645000D01*
X62220000Y-82915000D02*
X62220000Y-81645000D01*
X58600000Y-82915000D02*
X62220000Y-82915000D01*
X58600000Y-81645000D02*
X58600000Y-82915000D01*
X59806667Y-79105000D02*
X59806667Y-80375000D01*
X58600000Y-80305000D02*
X59806667Y-80305000D01*
X58600000Y-80185000D02*
X59806667Y-80185000D01*
X58600000Y-80065000D02*
X59806667Y-80065000D01*
X58600000Y-79945000D02*
X59806667Y-79945000D01*
X58600000Y-79825000D02*
X59806667Y-79825000D01*
X58600000Y-79705000D02*
X59806667Y-79705000D01*
X58600000Y-79585000D02*
X59806667Y-79585000D01*
X58600000Y-79465000D02*
X59806667Y-79465000D01*
X58600000Y-79345000D02*
X59806667Y-79345000D01*
X58600000Y-79225000D02*
X59806667Y-79225000D01*
X62220000Y-79105000D02*
X58600000Y-79105000D01*
X62220000Y-80375000D02*
X62220000Y-79105000D01*
X58600000Y-80375000D02*
X62220000Y-80375000D01*
X58600000Y-79105000D02*
X58600000Y-80375000D01*
X59806667Y-76565000D02*
X59806667Y-77835000D01*
X58600000Y-77765000D02*
X59806667Y-77765000D01*
X58600000Y-77645000D02*
X59806667Y-77645000D01*
X58600000Y-77525000D02*
X59806667Y-77525000D01*
X58600000Y-77405000D02*
X59806667Y-77405000D01*
X58600000Y-77285000D02*
X59806667Y-77285000D01*
X58600000Y-77165000D02*
X59806667Y-77165000D01*
X58600000Y-77045000D02*
X59806667Y-77045000D01*
X58600000Y-76925000D02*
X59806667Y-76925000D01*
X58600000Y-76805000D02*
X59806667Y-76805000D01*
X58600000Y-76685000D02*
X59806667Y-76685000D01*
X62220000Y-76565000D02*
X58600000Y-76565000D01*
X62220000Y-77835000D02*
X62220000Y-76565000D01*
X58600000Y-77835000D02*
X62220000Y-77835000D01*
X58600000Y-76565000D02*
X58600000Y-77835000D01*
X56760000Y-74850000D02*
X56760000Y-76160000D01*
X56760000Y-74850000D02*
X58143000Y-74850000D01*
X63821000Y-78190000D02*
X63821000Y-78751000D01*
X63821000Y-75090000D02*
X63821000Y-76210000D01*
X63821000Y-80730000D02*
X63821000Y-81291000D01*
X63821000Y-83270000D02*
X63821000Y-84390000D01*
X57000000Y-83270000D02*
X57000000Y-84390000D01*
X57000000Y-80730000D02*
X57000000Y-81291000D01*
X57000000Y-78240000D02*
X57000000Y-78751000D01*
X57000000Y-75090000D02*
X57000000Y-76160000D01*
X57000000Y-84390000D02*
X63821000Y-84390000D01*
X57000000Y-75090000D02*
X63821000Y-75090000D01*
D15*
X78710000Y-98220000D02*
X93710000Y-98220000D01*
X78710000Y-78220000D02*
X78710000Y-98220000D01*
X93710000Y-78220000D02*
X78710000Y-78220000D01*
X93710000Y-98220000D02*
X93710000Y-78220000D01*
D16*
X77365685Y-78650000D02*
G75*
G03X77365685Y-78650000I-565685J0D01*
G01*
D14*
X52210000Y-27092500D02*
X52210000Y-26792500D01*
X50790000Y-27092500D02*
X50790000Y-26792500D01*
D12*
X54354000Y-94890000D02*
X28954000Y-94890000D01*
X26414000Y-94890000D02*
X26414000Y-68220000D01*
X28954000Y-68220000D02*
X54354000Y-68220000D01*
X54354000Y-68220000D02*
X54354000Y-94890000D01*
X28954000Y-68220000D02*
X26414000Y-68220000D01*
X28954000Y-94890000D02*
X26414000Y-94890000D01*
X30632709Y-92350000D02*
G75*
G03X30632709Y-92350000I-1678709J0D01*
G01*
X30846126Y-70760000D02*
G75*
G03X30846126Y-70760000I-1892126J0D01*
G01*
D14*
X81670000Y-15770000D02*
X81670000Y-18430000D01*
X104590000Y-15770000D02*
X81670000Y-15770000D01*
X104590000Y-18430000D02*
X81670000Y-18430000D01*
X104590000Y-15770000D02*
X104590000Y-18430000D01*
X105860000Y-15770000D02*
X107190000Y-15770000D01*
X107190000Y-15770000D02*
X107190000Y-17100000D01*
D13*
X16762095Y-18396380D02*
X16762095Y-19205904D01*
X16809714Y-19301142D01*
X16857333Y-19348761D01*
X16952571Y-19396380D01*
X17143047Y-19396380D01*
X17238285Y-19348761D01*
X17285904Y-19301142D01*
X17333523Y-19205904D01*
X17333523Y-18396380D01*
X18333523Y-19396380D02*
X17762095Y-19396380D01*
X18047809Y-19396380D02*
X18047809Y-18396380D01*
X17952571Y-18539238D01*
X17857333Y-18634476D01*
X17762095Y-18682095D01*
X26052380Y-41233333D02*
X26766666Y-41233333D01*
X26909523Y-41280952D01*
X27004761Y-41376190D01*
X27052380Y-41519047D01*
X27052380Y-41614285D01*
X26147619Y-40804761D02*
X26100000Y-40757142D01*
X26052380Y-40661904D01*
X26052380Y-40423809D01*
X26100000Y-40328571D01*
X26147619Y-40280952D01*
X26242857Y-40233333D01*
X26338095Y-40233333D01*
X26480952Y-40280952D01*
X27052380Y-40852380D01*
X27052380Y-40233333D01*
X45133333Y-30109880D02*
X44800000Y-29633690D01*
X44561904Y-30109880D02*
X44561904Y-29109880D01*
X44942857Y-29109880D01*
X45038095Y-29157500D01*
X45085714Y-29205119D01*
X45133333Y-29300357D01*
X45133333Y-29443214D01*
X45085714Y-29538452D01*
X45038095Y-29586071D01*
X44942857Y-29633690D01*
X44561904Y-29633690D01*
X45466666Y-29109880D02*
X46133333Y-29109880D01*
X45704761Y-30109880D01*
X48283333Y-30144880D02*
X47950000Y-29668690D01*
X47711904Y-30144880D02*
X47711904Y-29144880D01*
X48092857Y-29144880D01*
X48188095Y-29192500D01*
X48235714Y-29240119D01*
X48283333Y-29335357D01*
X48283333Y-29478214D01*
X48235714Y-29573452D01*
X48188095Y-29621071D01*
X48092857Y-29668690D01*
X47711904Y-29668690D01*
X48854761Y-29573452D02*
X48759523Y-29525833D01*
X48711904Y-29478214D01*
X48664285Y-29382976D01*
X48664285Y-29335357D01*
X48711904Y-29240119D01*
X48759523Y-29192500D01*
X48854761Y-29144880D01*
X49045238Y-29144880D01*
X49140476Y-29192500D01*
X49188095Y-29240119D01*
X49235714Y-29335357D01*
X49235714Y-29382976D01*
X49188095Y-29478214D01*
X49140476Y-29525833D01*
X49045238Y-29573452D01*
X48854761Y-29573452D01*
X48759523Y-29621071D01*
X48711904Y-29668690D01*
X48664285Y-29763928D01*
X48664285Y-29954404D01*
X48711904Y-30049642D01*
X48759523Y-30097261D01*
X48854761Y-30144880D01*
X49045238Y-30144880D01*
X49140476Y-30097261D01*
X49188095Y-30049642D01*
X49235714Y-29954404D01*
X49235714Y-29763928D01*
X49188095Y-29668690D01*
X49140476Y-29621071D01*
X49045238Y-29573452D01*
X57433333Y-30237380D02*
X57100000Y-29761190D01*
X56861904Y-30237380D02*
X56861904Y-29237380D01*
X57242857Y-29237380D01*
X57338095Y-29285000D01*
X57385714Y-29332619D01*
X57433333Y-29427857D01*
X57433333Y-29570714D01*
X57385714Y-29665952D01*
X57338095Y-29713571D01*
X57242857Y-29761190D01*
X56861904Y-29761190D01*
X58338095Y-29237380D02*
X57861904Y-29237380D01*
X57814285Y-29713571D01*
X57861904Y-29665952D01*
X57957142Y-29618333D01*
X58195238Y-29618333D01*
X58290476Y-29665952D01*
X58338095Y-29713571D01*
X58385714Y-29808809D01*
X58385714Y-30046904D01*
X58338095Y-30142142D01*
X58290476Y-30189761D01*
X58195238Y-30237380D01*
X57957142Y-30237380D01*
X57861904Y-30189761D01*
X57814285Y-30142142D01*
X60433333Y-30252380D02*
X60100000Y-29776190D01*
X59861904Y-30252380D02*
X59861904Y-29252380D01*
X60242857Y-29252380D01*
X60338095Y-29300000D01*
X60385714Y-29347619D01*
X60433333Y-29442857D01*
X60433333Y-29585714D01*
X60385714Y-29680952D01*
X60338095Y-29728571D01*
X60242857Y-29776190D01*
X59861904Y-29776190D01*
X61290476Y-29252380D02*
X61100000Y-29252380D01*
X61004761Y-29300000D01*
X60957142Y-29347619D01*
X60861904Y-29490476D01*
X60814285Y-29680952D01*
X60814285Y-30061904D01*
X60861904Y-30157142D01*
X60909523Y-30204761D01*
X61004761Y-30252380D01*
X61195238Y-30252380D01*
X61290476Y-30204761D01*
X61338095Y-30157142D01*
X61385714Y-30061904D01*
X61385714Y-29823809D01*
X61338095Y-29728571D01*
X61290476Y-29680952D01*
X61195238Y-29633333D01*
X61004761Y-29633333D01*
X60909523Y-29680952D01*
X60861904Y-29728571D01*
X60814285Y-29823809D01*
X95766666Y-25352380D02*
X95766666Y-26066666D01*
X95719047Y-26209523D01*
X95623809Y-26304761D01*
X95480952Y-26352380D01*
X95385714Y-26352380D01*
X96719047Y-25352380D02*
X96242857Y-25352380D01*
X96195238Y-25828571D01*
X96242857Y-25780952D01*
X96338095Y-25733333D01*
X96576190Y-25733333D01*
X96671428Y-25780952D01*
X96719047Y-25828571D01*
X96766666Y-25923809D01*
X96766666Y-26161904D01*
X96719047Y-26257142D01*
X96671428Y-26304761D01*
X96576190Y-26352380D01*
X96338095Y-26352380D01*
X96242857Y-26304761D01*
X96195238Y-26257142D01*
X98957142Y-75966666D02*
X99004761Y-76014285D01*
X99052380Y-76157142D01*
X99052380Y-76252380D01*
X99004761Y-76395238D01*
X98909523Y-76490476D01*
X98814285Y-76538095D01*
X98623809Y-76585714D01*
X98480952Y-76585714D01*
X98290476Y-76538095D01*
X98195238Y-76490476D01*
X98100000Y-76395238D01*
X98052380Y-76252380D01*
X98052380Y-76157142D01*
X98100000Y-76014285D01*
X98147619Y-75966666D01*
X99052380Y-75014285D02*
X99052380Y-75585714D01*
X99052380Y-75300000D02*
X98052380Y-75300000D01*
X98195238Y-75395238D01*
X98290476Y-75490476D01*
X98338095Y-75585714D01*
X92152380Y-49633333D02*
X92866666Y-49633333D01*
X93009523Y-49680952D01*
X93104761Y-49776190D01*
X93152380Y-49919047D01*
X93152380Y-50014285D01*
X93152380Y-48633333D02*
X93152380Y-49204761D01*
X93152380Y-48919047D02*
X92152380Y-48919047D01*
X92295238Y-49014285D01*
X92390476Y-49109523D01*
X92438095Y-49204761D01*
X102252380Y-26233333D02*
X102966666Y-26233333D01*
X103109523Y-26280952D01*
X103204761Y-26376190D01*
X103252380Y-26519047D01*
X103252380Y-26614285D01*
X102252380Y-25852380D02*
X102252380Y-25233333D01*
X102633333Y-25566666D01*
X102633333Y-25423809D01*
X102680952Y-25328571D01*
X102728571Y-25280952D01*
X102823809Y-25233333D01*
X103061904Y-25233333D01*
X103157142Y-25280952D01*
X103204761Y-25328571D01*
X103252380Y-25423809D01*
X103252380Y-25709523D01*
X103204761Y-25804761D01*
X103157142Y-25852380D01*
X92162380Y-67153333D02*
X92876666Y-67153333D01*
X93019523Y-67200952D01*
X93114761Y-67296190D01*
X93162380Y-67439047D01*
X93162380Y-67534285D01*
X92495714Y-66248571D02*
X93162380Y-66248571D01*
X92114761Y-66486666D02*
X92829047Y-66724761D01*
X92829047Y-66105714D01*
X71666666Y-25252380D02*
X71666666Y-25966666D01*
X71619047Y-26109523D01*
X71523809Y-26204761D01*
X71380952Y-26252380D01*
X71285714Y-26252380D01*
X72571428Y-25252380D02*
X72380952Y-25252380D01*
X72285714Y-25300000D01*
X72238095Y-25347619D01*
X72142857Y-25490476D01*
X72095238Y-25680952D01*
X72095238Y-26061904D01*
X72142857Y-26157142D01*
X72190476Y-26204761D01*
X72285714Y-26252380D01*
X72476190Y-26252380D01*
X72571428Y-26204761D01*
X72619047Y-26157142D01*
X72666666Y-26061904D01*
X72666666Y-25823809D01*
X72619047Y-25728571D01*
X72571428Y-25680952D01*
X72476190Y-25633333D01*
X72285714Y-25633333D01*
X72190476Y-25680952D01*
X72142857Y-25728571D01*
X72095238Y-25823809D01*
X107952380Y-78633333D02*
X108666666Y-78633333D01*
X108809523Y-78680952D01*
X108904761Y-78776190D01*
X108952380Y-78919047D01*
X108952380Y-79014285D01*
X107952380Y-78252380D02*
X107952380Y-77585714D01*
X108952380Y-78014285D01*
X57766666Y-39752380D02*
X57766666Y-40466666D01*
X57719047Y-40609523D01*
X57623809Y-40704761D01*
X57480952Y-40752380D01*
X57385714Y-40752380D01*
X58385714Y-40180952D02*
X58290476Y-40133333D01*
X58242857Y-40085714D01*
X58195238Y-39990476D01*
X58195238Y-39942857D01*
X58242857Y-39847619D01*
X58290476Y-39800000D01*
X58385714Y-39752380D01*
X58576190Y-39752380D01*
X58671428Y-39800000D01*
X58719047Y-39847619D01*
X58766666Y-39942857D01*
X58766666Y-39990476D01*
X58719047Y-40085714D01*
X58671428Y-40133333D01*
X58576190Y-40180952D01*
X58385714Y-40180952D01*
X58290476Y-40228571D01*
X58242857Y-40276190D01*
X58195238Y-40371428D01*
X58195238Y-40561904D01*
X58242857Y-40657142D01*
X58290476Y-40704761D01*
X58385714Y-40752380D01*
X58576190Y-40752380D01*
X58671428Y-40704761D01*
X58719047Y-40657142D01*
X58766666Y-40561904D01*
X58766666Y-40371428D01*
X58719047Y-40276190D01*
X58671428Y-40228571D01*
X58576190Y-40180952D01*
X57266666Y-51052380D02*
X57266666Y-51766666D01*
X57219047Y-51909523D01*
X57123809Y-52004761D01*
X56980952Y-52052380D01*
X56885714Y-52052380D01*
X57790476Y-52052380D02*
X57980952Y-52052380D01*
X58076190Y-52004761D01*
X58123809Y-51957142D01*
X58219047Y-51814285D01*
X58266666Y-51623809D01*
X58266666Y-51242857D01*
X58219047Y-51147619D01*
X58171428Y-51100000D01*
X58076190Y-51052380D01*
X57885714Y-51052380D01*
X57790476Y-51100000D01*
X57742857Y-51147619D01*
X57695238Y-51242857D01*
X57695238Y-51480952D01*
X57742857Y-51576190D01*
X57790476Y-51623809D01*
X57885714Y-51671428D01*
X58076190Y-51671428D01*
X58171428Y-51623809D01*
X58219047Y-51576190D01*
X58266666Y-51480952D01*
X56590476Y-63052380D02*
X56590476Y-63766666D01*
X56542857Y-63909523D01*
X56447619Y-64004761D01*
X56304761Y-64052380D01*
X56209523Y-64052380D01*
X57590476Y-64052380D02*
X57019047Y-64052380D01*
X57304761Y-64052380D02*
X57304761Y-63052380D01*
X57209523Y-63195238D01*
X57114285Y-63290476D01*
X57019047Y-63338095D01*
X58209523Y-63052380D02*
X58304761Y-63052380D01*
X58400000Y-63100000D01*
X58447619Y-63147619D01*
X58495238Y-63242857D01*
X58542857Y-63433333D01*
X58542857Y-63671428D01*
X58495238Y-63861904D01*
X58447619Y-63957142D01*
X58400000Y-64004761D01*
X58304761Y-64052380D01*
X58209523Y-64052380D01*
X58114285Y-64004761D01*
X58066666Y-63957142D01*
X58019047Y-63861904D01*
X57971428Y-63671428D01*
X57971428Y-63433333D01*
X58019047Y-63242857D01*
X58066666Y-63147619D01*
X58114285Y-63100000D01*
X58209523Y-63052380D01*
X40804761Y-35877619D02*
X40709523Y-35830000D01*
X40614285Y-35734761D01*
X40471428Y-35591904D01*
X40376190Y-35544285D01*
X40280952Y-35544285D01*
X40328571Y-35782380D02*
X40233333Y-35734761D01*
X40138095Y-35639523D01*
X40090476Y-35449047D01*
X40090476Y-35115714D01*
X40138095Y-34925238D01*
X40233333Y-34830000D01*
X40328571Y-34782380D01*
X40519047Y-34782380D01*
X40614285Y-34830000D01*
X40709523Y-34925238D01*
X40757142Y-35115714D01*
X40757142Y-35449047D01*
X40709523Y-35639523D01*
X40614285Y-35734761D01*
X40519047Y-35782380D01*
X40328571Y-35782380D01*
X41709523Y-35782380D02*
X41138095Y-35782380D01*
X41423809Y-35782380D02*
X41423809Y-34782380D01*
X41328571Y-34925238D01*
X41233333Y-35020476D01*
X41138095Y-35068095D01*
X48304761Y-35997619D02*
X48209523Y-35950000D01*
X48114285Y-35854761D01*
X47971428Y-35711904D01*
X47876190Y-35664285D01*
X47780952Y-35664285D01*
X47828571Y-35902380D02*
X47733333Y-35854761D01*
X47638095Y-35759523D01*
X47590476Y-35569047D01*
X47590476Y-35235714D01*
X47638095Y-35045238D01*
X47733333Y-34950000D01*
X47828571Y-34902380D01*
X48019047Y-34902380D01*
X48114285Y-34950000D01*
X48209523Y-35045238D01*
X48257142Y-35235714D01*
X48257142Y-35569047D01*
X48209523Y-35759523D01*
X48114285Y-35854761D01*
X48019047Y-35902380D01*
X47828571Y-35902380D01*
X48638095Y-34997619D02*
X48685714Y-34950000D01*
X48780952Y-34902380D01*
X49019047Y-34902380D01*
X49114285Y-34950000D01*
X49161904Y-34997619D01*
X49209523Y-35092857D01*
X49209523Y-35188095D01*
X49161904Y-35330952D01*
X48590476Y-35902380D01*
X49209523Y-35902380D01*
X56404761Y-35877619D02*
X56309523Y-35830000D01*
X56214285Y-35734761D01*
X56071428Y-35591904D01*
X55976190Y-35544285D01*
X55880952Y-35544285D01*
X55928571Y-35782380D02*
X55833333Y-35734761D01*
X55738095Y-35639523D01*
X55690476Y-35449047D01*
X55690476Y-35115714D01*
X55738095Y-34925238D01*
X55833333Y-34830000D01*
X55928571Y-34782380D01*
X56119047Y-34782380D01*
X56214285Y-34830000D01*
X56309523Y-34925238D01*
X56357142Y-35115714D01*
X56357142Y-35449047D01*
X56309523Y-35639523D01*
X56214285Y-35734761D01*
X56119047Y-35782380D01*
X55928571Y-35782380D01*
X56690476Y-34782380D02*
X57309523Y-34782380D01*
X56976190Y-35163333D01*
X57119047Y-35163333D01*
X57214285Y-35210952D01*
X57261904Y-35258571D01*
X57309523Y-35353809D01*
X57309523Y-35591904D01*
X57261904Y-35687142D01*
X57214285Y-35734761D01*
X57119047Y-35782380D01*
X56833333Y-35782380D01*
X56738095Y-35734761D01*
X56690476Y-35687142D01*
X39704761Y-47147619D02*
X39609523Y-47100000D01*
X39514285Y-47004761D01*
X39371428Y-46861904D01*
X39276190Y-46814285D01*
X39180952Y-46814285D01*
X39228571Y-47052380D02*
X39133333Y-47004761D01*
X39038095Y-46909523D01*
X38990476Y-46719047D01*
X38990476Y-46385714D01*
X39038095Y-46195238D01*
X39133333Y-46100000D01*
X39228571Y-46052380D01*
X39419047Y-46052380D01*
X39514285Y-46100000D01*
X39609523Y-46195238D01*
X39657142Y-46385714D01*
X39657142Y-46719047D01*
X39609523Y-46909523D01*
X39514285Y-47004761D01*
X39419047Y-47052380D01*
X39228571Y-47052380D01*
X40514285Y-46385714D02*
X40514285Y-47052380D01*
X40276190Y-46004761D02*
X40038095Y-46719047D01*
X40657142Y-46719047D01*
X48154761Y-47147619D02*
X48059523Y-47100000D01*
X47964285Y-47004761D01*
X47821428Y-46861904D01*
X47726190Y-46814285D01*
X47630952Y-46814285D01*
X47678571Y-47052380D02*
X47583333Y-47004761D01*
X47488095Y-46909523D01*
X47440476Y-46719047D01*
X47440476Y-46385714D01*
X47488095Y-46195238D01*
X47583333Y-46100000D01*
X47678571Y-46052380D01*
X47869047Y-46052380D01*
X47964285Y-46100000D01*
X48059523Y-46195238D01*
X48107142Y-46385714D01*
X48107142Y-46719047D01*
X48059523Y-46909523D01*
X47964285Y-47004761D01*
X47869047Y-47052380D01*
X47678571Y-47052380D01*
X49011904Y-46052380D02*
X48535714Y-46052380D01*
X48488095Y-46528571D01*
X48535714Y-46480952D01*
X48630952Y-46433333D01*
X48869047Y-46433333D01*
X48964285Y-46480952D01*
X49011904Y-46528571D01*
X49059523Y-46623809D01*
X49059523Y-46861904D01*
X49011904Y-46957142D01*
X48964285Y-47004761D01*
X48869047Y-47052380D01*
X48630952Y-47052380D01*
X48535714Y-47004761D01*
X48488095Y-46957142D01*
X56454761Y-47027619D02*
X56359523Y-46980000D01*
X56264285Y-46884761D01*
X56121428Y-46741904D01*
X56026190Y-46694285D01*
X55930952Y-46694285D01*
X55978571Y-46932380D02*
X55883333Y-46884761D01*
X55788095Y-46789523D01*
X55740476Y-46599047D01*
X55740476Y-46265714D01*
X55788095Y-46075238D01*
X55883333Y-45980000D01*
X55978571Y-45932380D01*
X56169047Y-45932380D01*
X56264285Y-45980000D01*
X56359523Y-46075238D01*
X56407142Y-46265714D01*
X56407142Y-46599047D01*
X56359523Y-46789523D01*
X56264285Y-46884761D01*
X56169047Y-46932380D01*
X55978571Y-46932380D01*
X57264285Y-45932380D02*
X57073809Y-45932380D01*
X56978571Y-45980000D01*
X56930952Y-46027619D01*
X56835714Y-46170476D01*
X56788095Y-46360952D01*
X56788095Y-46741904D01*
X56835714Y-46837142D01*
X56883333Y-46884761D01*
X56978571Y-46932380D01*
X57169047Y-46932380D01*
X57264285Y-46884761D01*
X57311904Y-46837142D01*
X57359523Y-46741904D01*
X57359523Y-46503809D01*
X57311904Y-46408571D01*
X57264285Y-46360952D01*
X57169047Y-46313333D01*
X56978571Y-46313333D01*
X56883333Y-46360952D01*
X56835714Y-46408571D01*
X56788095Y-46503809D01*
X40054761Y-58847619D02*
X39959523Y-58800000D01*
X39864285Y-58704761D01*
X39721428Y-58561904D01*
X39626190Y-58514285D01*
X39530952Y-58514285D01*
X39578571Y-58752380D02*
X39483333Y-58704761D01*
X39388095Y-58609523D01*
X39340476Y-58419047D01*
X39340476Y-58085714D01*
X39388095Y-57895238D01*
X39483333Y-57800000D01*
X39578571Y-57752380D01*
X39769047Y-57752380D01*
X39864285Y-57800000D01*
X39959523Y-57895238D01*
X40007142Y-58085714D01*
X40007142Y-58419047D01*
X39959523Y-58609523D01*
X39864285Y-58704761D01*
X39769047Y-58752380D01*
X39578571Y-58752380D01*
X40340476Y-57752380D02*
X41007142Y-57752380D01*
X40578571Y-58752380D01*
X47804761Y-58977619D02*
X47709523Y-58930000D01*
X47614285Y-58834761D01*
X47471428Y-58691904D01*
X47376190Y-58644285D01*
X47280952Y-58644285D01*
X47328571Y-58882380D02*
X47233333Y-58834761D01*
X47138095Y-58739523D01*
X47090476Y-58549047D01*
X47090476Y-58215714D01*
X47138095Y-58025238D01*
X47233333Y-57930000D01*
X47328571Y-57882380D01*
X47519047Y-57882380D01*
X47614285Y-57930000D01*
X47709523Y-58025238D01*
X47757142Y-58215714D01*
X47757142Y-58549047D01*
X47709523Y-58739523D01*
X47614285Y-58834761D01*
X47519047Y-58882380D01*
X47328571Y-58882380D01*
X48328571Y-58310952D02*
X48233333Y-58263333D01*
X48185714Y-58215714D01*
X48138095Y-58120476D01*
X48138095Y-58072857D01*
X48185714Y-57977619D01*
X48233333Y-57930000D01*
X48328571Y-57882380D01*
X48519047Y-57882380D01*
X48614285Y-57930000D01*
X48661904Y-57977619D01*
X48709523Y-58072857D01*
X48709523Y-58120476D01*
X48661904Y-58215714D01*
X48614285Y-58263333D01*
X48519047Y-58310952D01*
X48328571Y-58310952D01*
X48233333Y-58358571D01*
X48185714Y-58406190D01*
X48138095Y-58501428D01*
X48138095Y-58691904D01*
X48185714Y-58787142D01*
X48233333Y-58834761D01*
X48328571Y-58882380D01*
X48519047Y-58882380D01*
X48614285Y-58834761D01*
X48661904Y-58787142D01*
X48709523Y-58691904D01*
X48709523Y-58501428D01*
X48661904Y-58406190D01*
X48614285Y-58358571D01*
X48519047Y-58310952D01*
X56054761Y-58977619D02*
X55959523Y-58930000D01*
X55864285Y-58834761D01*
X55721428Y-58691904D01*
X55626190Y-58644285D01*
X55530952Y-58644285D01*
X55578571Y-58882380D02*
X55483333Y-58834761D01*
X55388095Y-58739523D01*
X55340476Y-58549047D01*
X55340476Y-58215714D01*
X55388095Y-58025238D01*
X55483333Y-57930000D01*
X55578571Y-57882380D01*
X55769047Y-57882380D01*
X55864285Y-57930000D01*
X55959523Y-58025238D01*
X56007142Y-58215714D01*
X56007142Y-58549047D01*
X55959523Y-58739523D01*
X55864285Y-58834761D01*
X55769047Y-58882380D01*
X55578571Y-58882380D01*
X56483333Y-58882380D02*
X56673809Y-58882380D01*
X56769047Y-58834761D01*
X56816666Y-58787142D01*
X56911904Y-58644285D01*
X56959523Y-58453809D01*
X56959523Y-58072857D01*
X56911904Y-57977619D01*
X56864285Y-57930000D01*
X56769047Y-57882380D01*
X56578571Y-57882380D01*
X56483333Y-57930000D01*
X56435714Y-57977619D01*
X56388095Y-58072857D01*
X56388095Y-58310952D01*
X56435714Y-58406190D01*
X56483333Y-58453809D01*
X56578571Y-58501428D01*
X56769047Y-58501428D01*
X56864285Y-58453809D01*
X56911904Y-58406190D01*
X56959523Y-58310952D01*
X63533333Y-30302380D02*
X63200000Y-29826190D01*
X62961904Y-30302380D02*
X62961904Y-29302380D01*
X63342857Y-29302380D01*
X63438095Y-29350000D01*
X63485714Y-29397619D01*
X63533333Y-29492857D01*
X63533333Y-29635714D01*
X63485714Y-29730952D01*
X63438095Y-29778571D01*
X63342857Y-29826190D01*
X62961904Y-29826190D01*
X64485714Y-30302380D02*
X63914285Y-30302380D01*
X64200000Y-30302380D02*
X64200000Y-29302380D01*
X64104761Y-29445238D01*
X64009523Y-29540476D01*
X63914285Y-29588095D01*
X66633333Y-30402380D02*
X66300000Y-29926190D01*
X66061904Y-30402380D02*
X66061904Y-29402380D01*
X66442857Y-29402380D01*
X66538095Y-29450000D01*
X66585714Y-29497619D01*
X66633333Y-29592857D01*
X66633333Y-29735714D01*
X66585714Y-29830952D01*
X66538095Y-29878571D01*
X66442857Y-29926190D01*
X66061904Y-29926190D01*
X67014285Y-29497619D02*
X67061904Y-29450000D01*
X67157142Y-29402380D01*
X67395238Y-29402380D01*
X67490476Y-29450000D01*
X67538095Y-29497619D01*
X67585714Y-29592857D01*
X67585714Y-29688095D01*
X67538095Y-29830952D01*
X66966666Y-30402380D01*
X67585714Y-30402380D01*
X69733333Y-30402380D02*
X69400000Y-29926190D01*
X69161904Y-30402380D02*
X69161904Y-29402380D01*
X69542857Y-29402380D01*
X69638095Y-29450000D01*
X69685714Y-29497619D01*
X69733333Y-29592857D01*
X69733333Y-29735714D01*
X69685714Y-29830952D01*
X69638095Y-29878571D01*
X69542857Y-29926190D01*
X69161904Y-29926190D01*
X70066666Y-29402380D02*
X70685714Y-29402380D01*
X70352380Y-29783333D01*
X70495238Y-29783333D01*
X70590476Y-29830952D01*
X70638095Y-29878571D01*
X70685714Y-29973809D01*
X70685714Y-30211904D01*
X70638095Y-30307142D01*
X70590476Y-30354761D01*
X70495238Y-30402380D01*
X70209523Y-30402380D01*
X70114285Y-30354761D01*
X70066666Y-30307142D01*
X54433333Y-30237380D02*
X54100000Y-29761190D01*
X53861904Y-30237380D02*
X53861904Y-29237380D01*
X54242857Y-29237380D01*
X54338095Y-29285000D01*
X54385714Y-29332619D01*
X54433333Y-29427857D01*
X54433333Y-29570714D01*
X54385714Y-29665952D01*
X54338095Y-29713571D01*
X54242857Y-29761190D01*
X53861904Y-29761190D01*
X55290476Y-29570714D02*
X55290476Y-30237380D01*
X55052380Y-29189761D02*
X54814285Y-29904047D01*
X55433333Y-29904047D01*
X91942638Y-41042340D02*
X91466448Y-41375673D01*
X91942638Y-41613768D02*
X90942638Y-41613768D01*
X90942638Y-41232816D01*
X90990258Y-41137578D01*
X91037877Y-41089959D01*
X91133115Y-41042340D01*
X91275972Y-41042340D01*
X91371210Y-41089959D01*
X91418829Y-41137578D01*
X91466448Y-41232816D01*
X91466448Y-41613768D01*
X91942638Y-40089959D02*
X91942638Y-40661387D01*
X91942638Y-40375673D02*
X90942638Y-40375673D01*
X91085496Y-40470911D01*
X91180734Y-40566149D01*
X91228353Y-40661387D01*
X90942638Y-39470911D02*
X90942638Y-39375673D01*
X90990258Y-39280435D01*
X91037877Y-39232816D01*
X91133115Y-39185197D01*
X91323591Y-39137578D01*
X91561686Y-39137578D01*
X91752162Y-39185197D01*
X91847400Y-39232816D01*
X91895019Y-39280435D01*
X91942638Y-39375673D01*
X91942638Y-39470911D01*
X91895019Y-39566149D01*
X91847400Y-39613768D01*
X91752162Y-39661387D01*
X91561686Y-39709006D01*
X91323591Y-39709006D01*
X91133115Y-39661387D01*
X91037877Y-39613768D01*
X90990258Y-39566149D01*
X90942638Y-39470911D01*
X94692638Y-41042340D02*
X94216448Y-41375673D01*
X94692638Y-41613768D02*
X93692638Y-41613768D01*
X93692638Y-41232816D01*
X93740258Y-41137578D01*
X93787877Y-41089959D01*
X93883115Y-41042340D01*
X94025972Y-41042340D01*
X94121210Y-41089959D01*
X94168829Y-41137578D01*
X94216448Y-41232816D01*
X94216448Y-41613768D01*
X94692638Y-40089959D02*
X94692638Y-40661387D01*
X94692638Y-40375673D02*
X93692638Y-40375673D01*
X93835496Y-40470911D01*
X93930734Y-40566149D01*
X93978353Y-40661387D01*
X94692638Y-39137578D02*
X94692638Y-39709006D01*
X94692638Y-39423292D02*
X93692638Y-39423292D01*
X93835496Y-39518530D01*
X93930734Y-39613768D01*
X93978353Y-39709006D01*
X85802380Y-40977857D02*
X85326190Y-41311190D01*
X85802380Y-41549285D02*
X84802380Y-41549285D01*
X84802380Y-41168333D01*
X84850000Y-41073095D01*
X84897619Y-41025476D01*
X84992857Y-40977857D01*
X85135714Y-40977857D01*
X85230952Y-41025476D01*
X85278571Y-41073095D01*
X85326190Y-41168333D01*
X85326190Y-41549285D01*
X85802380Y-40025476D02*
X85802380Y-40596904D01*
X85802380Y-40311190D02*
X84802380Y-40311190D01*
X84945238Y-40406428D01*
X85040476Y-40501666D01*
X85088095Y-40596904D01*
X84897619Y-39644523D02*
X84850000Y-39596904D01*
X84802380Y-39501666D01*
X84802380Y-39263571D01*
X84850000Y-39168333D01*
X84897619Y-39120714D01*
X84992857Y-39073095D01*
X85088095Y-39073095D01*
X85230952Y-39120714D01*
X85802380Y-39692142D01*
X85802380Y-39073095D01*
X88402380Y-40827857D02*
X87926190Y-41161190D01*
X88402380Y-41399285D02*
X87402380Y-41399285D01*
X87402380Y-41018333D01*
X87450000Y-40923095D01*
X87497619Y-40875476D01*
X87592857Y-40827857D01*
X87735714Y-40827857D01*
X87830952Y-40875476D01*
X87878571Y-40923095D01*
X87926190Y-41018333D01*
X87926190Y-41399285D01*
X88402380Y-39875476D02*
X88402380Y-40446904D01*
X88402380Y-40161190D02*
X87402380Y-40161190D01*
X87545238Y-40256428D01*
X87640476Y-40351666D01*
X87688095Y-40446904D01*
X87402380Y-39542142D02*
X87402380Y-38923095D01*
X87783333Y-39256428D01*
X87783333Y-39113571D01*
X87830952Y-39018333D01*
X87878571Y-38970714D01*
X87973809Y-38923095D01*
X88211904Y-38923095D01*
X88307142Y-38970714D01*
X88354761Y-39018333D01*
X88402380Y-39113571D01*
X88402380Y-39399285D01*
X88354761Y-39494523D01*
X88307142Y-39542142D01*
X76557142Y-94052380D02*
X76223809Y-93576190D01*
X75985714Y-94052380D02*
X75985714Y-93052380D01*
X76366666Y-93052380D01*
X76461904Y-93100000D01*
X76509523Y-93147619D01*
X76557142Y-93242857D01*
X76557142Y-93385714D01*
X76509523Y-93480952D01*
X76461904Y-93528571D01*
X76366666Y-93576190D01*
X75985714Y-93576190D01*
X77509523Y-94052380D02*
X76938095Y-94052380D01*
X77223809Y-94052380D02*
X77223809Y-93052380D01*
X77128571Y-93195238D01*
X77033333Y-93290476D01*
X76938095Y-93338095D01*
X78366666Y-93385714D02*
X78366666Y-94052380D01*
X78128571Y-93004761D02*
X77890476Y-93719047D01*
X78509523Y-93719047D01*
X76557142Y-97852380D02*
X76223809Y-97376190D01*
X75985714Y-97852380D02*
X75985714Y-96852380D01*
X76366666Y-96852380D01*
X76461904Y-96900000D01*
X76509523Y-96947619D01*
X76557142Y-97042857D01*
X76557142Y-97185714D01*
X76509523Y-97280952D01*
X76461904Y-97328571D01*
X76366666Y-97376190D01*
X75985714Y-97376190D01*
X77509523Y-97852380D02*
X76938095Y-97852380D01*
X77223809Y-97852380D02*
X77223809Y-96852380D01*
X77128571Y-96995238D01*
X77033333Y-97090476D01*
X76938095Y-97138095D01*
X78414285Y-96852380D02*
X77938095Y-96852380D01*
X77890476Y-97328571D01*
X77938095Y-97280952D01*
X78033333Y-97233333D01*
X78271428Y-97233333D01*
X78366666Y-97280952D01*
X78414285Y-97328571D01*
X78461904Y-97423809D01*
X78461904Y-97661904D01*
X78414285Y-97757142D01*
X78366666Y-97804761D01*
X78271428Y-97852380D01*
X78033333Y-97852380D01*
X77938095Y-97804761D01*
X77890476Y-97757142D01*
X76557142Y-81952380D02*
X76223809Y-81476190D01*
X75985714Y-81952380D02*
X75985714Y-80952380D01*
X76366666Y-80952380D01*
X76461904Y-81000000D01*
X76509523Y-81047619D01*
X76557142Y-81142857D01*
X76557142Y-81285714D01*
X76509523Y-81380952D01*
X76461904Y-81428571D01*
X76366666Y-81476190D01*
X75985714Y-81476190D01*
X77509523Y-81952380D02*
X76938095Y-81952380D01*
X77223809Y-81952380D02*
X77223809Y-80952380D01*
X77128571Y-81095238D01*
X77033333Y-81190476D01*
X76938095Y-81238095D01*
X78366666Y-80952380D02*
X78176190Y-80952380D01*
X78080952Y-81000000D01*
X78033333Y-81047619D01*
X77938095Y-81190476D01*
X77890476Y-81380952D01*
X77890476Y-81761904D01*
X77938095Y-81857142D01*
X77985714Y-81904761D01*
X78080952Y-81952380D01*
X78271428Y-81952380D01*
X78366666Y-81904761D01*
X78414285Y-81857142D01*
X78461904Y-81761904D01*
X78461904Y-81523809D01*
X78414285Y-81428571D01*
X78366666Y-81380952D01*
X78271428Y-81333333D01*
X78080952Y-81333333D01*
X77985714Y-81380952D01*
X77938095Y-81428571D01*
X77890476Y-81523809D01*
X76457142Y-85852380D02*
X76123809Y-85376190D01*
X75885714Y-85852380D02*
X75885714Y-84852380D01*
X76266666Y-84852380D01*
X76361904Y-84900000D01*
X76409523Y-84947619D01*
X76457142Y-85042857D01*
X76457142Y-85185714D01*
X76409523Y-85280952D01*
X76361904Y-85328571D01*
X76266666Y-85376190D01*
X75885714Y-85376190D01*
X77409523Y-85852380D02*
X76838095Y-85852380D01*
X77123809Y-85852380D02*
X77123809Y-84852380D01*
X77028571Y-84995238D01*
X76933333Y-85090476D01*
X76838095Y-85138095D01*
X77742857Y-84852380D02*
X78409523Y-84852380D01*
X77980952Y-85852380D01*
X76557142Y-89552380D02*
X76223809Y-89076190D01*
X75985714Y-89552380D02*
X75985714Y-88552380D01*
X76366666Y-88552380D01*
X76461904Y-88600000D01*
X76509523Y-88647619D01*
X76557142Y-88742857D01*
X76557142Y-88885714D01*
X76509523Y-88980952D01*
X76461904Y-89028571D01*
X76366666Y-89076190D01*
X75985714Y-89076190D01*
X77509523Y-89552380D02*
X76938095Y-89552380D01*
X77223809Y-89552380D02*
X77223809Y-88552380D01*
X77128571Y-88695238D01*
X77033333Y-88790476D01*
X76938095Y-88838095D01*
X78080952Y-88980952D02*
X77985714Y-88933333D01*
X77938095Y-88885714D01*
X77890476Y-88790476D01*
X77890476Y-88742857D01*
X77938095Y-88647619D01*
X77985714Y-88600000D01*
X78080952Y-88552380D01*
X78271428Y-88552380D01*
X78366666Y-88600000D01*
X78414285Y-88647619D01*
X78461904Y-88742857D01*
X78461904Y-88790476D01*
X78414285Y-88885714D01*
X78366666Y-88933333D01*
X78271428Y-88980952D01*
X78080952Y-88980952D01*
X77985714Y-89028571D01*
X77938095Y-89076190D01*
X77890476Y-89171428D01*
X77890476Y-89361904D01*
X77938095Y-89457142D01*
X77985714Y-89504761D01*
X78080952Y-89552380D01*
X78271428Y-89552380D01*
X78366666Y-89504761D01*
X78414285Y-89457142D01*
X78461904Y-89361904D01*
X78461904Y-89171428D01*
X78414285Y-89076190D01*
X78366666Y-89028571D01*
X78271428Y-88980952D01*
X59076666Y-74494761D02*
X59219523Y-74542380D01*
X59457619Y-74542380D01*
X59552857Y-74494761D01*
X59600476Y-74447142D01*
X59648095Y-74351904D01*
X59648095Y-74256666D01*
X59600476Y-74161428D01*
X59552857Y-74113809D01*
X59457619Y-74066190D01*
X59267142Y-74018571D01*
X59171904Y-73970952D01*
X59124285Y-73923333D01*
X59076666Y-73828095D01*
X59076666Y-73732857D01*
X59124285Y-73637619D01*
X59171904Y-73590000D01*
X59267142Y-73542380D01*
X59505238Y-73542380D01*
X59648095Y-73590000D01*
X59981428Y-73542380D02*
X60219523Y-74542380D01*
X60410000Y-73828095D01*
X60600476Y-74542380D01*
X60838571Y-73542380D01*
X61743333Y-74542380D02*
X61171904Y-74542380D01*
X61457619Y-74542380D02*
X61457619Y-73542380D01*
X61362380Y-73685238D01*
X61267142Y-73780476D01*
X61171904Y-73828095D01*
X85568095Y-99262380D02*
X85568095Y-100071904D01*
X85615714Y-100167142D01*
X85663333Y-100214761D01*
X85758571Y-100262380D01*
X85949047Y-100262380D01*
X86044285Y-100214761D01*
X86091904Y-100167142D01*
X86139523Y-100071904D01*
X86139523Y-99262380D01*
X86568095Y-99357619D02*
X86615714Y-99310000D01*
X86710952Y-99262380D01*
X86949047Y-99262380D01*
X87044285Y-99310000D01*
X87091904Y-99357619D01*
X87139523Y-99452857D01*
X87139523Y-99548095D01*
X87091904Y-99690952D01*
X86520476Y-100262380D01*
X87139523Y-100262380D01*
X51333333Y-30187380D02*
X51000000Y-29711190D01*
X50761904Y-30187380D02*
X50761904Y-29187380D01*
X51142857Y-29187380D01*
X51238095Y-29235000D01*
X51285714Y-29282619D01*
X51333333Y-29377857D01*
X51333333Y-29520714D01*
X51285714Y-29615952D01*
X51238095Y-29663571D01*
X51142857Y-29711190D01*
X50761904Y-29711190D01*
X51809523Y-30187380D02*
X52000000Y-30187380D01*
X52095238Y-30139761D01*
X52142857Y-30092142D01*
X52238095Y-29949285D01*
X52285714Y-29758809D01*
X52285714Y-29377857D01*
X52238095Y-29282619D01*
X52190476Y-29235000D01*
X52095238Y-29187380D01*
X51904761Y-29187380D01*
X51809523Y-29235000D01*
X51761904Y-29282619D01*
X51714285Y-29377857D01*
X51714285Y-29615952D01*
X51761904Y-29711190D01*
X51809523Y-29758809D01*
X51904761Y-29806428D01*
X52095238Y-29806428D01*
X52190476Y-29758809D01*
X52238095Y-29711190D01*
X52285714Y-29615952D01*
X24138095Y-92852380D02*
X24138095Y-93661904D01*
X24185714Y-93757142D01*
X24233333Y-93804761D01*
X24328571Y-93852380D01*
X24519047Y-93852380D01*
X24614285Y-93804761D01*
X24661904Y-93757142D01*
X24709523Y-93661904D01*
X24709523Y-92852380D01*
X25090476Y-92852380D02*
X25709523Y-92852380D01*
X25376190Y-93233333D01*
X25519047Y-93233333D01*
X25614285Y-93280952D01*
X25661904Y-93328571D01*
X25709523Y-93423809D01*
X25709523Y-93661904D01*
X25661904Y-93757142D01*
X25614285Y-93804761D01*
X25519047Y-93852380D01*
X25233333Y-93852380D01*
X25138095Y-93804761D01*
X25090476Y-93757142D01*
M02*
