M48
;DRILL file {KiCad (2018-01-30 revision 342197bb3)-makepkg} date 02/10/18 00:43:58
;FORMAT={-:-/ absolute / inch / decimal}
FMAT,2
INCH,TZ
T1C0.0157
T2C0.0300
T3C0.0315
T4C0.0394
T5C0.0413
T6C0.1063
T7C0.1370
%
G90
G05
M72
T1
X0.8071Y-1.4646
X0.8071Y-1.8071
T2
X1.0724Y-2.1528
X1.0724Y-2.2528
X1.0724Y-2.3528
X1.0724Y-2.4528
X1.0724Y-2.5528
T3
X0.2874Y-0.1669
X0.2874Y-0.2669
X0.2874Y-0.3669
X0.2874Y-0.4669
X0.2874Y-0.5669
X0.2874Y-0.6669
X0.2874Y-0.7669
X0.2874Y-0.8669
X0.2874Y-0.9669
X0.2874Y-1.0669
X0.2874Y-1.1669
X0.2874Y-1.2669
X0.2874Y-1.3669
X0.2874Y-1.4669
X0.2874Y-1.5669
X0.8874Y-0.1669
X0.8874Y-0.2669
X0.8874Y-0.3669
X0.8874Y-0.4669
X0.8874Y-0.5669
X0.8874Y-0.6669
X0.8874Y-0.7669
X0.8874Y-0.8669
X0.8874Y-0.9669
X0.8874Y-1.0669
X0.8874Y-1.1669
X0.8874Y-1.2669
X0.8874Y-1.3669
X0.8874Y-1.4669
X0.8874Y-1.5669
T4
X0.7677Y-2.3268
X0.7677Y-2.4252
X0.7677Y-2.5236
X0.5866Y-0.1024
X0.5866Y-0.2024
X0.5866Y-0.3024
X0.5866Y-0.4024
X0.5866Y-0.5024
X0.3228Y-2.315
X0.3228Y-2.4134
X0.3228Y-2.5118
X0.6614Y-1.1181
X0.6614Y-1.2165
X0.6614Y-1.315
X0.6614Y-1.4134
X0.5866Y-0.6024
X0.5866Y-0.7024
X0.5866Y-0.8024
T5
X0.6614Y-1.8701
X0.6614Y-1.9685
T6
X0.0984Y-1.6535
X1.0827Y-1.6535
X0.0984Y-0.0945
X1.0827Y-0.0984
T7
X0.1724Y-2.8028
T0
M30
