G04 #@! TF.GenerationSoftware,KiCad,Pcbnew,(2018-01-30 revision 342197bb3)-makepkg*
G04 #@! TF.CreationDate,2018-02-10T00:50:16-05:00*
G04 #@! TF.ProjectId,DayClock Circuit,446179436C6F636B2043697263756974,rev?*
G04 #@! TF.SameCoordinates,Original*
G04 #@! TF.FileFunction,Legend,Top*
G04 #@! TF.FilePolarity,Positive*
%FSLAX46Y46*%
G04 Gerber Fmt 4.6, Leading zero omitted, Abs format (unit mm)*
G04 Created by KiCad (PCBNEW (2018-01-30 revision 342197bb3)-makepkg) date 02/10/18 00:50:16*
%MOMM*%
%LPD*%
G01*
G04 APERTURE LIST*
%ADD10C,0.300000*%
%ADD11C,0.120000*%
%ADD12C,0.150000*%
G04 APERTURE END LIST*
D10*
X2572023Y-31678571D02*
X1302023Y-31678571D01*
X1302023Y-31376190D01*
X1362499Y-31194761D01*
X1483452Y-31073809D01*
X1604404Y-31013333D01*
X1846309Y-30952857D01*
X2027738Y-30952857D01*
X2269642Y-31013333D01*
X2390595Y-31073809D01*
X2511547Y-31194761D01*
X2572023Y-31376190D01*
X2572023Y-31678571D01*
X2572023Y-29864285D02*
X1906785Y-29864285D01*
X1785833Y-29924761D01*
X1725357Y-30045714D01*
X1725357Y-30287619D01*
X1785833Y-30408571D01*
X2511547Y-29864285D02*
X2572023Y-29985238D01*
X2572023Y-30287619D01*
X2511547Y-30408571D01*
X2390595Y-30469047D01*
X2269642Y-30469047D01*
X2148690Y-30408571D01*
X2088214Y-30287619D01*
X2088214Y-29985238D01*
X2027738Y-29864285D01*
X1725357Y-29380476D02*
X2572023Y-29078095D01*
X1725357Y-28775714D02*
X2572023Y-29078095D01*
X2874404Y-29199047D01*
X2934880Y-29259523D01*
X2995357Y-29380476D01*
X2451071Y-26598571D02*
X2511547Y-26659047D01*
X2572023Y-26840476D01*
X2572023Y-26961428D01*
X2511547Y-27142857D01*
X2390595Y-27263809D01*
X2269642Y-27324285D01*
X2027738Y-27384761D01*
X1846309Y-27384761D01*
X1604404Y-27324285D01*
X1483452Y-27263809D01*
X1362499Y-27142857D01*
X1302023Y-26961428D01*
X1302023Y-26840476D01*
X1362499Y-26659047D01*
X1422976Y-26598571D01*
X1725357Y-26175238D02*
X2572023Y-25872857D01*
X1725357Y-25570476D02*
X2572023Y-25872857D01*
X2874404Y-25993809D01*
X2934880Y-26054285D01*
X2995357Y-26175238D01*
X2511547Y-24542380D02*
X2572023Y-24663333D01*
X2572023Y-24905238D01*
X2511547Y-25026190D01*
X2451071Y-25086666D01*
X2330119Y-25147142D01*
X1967261Y-25147142D01*
X1846309Y-25086666D01*
X1785833Y-25026190D01*
X1725357Y-24905238D01*
X1725357Y-24663333D01*
X1785833Y-24542380D01*
X2572023Y-23816666D02*
X2511547Y-23937619D01*
X2390595Y-23998095D01*
X1302023Y-23998095D01*
X2511547Y-22849047D02*
X2572023Y-22970000D01*
X2572023Y-23211904D01*
X2511547Y-23332857D01*
X2390595Y-23393333D01*
X1906785Y-23393333D01*
X1785833Y-23332857D01*
X1725357Y-23211904D01*
X1725357Y-22970000D01*
X1785833Y-22849047D01*
X1906785Y-22788571D01*
X2027738Y-22788571D01*
X2148690Y-23393333D01*
X2451071Y-20550952D02*
X2511547Y-20611428D01*
X2572023Y-20792857D01*
X2572023Y-20913809D01*
X2511547Y-21095238D01*
X2390595Y-21216190D01*
X2269642Y-21276666D01*
X2027738Y-21337142D01*
X1846309Y-21337142D01*
X1604404Y-21276666D01*
X1483452Y-21216190D01*
X1362500Y-21095238D01*
X1302023Y-20913809D01*
X1302023Y-20792857D01*
X1362500Y-20611428D01*
X1422976Y-20550952D01*
X2572023Y-19825238D02*
X2511547Y-19946190D01*
X2390595Y-20006666D01*
X1302023Y-20006666D01*
X2572023Y-19160000D02*
X2511547Y-19280952D01*
X2451071Y-19341428D01*
X2330119Y-19401904D01*
X1967261Y-19401904D01*
X1846309Y-19341428D01*
X1785833Y-19280952D01*
X1725357Y-19160000D01*
X1725357Y-18978571D01*
X1785833Y-18857619D01*
X1846309Y-18797142D01*
X1967261Y-18736666D01*
X2330119Y-18736666D01*
X2451071Y-18797142D01*
X2511547Y-18857619D01*
X2572023Y-18978571D01*
X2572023Y-19160000D01*
X2511547Y-17648095D02*
X2572023Y-17769047D01*
X2572023Y-18010952D01*
X2511547Y-18131904D01*
X2451071Y-18192380D01*
X2330119Y-18252857D01*
X1967261Y-18252857D01*
X1846309Y-18192380D01*
X1785833Y-18131904D01*
X1725357Y-18010952D01*
X1725357Y-17769047D01*
X1785833Y-17648095D01*
X2572023Y-17103809D02*
X1302023Y-17103809D01*
X2088214Y-16982857D02*
X2572023Y-16620000D01*
X1725357Y-16620000D02*
X2209166Y-17103809D01*
X1725357Y-15229047D02*
X2572023Y-14926666D01*
X1725357Y-14624285D01*
X1302023Y-13898571D02*
X1302023Y-13777619D01*
X1362500Y-13656666D01*
X1422976Y-13596190D01*
X1543928Y-13535714D01*
X1785833Y-13475238D01*
X2088214Y-13475238D01*
X2330119Y-13535714D01*
X2451071Y-13596190D01*
X2511547Y-13656666D01*
X2572023Y-13777619D01*
X2572023Y-13898571D01*
X2511547Y-14019523D01*
X2451071Y-14080000D01*
X2330119Y-14140476D01*
X2088214Y-14200952D01*
X1785833Y-14200952D01*
X1543928Y-14140476D01*
X1422976Y-14080000D01*
X1362500Y-14019523D01*
X1302023Y-13898571D01*
X2451071Y-12930952D02*
X2511547Y-12870476D01*
X2572023Y-12930952D01*
X2511547Y-12991428D01*
X2451071Y-12930952D01*
X2572023Y-12930952D01*
X2572023Y-11660952D02*
X2572023Y-12386666D01*
X2572023Y-12023809D02*
X1302023Y-12023809D01*
X1483452Y-12144761D01*
X1604404Y-12265714D01*
X1664880Y-12386666D01*
X4777023Y-30590000D02*
X4172261Y-31013333D01*
X4777023Y-31315714D02*
X3507023Y-31315714D01*
X3507023Y-30831904D01*
X3567499Y-30710952D01*
X3627976Y-30650476D01*
X3748928Y-30590000D01*
X3930357Y-30590000D01*
X4051309Y-30650476D01*
X4111785Y-30710952D01*
X4172261Y-30831904D01*
X4172261Y-31315714D01*
X4777023Y-30045714D02*
X3930357Y-30045714D01*
X3507023Y-30045714D02*
X3567499Y-30106190D01*
X3627976Y-30045714D01*
X3567499Y-29985238D01*
X3507023Y-30045714D01*
X3627976Y-30045714D01*
X4716547Y-28896666D02*
X4777023Y-29017619D01*
X4777023Y-29259523D01*
X4716547Y-29380476D01*
X4656071Y-29440952D01*
X4535119Y-29501428D01*
X4172261Y-29501428D01*
X4051309Y-29440952D01*
X3990833Y-29380476D01*
X3930357Y-29259523D01*
X3930357Y-29017619D01*
X3990833Y-28896666D01*
X4777023Y-28352380D02*
X3507023Y-28352380D01*
X4777023Y-27808095D02*
X4111785Y-27808095D01*
X3990833Y-27868571D01*
X3930357Y-27989523D01*
X3930357Y-28170952D01*
X3990833Y-28291904D01*
X4051309Y-28352380D01*
X4777023Y-26235714D02*
X3507023Y-26235714D01*
X4777023Y-25510000D01*
X3507023Y-25510000D01*
X4716547Y-24421428D02*
X4777023Y-24542380D01*
X4777023Y-24784285D01*
X4716547Y-24905238D01*
X4595595Y-24965714D01*
X4111785Y-24965714D01*
X3990833Y-24905238D01*
X3930357Y-24784285D01*
X3930357Y-24542380D01*
X3990833Y-24421428D01*
X4111785Y-24360952D01*
X4232738Y-24360952D01*
X4353690Y-24965714D01*
X4777023Y-23635238D02*
X4716547Y-23756190D01*
X4595595Y-23816666D01*
X3507023Y-23816666D01*
X4716547Y-23211904D02*
X4777023Y-23090952D01*
X4777023Y-22849047D01*
X4716547Y-22728095D01*
X4595595Y-22667619D01*
X4535119Y-22667619D01*
X4414166Y-22728095D01*
X4353690Y-22849047D01*
X4353690Y-23030476D01*
X4293214Y-23151428D01*
X4172261Y-23211904D01*
X4111785Y-23211904D01*
X3990833Y-23151428D01*
X3930357Y-23030476D01*
X3930357Y-22849047D01*
X3990833Y-22728095D01*
X4777023Y-21941904D02*
X4716547Y-22062857D01*
X4656071Y-22123333D01*
X4535119Y-22183809D01*
X4172261Y-22183809D01*
X4051309Y-22123333D01*
X3990833Y-22062857D01*
X3930357Y-21941904D01*
X3930357Y-21760476D01*
X3990833Y-21639523D01*
X4051309Y-21579047D01*
X4172261Y-21518571D01*
X4535119Y-21518571D01*
X4656071Y-21579047D01*
X4716547Y-21639523D01*
X4777023Y-21760476D01*
X4777023Y-21941904D01*
X3930357Y-20974285D02*
X4777023Y-20974285D01*
X4051309Y-20974285D02*
X3990833Y-20913809D01*
X3930357Y-20792857D01*
X3930357Y-20611428D01*
X3990833Y-20490476D01*
X4111785Y-20430000D01*
X4777023Y-20430000D01*
X3627976Y-18918095D02*
X3567500Y-18857619D01*
X3507023Y-18736666D01*
X3507023Y-18434285D01*
X3567500Y-18313333D01*
X3627976Y-18252857D01*
X3748928Y-18192380D01*
X3869880Y-18192380D01*
X4051309Y-18252857D01*
X4777023Y-18978571D01*
X4777023Y-18192380D01*
X3446547Y-16740952D02*
X5079404Y-17829523D01*
X3627976Y-16378095D02*
X3567500Y-16317619D01*
X3507023Y-16196666D01*
X3507023Y-15894285D01*
X3567500Y-15773333D01*
X3627976Y-15712857D01*
X3748928Y-15652380D01*
X3869880Y-15652380D01*
X4051309Y-15712857D01*
X4777023Y-16438571D01*
X4777023Y-15652380D01*
X3507023Y-14866190D02*
X3507023Y-14745238D01*
X3567500Y-14624285D01*
X3627976Y-14563809D01*
X3748928Y-14503333D01*
X3990833Y-14442857D01*
X4293214Y-14442857D01*
X4535119Y-14503333D01*
X4656071Y-14563809D01*
X4716547Y-14624285D01*
X4777023Y-14745238D01*
X4777023Y-14866190D01*
X4716547Y-14987142D01*
X4656071Y-15047619D01*
X4535119Y-15108095D01*
X4293214Y-15168571D01*
X3990833Y-15168571D01*
X3748928Y-15108095D01*
X3627976Y-15047619D01*
X3567500Y-14987142D01*
X3507023Y-14866190D01*
X4777023Y-13233333D02*
X4777023Y-13959047D01*
X4777023Y-13596190D02*
X3507023Y-13596190D01*
X3688452Y-13717142D01*
X3809404Y-13838095D01*
X3869880Y-13959047D01*
X4051309Y-12507619D02*
X3990833Y-12628571D01*
X3930357Y-12689047D01*
X3809404Y-12749523D01*
X3748928Y-12749523D01*
X3627976Y-12689047D01*
X3567500Y-12628571D01*
X3507023Y-12507619D01*
X3507023Y-12265714D01*
X3567500Y-12144761D01*
X3627976Y-12084285D01*
X3748928Y-12023809D01*
X3809404Y-12023809D01*
X3930357Y-12084285D01*
X3990833Y-12144761D01*
X4051309Y-12265714D01*
X4051309Y-12507619D01*
X4111785Y-12628571D01*
X4172261Y-12689047D01*
X4293214Y-12749523D01*
X4535119Y-12749523D01*
X4656071Y-12689047D01*
X4716547Y-12628571D01*
X4777023Y-12507619D01*
X4777023Y-12265714D01*
X4716547Y-12144761D01*
X4656071Y-12084285D01*
X4535119Y-12023809D01*
X4293214Y-12023809D01*
X4172261Y-12084285D01*
X4111785Y-12144761D01*
X4051309Y-12265714D01*
X3678571Y-65778571D02*
X3678571Y-66492857D01*
X2178571Y-66492857D01*
X2892857Y-65278571D02*
X2892857Y-64778571D01*
X3678571Y-64564285D02*
X3678571Y-65278571D01*
X2178571Y-65278571D01*
X2178571Y-64564285D01*
X3678571Y-63921428D02*
X2178571Y-63921428D01*
X2178571Y-63564285D01*
X2250000Y-63350000D01*
X2392857Y-63207142D01*
X2535714Y-63135714D01*
X2821428Y-63064285D01*
X3035714Y-63064285D01*
X3321428Y-63135714D01*
X3464285Y-63207142D01*
X3607142Y-63350000D01*
X3678571Y-63564285D01*
X3678571Y-63921428D01*
X3607142Y-61350000D02*
X3678571Y-61135714D01*
X3678571Y-60778571D01*
X3607142Y-60635714D01*
X3535714Y-60564285D01*
X3392857Y-60492857D01*
X3250000Y-60492857D01*
X3107142Y-60564285D01*
X3035714Y-60635714D01*
X2964285Y-60778571D01*
X2892857Y-61064285D01*
X2821428Y-61207142D01*
X2750000Y-61278571D01*
X2607142Y-61350000D01*
X2464285Y-61350000D01*
X2321428Y-61278571D01*
X2250000Y-61207142D01*
X2178571Y-61064285D01*
X2178571Y-60707142D01*
X2250000Y-60492857D01*
X2678571Y-60064285D02*
X2678571Y-59492857D01*
X2178571Y-59850000D02*
X3464285Y-59850000D01*
X3607142Y-59778571D01*
X3678571Y-59635714D01*
X3678571Y-59492857D01*
X3678571Y-58992857D02*
X2678571Y-58992857D01*
X2964285Y-58992857D02*
X2821428Y-58921428D01*
X2750000Y-58850000D01*
X2678571Y-58707142D01*
X2678571Y-58564285D01*
X3678571Y-58064285D02*
X2678571Y-58064285D01*
X2178571Y-58064285D02*
X2250000Y-58135714D01*
X2321428Y-58064285D01*
X2250000Y-57992857D01*
X2178571Y-58064285D01*
X2321428Y-58064285D01*
X2678571Y-57350000D02*
X4178571Y-57350000D01*
X2750000Y-57350000D02*
X2678571Y-57207142D01*
X2678571Y-56921428D01*
X2750000Y-56778571D01*
X2821428Y-56707142D01*
X2964285Y-56635714D01*
X3392857Y-56635714D01*
X3535714Y-56707142D01*
X3607142Y-56778571D01*
X3678571Y-56921428D01*
X3678571Y-57207142D01*
X3607142Y-57350000D01*
X15007142Y-64385714D02*
X15078571Y-64171428D01*
X15078571Y-63814285D01*
X15007142Y-63671428D01*
X14935714Y-63600000D01*
X14792857Y-63528571D01*
X14650000Y-63528571D01*
X14507142Y-63600000D01*
X14435714Y-63671428D01*
X14364285Y-63814285D01*
X14292857Y-64100000D01*
X14221428Y-64242857D01*
X14150000Y-64314285D01*
X14007142Y-64385714D01*
X13864285Y-64385714D01*
X13721428Y-64314285D01*
X13650000Y-64242857D01*
X13578571Y-64100000D01*
X13578571Y-63742857D01*
X13650000Y-63528571D01*
X15007142Y-62314285D02*
X15078571Y-62457142D01*
X15078571Y-62742857D01*
X15007142Y-62885714D01*
X14864285Y-62957142D01*
X14292857Y-62957142D01*
X14150000Y-62885714D01*
X14078571Y-62742857D01*
X14078571Y-62457142D01*
X14150000Y-62314285D01*
X14292857Y-62242857D01*
X14435714Y-62242857D01*
X14578571Y-62957142D01*
X15078571Y-61600000D02*
X14078571Y-61600000D01*
X14364285Y-61600000D02*
X14221428Y-61528571D01*
X14150000Y-61457142D01*
X14078571Y-61314285D01*
X14078571Y-61171428D01*
X14078571Y-60814285D02*
X15078571Y-60457142D01*
X14078571Y-60100000D01*
X15078571Y-59314285D02*
X15007142Y-59457142D01*
X14935714Y-59528571D01*
X14792857Y-59600000D01*
X14364285Y-59600000D01*
X14221428Y-59528571D01*
X14150000Y-59457142D01*
X14078571Y-59314285D01*
X14078571Y-59100000D01*
X14150000Y-58957142D01*
X14221428Y-58885714D01*
X14364285Y-58814285D01*
X14792857Y-58814285D01*
X14935714Y-58885714D01*
X15007142Y-58957142D01*
X15078571Y-59100000D01*
X15078571Y-59314285D01*
X10678571Y-52878571D02*
X10678571Y-53592857D01*
X11392857Y-53664285D01*
X11321428Y-53592857D01*
X11250000Y-53450000D01*
X11250000Y-53092857D01*
X11321428Y-52950000D01*
X11392857Y-52878571D01*
X11535714Y-52807142D01*
X11892857Y-52807142D01*
X12035714Y-52878571D01*
X12107142Y-52950000D01*
X12178571Y-53092857D01*
X12178571Y-53450000D01*
X12107142Y-53592857D01*
X12035714Y-53664285D01*
X10678571Y-52378571D02*
X12178571Y-51878571D01*
X10678571Y-51378571D01*
X12178571Y-49735714D02*
X10678571Y-49735714D01*
X10678571Y-49164285D01*
X10750000Y-49021428D01*
X10821428Y-48950000D01*
X10964285Y-48878571D01*
X11178571Y-48878571D01*
X11321428Y-48950000D01*
X11392857Y-49021428D01*
X11464285Y-49164285D01*
X11464285Y-49735714D01*
X12178571Y-48021428D02*
X12107142Y-48164285D01*
X12035714Y-48235714D01*
X11892857Y-48307142D01*
X11464285Y-48307142D01*
X11321428Y-48235714D01*
X11250000Y-48164285D01*
X11178571Y-48021428D01*
X11178571Y-47807142D01*
X11250000Y-47664285D01*
X11321428Y-47592857D01*
X11464285Y-47521428D01*
X11892857Y-47521428D01*
X12035714Y-47592857D01*
X12107142Y-47664285D01*
X12178571Y-47807142D01*
X12178571Y-48021428D01*
X11178571Y-47021428D02*
X12178571Y-46735714D01*
X11464285Y-46450000D01*
X12178571Y-46164285D01*
X11178571Y-45878571D01*
X12107142Y-44735714D02*
X12178571Y-44878571D01*
X12178571Y-45164285D01*
X12107142Y-45307142D01*
X11964285Y-45378571D01*
X11392857Y-45378571D01*
X11250000Y-45307142D01*
X11178571Y-45164285D01*
X11178571Y-44878571D01*
X11250000Y-44735714D01*
X11392857Y-44664285D01*
X11535714Y-44664285D01*
X11678571Y-45378571D01*
X12178571Y-44021428D02*
X11178571Y-44021428D01*
X11464285Y-44021428D02*
X11321428Y-43950000D01*
X11250000Y-43878571D01*
X11178571Y-43735714D01*
X11178571Y-43592857D01*
X11878571Y-39385714D02*
X10378571Y-39385714D01*
X10878571Y-38671428D02*
X11878571Y-38671428D01*
X11021428Y-38671428D02*
X10950000Y-38600000D01*
X10878571Y-38457142D01*
X10878571Y-38242857D01*
X10950000Y-38100000D01*
X11092857Y-38028571D01*
X11878571Y-38028571D01*
X10878571Y-37314285D02*
X12378571Y-37314285D01*
X10950000Y-37314285D02*
X10878571Y-37171428D01*
X10878571Y-36885714D01*
X10950000Y-36742857D01*
X11021428Y-36671428D01*
X11164285Y-36600000D01*
X11592857Y-36600000D01*
X11735714Y-36671428D01*
X11807142Y-36742857D01*
X11878571Y-36885714D01*
X11878571Y-37171428D01*
X11807142Y-37314285D01*
X10878571Y-35314285D02*
X11878571Y-35314285D01*
X10878571Y-35957142D02*
X11664285Y-35957142D01*
X11807142Y-35885714D01*
X11878571Y-35742857D01*
X11878571Y-35528571D01*
X11807142Y-35385714D01*
X11735714Y-35314285D01*
X10878571Y-34814285D02*
X10878571Y-34242857D01*
X10378571Y-34600000D02*
X11664285Y-34600000D01*
X11807142Y-34528571D01*
X11878571Y-34385714D01*
X11878571Y-34242857D01*
X11092857Y-32100000D02*
X11164285Y-31885714D01*
X11235714Y-31814285D01*
X11378571Y-31742857D01*
X11592857Y-31742857D01*
X11735714Y-31814285D01*
X11807142Y-31885714D01*
X11878571Y-32028571D01*
X11878571Y-32600000D01*
X10378571Y-32600000D01*
X10378571Y-32100000D01*
X10450000Y-31957142D01*
X10521428Y-31885714D01*
X10664285Y-31814285D01*
X10807142Y-31814285D01*
X10950000Y-31885714D01*
X11021428Y-31957142D01*
X11092857Y-32100000D01*
X11092857Y-32600000D01*
X10878571Y-30457142D02*
X11878571Y-30457142D01*
X10878571Y-31100000D02*
X11664285Y-31100000D01*
X11807142Y-31028571D01*
X11878571Y-30885714D01*
X11878571Y-30671428D01*
X11807142Y-30528571D01*
X11735714Y-30457142D01*
X10878571Y-29957142D02*
X10878571Y-29385714D01*
X10378571Y-29742857D02*
X11664285Y-29742857D01*
X11807142Y-29671428D01*
X11878571Y-29528571D01*
X11878571Y-29385714D01*
X10878571Y-29100000D02*
X10878571Y-28528571D01*
X10378571Y-28885714D02*
X11664285Y-28885714D01*
X11807142Y-28814285D01*
X11878571Y-28671428D01*
X11878571Y-28528571D01*
X11878571Y-27814285D02*
X11807142Y-27957142D01*
X11735714Y-28028571D01*
X11592857Y-28100000D01*
X11164285Y-28100000D01*
X11021428Y-28028571D01*
X10950000Y-27957142D01*
X10878571Y-27814285D01*
X10878571Y-27600000D01*
X10950000Y-27457142D01*
X11021428Y-27385714D01*
X11164285Y-27314285D01*
X11592857Y-27314285D01*
X11735714Y-27385714D01*
X11807142Y-27457142D01*
X11878571Y-27600000D01*
X11878571Y-27814285D01*
X10878571Y-26671428D02*
X11878571Y-26671428D01*
X11021428Y-26671428D02*
X10950000Y-26600000D01*
X10878571Y-26457142D01*
X10878571Y-26242857D01*
X10950000Y-26100000D01*
X11092857Y-26028571D01*
X11878571Y-26028571D01*
X11807142Y-25385714D02*
X11878571Y-25242857D01*
X11878571Y-24957142D01*
X11807142Y-24814285D01*
X11664285Y-24742857D01*
X11592857Y-24742857D01*
X11450000Y-24814285D01*
X11378571Y-24957142D01*
X11378571Y-25171428D01*
X11307142Y-25314285D01*
X11164285Y-25385714D01*
X11092857Y-25385714D01*
X10950000Y-25314285D01*
X10878571Y-25171428D01*
X10878571Y-24957142D01*
X10950000Y-24814285D01*
X10778571Y-17900000D02*
X10778571Y-17042857D01*
X12278571Y-17471428D02*
X10778571Y-17471428D01*
X11492857Y-16042857D02*
X11492857Y-16542857D01*
X12278571Y-16542857D02*
X10778571Y-16542857D01*
X10778571Y-15828571D01*
X10778571Y-15471428D02*
X10778571Y-14614285D01*
X12278571Y-15042857D02*
X10778571Y-15042857D01*
X12207142Y-13042857D02*
X12278571Y-12828571D01*
X12278571Y-12471428D01*
X12207142Y-12328571D01*
X12135714Y-12257142D01*
X11992857Y-12185714D01*
X11850000Y-12185714D01*
X11707142Y-12257142D01*
X11635714Y-12328571D01*
X11564285Y-12471428D01*
X11492857Y-12757142D01*
X11421428Y-12900000D01*
X11350000Y-12971428D01*
X11207142Y-13042857D01*
X11064285Y-13042857D01*
X10921428Y-12971428D01*
X10850000Y-12900000D01*
X10778571Y-12757142D01*
X10778571Y-12400000D01*
X10850000Y-12185714D01*
X12207142Y-10900000D02*
X12278571Y-11042857D01*
X12278571Y-11328571D01*
X12207142Y-11471428D01*
X12135714Y-11542857D01*
X11992857Y-11614285D01*
X11564285Y-11614285D01*
X11421428Y-11542857D01*
X11350000Y-11471428D01*
X11278571Y-11328571D01*
X11278571Y-11042857D01*
X11350000Y-10900000D01*
X12278571Y-10257142D02*
X11278571Y-10257142D01*
X11564285Y-10257142D02*
X11421428Y-10185714D01*
X11350000Y-10114285D01*
X11278571Y-9971428D01*
X11278571Y-9828571D01*
X12207142Y-8757142D02*
X12278571Y-8900000D01*
X12278571Y-9185714D01*
X12207142Y-9328571D01*
X12064285Y-9400000D01*
X11492857Y-9400000D01*
X11350000Y-9328571D01*
X11278571Y-9185714D01*
X11278571Y-8900000D01*
X11350000Y-8757142D01*
X11492857Y-8685714D01*
X11635714Y-8685714D01*
X11778571Y-9400000D01*
X12207142Y-7471428D02*
X12278571Y-7614285D01*
X12278571Y-7900000D01*
X12207142Y-8042857D01*
X12064285Y-8114285D01*
X11492857Y-8114285D01*
X11350000Y-8042857D01*
X11278571Y-7900000D01*
X11278571Y-7614285D01*
X11350000Y-7471428D01*
X11492857Y-7400000D01*
X11635714Y-7400000D01*
X11778571Y-8114285D01*
X11278571Y-6757142D02*
X12278571Y-6757142D01*
X11421428Y-6757142D02*
X11350000Y-6685714D01*
X11278571Y-6542857D01*
X11278571Y-6328571D01*
X11350000Y-6185714D01*
X11492857Y-6114285D01*
X12278571Y-6114285D01*
D11*
X22250000Y-56250000D02*
X19750000Y-56250000D01*
X22250000Y-58750000D02*
X22250000Y-56250000D01*
X16750000Y-65900000D02*
X16750000Y-61600000D01*
X19700000Y-65900000D02*
X16750000Y-65900000D01*
X19700000Y-66650000D02*
X19700000Y-65900000D01*
X16750000Y-57300000D02*
X16750000Y-61600000D01*
X19700000Y-57300000D02*
X16750000Y-57300000D01*
X19700000Y-56550000D02*
X19700000Y-57300000D01*
X21950000Y-66650000D02*
X21950000Y-64850000D01*
X21200000Y-66650000D02*
X21950000Y-66650000D01*
X21200000Y-64850000D02*
X21200000Y-66650000D01*
X21950000Y-64850000D02*
X21200000Y-64850000D01*
X21950000Y-58350000D02*
X21950000Y-56550000D01*
X21200000Y-58350000D02*
X21950000Y-58350000D01*
X21200000Y-56550000D02*
X21200000Y-58350000D01*
X21950000Y-56550000D02*
X21200000Y-56550000D01*
X21950000Y-63350000D02*
X21950000Y-59850000D01*
X21200000Y-63350000D02*
X21950000Y-63350000D01*
X21200000Y-59850000D02*
X21200000Y-63350000D01*
X21950000Y-59850000D02*
X21200000Y-59850000D01*
X21950000Y-66650000D02*
X21950000Y-56550000D01*
X16000000Y-66650000D02*
X21950000Y-66650000D01*
X16000000Y-56550000D02*
X16000000Y-66650000D01*
X21950000Y-56550000D02*
X16000000Y-56550000D01*
X10650000Y-56250000D02*
X4700000Y-56250000D01*
X4700000Y-56250000D02*
X4700000Y-66350000D01*
X4700000Y-66350000D02*
X10650000Y-66350000D01*
X10650000Y-66350000D02*
X10650000Y-56250000D01*
X10650000Y-59550000D02*
X9900000Y-59550000D01*
X9900000Y-59550000D02*
X9900000Y-63050000D01*
X9900000Y-63050000D02*
X10650000Y-63050000D01*
X10650000Y-63050000D02*
X10650000Y-59550000D01*
X10650000Y-56250000D02*
X9900000Y-56250000D01*
X9900000Y-56250000D02*
X9900000Y-58050000D01*
X9900000Y-58050000D02*
X10650000Y-58050000D01*
X10650000Y-58050000D02*
X10650000Y-56250000D01*
X10650000Y-64550000D02*
X9900000Y-64550000D01*
X9900000Y-64550000D02*
X9900000Y-66350000D01*
X9900000Y-66350000D02*
X10650000Y-66350000D01*
X10650000Y-66350000D02*
X10650000Y-64550000D01*
X8400000Y-56250000D02*
X8400000Y-57000000D01*
X8400000Y-57000000D02*
X5450000Y-57000000D01*
X5450000Y-57000000D02*
X5450000Y-61300000D01*
X8400000Y-66350000D02*
X8400000Y-65600000D01*
X8400000Y-65600000D02*
X5450000Y-65600000D01*
X5450000Y-65600000D02*
X5450000Y-61300000D01*
X10950000Y-58450000D02*
X10950000Y-55950000D01*
X10950000Y-55950000D02*
X8450000Y-55950000D01*
X19550000Y-44650000D02*
X17050000Y-44650000D01*
X19550000Y-47150000D02*
X19550000Y-44650000D01*
X14050000Y-51800000D02*
X14050000Y-48750000D01*
X17000000Y-51800000D02*
X14050000Y-51800000D01*
X17000000Y-52550000D02*
X17000000Y-51800000D01*
X14050000Y-45700000D02*
X14050000Y-48750000D01*
X17000000Y-45700000D02*
X14050000Y-45700000D01*
X17000000Y-44950000D02*
X17000000Y-45700000D01*
X19250000Y-52550000D02*
X19250000Y-50750000D01*
X18500000Y-52550000D02*
X19250000Y-52550000D01*
X18500000Y-50750000D02*
X18500000Y-52550000D01*
X19250000Y-50750000D02*
X18500000Y-50750000D01*
X19250000Y-46750000D02*
X19250000Y-44950000D01*
X18500000Y-46750000D02*
X19250000Y-46750000D01*
X18500000Y-44950000D02*
X18500000Y-46750000D01*
X19250000Y-44950000D02*
X18500000Y-44950000D01*
X19250000Y-49250000D02*
X19250000Y-48250000D01*
X18500000Y-49250000D02*
X19250000Y-49250000D01*
X18500000Y-48250000D02*
X18500000Y-49250000D01*
X19250000Y-48250000D02*
X18500000Y-48250000D01*
X19250000Y-52550000D02*
X19250000Y-44950000D01*
X13300000Y-52550000D02*
X19250000Y-52550000D01*
X13300000Y-44950000D02*
X13300000Y-52550000D01*
X19250000Y-44950000D02*
X13300000Y-44950000D01*
X19550000Y-25550000D02*
X17050000Y-25550000D01*
X19550000Y-28050000D02*
X19550000Y-25550000D01*
X14050000Y-37700000D02*
X14050000Y-32150000D01*
X17000000Y-37700000D02*
X14050000Y-37700000D01*
X17000000Y-38450000D02*
X17000000Y-37700000D01*
X14050000Y-26600000D02*
X14050000Y-32150000D01*
X17000000Y-26600000D02*
X14050000Y-26600000D01*
X17000000Y-25850000D02*
X17000000Y-26600000D01*
X19250000Y-38450000D02*
X19250000Y-36650000D01*
X18500000Y-38450000D02*
X19250000Y-38450000D01*
X18500000Y-36650000D02*
X18500000Y-38450000D01*
X19250000Y-36650000D02*
X18500000Y-36650000D01*
X19250000Y-27650000D02*
X19250000Y-25850000D01*
X18500000Y-27650000D02*
X19250000Y-27650000D01*
X18500000Y-25850000D02*
X18500000Y-27650000D01*
X19250000Y-25850000D02*
X18500000Y-25850000D01*
X19250000Y-35150000D02*
X19250000Y-29150000D01*
X18500000Y-35150000D02*
X19250000Y-35150000D01*
X18500000Y-29150000D02*
X18500000Y-35150000D01*
X19250000Y-29150000D02*
X18500000Y-29150000D01*
X19250000Y-38450000D02*
X19250000Y-25850000D01*
X13300000Y-38450000D02*
X19250000Y-38450000D01*
X13300000Y-25850000D02*
X13300000Y-38450000D01*
X19250000Y-25850000D02*
X13300000Y-25850000D01*
X13570000Y-1270000D02*
X14900000Y-1270000D01*
X13570000Y-2600000D02*
X13570000Y-1270000D01*
X16230000Y-3870000D02*
X13570000Y-3870000D01*
X16230000Y-21710000D02*
X16230000Y-3870000D01*
X13570000Y-21710000D02*
X16230000Y-21710000D01*
X13570000Y-3870000D02*
X13570000Y-21710000D01*
D12*
X22452380Y-61933333D02*
X23166666Y-61933333D01*
X23309523Y-61980952D01*
X23404761Y-62076190D01*
X23452380Y-62219047D01*
X23452380Y-62314285D01*
X23452380Y-60933333D02*
X23452380Y-61504761D01*
X23452380Y-61219047D02*
X22452380Y-61219047D01*
X22595238Y-61314285D01*
X22690476Y-61409523D01*
X22738095Y-61504761D01*
X11152380Y-61633333D02*
X11866666Y-61633333D01*
X12009523Y-61680952D01*
X12104761Y-61776190D01*
X12152380Y-61919047D01*
X12152380Y-62014285D01*
X11247619Y-61204761D02*
X11200000Y-61157142D01*
X11152380Y-61061904D01*
X11152380Y-60823809D01*
X11200000Y-60728571D01*
X11247619Y-60680952D01*
X11342857Y-60633333D01*
X11438095Y-60633333D01*
X11580952Y-60680952D01*
X12152380Y-61252380D01*
X12152380Y-60633333D01*
X20352380Y-49633333D02*
X21066666Y-49633333D01*
X21209523Y-49680952D01*
X21304761Y-49776190D01*
X21352380Y-49919047D01*
X21352380Y-50014285D01*
X20352380Y-49252380D02*
X20352380Y-48633333D01*
X20733333Y-48966666D01*
X20733333Y-48823809D01*
X20780952Y-48728571D01*
X20828571Y-48680952D01*
X20923809Y-48633333D01*
X21161904Y-48633333D01*
X21257142Y-48680952D01*
X21304761Y-48728571D01*
X21352380Y-48823809D01*
X21352380Y-49109523D01*
X21304761Y-49204761D01*
X21257142Y-49252380D01*
X19752380Y-32483333D02*
X20466666Y-32483333D01*
X20609523Y-32530952D01*
X20704761Y-32626190D01*
X20752380Y-32769047D01*
X20752380Y-32864285D01*
X20085714Y-31578571D02*
X20752380Y-31578571D01*
X19704761Y-31816666D02*
X20419047Y-32054761D01*
X20419047Y-31435714D01*
X18252380Y-12614285D02*
X17252380Y-12614285D01*
X17252380Y-12376190D01*
X17300000Y-12233333D01*
X17395238Y-12138095D01*
X17490476Y-12090476D01*
X17680952Y-12042857D01*
X17823809Y-12042857D01*
X18014285Y-12090476D01*
X18109523Y-12138095D01*
X18204761Y-12233333D01*
X18252380Y-12376190D01*
X18252380Y-12614285D01*
X18204761Y-11661904D02*
X18252380Y-11519047D01*
X18252380Y-11280952D01*
X18204761Y-11185714D01*
X18157142Y-11138095D01*
X18061904Y-11090476D01*
X17966666Y-11090476D01*
X17871428Y-11138095D01*
X17823809Y-11185714D01*
X17776190Y-11280952D01*
X17728571Y-11471428D01*
X17680952Y-11566666D01*
X17633333Y-11614285D01*
X17538095Y-11661904D01*
X17442857Y-11661904D01*
X17347619Y-11614285D01*
X17300000Y-11566666D01*
X17252380Y-11471428D01*
X17252380Y-11233333D01*
X17300000Y-11090476D01*
X18252380Y-10138095D02*
X18252380Y-10709523D01*
X18252380Y-10423809D02*
X17252380Y-10423809D01*
X17395238Y-10519047D01*
X17490476Y-10614285D01*
X17538095Y-10709523D01*
M02*
