G04 #@! TF.GenerationSoftware,KiCad,Pcbnew,(5.0.0-rc2-dev-352-g017154715)*
G04 #@! TF.CreationDate,2018-06-03T23:58:02-04:00*
G04 #@! TF.ProjectId,DayClock Circuit,446179436C6F636B2043697263756974,rev?*
G04 #@! TF.SameCoordinates,Original*
G04 #@! TF.FileFunction,Legend,Bot*
G04 #@! TF.FilePolarity,Positive*
%FSLAX46Y46*%
G04 Gerber Fmt 4.6, Leading zero omitted, Abs format (unit mm)*
G04 Created by KiCad (PCBNEW (5.0.0-rc2-dev-352-g017154715)) date 06/03/18 23:58:02*
%MOMM*%
%LPD*%
G01*
G04 APERTURE LIST*
%ADD10C,0.400000*%
G04 APERTURE END LIST*
D10*
X78283333Y-57591666D02*
X78866666Y-56758333D01*
X79283333Y-57591666D02*
X79283333Y-55841666D01*
X78616666Y-55841666D01*
X78450000Y-55925000D01*
X78366666Y-56008333D01*
X78283333Y-56175000D01*
X78283333Y-56425000D01*
X78366666Y-56591666D01*
X78450000Y-56675000D01*
X78616666Y-56758333D01*
X79283333Y-56758333D01*
X77533333Y-57591666D02*
X77533333Y-56425000D01*
X77533333Y-55841666D02*
X77616666Y-55925000D01*
X77533333Y-56008333D01*
X77450000Y-55925000D01*
X77533333Y-55841666D01*
X77533333Y-56008333D01*
X75950000Y-57508333D02*
X76116666Y-57591666D01*
X76450000Y-57591666D01*
X76616666Y-57508333D01*
X76700000Y-57425000D01*
X76783333Y-57258333D01*
X76783333Y-56758333D01*
X76700000Y-56591666D01*
X76616666Y-56508333D01*
X76450000Y-56425000D01*
X76116666Y-56425000D01*
X75950000Y-56508333D01*
X75200000Y-57591666D02*
X75200000Y-55841666D01*
X74450000Y-57591666D02*
X74450000Y-56675000D01*
X74533333Y-56508333D01*
X74700000Y-56425000D01*
X74950000Y-56425000D01*
X75116666Y-56508333D01*
X75200000Y-56591666D01*
X72283333Y-57591666D02*
X72283333Y-55841666D01*
X71283333Y-57591666D01*
X71283333Y-55841666D01*
X69783333Y-57508333D02*
X69950000Y-57591666D01*
X70283333Y-57591666D01*
X70450000Y-57508333D01*
X70533333Y-57341666D01*
X70533333Y-56675000D01*
X70450000Y-56508333D01*
X70283333Y-56425000D01*
X69950000Y-56425000D01*
X69783333Y-56508333D01*
X69700000Y-56675000D01*
X69700000Y-56841666D01*
X70533333Y-57008333D01*
X68700000Y-57591666D02*
X68866666Y-57508333D01*
X68950000Y-57341666D01*
X68950000Y-55841666D01*
X68116666Y-57508333D02*
X67950000Y-57591666D01*
X67616666Y-57591666D01*
X67450000Y-57508333D01*
X67366666Y-57341666D01*
X67366666Y-57258333D01*
X67450000Y-57091666D01*
X67616666Y-57008333D01*
X67866666Y-57008333D01*
X68033333Y-56925000D01*
X68116666Y-56758333D01*
X68116666Y-56675000D01*
X68033333Y-56508333D01*
X67866666Y-56425000D01*
X67616666Y-56425000D01*
X67450000Y-56508333D01*
X66366666Y-57591666D02*
X66533333Y-57508333D01*
X66616666Y-57425000D01*
X66700000Y-57258333D01*
X66700000Y-56758333D01*
X66616666Y-56591666D01*
X66533333Y-56508333D01*
X66366666Y-56425000D01*
X66116666Y-56425000D01*
X65950000Y-56508333D01*
X65866666Y-56591666D01*
X65783333Y-56758333D01*
X65783333Y-57258333D01*
X65866666Y-57425000D01*
X65950000Y-57508333D01*
X66116666Y-57591666D01*
X66366666Y-57591666D01*
X65033333Y-56425000D02*
X65033333Y-57591666D01*
X65033333Y-56591666D02*
X64950000Y-56508333D01*
X64783333Y-56425000D01*
X64533333Y-56425000D01*
X64366666Y-56508333D01*
X64283333Y-56675000D01*
X64283333Y-57591666D01*
X61783333Y-55841666D02*
X61616666Y-55841666D01*
X61450000Y-55925000D01*
X61366666Y-56008333D01*
X61283333Y-56175000D01*
X61200000Y-56508333D01*
X61200000Y-56925000D01*
X61283333Y-57258333D01*
X61366666Y-57425000D01*
X61450000Y-57508333D01*
X61616666Y-57591666D01*
X61783333Y-57591666D01*
X61950000Y-57508333D01*
X62033333Y-57425000D01*
X62116666Y-57258333D01*
X62200000Y-56925000D01*
X62200000Y-56508333D01*
X62116666Y-56175000D01*
X62033333Y-56008333D01*
X61950000Y-55925000D01*
X61783333Y-55841666D01*
X59700000Y-55841666D02*
X60033333Y-55841666D01*
X60200000Y-55925000D01*
X60283333Y-56008333D01*
X60450000Y-56258333D01*
X60533333Y-56591666D01*
X60533333Y-57258333D01*
X60450000Y-57425000D01*
X60366666Y-57508333D01*
X60200000Y-57591666D01*
X59866666Y-57591666D01*
X59700000Y-57508333D01*
X59616666Y-57425000D01*
X59533333Y-57258333D01*
X59533333Y-56841666D01*
X59616666Y-56675000D01*
X59700000Y-56591666D01*
X59866666Y-56508333D01*
X60200000Y-56508333D01*
X60366666Y-56591666D01*
X60450000Y-56675000D01*
X60533333Y-56841666D01*
X57533333Y-55758333D02*
X59033333Y-58008333D01*
X57033333Y-56008333D02*
X56950000Y-55925000D01*
X56783333Y-55841666D01*
X56366666Y-55841666D01*
X56200000Y-55925000D01*
X56116666Y-56008333D01*
X56033333Y-56175000D01*
X56033333Y-56341666D01*
X56116666Y-56591666D01*
X57116666Y-57591666D01*
X56033333Y-57591666D01*
X54950000Y-55841666D02*
X54783333Y-55841666D01*
X54616666Y-55925000D01*
X54533333Y-56008333D01*
X54450000Y-56175000D01*
X54366666Y-56508333D01*
X54366666Y-56925000D01*
X54450000Y-57258333D01*
X54533333Y-57425000D01*
X54616666Y-57508333D01*
X54783333Y-57591666D01*
X54950000Y-57591666D01*
X55116666Y-57508333D01*
X55200000Y-57425000D01*
X55283333Y-57258333D01*
X55366666Y-56925000D01*
X55366666Y-56508333D01*
X55283333Y-56175000D01*
X55200000Y-56008333D01*
X55116666Y-55925000D01*
X54950000Y-55841666D01*
X52700000Y-57591666D02*
X53700000Y-57591666D01*
X53200000Y-57591666D02*
X53200000Y-55841666D01*
X53366666Y-56091666D01*
X53533333Y-56258333D01*
X53700000Y-56341666D01*
X51700000Y-56591666D02*
X51866666Y-56508333D01*
X51950000Y-56425000D01*
X52033333Y-56258333D01*
X52033333Y-56175000D01*
X51950000Y-56008333D01*
X51866666Y-55925000D01*
X51700000Y-55841666D01*
X51366666Y-55841666D01*
X51200000Y-55925000D01*
X51116666Y-56008333D01*
X51033333Y-56175000D01*
X51033333Y-56258333D01*
X51116666Y-56425000D01*
X51200000Y-56508333D01*
X51366666Y-56591666D01*
X51700000Y-56591666D01*
X51866666Y-56675000D01*
X51950000Y-56758333D01*
X52033333Y-56925000D01*
X52033333Y-57258333D01*
X51950000Y-57425000D01*
X51866666Y-57508333D01*
X51700000Y-57591666D01*
X51366666Y-57591666D01*
X51200000Y-57508333D01*
X51116666Y-57425000D01*
X51033333Y-57258333D01*
X51033333Y-56925000D01*
X51116666Y-56758333D01*
X51200000Y-56675000D01*
X51366666Y-56591666D01*
X83066666Y-52025000D02*
X83233333Y-51941666D01*
X83483333Y-51941666D01*
X83733333Y-52025000D01*
X83900000Y-52191666D01*
X83983333Y-52358333D01*
X84066666Y-52691666D01*
X84066666Y-52941666D01*
X83983333Y-53275000D01*
X83900000Y-53441666D01*
X83733333Y-53608333D01*
X83483333Y-53691666D01*
X83316666Y-53691666D01*
X83066666Y-53608333D01*
X82983333Y-53525000D01*
X82983333Y-52941666D01*
X83316666Y-52941666D01*
X82233333Y-53691666D02*
X82233333Y-52525000D01*
X82233333Y-51941666D02*
X82316666Y-52025000D01*
X82233333Y-52108333D01*
X82150000Y-52025000D01*
X82233333Y-51941666D01*
X82233333Y-52108333D01*
X80650000Y-53691666D02*
X80650000Y-52775000D01*
X80733333Y-52608333D01*
X80900000Y-52525000D01*
X81233333Y-52525000D01*
X81400000Y-52608333D01*
X80650000Y-53608333D02*
X80816666Y-53691666D01*
X81233333Y-53691666D01*
X81400000Y-53608333D01*
X81483333Y-53441666D01*
X81483333Y-53275000D01*
X81400000Y-53108333D01*
X81233333Y-53025000D01*
X80816666Y-53025000D01*
X80650000Y-52941666D01*
X79816666Y-52525000D02*
X79816666Y-53691666D01*
X79816666Y-52691666D02*
X79733333Y-52608333D01*
X79566666Y-52525000D01*
X79316666Y-52525000D01*
X79150000Y-52608333D01*
X79066666Y-52775000D01*
X79066666Y-53691666D01*
X78483333Y-52525000D02*
X77816666Y-52525000D01*
X78233333Y-51941666D02*
X78233333Y-53441666D01*
X78150000Y-53608333D01*
X77983333Y-53691666D01*
X77816666Y-53691666D01*
X75900000Y-53691666D02*
X75900000Y-51941666D01*
X75483333Y-51941666D01*
X75233333Y-52025000D01*
X75066666Y-52191666D01*
X74983333Y-52358333D01*
X74900000Y-52691666D01*
X74900000Y-52941666D01*
X74983333Y-53275000D01*
X75066666Y-53441666D01*
X75233333Y-53608333D01*
X75483333Y-53691666D01*
X75900000Y-53691666D01*
X73400000Y-53691666D02*
X73400000Y-52775000D01*
X73483333Y-52608333D01*
X73650000Y-52525000D01*
X73983333Y-52525000D01*
X74150000Y-52608333D01*
X73400000Y-53608333D02*
X73566666Y-53691666D01*
X73983333Y-53691666D01*
X74150000Y-53608333D01*
X74233333Y-53441666D01*
X74233333Y-53275000D01*
X74150000Y-53108333D01*
X73983333Y-53025000D01*
X73566666Y-53025000D01*
X73400000Y-52941666D01*
X72733333Y-52525000D02*
X72316666Y-53691666D01*
X71900000Y-52525000D02*
X72316666Y-53691666D01*
X72483333Y-54108333D01*
X72566666Y-54191666D01*
X72733333Y-54275000D01*
X68900000Y-53525000D02*
X68983333Y-53608333D01*
X69233333Y-53691666D01*
X69400000Y-53691666D01*
X69650000Y-53608333D01*
X69816666Y-53441666D01*
X69900000Y-53275000D01*
X69983333Y-52941666D01*
X69983333Y-52691666D01*
X69900000Y-52358333D01*
X69816666Y-52191666D01*
X69650000Y-52025000D01*
X69400000Y-51941666D01*
X69233333Y-51941666D01*
X68983333Y-52025000D01*
X68900000Y-52108333D01*
X68316666Y-52525000D02*
X67900000Y-53691666D01*
X67483333Y-52525000D02*
X67900000Y-53691666D01*
X68066666Y-54108333D01*
X68150000Y-54191666D01*
X68316666Y-54275000D01*
X66066666Y-53608333D02*
X66233333Y-53691666D01*
X66566666Y-53691666D01*
X66733333Y-53608333D01*
X66816666Y-53525000D01*
X66900000Y-53358333D01*
X66900000Y-52858333D01*
X66816666Y-52691666D01*
X66733333Y-52608333D01*
X66566666Y-52525000D01*
X66233333Y-52525000D01*
X66066666Y-52608333D01*
X65066666Y-53691666D02*
X65233333Y-53608333D01*
X65316666Y-53441666D01*
X65316666Y-51941666D01*
X63733333Y-53608333D02*
X63900000Y-53691666D01*
X64233333Y-53691666D01*
X64400000Y-53608333D01*
X64483333Y-53441666D01*
X64483333Y-52775000D01*
X64400000Y-52608333D01*
X64233333Y-52525000D01*
X63900000Y-52525000D01*
X63733333Y-52608333D01*
X63650000Y-52775000D01*
X63650000Y-52941666D01*
X64483333Y-53108333D01*
X60566666Y-53525000D02*
X60650000Y-53608333D01*
X60900000Y-53691666D01*
X61066666Y-53691666D01*
X61316666Y-53608333D01*
X61483333Y-53441666D01*
X61566666Y-53275000D01*
X61650000Y-52941666D01*
X61650000Y-52691666D01*
X61566666Y-52358333D01*
X61483333Y-52191666D01*
X61316666Y-52025000D01*
X61066666Y-51941666D01*
X60900000Y-51941666D01*
X60650000Y-52025000D01*
X60566666Y-52108333D01*
X59566666Y-53691666D02*
X59733333Y-53608333D01*
X59816666Y-53441666D01*
X59816666Y-51941666D01*
X58650000Y-53691666D02*
X58816666Y-53608333D01*
X58900000Y-53525000D01*
X58983333Y-53358333D01*
X58983333Y-52858333D01*
X58900000Y-52691666D01*
X58816666Y-52608333D01*
X58650000Y-52525000D01*
X58400000Y-52525000D01*
X58233333Y-52608333D01*
X58150000Y-52691666D01*
X58066666Y-52858333D01*
X58066666Y-53358333D01*
X58150000Y-53525000D01*
X58233333Y-53608333D01*
X58400000Y-53691666D01*
X58650000Y-53691666D01*
X56566666Y-53608333D02*
X56733333Y-53691666D01*
X57066666Y-53691666D01*
X57233333Y-53608333D01*
X57316666Y-53525000D01*
X57400000Y-53358333D01*
X57400000Y-52858333D01*
X57316666Y-52691666D01*
X57233333Y-52608333D01*
X57066666Y-52525000D01*
X56733333Y-52525000D01*
X56566666Y-52608333D01*
X55816666Y-53691666D02*
X55816666Y-51941666D01*
X55650000Y-53025000D02*
X55150000Y-53691666D01*
X55150000Y-52525000D02*
X55816666Y-53191666D01*
X52066666Y-53691666D02*
X52650000Y-52858333D01*
X53066666Y-53691666D02*
X53066666Y-51941666D01*
X52400000Y-51941666D01*
X52233333Y-52025000D01*
X52150000Y-52108333D01*
X52066666Y-52275000D01*
X52066666Y-52525000D01*
X52150000Y-52691666D01*
X52233333Y-52775000D01*
X52400000Y-52858333D01*
X53066666Y-52858333D01*
X50650000Y-53608333D02*
X50816666Y-53691666D01*
X51150000Y-53691666D01*
X51316666Y-53608333D01*
X51400000Y-53441666D01*
X51400000Y-52775000D01*
X51316666Y-52608333D01*
X51150000Y-52525000D01*
X50816666Y-52525000D01*
X50650000Y-52608333D01*
X50566666Y-52775000D01*
X50566666Y-52941666D01*
X51400000Y-53108333D01*
X49983333Y-52525000D02*
X49566666Y-53691666D01*
X49150000Y-52525000D01*
X46233333Y-53691666D02*
X47233333Y-53691666D01*
X46733333Y-53691666D02*
X46733333Y-51941666D01*
X46900000Y-52191666D01*
X47066666Y-52358333D01*
X47233333Y-52441666D01*
X45566666Y-53191666D02*
X44733333Y-53191666D01*
X45733333Y-53691666D02*
X45150000Y-51941666D01*
X44566666Y-53691666D01*
M02*
