G04 #@! TF.GenerationSoftware,KiCad,Pcbnew,(2018-01-30 revision 342197bb3)-makepkg*
G04 #@! TF.CreationDate,2018-02-10T00:50:17-05:00*
G04 #@! TF.ProjectId,DayClock Circuit,446179436C6F636B2043697263756974,rev?*
G04 #@! TF.SameCoordinates,Original*
G04 #@! TF.FileFunction,Legend,Bot*
G04 #@! TF.FilePolarity,Positive*
%FSLAX46Y46*%
G04 Gerber Fmt 4.6, Leading zero omitted, Abs format (unit mm)*
G04 Created by KiCad (PCBNEW (2018-01-30 revision 342197bb3)-makepkg) date 02/10/18 00:50:17*
%MOMM*%
%LPD*%
G01*
G04 APERTURE LIST*
%ADD10C,0.300000*%
%ADD11C,0.100000*%
%ADD12C,0.120000*%
%ADD13C,0.150000*%
G04 APERTURE END LIST*
D10*
X22185714Y-42550000D02*
X21471428Y-42550000D01*
X22328571Y-42978571D02*
X21828571Y-41478571D01*
X21328571Y-42978571D01*
X20828571Y-42978571D02*
X20828571Y-41978571D01*
X20828571Y-42264285D02*
X20757142Y-42121428D01*
X20685714Y-42050000D01*
X20542857Y-41978571D01*
X20400000Y-41978571D01*
X19257142Y-42978571D02*
X19257142Y-41478571D01*
X19257142Y-42907142D02*
X19400000Y-42978571D01*
X19685714Y-42978571D01*
X19828571Y-42907142D01*
X19900000Y-42835714D01*
X19971428Y-42692857D01*
X19971428Y-42264285D01*
X19900000Y-42121428D01*
X19828571Y-42050000D01*
X19685714Y-41978571D01*
X19400000Y-41978571D01*
X19257142Y-42050000D01*
X17900000Y-41978571D02*
X17900000Y-42978571D01*
X18542857Y-41978571D02*
X18542857Y-42764285D01*
X18471428Y-42907142D01*
X18328571Y-42978571D01*
X18114285Y-42978571D01*
X17971428Y-42907142D01*
X17900000Y-42835714D01*
X17185714Y-42978571D02*
X17185714Y-41978571D01*
X17185714Y-41478571D02*
X17257142Y-41550000D01*
X17185714Y-41621428D01*
X17114285Y-41550000D01*
X17185714Y-41478571D01*
X17185714Y-41621428D01*
X16471428Y-41978571D02*
X16471428Y-42978571D01*
X16471428Y-42121428D02*
X16400000Y-42050000D01*
X16257142Y-41978571D01*
X16042857Y-41978571D01*
X15900000Y-42050000D01*
X15828571Y-42192857D01*
X15828571Y-42978571D01*
X14900000Y-42978571D02*
X15042857Y-42907142D01*
X15114285Y-42835714D01*
X15185714Y-42692857D01*
X15185714Y-42264285D01*
X15114285Y-42121428D01*
X15042857Y-42050000D01*
X14900000Y-41978571D01*
X14685714Y-41978571D01*
X14542857Y-42050000D01*
X14471428Y-42121428D01*
X14400000Y-42264285D01*
X14400000Y-42692857D01*
X14471428Y-42835714D01*
X14542857Y-42907142D01*
X14685714Y-42978571D01*
X14900000Y-42978571D01*
X12614285Y-42978571D02*
X12614285Y-41478571D01*
X11757142Y-42978571D01*
X11757142Y-41478571D01*
X10400000Y-42978571D02*
X10400000Y-42192857D01*
X10471428Y-42050000D01*
X10614285Y-41978571D01*
X10900000Y-41978571D01*
X11042857Y-42050000D01*
X10400000Y-42907142D02*
X10542857Y-42978571D01*
X10900000Y-42978571D01*
X11042857Y-42907142D01*
X11114285Y-42764285D01*
X11114285Y-42621428D01*
X11042857Y-42478571D01*
X10900000Y-42407142D01*
X10542857Y-42407142D01*
X10400000Y-42335714D01*
X9685714Y-41978571D02*
X9685714Y-42978571D01*
X9685714Y-42121428D02*
X9614285Y-42050000D01*
X9471428Y-41978571D01*
X9257142Y-41978571D01*
X9114285Y-42050000D01*
X9042857Y-42192857D01*
X9042857Y-42978571D01*
X8114285Y-42978571D02*
X8257142Y-42907142D01*
X8328571Y-42835714D01*
X8400000Y-42692857D01*
X8400000Y-42264285D01*
X8328571Y-42121428D01*
X8257142Y-42050000D01*
X8114285Y-41978571D01*
X7900000Y-41978571D01*
X7757142Y-42050000D01*
X7685714Y-42121428D01*
X7614285Y-42264285D01*
X7614285Y-42692857D01*
X7685714Y-42835714D01*
X7757142Y-42907142D01*
X7900000Y-42978571D01*
X8114285Y-42978571D01*
X24478571Y-56864285D02*
X23764285Y-56364285D01*
X24478571Y-56007142D02*
X22978571Y-56007142D01*
X22978571Y-56578571D01*
X23050000Y-56721428D01*
X23121428Y-56792857D01*
X23264285Y-56864285D01*
X23478571Y-56864285D01*
X23621428Y-56792857D01*
X23692857Y-56721428D01*
X23764285Y-56578571D01*
X23764285Y-56007142D01*
X22978571Y-57292857D02*
X22978571Y-58150000D01*
X24478571Y-57721428D02*
X22978571Y-57721428D01*
X24335714Y-59507142D02*
X24407142Y-59435714D01*
X24478571Y-59221428D01*
X24478571Y-59078571D01*
X24407142Y-58864285D01*
X24264285Y-58721428D01*
X24121428Y-58650000D01*
X23835714Y-58578571D01*
X23621428Y-58578571D01*
X23335714Y-58650000D01*
X23192857Y-58721428D01*
X23050000Y-58864285D01*
X22978571Y-59078571D01*
X22978571Y-59221428D01*
X23050000Y-59435714D01*
X23121428Y-59507142D01*
X22978571Y-59935714D02*
X22978571Y-60792857D01*
X24478571Y-60364285D02*
X22978571Y-60364285D01*
X24478571Y-61292857D02*
X23478571Y-61292857D01*
X22978571Y-61292857D02*
X23050000Y-61221428D01*
X23121428Y-61292857D01*
X23050000Y-61364285D01*
X22978571Y-61292857D01*
X23121428Y-61292857D01*
X23478571Y-62007142D02*
X24478571Y-62007142D01*
X23621428Y-62007142D02*
X23550000Y-62078571D01*
X23478571Y-62221428D01*
X23478571Y-62435714D01*
X23550000Y-62578571D01*
X23692857Y-62650000D01*
X24478571Y-62650000D01*
X23478571Y-63221428D02*
X24478571Y-63578571D01*
X23478571Y-63935714D02*
X24478571Y-63578571D01*
X24835714Y-63435714D01*
X24907142Y-63364285D01*
X24978571Y-63221428D01*
D11*
X28510000Y-73730000D02*
X28510000Y-48330000D01*
X28510000Y-45790000D02*
X1840000Y-45790000D01*
X1840000Y-48330000D02*
X1840000Y-73730000D01*
X1840000Y-73730000D02*
X28510000Y-73730000D01*
X1840000Y-48330000D02*
X1840000Y-45790000D01*
X28510000Y-48330000D02*
X28510000Y-45790000D01*
X27570000Y-71190000D02*
G75*
G03X27570000Y-71190000I-1600000J0D01*
G01*
D12*
X23940000Y-43740000D02*
X5900000Y-43740000D01*
X23940000Y-300000D02*
X23940000Y-43740000D01*
X5900000Y-300000D02*
X23940000Y-300000D01*
X8570000Y-2970000D02*
X5900000Y-2970000D01*
X8570000Y-38530000D02*
X8570000Y-2970000D01*
X8570000Y-38530000D02*
X5900000Y-38530000D01*
X21270000Y-2970000D02*
X23940000Y-2970000D01*
X21270000Y-41070000D02*
X21270000Y-2970000D01*
X21270000Y-41070000D02*
X23940000Y-41070000D01*
X5900000Y-43740000D02*
X5900000Y-41070000D01*
X5900000Y-38530000D02*
X5900000Y-300000D01*
X8570000Y-41070000D02*
X5900000Y-41070000D01*
X8570000Y-38530000D02*
X8570000Y-41070000D01*
D13*
X28552380Y-58938095D02*
X29361904Y-58938095D01*
X29457142Y-58985714D01*
X29504761Y-59033333D01*
X29552380Y-59128571D01*
X29552380Y-59319047D01*
X29504761Y-59414285D01*
X29457142Y-59461904D01*
X29361904Y-59509523D01*
X28552380Y-59509523D01*
X29552380Y-60509523D02*
X29552380Y-59938095D01*
X29552380Y-60223809D02*
X28552380Y-60223809D01*
X28695238Y-60128571D01*
X28790476Y-60033333D01*
X28838095Y-59938095D01*
X15634285Y-45046666D02*
X15158095Y-45046666D01*
X15729523Y-45332380D02*
X15396190Y-44332380D01*
X15062857Y-45332380D01*
X14205714Y-45332380D02*
X14777142Y-45332380D01*
X14491428Y-45332380D02*
X14491428Y-44332380D01*
X14586666Y-44475238D01*
X14681904Y-44570476D01*
X14777142Y-44618095D01*
M02*
