G04 #@! TF.GenerationSoftware,KiCad,Pcbnew,(2018-01-30 revision 342197bb3)-makepkg*
G04 #@! TF.CreationDate,2018-02-10T00:50:16-05:00*
G04 #@! TF.ProjectId,DayClock Circuit,446179436C6F636B2043697263756974,rev?*
G04 #@! TF.SameCoordinates,Original*
G04 #@! TF.FileFunction,Copper,L2,Bot,Signal*
G04 #@! TF.FilePolarity,Positive*
%FSLAX46Y46*%
G04 Gerber Fmt 4.6, Leading zero omitted, Abs format (unit mm)*
G04 Created by KiCad (PCBNEW (2018-01-30 revision 342197bb3)-makepkg) date 02/10/18 00:50:16*
%MOMM*%
%LPD*%
G01*
G04 APERTURE LIST*
%ADD10C,1.750000*%
%ADD11R,1.750000X1.750000*%
%ADD12R,1.524000X1.524000*%
%ADD13C,1.524000*%
%ADD14C,4.064000*%
%ADD15O,1.600000X1.600000*%
%ADD16R,1.600000X1.600000*%
%ADD17O,1.700000X1.700000*%
%ADD18R,1.700000X1.700000*%
%ADD19C,0.800000*%
%ADD20C,0.250000*%
%ADD21C,0.254000*%
G04 APERTURE END LIST*
D10*
X19500000Y-64100000D03*
X19500000Y-61600000D03*
D11*
X19500000Y-59100000D03*
X8200000Y-58800000D03*
D10*
X8200000Y-61300000D03*
X8200000Y-63800000D03*
X16800000Y-50000000D03*
D11*
X16800000Y-47500000D03*
D10*
X16800000Y-35900000D03*
X16800000Y-33400000D03*
X16800000Y-30900000D03*
D11*
X16800000Y-28400000D03*
D12*
X27240000Y-64840000D03*
D13*
X27240000Y-62300000D03*
X27240000Y-59760000D03*
X27240000Y-57220000D03*
X27240000Y-54680000D03*
D14*
X4380000Y-71190000D03*
D15*
X22540000Y-4240000D03*
X7300000Y-4240000D03*
X22540000Y-39800000D03*
X7300000Y-6780000D03*
X22540000Y-37260000D03*
X7300000Y-9320000D03*
X22540000Y-34720000D03*
X7300000Y-11860000D03*
X22540000Y-32180000D03*
X7300000Y-14400000D03*
X22540000Y-29640000D03*
X7300000Y-16940000D03*
X22540000Y-27100000D03*
X7300000Y-19480000D03*
X22540000Y-24560000D03*
X7300000Y-22020000D03*
X22540000Y-22020000D03*
X7300000Y-24560000D03*
X22540000Y-19480000D03*
X7300000Y-27100000D03*
X22540000Y-16940000D03*
X7300000Y-29640000D03*
X22540000Y-14400000D03*
X7300000Y-32180000D03*
X22540000Y-11860000D03*
X7300000Y-34720000D03*
X22540000Y-9320000D03*
X7300000Y-37260000D03*
X22540000Y-6780000D03*
D16*
X7300000Y-39800000D03*
D17*
X14900000Y-20380000D03*
X14900000Y-17840000D03*
X14900000Y-15300000D03*
X14900000Y-12760000D03*
X14900000Y-10220000D03*
X14900000Y-7680000D03*
X14900000Y-5140000D03*
D18*
X14900000Y-2600000D03*
D19*
X20500000Y-37200000D03*
X20500000Y-45900000D03*
D20*
X20500000Y-37200000D02*
X20500000Y-37765685D01*
X20500000Y-37765685D02*
X20500000Y-45900000D01*
D21*
G36*
X26375588Y-817199D02*
X25817199Y-1375588D01*
X25515000Y-2105159D01*
X25515000Y-2894841D01*
X25817199Y-3624412D01*
X26375588Y-4182801D01*
X27105159Y-4485000D01*
X27894841Y-4485000D01*
X28624412Y-4182801D01*
X29182801Y-3624412D01*
X29265001Y-3425964D01*
X29265000Y-41074035D01*
X29182801Y-40875588D01*
X28624412Y-40317199D01*
X27894841Y-40015000D01*
X27105159Y-40015000D01*
X26375588Y-40317199D01*
X25817199Y-40875588D01*
X25515000Y-41605159D01*
X25515000Y-42394841D01*
X25817199Y-43124412D01*
X26375588Y-43682801D01*
X27105159Y-43985000D01*
X27894841Y-43985000D01*
X28624412Y-43682801D01*
X29182801Y-43124412D01*
X29265000Y-42925967D01*
X29265000Y-72427610D01*
X29117344Y-73169926D01*
X28737862Y-73737861D01*
X28169926Y-74117344D01*
X27427610Y-74265000D01*
X2572390Y-74265000D01*
X1830074Y-74117344D01*
X1262139Y-73737862D01*
X882656Y-73169926D01*
X735000Y-72427610D01*
X735000Y-70659501D01*
X1713000Y-70659501D01*
X1713000Y-71720499D01*
X2119026Y-72700734D01*
X2869266Y-73450974D01*
X3849501Y-73857000D01*
X4910499Y-73857000D01*
X5890734Y-73450974D01*
X6640974Y-72700734D01*
X7047000Y-71720499D01*
X7047000Y-70659501D01*
X6640974Y-69679266D01*
X5890734Y-68929026D01*
X4910499Y-68523000D01*
X3849501Y-68523000D01*
X2869266Y-68929026D01*
X2119026Y-69679266D01*
X1713000Y-70659501D01*
X735000Y-70659501D01*
X735000Y-59085750D01*
X6690000Y-59085750D01*
X6690000Y-59801309D01*
X6786673Y-60034698D01*
X6965301Y-60213327D01*
X7096759Y-60267779D01*
X6919884Y-60444654D01*
X6690000Y-60999642D01*
X6690000Y-61600358D01*
X6919884Y-62155346D01*
X7314538Y-62550000D01*
X6919884Y-62944654D01*
X6690000Y-63499642D01*
X6690000Y-64100358D01*
X6919884Y-64655346D01*
X7344654Y-65080116D01*
X7899642Y-65310000D01*
X8500358Y-65310000D01*
X8857516Y-65162060D01*
X18617545Y-65162060D01*
X18700884Y-65415953D01*
X19265306Y-65621590D01*
X19865458Y-65595579D01*
X20299116Y-65415953D01*
X20382455Y-65162060D01*
X20346145Y-65125750D01*
X25843000Y-65125750D01*
X25843000Y-65728310D01*
X25939673Y-65961699D01*
X26118302Y-66140327D01*
X26351691Y-66237000D01*
X26954250Y-66237000D01*
X27113000Y-66078250D01*
X27113000Y-64967000D01*
X27367000Y-64967000D01*
X27367000Y-66078250D01*
X27525750Y-66237000D01*
X28128309Y-66237000D01*
X28361698Y-66140327D01*
X28540327Y-65961699D01*
X28637000Y-65728310D01*
X28637000Y-65125750D01*
X28478250Y-64967000D01*
X27367000Y-64967000D01*
X27113000Y-64967000D01*
X26001750Y-64967000D01*
X25843000Y-65125750D01*
X20346145Y-65125750D01*
X19500000Y-64279605D01*
X18617545Y-65162060D01*
X8857516Y-65162060D01*
X9055346Y-65080116D01*
X9480116Y-64655346D01*
X9710000Y-64100358D01*
X9710000Y-63865306D01*
X17978410Y-63865306D01*
X18004421Y-64465458D01*
X18184047Y-64899116D01*
X18437940Y-64982455D01*
X19320395Y-64100000D01*
X19679605Y-64100000D01*
X20562060Y-64982455D01*
X20815953Y-64899116D01*
X21021590Y-64334694D01*
X20995579Y-63734542D01*
X20815953Y-63300884D01*
X20562060Y-63217545D01*
X19679605Y-64100000D01*
X19320395Y-64100000D01*
X18437940Y-63217545D01*
X18184047Y-63300884D01*
X17978410Y-63865306D01*
X9710000Y-63865306D01*
X9710000Y-63499642D01*
X9480116Y-62944654D01*
X9085462Y-62550000D01*
X9480116Y-62155346D01*
X9710000Y-61600358D01*
X9710000Y-60999642D01*
X9480116Y-60444654D01*
X9303241Y-60267779D01*
X9434699Y-60213327D01*
X9613327Y-60034698D01*
X9710000Y-59801309D01*
X9710000Y-59085750D01*
X9551250Y-58927000D01*
X8327000Y-58927000D01*
X8327000Y-58947000D01*
X8073000Y-58947000D01*
X8073000Y-58927000D01*
X6848750Y-58927000D01*
X6690000Y-59085750D01*
X735000Y-59085750D01*
X735000Y-57798691D01*
X6690000Y-57798691D01*
X6690000Y-58514250D01*
X6848750Y-58673000D01*
X8073000Y-58673000D01*
X8073000Y-57448750D01*
X8327000Y-57448750D01*
X8327000Y-58673000D01*
X9551250Y-58673000D01*
X9710000Y-58514250D01*
X9710000Y-58225000D01*
X17977560Y-58225000D01*
X17977560Y-59975000D01*
X18026843Y-60222765D01*
X18167191Y-60432809D01*
X18377235Y-60573157D01*
X18389034Y-60575504D01*
X18219884Y-60744654D01*
X17990000Y-61299642D01*
X17990000Y-61900358D01*
X18219884Y-62455346D01*
X18644654Y-62880116D01*
X18666394Y-62889121D01*
X18617545Y-63037940D01*
X19500000Y-63920395D01*
X20382455Y-63037940D01*
X20333606Y-62889121D01*
X20355346Y-62880116D01*
X20780116Y-62455346D01*
X21010000Y-61900358D01*
X21010000Y-61299642D01*
X20780116Y-60744654D01*
X20610966Y-60575504D01*
X20622765Y-60573157D01*
X20832809Y-60432809D01*
X20973157Y-60222765D01*
X21022440Y-59975000D01*
X21022440Y-58225000D01*
X20973157Y-57977235D01*
X20832809Y-57767191D01*
X20622765Y-57626843D01*
X20375000Y-57577560D01*
X18625000Y-57577560D01*
X18377235Y-57626843D01*
X18167191Y-57767191D01*
X18026843Y-57977235D01*
X17977560Y-58225000D01*
X9710000Y-58225000D01*
X9710000Y-57798691D01*
X9613327Y-57565302D01*
X9434699Y-57386673D01*
X9201310Y-57290000D01*
X8485750Y-57290000D01*
X8327000Y-57448750D01*
X8073000Y-57448750D01*
X7914250Y-57290000D01*
X7198690Y-57290000D01*
X6965301Y-57386673D01*
X6786673Y-57565302D01*
X6690000Y-57798691D01*
X735000Y-57798691D01*
X735000Y-54402119D01*
X25843000Y-54402119D01*
X25843000Y-54957881D01*
X26055680Y-55471337D01*
X26448663Y-55864320D01*
X26655513Y-55950000D01*
X26448663Y-56035680D01*
X26055680Y-56428663D01*
X25843000Y-56942119D01*
X25843000Y-57497881D01*
X26055680Y-58011337D01*
X26448663Y-58404320D01*
X26655513Y-58490000D01*
X26448663Y-58575680D01*
X26055680Y-58968663D01*
X25843000Y-59482119D01*
X25843000Y-60037881D01*
X26055680Y-60551337D01*
X26448663Y-60944320D01*
X26655513Y-61030000D01*
X26448663Y-61115680D01*
X26055680Y-61508663D01*
X25843000Y-62022119D01*
X25843000Y-62577881D01*
X26055680Y-63091337D01*
X26407343Y-63443000D01*
X26351691Y-63443000D01*
X26118302Y-63539673D01*
X25939673Y-63718301D01*
X25843000Y-63951690D01*
X25843000Y-64554250D01*
X26001750Y-64713000D01*
X27113000Y-64713000D01*
X27113000Y-64693000D01*
X27367000Y-64693000D01*
X27367000Y-64713000D01*
X28478250Y-64713000D01*
X28637000Y-64554250D01*
X28637000Y-63951690D01*
X28540327Y-63718301D01*
X28361698Y-63539673D01*
X28128309Y-63443000D01*
X28072657Y-63443000D01*
X28424320Y-63091337D01*
X28637000Y-62577881D01*
X28637000Y-62022119D01*
X28424320Y-61508663D01*
X28031337Y-61115680D01*
X27824487Y-61030000D01*
X28031337Y-60944320D01*
X28424320Y-60551337D01*
X28637000Y-60037881D01*
X28637000Y-59482119D01*
X28424320Y-58968663D01*
X28031337Y-58575680D01*
X27824487Y-58490000D01*
X28031337Y-58404320D01*
X28424320Y-58011337D01*
X28637000Y-57497881D01*
X28637000Y-56942119D01*
X28424320Y-56428663D01*
X28031337Y-56035680D01*
X27824487Y-55950000D01*
X28031337Y-55864320D01*
X28424320Y-55471337D01*
X28637000Y-54957881D01*
X28637000Y-54402119D01*
X28424320Y-53888663D01*
X28031337Y-53495680D01*
X27517881Y-53283000D01*
X26962119Y-53283000D01*
X26448663Y-53495680D01*
X26055680Y-53888663D01*
X25843000Y-54402119D01*
X735000Y-54402119D01*
X735000Y-51062060D01*
X15917545Y-51062060D01*
X16000884Y-51315953D01*
X16565306Y-51521590D01*
X17165458Y-51495579D01*
X17599116Y-51315953D01*
X17682455Y-51062060D01*
X16800000Y-50179605D01*
X15917545Y-51062060D01*
X735000Y-51062060D01*
X735000Y-46625000D01*
X15277560Y-46625000D01*
X15277560Y-48375000D01*
X15326843Y-48622765D01*
X15467191Y-48832809D01*
X15662745Y-48963475D01*
X15623306Y-49002914D01*
X15737938Y-49117546D01*
X15484047Y-49200884D01*
X15278410Y-49765306D01*
X15304421Y-50365458D01*
X15484047Y-50799116D01*
X15737940Y-50882455D01*
X16620395Y-50000000D01*
X16606253Y-49985858D01*
X16785858Y-49806253D01*
X16800000Y-49820395D01*
X16814143Y-49806253D01*
X16993748Y-49985858D01*
X16979605Y-50000000D01*
X17862060Y-50882455D01*
X18115953Y-50799116D01*
X18321590Y-50234694D01*
X18295579Y-49634542D01*
X18115953Y-49200884D01*
X17862062Y-49117546D01*
X17976694Y-49002914D01*
X17937255Y-48963475D01*
X18132809Y-48832809D01*
X18273157Y-48622765D01*
X18322440Y-48375000D01*
X18322440Y-46625000D01*
X18273157Y-46377235D01*
X18132809Y-46167191D01*
X17922765Y-46026843D01*
X17675000Y-45977560D01*
X15925000Y-45977560D01*
X15677235Y-46026843D01*
X15467191Y-46167191D01*
X15326843Y-46377235D01*
X15277560Y-46625000D01*
X735000Y-46625000D01*
X735000Y-42925967D01*
X817199Y-43124412D01*
X1375588Y-43682801D01*
X2105159Y-43985000D01*
X2894841Y-43985000D01*
X3624412Y-43682801D01*
X4182801Y-43124412D01*
X4485000Y-42394841D01*
X4485000Y-41605159D01*
X4182801Y-40875588D01*
X3624412Y-40317199D01*
X2894841Y-40015000D01*
X2105159Y-40015000D01*
X1375588Y-40317199D01*
X817199Y-40875588D01*
X735000Y-41074033D01*
X735000Y-34720000D01*
X5836887Y-34720000D01*
X5948260Y-35279909D01*
X6265423Y-35754577D01*
X6617758Y-35990000D01*
X6265423Y-36225423D01*
X5948260Y-36700091D01*
X5836887Y-37260000D01*
X5948260Y-37819909D01*
X6265423Y-38294577D01*
X6386106Y-38375215D01*
X6252235Y-38401843D01*
X6042191Y-38542191D01*
X5901843Y-38752235D01*
X5852560Y-39000000D01*
X5852560Y-40600000D01*
X5901843Y-40847765D01*
X6042191Y-41057809D01*
X6252235Y-41198157D01*
X6500000Y-41247440D01*
X8100000Y-41247440D01*
X8347765Y-41198157D01*
X8557809Y-41057809D01*
X8698157Y-40847765D01*
X8747440Y-40600000D01*
X8747440Y-39000000D01*
X8698157Y-38752235D01*
X8557809Y-38542191D01*
X8347765Y-38401843D01*
X8213894Y-38375215D01*
X8334577Y-38294577D01*
X8651740Y-37819909D01*
X8763113Y-37260000D01*
X8651740Y-36700091D01*
X8334577Y-36225423D01*
X7982242Y-35990000D01*
X8334577Y-35754577D01*
X8651740Y-35279909D01*
X8763113Y-34720000D01*
X8651740Y-34160091D01*
X8334577Y-33685423D01*
X7950892Y-33429053D01*
X8155134Y-33332389D01*
X8531041Y-32917423D01*
X8691904Y-32529039D01*
X8569915Y-32307000D01*
X7427000Y-32307000D01*
X7427000Y-32327000D01*
X7173000Y-32327000D01*
X7173000Y-32307000D01*
X6030085Y-32307000D01*
X5908096Y-32529039D01*
X6068959Y-32917423D01*
X6444866Y-33332389D01*
X6649108Y-33429053D01*
X6265423Y-33685423D01*
X5948260Y-34160091D01*
X5836887Y-34720000D01*
X735000Y-34720000D01*
X735000Y-3325967D01*
X817199Y-3524412D01*
X1375588Y-4082801D01*
X2105159Y-4385000D01*
X2894841Y-4385000D01*
X3244901Y-4240000D01*
X5836887Y-4240000D01*
X5948260Y-4799909D01*
X6265423Y-5274577D01*
X6617758Y-5510000D01*
X6265423Y-5745423D01*
X5948260Y-6220091D01*
X5836887Y-6780000D01*
X5948260Y-7339909D01*
X6265423Y-7814577D01*
X6617758Y-8050000D01*
X6265423Y-8285423D01*
X5948260Y-8760091D01*
X5836887Y-9320000D01*
X5948260Y-9879909D01*
X6265423Y-10354577D01*
X6617758Y-10590000D01*
X6265423Y-10825423D01*
X5948260Y-11300091D01*
X5836887Y-11860000D01*
X5948260Y-12419909D01*
X6265423Y-12894577D01*
X6617758Y-13130000D01*
X6265423Y-13365423D01*
X5948260Y-13840091D01*
X5836887Y-14400000D01*
X5948260Y-14959909D01*
X6265423Y-15434577D01*
X6617758Y-15670000D01*
X6265423Y-15905423D01*
X5948260Y-16380091D01*
X5836887Y-16940000D01*
X5948260Y-17499909D01*
X6265423Y-17974577D01*
X6617758Y-18210000D01*
X6265423Y-18445423D01*
X5948260Y-18920091D01*
X5836887Y-19480000D01*
X5948260Y-20039909D01*
X6265423Y-20514577D01*
X6617758Y-20750000D01*
X6265423Y-20985423D01*
X5948260Y-21460091D01*
X5836887Y-22020000D01*
X5948260Y-22579909D01*
X6265423Y-23054577D01*
X6617758Y-23290000D01*
X6265423Y-23525423D01*
X5948260Y-24000091D01*
X5836887Y-24560000D01*
X5948260Y-25119909D01*
X6265423Y-25594577D01*
X6617758Y-25830000D01*
X6265423Y-26065423D01*
X5948260Y-26540091D01*
X5836887Y-27100000D01*
X5948260Y-27659909D01*
X6265423Y-28134577D01*
X6617758Y-28370000D01*
X6265423Y-28605423D01*
X5948260Y-29080091D01*
X5836887Y-29640000D01*
X5948260Y-30199909D01*
X6265423Y-30674577D01*
X6649108Y-30930947D01*
X6444866Y-31027611D01*
X6068959Y-31442577D01*
X5908096Y-31830961D01*
X6030085Y-32053000D01*
X7173000Y-32053000D01*
X7173000Y-32033000D01*
X7427000Y-32033000D01*
X7427000Y-32053000D01*
X8569915Y-32053000D01*
X8691904Y-31830961D01*
X8531041Y-31442577D01*
X8155134Y-31027611D01*
X7950892Y-30930947D01*
X8334577Y-30674577D01*
X8651740Y-30199909D01*
X8763113Y-29640000D01*
X8651740Y-29080091D01*
X8388250Y-28685750D01*
X15290000Y-28685750D01*
X15290000Y-29401309D01*
X15386673Y-29634698D01*
X15565301Y-29813327D01*
X15696759Y-29867779D01*
X15519884Y-30044654D01*
X15290000Y-30599642D01*
X15290000Y-31200358D01*
X15519884Y-31755346D01*
X15914538Y-32150000D01*
X15519884Y-32544654D01*
X15290000Y-33099642D01*
X15290000Y-33700358D01*
X15519884Y-34255346D01*
X15914538Y-34650000D01*
X15519884Y-35044654D01*
X15290000Y-35599642D01*
X15290000Y-36200358D01*
X15519884Y-36755346D01*
X15944654Y-37180116D01*
X16499642Y-37410000D01*
X17100358Y-37410000D01*
X17655346Y-37180116D01*
X17841336Y-36994126D01*
X19465000Y-36994126D01*
X19465000Y-37405874D01*
X19622569Y-37786280D01*
X19740000Y-37903711D01*
X19740001Y-45196288D01*
X19622569Y-45313720D01*
X19465000Y-45694126D01*
X19465000Y-46105874D01*
X19622569Y-46486280D01*
X19913720Y-46777431D01*
X20294126Y-46935000D01*
X20705874Y-46935000D01*
X21086280Y-46777431D01*
X21377431Y-46486280D01*
X21535000Y-46105874D01*
X21535000Y-45694126D01*
X21377431Y-45313720D01*
X21260000Y-45196289D01*
X21260000Y-40467276D01*
X21505423Y-40834577D01*
X21980091Y-41151740D01*
X22398667Y-41235000D01*
X22681333Y-41235000D01*
X23099909Y-41151740D01*
X23574577Y-40834577D01*
X23891740Y-40359909D01*
X24003113Y-39800000D01*
X23891740Y-39240091D01*
X23574577Y-38765423D01*
X23222242Y-38530000D01*
X23574577Y-38294577D01*
X23891740Y-37819909D01*
X24003113Y-37260000D01*
X23891740Y-36700091D01*
X23574577Y-36225423D01*
X23222242Y-35990000D01*
X23574577Y-35754577D01*
X23891740Y-35279909D01*
X24003113Y-34720000D01*
X23891740Y-34160091D01*
X23574577Y-33685423D01*
X23222242Y-33450000D01*
X23574577Y-33214577D01*
X23891740Y-32739909D01*
X24003113Y-32180000D01*
X23891740Y-31620091D01*
X23574577Y-31145423D01*
X23222242Y-30910000D01*
X23574577Y-30674577D01*
X23891740Y-30199909D01*
X24003113Y-29640000D01*
X23891740Y-29080091D01*
X23574577Y-28605423D01*
X23222242Y-28370000D01*
X23574577Y-28134577D01*
X23891740Y-27659909D01*
X24003113Y-27100000D01*
X23891740Y-26540091D01*
X23574577Y-26065423D01*
X23222242Y-25830000D01*
X23574577Y-25594577D01*
X23891740Y-25119909D01*
X24003113Y-24560000D01*
X23891740Y-24000091D01*
X23574577Y-23525423D01*
X23222242Y-23290000D01*
X23574577Y-23054577D01*
X23891740Y-22579909D01*
X24003113Y-22020000D01*
X23891740Y-21460091D01*
X23574577Y-20985423D01*
X23222242Y-20750000D01*
X23574577Y-20514577D01*
X23891740Y-20039909D01*
X24003113Y-19480000D01*
X23891740Y-18920091D01*
X23574577Y-18445423D01*
X23222242Y-18210000D01*
X23574577Y-17974577D01*
X23891740Y-17499909D01*
X24003113Y-16940000D01*
X23891740Y-16380091D01*
X23574577Y-15905423D01*
X23222242Y-15670000D01*
X23574577Y-15434577D01*
X23891740Y-14959909D01*
X24003113Y-14400000D01*
X23891740Y-13840091D01*
X23574577Y-13365423D01*
X23222242Y-13130000D01*
X23574577Y-12894577D01*
X23891740Y-12419909D01*
X24003113Y-11860000D01*
X23891740Y-11300091D01*
X23574577Y-10825423D01*
X23222242Y-10590000D01*
X23574577Y-10354577D01*
X23891740Y-9879909D01*
X24003113Y-9320000D01*
X23891740Y-8760091D01*
X23574577Y-8285423D01*
X23222242Y-8050000D01*
X23574577Y-7814577D01*
X23891740Y-7339909D01*
X24003113Y-6780000D01*
X23891740Y-6220091D01*
X23574577Y-5745423D01*
X23222242Y-5510000D01*
X23574577Y-5274577D01*
X23891740Y-4799909D01*
X24003113Y-4240000D01*
X23891740Y-3680091D01*
X23574577Y-3205423D01*
X23099909Y-2888260D01*
X22681333Y-2805000D01*
X22398667Y-2805000D01*
X21980091Y-2888260D01*
X21505423Y-3205423D01*
X21188260Y-3680091D01*
X21076887Y-4240000D01*
X21188260Y-4799909D01*
X21505423Y-5274577D01*
X21857758Y-5510000D01*
X21505423Y-5745423D01*
X21188260Y-6220091D01*
X21076887Y-6780000D01*
X21188260Y-7339909D01*
X21505423Y-7814577D01*
X21857758Y-8050000D01*
X21505423Y-8285423D01*
X21188260Y-8760091D01*
X21076887Y-9320000D01*
X21188260Y-9879909D01*
X21505423Y-10354577D01*
X21857758Y-10590000D01*
X21505423Y-10825423D01*
X21188260Y-11300091D01*
X21076887Y-11860000D01*
X21188260Y-12419909D01*
X21505423Y-12894577D01*
X21857758Y-13130000D01*
X21505423Y-13365423D01*
X21188260Y-13840091D01*
X21076887Y-14400000D01*
X21188260Y-14959909D01*
X21505423Y-15434577D01*
X21857758Y-15670000D01*
X21505423Y-15905423D01*
X21188260Y-16380091D01*
X21076887Y-16940000D01*
X21188260Y-17499909D01*
X21505423Y-17974577D01*
X21857758Y-18210000D01*
X21505423Y-18445423D01*
X21188260Y-18920091D01*
X21076887Y-19480000D01*
X21188260Y-20039909D01*
X21505423Y-20514577D01*
X21857758Y-20750000D01*
X21505423Y-20985423D01*
X21188260Y-21460091D01*
X21076887Y-22020000D01*
X21188260Y-22579909D01*
X21505423Y-23054577D01*
X21857758Y-23290000D01*
X21505423Y-23525423D01*
X21188260Y-24000091D01*
X21076887Y-24560000D01*
X21188260Y-25119909D01*
X21505423Y-25594577D01*
X21857758Y-25830000D01*
X21505423Y-26065423D01*
X21188260Y-26540091D01*
X21076887Y-27100000D01*
X21188260Y-27659909D01*
X21505423Y-28134577D01*
X21857758Y-28370000D01*
X21505423Y-28605423D01*
X21188260Y-29080091D01*
X21076887Y-29640000D01*
X21188260Y-30199909D01*
X21505423Y-30674577D01*
X21857758Y-30910000D01*
X21505423Y-31145423D01*
X21188260Y-31620091D01*
X21076887Y-32180000D01*
X21188260Y-32739909D01*
X21505423Y-33214577D01*
X21857758Y-33450000D01*
X21505423Y-33685423D01*
X21188260Y-34160091D01*
X21076887Y-34720000D01*
X21188260Y-35279909D01*
X21505423Y-35754577D01*
X21857758Y-35990000D01*
X21505423Y-36225423D01*
X21298627Y-36534916D01*
X21086280Y-36322569D01*
X20705874Y-36165000D01*
X20294126Y-36165000D01*
X19913720Y-36322569D01*
X19622569Y-36613720D01*
X19465000Y-36994126D01*
X17841336Y-36994126D01*
X18080116Y-36755346D01*
X18310000Y-36200358D01*
X18310000Y-35599642D01*
X18080116Y-35044654D01*
X17685462Y-34650000D01*
X18080116Y-34255346D01*
X18310000Y-33700358D01*
X18310000Y-33099642D01*
X18080116Y-32544654D01*
X17685462Y-32150000D01*
X18080116Y-31755346D01*
X18310000Y-31200358D01*
X18310000Y-30599642D01*
X18080116Y-30044654D01*
X17903241Y-29867779D01*
X18034699Y-29813327D01*
X18213327Y-29634698D01*
X18310000Y-29401309D01*
X18310000Y-28685750D01*
X18151250Y-28527000D01*
X16927000Y-28527000D01*
X16927000Y-28547000D01*
X16673000Y-28547000D01*
X16673000Y-28527000D01*
X15448750Y-28527000D01*
X15290000Y-28685750D01*
X8388250Y-28685750D01*
X8334577Y-28605423D01*
X7982242Y-28370000D01*
X8334577Y-28134577D01*
X8651740Y-27659909D01*
X8703699Y-27398691D01*
X15290000Y-27398691D01*
X15290000Y-28114250D01*
X15448750Y-28273000D01*
X16673000Y-28273000D01*
X16673000Y-27048750D01*
X16927000Y-27048750D01*
X16927000Y-28273000D01*
X18151250Y-28273000D01*
X18310000Y-28114250D01*
X18310000Y-27398691D01*
X18213327Y-27165302D01*
X18034699Y-26986673D01*
X17801310Y-26890000D01*
X17085750Y-26890000D01*
X16927000Y-27048750D01*
X16673000Y-27048750D01*
X16514250Y-26890000D01*
X15798690Y-26890000D01*
X15565301Y-26986673D01*
X15386673Y-27165302D01*
X15290000Y-27398691D01*
X8703699Y-27398691D01*
X8763113Y-27100000D01*
X8651740Y-26540091D01*
X8334577Y-26065423D01*
X7982242Y-25830000D01*
X8334577Y-25594577D01*
X8651740Y-25119909D01*
X8763113Y-24560000D01*
X8651740Y-24000091D01*
X8334577Y-23525423D01*
X7982242Y-23290000D01*
X8334577Y-23054577D01*
X8651740Y-22579909D01*
X8763113Y-22020000D01*
X8651740Y-21460091D01*
X8334577Y-20985423D01*
X7982242Y-20750000D01*
X8334577Y-20514577D01*
X8424498Y-20380000D01*
X13385908Y-20380000D01*
X13501161Y-20959418D01*
X13829375Y-21450625D01*
X14320582Y-21778839D01*
X14753744Y-21865000D01*
X15046256Y-21865000D01*
X15479418Y-21778839D01*
X15970625Y-21450625D01*
X16298839Y-20959418D01*
X16414092Y-20380000D01*
X16298839Y-19800582D01*
X15970625Y-19309375D01*
X15651522Y-19096157D01*
X15781358Y-19035183D01*
X16171645Y-18606924D01*
X16341476Y-18196890D01*
X16220155Y-17967000D01*
X15027000Y-17967000D01*
X15027000Y-17987000D01*
X14773000Y-17987000D01*
X14773000Y-17967000D01*
X13579845Y-17967000D01*
X13458524Y-18196890D01*
X13628355Y-18606924D01*
X14018642Y-19035183D01*
X14148478Y-19096157D01*
X13829375Y-19309375D01*
X13501161Y-19800582D01*
X13385908Y-20380000D01*
X8424498Y-20380000D01*
X8651740Y-20039909D01*
X8763113Y-19480000D01*
X8651740Y-18920091D01*
X8334577Y-18445423D01*
X7982242Y-18210000D01*
X8334577Y-17974577D01*
X8651740Y-17499909D01*
X8763113Y-16940000D01*
X8651740Y-16380091D01*
X8334577Y-15905423D01*
X7982242Y-15670000D01*
X8334577Y-15434577D01*
X8651740Y-14959909D01*
X8763113Y-14400000D01*
X8651740Y-13840091D01*
X8334577Y-13365423D01*
X7982242Y-13130000D01*
X8334577Y-12894577D01*
X8651740Y-12419909D01*
X8763113Y-11860000D01*
X8651740Y-11300091D01*
X8334577Y-10825423D01*
X7982242Y-10590000D01*
X8334577Y-10354577D01*
X8651740Y-9879909D01*
X8763113Y-9320000D01*
X8651740Y-8760091D01*
X8334577Y-8285423D01*
X7982242Y-8050000D01*
X8334577Y-7814577D01*
X8651740Y-7339909D01*
X8763113Y-6780000D01*
X8651740Y-6220091D01*
X8334577Y-5745423D01*
X7982242Y-5510000D01*
X8334577Y-5274577D01*
X8424498Y-5140000D01*
X13385908Y-5140000D01*
X13501161Y-5719418D01*
X13829375Y-6210625D01*
X14127761Y-6410000D01*
X13829375Y-6609375D01*
X13501161Y-7100582D01*
X13385908Y-7680000D01*
X13501161Y-8259418D01*
X13829375Y-8750625D01*
X14127761Y-8950000D01*
X13829375Y-9149375D01*
X13501161Y-9640582D01*
X13385908Y-10220000D01*
X13501161Y-10799418D01*
X13829375Y-11290625D01*
X14127761Y-11490000D01*
X13829375Y-11689375D01*
X13501161Y-12180582D01*
X13385908Y-12760000D01*
X13501161Y-13339418D01*
X13829375Y-13830625D01*
X14127761Y-14030000D01*
X13829375Y-14229375D01*
X13501161Y-14720582D01*
X13385908Y-15300000D01*
X13501161Y-15879418D01*
X13829375Y-16370625D01*
X14148478Y-16583843D01*
X14018642Y-16644817D01*
X13628355Y-17073076D01*
X13458524Y-17483110D01*
X13579845Y-17713000D01*
X14773000Y-17713000D01*
X14773000Y-17693000D01*
X15027000Y-17693000D01*
X15027000Y-17713000D01*
X16220155Y-17713000D01*
X16341476Y-17483110D01*
X16171645Y-17073076D01*
X15781358Y-16644817D01*
X15651522Y-16583843D01*
X15970625Y-16370625D01*
X16298839Y-15879418D01*
X16414092Y-15300000D01*
X16298839Y-14720582D01*
X15970625Y-14229375D01*
X15672239Y-14030000D01*
X15970625Y-13830625D01*
X16298839Y-13339418D01*
X16414092Y-12760000D01*
X16298839Y-12180582D01*
X15970625Y-11689375D01*
X15672239Y-11490000D01*
X15970625Y-11290625D01*
X16298839Y-10799418D01*
X16414092Y-10220000D01*
X16298839Y-9640582D01*
X15970625Y-9149375D01*
X15672239Y-8950000D01*
X15970625Y-8750625D01*
X16298839Y-8259418D01*
X16414092Y-7680000D01*
X16298839Y-7100582D01*
X15970625Y-6609375D01*
X15672239Y-6410000D01*
X15970625Y-6210625D01*
X16298839Y-5719418D01*
X16414092Y-5140000D01*
X16298839Y-4560582D01*
X15970625Y-4069375D01*
X15952381Y-4057184D01*
X15997765Y-4048157D01*
X16207809Y-3907809D01*
X16348157Y-3697765D01*
X16397440Y-3450000D01*
X16397440Y-1750000D01*
X16348157Y-1502235D01*
X16207809Y-1292191D01*
X15997765Y-1151843D01*
X15750000Y-1102560D01*
X14050000Y-1102560D01*
X13802235Y-1151843D01*
X13592191Y-1292191D01*
X13451843Y-1502235D01*
X13402560Y-1750000D01*
X13402560Y-3450000D01*
X13451843Y-3697765D01*
X13592191Y-3907809D01*
X13802235Y-4048157D01*
X13847619Y-4057184D01*
X13829375Y-4069375D01*
X13501161Y-4560582D01*
X13385908Y-5140000D01*
X8424498Y-5140000D01*
X8651740Y-4799909D01*
X8763113Y-4240000D01*
X8651740Y-3680091D01*
X8334577Y-3205423D01*
X7859909Y-2888260D01*
X7441333Y-2805000D01*
X7158667Y-2805000D01*
X6740091Y-2888260D01*
X6265423Y-3205423D01*
X5948260Y-3680091D01*
X5836887Y-4240000D01*
X3244901Y-4240000D01*
X3624412Y-4082801D01*
X4182801Y-3524412D01*
X4485000Y-2794841D01*
X4485000Y-2005159D01*
X4182801Y-1275588D01*
X3642213Y-735000D01*
X26574033Y-735000D01*
X26375588Y-817199D01*
X26375588Y-817199D01*
G37*
X26375588Y-817199D02*
X25817199Y-1375588D01*
X25515000Y-2105159D01*
X25515000Y-2894841D01*
X25817199Y-3624412D01*
X26375588Y-4182801D01*
X27105159Y-4485000D01*
X27894841Y-4485000D01*
X28624412Y-4182801D01*
X29182801Y-3624412D01*
X29265001Y-3425964D01*
X29265000Y-41074035D01*
X29182801Y-40875588D01*
X28624412Y-40317199D01*
X27894841Y-40015000D01*
X27105159Y-40015000D01*
X26375588Y-40317199D01*
X25817199Y-40875588D01*
X25515000Y-41605159D01*
X25515000Y-42394841D01*
X25817199Y-43124412D01*
X26375588Y-43682801D01*
X27105159Y-43985000D01*
X27894841Y-43985000D01*
X28624412Y-43682801D01*
X29182801Y-43124412D01*
X29265000Y-42925967D01*
X29265000Y-72427610D01*
X29117344Y-73169926D01*
X28737862Y-73737861D01*
X28169926Y-74117344D01*
X27427610Y-74265000D01*
X2572390Y-74265000D01*
X1830074Y-74117344D01*
X1262139Y-73737862D01*
X882656Y-73169926D01*
X735000Y-72427610D01*
X735000Y-70659501D01*
X1713000Y-70659501D01*
X1713000Y-71720499D01*
X2119026Y-72700734D01*
X2869266Y-73450974D01*
X3849501Y-73857000D01*
X4910499Y-73857000D01*
X5890734Y-73450974D01*
X6640974Y-72700734D01*
X7047000Y-71720499D01*
X7047000Y-70659501D01*
X6640974Y-69679266D01*
X5890734Y-68929026D01*
X4910499Y-68523000D01*
X3849501Y-68523000D01*
X2869266Y-68929026D01*
X2119026Y-69679266D01*
X1713000Y-70659501D01*
X735000Y-70659501D01*
X735000Y-59085750D01*
X6690000Y-59085750D01*
X6690000Y-59801309D01*
X6786673Y-60034698D01*
X6965301Y-60213327D01*
X7096759Y-60267779D01*
X6919884Y-60444654D01*
X6690000Y-60999642D01*
X6690000Y-61600358D01*
X6919884Y-62155346D01*
X7314538Y-62550000D01*
X6919884Y-62944654D01*
X6690000Y-63499642D01*
X6690000Y-64100358D01*
X6919884Y-64655346D01*
X7344654Y-65080116D01*
X7899642Y-65310000D01*
X8500358Y-65310000D01*
X8857516Y-65162060D01*
X18617545Y-65162060D01*
X18700884Y-65415953D01*
X19265306Y-65621590D01*
X19865458Y-65595579D01*
X20299116Y-65415953D01*
X20382455Y-65162060D01*
X20346145Y-65125750D01*
X25843000Y-65125750D01*
X25843000Y-65728310D01*
X25939673Y-65961699D01*
X26118302Y-66140327D01*
X26351691Y-66237000D01*
X26954250Y-66237000D01*
X27113000Y-66078250D01*
X27113000Y-64967000D01*
X27367000Y-64967000D01*
X27367000Y-66078250D01*
X27525750Y-66237000D01*
X28128309Y-66237000D01*
X28361698Y-66140327D01*
X28540327Y-65961699D01*
X28637000Y-65728310D01*
X28637000Y-65125750D01*
X28478250Y-64967000D01*
X27367000Y-64967000D01*
X27113000Y-64967000D01*
X26001750Y-64967000D01*
X25843000Y-65125750D01*
X20346145Y-65125750D01*
X19500000Y-64279605D01*
X18617545Y-65162060D01*
X8857516Y-65162060D01*
X9055346Y-65080116D01*
X9480116Y-64655346D01*
X9710000Y-64100358D01*
X9710000Y-63865306D01*
X17978410Y-63865306D01*
X18004421Y-64465458D01*
X18184047Y-64899116D01*
X18437940Y-64982455D01*
X19320395Y-64100000D01*
X19679605Y-64100000D01*
X20562060Y-64982455D01*
X20815953Y-64899116D01*
X21021590Y-64334694D01*
X20995579Y-63734542D01*
X20815953Y-63300884D01*
X20562060Y-63217545D01*
X19679605Y-64100000D01*
X19320395Y-64100000D01*
X18437940Y-63217545D01*
X18184047Y-63300884D01*
X17978410Y-63865306D01*
X9710000Y-63865306D01*
X9710000Y-63499642D01*
X9480116Y-62944654D01*
X9085462Y-62550000D01*
X9480116Y-62155346D01*
X9710000Y-61600358D01*
X9710000Y-60999642D01*
X9480116Y-60444654D01*
X9303241Y-60267779D01*
X9434699Y-60213327D01*
X9613327Y-60034698D01*
X9710000Y-59801309D01*
X9710000Y-59085750D01*
X9551250Y-58927000D01*
X8327000Y-58927000D01*
X8327000Y-58947000D01*
X8073000Y-58947000D01*
X8073000Y-58927000D01*
X6848750Y-58927000D01*
X6690000Y-59085750D01*
X735000Y-59085750D01*
X735000Y-57798691D01*
X6690000Y-57798691D01*
X6690000Y-58514250D01*
X6848750Y-58673000D01*
X8073000Y-58673000D01*
X8073000Y-57448750D01*
X8327000Y-57448750D01*
X8327000Y-58673000D01*
X9551250Y-58673000D01*
X9710000Y-58514250D01*
X9710000Y-58225000D01*
X17977560Y-58225000D01*
X17977560Y-59975000D01*
X18026843Y-60222765D01*
X18167191Y-60432809D01*
X18377235Y-60573157D01*
X18389034Y-60575504D01*
X18219884Y-60744654D01*
X17990000Y-61299642D01*
X17990000Y-61900358D01*
X18219884Y-62455346D01*
X18644654Y-62880116D01*
X18666394Y-62889121D01*
X18617545Y-63037940D01*
X19500000Y-63920395D01*
X20382455Y-63037940D01*
X20333606Y-62889121D01*
X20355346Y-62880116D01*
X20780116Y-62455346D01*
X21010000Y-61900358D01*
X21010000Y-61299642D01*
X20780116Y-60744654D01*
X20610966Y-60575504D01*
X20622765Y-60573157D01*
X20832809Y-60432809D01*
X20973157Y-60222765D01*
X21022440Y-59975000D01*
X21022440Y-58225000D01*
X20973157Y-57977235D01*
X20832809Y-57767191D01*
X20622765Y-57626843D01*
X20375000Y-57577560D01*
X18625000Y-57577560D01*
X18377235Y-57626843D01*
X18167191Y-57767191D01*
X18026843Y-57977235D01*
X17977560Y-58225000D01*
X9710000Y-58225000D01*
X9710000Y-57798691D01*
X9613327Y-57565302D01*
X9434699Y-57386673D01*
X9201310Y-57290000D01*
X8485750Y-57290000D01*
X8327000Y-57448750D01*
X8073000Y-57448750D01*
X7914250Y-57290000D01*
X7198690Y-57290000D01*
X6965301Y-57386673D01*
X6786673Y-57565302D01*
X6690000Y-57798691D01*
X735000Y-57798691D01*
X735000Y-54402119D01*
X25843000Y-54402119D01*
X25843000Y-54957881D01*
X26055680Y-55471337D01*
X26448663Y-55864320D01*
X26655513Y-55950000D01*
X26448663Y-56035680D01*
X26055680Y-56428663D01*
X25843000Y-56942119D01*
X25843000Y-57497881D01*
X26055680Y-58011337D01*
X26448663Y-58404320D01*
X26655513Y-58490000D01*
X26448663Y-58575680D01*
X26055680Y-58968663D01*
X25843000Y-59482119D01*
X25843000Y-60037881D01*
X26055680Y-60551337D01*
X26448663Y-60944320D01*
X26655513Y-61030000D01*
X26448663Y-61115680D01*
X26055680Y-61508663D01*
X25843000Y-62022119D01*
X25843000Y-62577881D01*
X26055680Y-63091337D01*
X26407343Y-63443000D01*
X26351691Y-63443000D01*
X26118302Y-63539673D01*
X25939673Y-63718301D01*
X25843000Y-63951690D01*
X25843000Y-64554250D01*
X26001750Y-64713000D01*
X27113000Y-64713000D01*
X27113000Y-64693000D01*
X27367000Y-64693000D01*
X27367000Y-64713000D01*
X28478250Y-64713000D01*
X28637000Y-64554250D01*
X28637000Y-63951690D01*
X28540327Y-63718301D01*
X28361698Y-63539673D01*
X28128309Y-63443000D01*
X28072657Y-63443000D01*
X28424320Y-63091337D01*
X28637000Y-62577881D01*
X28637000Y-62022119D01*
X28424320Y-61508663D01*
X28031337Y-61115680D01*
X27824487Y-61030000D01*
X28031337Y-60944320D01*
X28424320Y-60551337D01*
X28637000Y-60037881D01*
X28637000Y-59482119D01*
X28424320Y-58968663D01*
X28031337Y-58575680D01*
X27824487Y-58490000D01*
X28031337Y-58404320D01*
X28424320Y-58011337D01*
X28637000Y-57497881D01*
X28637000Y-56942119D01*
X28424320Y-56428663D01*
X28031337Y-56035680D01*
X27824487Y-55950000D01*
X28031337Y-55864320D01*
X28424320Y-55471337D01*
X28637000Y-54957881D01*
X28637000Y-54402119D01*
X28424320Y-53888663D01*
X28031337Y-53495680D01*
X27517881Y-53283000D01*
X26962119Y-53283000D01*
X26448663Y-53495680D01*
X26055680Y-53888663D01*
X25843000Y-54402119D01*
X735000Y-54402119D01*
X735000Y-51062060D01*
X15917545Y-51062060D01*
X16000884Y-51315953D01*
X16565306Y-51521590D01*
X17165458Y-51495579D01*
X17599116Y-51315953D01*
X17682455Y-51062060D01*
X16800000Y-50179605D01*
X15917545Y-51062060D01*
X735000Y-51062060D01*
X735000Y-46625000D01*
X15277560Y-46625000D01*
X15277560Y-48375000D01*
X15326843Y-48622765D01*
X15467191Y-48832809D01*
X15662745Y-48963475D01*
X15623306Y-49002914D01*
X15737938Y-49117546D01*
X15484047Y-49200884D01*
X15278410Y-49765306D01*
X15304421Y-50365458D01*
X15484047Y-50799116D01*
X15737940Y-50882455D01*
X16620395Y-50000000D01*
X16606253Y-49985858D01*
X16785858Y-49806253D01*
X16800000Y-49820395D01*
X16814143Y-49806253D01*
X16993748Y-49985858D01*
X16979605Y-50000000D01*
X17862060Y-50882455D01*
X18115953Y-50799116D01*
X18321590Y-50234694D01*
X18295579Y-49634542D01*
X18115953Y-49200884D01*
X17862062Y-49117546D01*
X17976694Y-49002914D01*
X17937255Y-48963475D01*
X18132809Y-48832809D01*
X18273157Y-48622765D01*
X18322440Y-48375000D01*
X18322440Y-46625000D01*
X18273157Y-46377235D01*
X18132809Y-46167191D01*
X17922765Y-46026843D01*
X17675000Y-45977560D01*
X15925000Y-45977560D01*
X15677235Y-46026843D01*
X15467191Y-46167191D01*
X15326843Y-46377235D01*
X15277560Y-46625000D01*
X735000Y-46625000D01*
X735000Y-42925967D01*
X817199Y-43124412D01*
X1375588Y-43682801D01*
X2105159Y-43985000D01*
X2894841Y-43985000D01*
X3624412Y-43682801D01*
X4182801Y-43124412D01*
X4485000Y-42394841D01*
X4485000Y-41605159D01*
X4182801Y-40875588D01*
X3624412Y-40317199D01*
X2894841Y-40015000D01*
X2105159Y-40015000D01*
X1375588Y-40317199D01*
X817199Y-40875588D01*
X735000Y-41074033D01*
X735000Y-34720000D01*
X5836887Y-34720000D01*
X5948260Y-35279909D01*
X6265423Y-35754577D01*
X6617758Y-35990000D01*
X6265423Y-36225423D01*
X5948260Y-36700091D01*
X5836887Y-37260000D01*
X5948260Y-37819909D01*
X6265423Y-38294577D01*
X6386106Y-38375215D01*
X6252235Y-38401843D01*
X6042191Y-38542191D01*
X5901843Y-38752235D01*
X5852560Y-39000000D01*
X5852560Y-40600000D01*
X5901843Y-40847765D01*
X6042191Y-41057809D01*
X6252235Y-41198157D01*
X6500000Y-41247440D01*
X8100000Y-41247440D01*
X8347765Y-41198157D01*
X8557809Y-41057809D01*
X8698157Y-40847765D01*
X8747440Y-40600000D01*
X8747440Y-39000000D01*
X8698157Y-38752235D01*
X8557809Y-38542191D01*
X8347765Y-38401843D01*
X8213894Y-38375215D01*
X8334577Y-38294577D01*
X8651740Y-37819909D01*
X8763113Y-37260000D01*
X8651740Y-36700091D01*
X8334577Y-36225423D01*
X7982242Y-35990000D01*
X8334577Y-35754577D01*
X8651740Y-35279909D01*
X8763113Y-34720000D01*
X8651740Y-34160091D01*
X8334577Y-33685423D01*
X7950892Y-33429053D01*
X8155134Y-33332389D01*
X8531041Y-32917423D01*
X8691904Y-32529039D01*
X8569915Y-32307000D01*
X7427000Y-32307000D01*
X7427000Y-32327000D01*
X7173000Y-32327000D01*
X7173000Y-32307000D01*
X6030085Y-32307000D01*
X5908096Y-32529039D01*
X6068959Y-32917423D01*
X6444866Y-33332389D01*
X6649108Y-33429053D01*
X6265423Y-33685423D01*
X5948260Y-34160091D01*
X5836887Y-34720000D01*
X735000Y-34720000D01*
X735000Y-3325967D01*
X817199Y-3524412D01*
X1375588Y-4082801D01*
X2105159Y-4385000D01*
X2894841Y-4385000D01*
X3244901Y-4240000D01*
X5836887Y-4240000D01*
X5948260Y-4799909D01*
X6265423Y-5274577D01*
X6617758Y-5510000D01*
X6265423Y-5745423D01*
X5948260Y-6220091D01*
X5836887Y-6780000D01*
X5948260Y-7339909D01*
X6265423Y-7814577D01*
X6617758Y-8050000D01*
X6265423Y-8285423D01*
X5948260Y-8760091D01*
X5836887Y-9320000D01*
X5948260Y-9879909D01*
X6265423Y-10354577D01*
X6617758Y-10590000D01*
X6265423Y-10825423D01*
X5948260Y-11300091D01*
X5836887Y-11860000D01*
X5948260Y-12419909D01*
X6265423Y-12894577D01*
X6617758Y-13130000D01*
X6265423Y-13365423D01*
X5948260Y-13840091D01*
X5836887Y-14400000D01*
X5948260Y-14959909D01*
X6265423Y-15434577D01*
X6617758Y-15670000D01*
X6265423Y-15905423D01*
X5948260Y-16380091D01*
X5836887Y-16940000D01*
X5948260Y-17499909D01*
X6265423Y-17974577D01*
X6617758Y-18210000D01*
X6265423Y-18445423D01*
X5948260Y-18920091D01*
X5836887Y-19480000D01*
X5948260Y-20039909D01*
X6265423Y-20514577D01*
X6617758Y-20750000D01*
X6265423Y-20985423D01*
X5948260Y-21460091D01*
X5836887Y-22020000D01*
X5948260Y-22579909D01*
X6265423Y-23054577D01*
X6617758Y-23290000D01*
X6265423Y-23525423D01*
X5948260Y-24000091D01*
X5836887Y-24560000D01*
X5948260Y-25119909D01*
X6265423Y-25594577D01*
X6617758Y-25830000D01*
X6265423Y-26065423D01*
X5948260Y-26540091D01*
X5836887Y-27100000D01*
X5948260Y-27659909D01*
X6265423Y-28134577D01*
X6617758Y-28370000D01*
X6265423Y-28605423D01*
X5948260Y-29080091D01*
X5836887Y-29640000D01*
X5948260Y-30199909D01*
X6265423Y-30674577D01*
X6649108Y-30930947D01*
X6444866Y-31027611D01*
X6068959Y-31442577D01*
X5908096Y-31830961D01*
X6030085Y-32053000D01*
X7173000Y-32053000D01*
X7173000Y-32033000D01*
X7427000Y-32033000D01*
X7427000Y-32053000D01*
X8569915Y-32053000D01*
X8691904Y-31830961D01*
X8531041Y-31442577D01*
X8155134Y-31027611D01*
X7950892Y-30930947D01*
X8334577Y-30674577D01*
X8651740Y-30199909D01*
X8763113Y-29640000D01*
X8651740Y-29080091D01*
X8388250Y-28685750D01*
X15290000Y-28685750D01*
X15290000Y-29401309D01*
X15386673Y-29634698D01*
X15565301Y-29813327D01*
X15696759Y-29867779D01*
X15519884Y-30044654D01*
X15290000Y-30599642D01*
X15290000Y-31200358D01*
X15519884Y-31755346D01*
X15914538Y-32150000D01*
X15519884Y-32544654D01*
X15290000Y-33099642D01*
X15290000Y-33700358D01*
X15519884Y-34255346D01*
X15914538Y-34650000D01*
X15519884Y-35044654D01*
X15290000Y-35599642D01*
X15290000Y-36200358D01*
X15519884Y-36755346D01*
X15944654Y-37180116D01*
X16499642Y-37410000D01*
X17100358Y-37410000D01*
X17655346Y-37180116D01*
X17841336Y-36994126D01*
X19465000Y-36994126D01*
X19465000Y-37405874D01*
X19622569Y-37786280D01*
X19740000Y-37903711D01*
X19740001Y-45196288D01*
X19622569Y-45313720D01*
X19465000Y-45694126D01*
X19465000Y-46105874D01*
X19622569Y-46486280D01*
X19913720Y-46777431D01*
X20294126Y-46935000D01*
X20705874Y-46935000D01*
X21086280Y-46777431D01*
X21377431Y-46486280D01*
X21535000Y-46105874D01*
X21535000Y-45694126D01*
X21377431Y-45313720D01*
X21260000Y-45196289D01*
X21260000Y-40467276D01*
X21505423Y-40834577D01*
X21980091Y-41151740D01*
X22398667Y-41235000D01*
X22681333Y-41235000D01*
X23099909Y-41151740D01*
X23574577Y-40834577D01*
X23891740Y-40359909D01*
X24003113Y-39800000D01*
X23891740Y-39240091D01*
X23574577Y-38765423D01*
X23222242Y-38530000D01*
X23574577Y-38294577D01*
X23891740Y-37819909D01*
X24003113Y-37260000D01*
X23891740Y-36700091D01*
X23574577Y-36225423D01*
X23222242Y-35990000D01*
X23574577Y-35754577D01*
X23891740Y-35279909D01*
X24003113Y-34720000D01*
X23891740Y-34160091D01*
X23574577Y-33685423D01*
X23222242Y-33450000D01*
X23574577Y-33214577D01*
X23891740Y-32739909D01*
X24003113Y-32180000D01*
X23891740Y-31620091D01*
X23574577Y-31145423D01*
X23222242Y-30910000D01*
X23574577Y-30674577D01*
X23891740Y-30199909D01*
X24003113Y-29640000D01*
X23891740Y-29080091D01*
X23574577Y-28605423D01*
X23222242Y-28370000D01*
X23574577Y-28134577D01*
X23891740Y-27659909D01*
X24003113Y-27100000D01*
X23891740Y-26540091D01*
X23574577Y-26065423D01*
X23222242Y-25830000D01*
X23574577Y-25594577D01*
X23891740Y-25119909D01*
X24003113Y-24560000D01*
X23891740Y-24000091D01*
X23574577Y-23525423D01*
X23222242Y-23290000D01*
X23574577Y-23054577D01*
X23891740Y-22579909D01*
X24003113Y-22020000D01*
X23891740Y-21460091D01*
X23574577Y-20985423D01*
X23222242Y-20750000D01*
X23574577Y-20514577D01*
X23891740Y-20039909D01*
X24003113Y-19480000D01*
X23891740Y-18920091D01*
X23574577Y-18445423D01*
X23222242Y-18210000D01*
X23574577Y-17974577D01*
X23891740Y-17499909D01*
X24003113Y-16940000D01*
X23891740Y-16380091D01*
X23574577Y-15905423D01*
X23222242Y-15670000D01*
X23574577Y-15434577D01*
X23891740Y-14959909D01*
X24003113Y-14400000D01*
X23891740Y-13840091D01*
X23574577Y-13365423D01*
X23222242Y-13130000D01*
X23574577Y-12894577D01*
X23891740Y-12419909D01*
X24003113Y-11860000D01*
X23891740Y-11300091D01*
X23574577Y-10825423D01*
X23222242Y-10590000D01*
X23574577Y-10354577D01*
X23891740Y-9879909D01*
X24003113Y-9320000D01*
X23891740Y-8760091D01*
X23574577Y-8285423D01*
X23222242Y-8050000D01*
X23574577Y-7814577D01*
X23891740Y-7339909D01*
X24003113Y-6780000D01*
X23891740Y-6220091D01*
X23574577Y-5745423D01*
X23222242Y-5510000D01*
X23574577Y-5274577D01*
X23891740Y-4799909D01*
X24003113Y-4240000D01*
X23891740Y-3680091D01*
X23574577Y-3205423D01*
X23099909Y-2888260D01*
X22681333Y-2805000D01*
X22398667Y-2805000D01*
X21980091Y-2888260D01*
X21505423Y-3205423D01*
X21188260Y-3680091D01*
X21076887Y-4240000D01*
X21188260Y-4799909D01*
X21505423Y-5274577D01*
X21857758Y-5510000D01*
X21505423Y-5745423D01*
X21188260Y-6220091D01*
X21076887Y-6780000D01*
X21188260Y-7339909D01*
X21505423Y-7814577D01*
X21857758Y-8050000D01*
X21505423Y-8285423D01*
X21188260Y-8760091D01*
X21076887Y-9320000D01*
X21188260Y-9879909D01*
X21505423Y-10354577D01*
X21857758Y-10590000D01*
X21505423Y-10825423D01*
X21188260Y-11300091D01*
X21076887Y-11860000D01*
X21188260Y-12419909D01*
X21505423Y-12894577D01*
X21857758Y-13130000D01*
X21505423Y-13365423D01*
X21188260Y-13840091D01*
X21076887Y-14400000D01*
X21188260Y-14959909D01*
X21505423Y-15434577D01*
X21857758Y-15670000D01*
X21505423Y-15905423D01*
X21188260Y-16380091D01*
X21076887Y-16940000D01*
X21188260Y-17499909D01*
X21505423Y-17974577D01*
X21857758Y-18210000D01*
X21505423Y-18445423D01*
X21188260Y-18920091D01*
X21076887Y-19480000D01*
X21188260Y-20039909D01*
X21505423Y-20514577D01*
X21857758Y-20750000D01*
X21505423Y-20985423D01*
X21188260Y-21460091D01*
X21076887Y-22020000D01*
X21188260Y-22579909D01*
X21505423Y-23054577D01*
X21857758Y-23290000D01*
X21505423Y-23525423D01*
X21188260Y-24000091D01*
X21076887Y-24560000D01*
X21188260Y-25119909D01*
X21505423Y-25594577D01*
X21857758Y-25830000D01*
X21505423Y-26065423D01*
X21188260Y-26540091D01*
X21076887Y-27100000D01*
X21188260Y-27659909D01*
X21505423Y-28134577D01*
X21857758Y-28370000D01*
X21505423Y-28605423D01*
X21188260Y-29080091D01*
X21076887Y-29640000D01*
X21188260Y-30199909D01*
X21505423Y-30674577D01*
X21857758Y-30910000D01*
X21505423Y-31145423D01*
X21188260Y-31620091D01*
X21076887Y-32180000D01*
X21188260Y-32739909D01*
X21505423Y-33214577D01*
X21857758Y-33450000D01*
X21505423Y-33685423D01*
X21188260Y-34160091D01*
X21076887Y-34720000D01*
X21188260Y-35279909D01*
X21505423Y-35754577D01*
X21857758Y-35990000D01*
X21505423Y-36225423D01*
X21298627Y-36534916D01*
X21086280Y-36322569D01*
X20705874Y-36165000D01*
X20294126Y-36165000D01*
X19913720Y-36322569D01*
X19622569Y-36613720D01*
X19465000Y-36994126D01*
X17841336Y-36994126D01*
X18080116Y-36755346D01*
X18310000Y-36200358D01*
X18310000Y-35599642D01*
X18080116Y-35044654D01*
X17685462Y-34650000D01*
X18080116Y-34255346D01*
X18310000Y-33700358D01*
X18310000Y-33099642D01*
X18080116Y-32544654D01*
X17685462Y-32150000D01*
X18080116Y-31755346D01*
X18310000Y-31200358D01*
X18310000Y-30599642D01*
X18080116Y-30044654D01*
X17903241Y-29867779D01*
X18034699Y-29813327D01*
X18213327Y-29634698D01*
X18310000Y-29401309D01*
X18310000Y-28685750D01*
X18151250Y-28527000D01*
X16927000Y-28527000D01*
X16927000Y-28547000D01*
X16673000Y-28547000D01*
X16673000Y-28527000D01*
X15448750Y-28527000D01*
X15290000Y-28685750D01*
X8388250Y-28685750D01*
X8334577Y-28605423D01*
X7982242Y-28370000D01*
X8334577Y-28134577D01*
X8651740Y-27659909D01*
X8703699Y-27398691D01*
X15290000Y-27398691D01*
X15290000Y-28114250D01*
X15448750Y-28273000D01*
X16673000Y-28273000D01*
X16673000Y-27048750D01*
X16927000Y-27048750D01*
X16927000Y-28273000D01*
X18151250Y-28273000D01*
X18310000Y-28114250D01*
X18310000Y-27398691D01*
X18213327Y-27165302D01*
X18034699Y-26986673D01*
X17801310Y-26890000D01*
X17085750Y-26890000D01*
X16927000Y-27048750D01*
X16673000Y-27048750D01*
X16514250Y-26890000D01*
X15798690Y-26890000D01*
X15565301Y-26986673D01*
X15386673Y-27165302D01*
X15290000Y-27398691D01*
X8703699Y-27398691D01*
X8763113Y-27100000D01*
X8651740Y-26540091D01*
X8334577Y-26065423D01*
X7982242Y-25830000D01*
X8334577Y-25594577D01*
X8651740Y-25119909D01*
X8763113Y-24560000D01*
X8651740Y-24000091D01*
X8334577Y-23525423D01*
X7982242Y-23290000D01*
X8334577Y-23054577D01*
X8651740Y-22579909D01*
X8763113Y-22020000D01*
X8651740Y-21460091D01*
X8334577Y-20985423D01*
X7982242Y-20750000D01*
X8334577Y-20514577D01*
X8424498Y-20380000D01*
X13385908Y-20380000D01*
X13501161Y-20959418D01*
X13829375Y-21450625D01*
X14320582Y-21778839D01*
X14753744Y-21865000D01*
X15046256Y-21865000D01*
X15479418Y-21778839D01*
X15970625Y-21450625D01*
X16298839Y-20959418D01*
X16414092Y-20380000D01*
X16298839Y-19800582D01*
X15970625Y-19309375D01*
X15651522Y-19096157D01*
X15781358Y-19035183D01*
X16171645Y-18606924D01*
X16341476Y-18196890D01*
X16220155Y-17967000D01*
X15027000Y-17967000D01*
X15027000Y-17987000D01*
X14773000Y-17987000D01*
X14773000Y-17967000D01*
X13579845Y-17967000D01*
X13458524Y-18196890D01*
X13628355Y-18606924D01*
X14018642Y-19035183D01*
X14148478Y-19096157D01*
X13829375Y-19309375D01*
X13501161Y-19800582D01*
X13385908Y-20380000D01*
X8424498Y-20380000D01*
X8651740Y-20039909D01*
X8763113Y-19480000D01*
X8651740Y-18920091D01*
X8334577Y-18445423D01*
X7982242Y-18210000D01*
X8334577Y-17974577D01*
X8651740Y-17499909D01*
X8763113Y-16940000D01*
X8651740Y-16380091D01*
X8334577Y-15905423D01*
X7982242Y-15670000D01*
X8334577Y-15434577D01*
X8651740Y-14959909D01*
X8763113Y-14400000D01*
X8651740Y-13840091D01*
X8334577Y-13365423D01*
X7982242Y-13130000D01*
X8334577Y-12894577D01*
X8651740Y-12419909D01*
X8763113Y-11860000D01*
X8651740Y-11300091D01*
X8334577Y-10825423D01*
X7982242Y-10590000D01*
X8334577Y-10354577D01*
X8651740Y-9879909D01*
X8763113Y-9320000D01*
X8651740Y-8760091D01*
X8334577Y-8285423D01*
X7982242Y-8050000D01*
X8334577Y-7814577D01*
X8651740Y-7339909D01*
X8763113Y-6780000D01*
X8651740Y-6220091D01*
X8334577Y-5745423D01*
X7982242Y-5510000D01*
X8334577Y-5274577D01*
X8424498Y-5140000D01*
X13385908Y-5140000D01*
X13501161Y-5719418D01*
X13829375Y-6210625D01*
X14127761Y-6410000D01*
X13829375Y-6609375D01*
X13501161Y-7100582D01*
X13385908Y-7680000D01*
X13501161Y-8259418D01*
X13829375Y-8750625D01*
X14127761Y-8950000D01*
X13829375Y-9149375D01*
X13501161Y-9640582D01*
X13385908Y-10220000D01*
X13501161Y-10799418D01*
X13829375Y-11290625D01*
X14127761Y-11490000D01*
X13829375Y-11689375D01*
X13501161Y-12180582D01*
X13385908Y-12760000D01*
X13501161Y-13339418D01*
X13829375Y-13830625D01*
X14127761Y-14030000D01*
X13829375Y-14229375D01*
X13501161Y-14720582D01*
X13385908Y-15300000D01*
X13501161Y-15879418D01*
X13829375Y-16370625D01*
X14148478Y-16583843D01*
X14018642Y-16644817D01*
X13628355Y-17073076D01*
X13458524Y-17483110D01*
X13579845Y-17713000D01*
X14773000Y-17713000D01*
X14773000Y-17693000D01*
X15027000Y-17693000D01*
X15027000Y-17713000D01*
X16220155Y-17713000D01*
X16341476Y-17483110D01*
X16171645Y-17073076D01*
X15781358Y-16644817D01*
X15651522Y-16583843D01*
X15970625Y-16370625D01*
X16298839Y-15879418D01*
X16414092Y-15300000D01*
X16298839Y-14720582D01*
X15970625Y-14229375D01*
X15672239Y-14030000D01*
X15970625Y-13830625D01*
X16298839Y-13339418D01*
X16414092Y-12760000D01*
X16298839Y-12180582D01*
X15970625Y-11689375D01*
X15672239Y-11490000D01*
X15970625Y-11290625D01*
X16298839Y-10799418D01*
X16414092Y-10220000D01*
X16298839Y-9640582D01*
X15970625Y-9149375D01*
X15672239Y-8950000D01*
X15970625Y-8750625D01*
X16298839Y-8259418D01*
X16414092Y-7680000D01*
X16298839Y-7100582D01*
X15970625Y-6609375D01*
X15672239Y-6410000D01*
X15970625Y-6210625D01*
X16298839Y-5719418D01*
X16414092Y-5140000D01*
X16298839Y-4560582D01*
X15970625Y-4069375D01*
X15952381Y-4057184D01*
X15997765Y-4048157D01*
X16207809Y-3907809D01*
X16348157Y-3697765D01*
X16397440Y-3450000D01*
X16397440Y-1750000D01*
X16348157Y-1502235D01*
X16207809Y-1292191D01*
X15997765Y-1151843D01*
X15750000Y-1102560D01*
X14050000Y-1102560D01*
X13802235Y-1151843D01*
X13592191Y-1292191D01*
X13451843Y-1502235D01*
X13402560Y-1750000D01*
X13402560Y-3450000D01*
X13451843Y-3697765D01*
X13592191Y-3907809D01*
X13802235Y-4048157D01*
X13847619Y-4057184D01*
X13829375Y-4069375D01*
X13501161Y-4560582D01*
X13385908Y-5140000D01*
X8424498Y-5140000D01*
X8651740Y-4799909D01*
X8763113Y-4240000D01*
X8651740Y-3680091D01*
X8334577Y-3205423D01*
X7859909Y-2888260D01*
X7441333Y-2805000D01*
X7158667Y-2805000D01*
X6740091Y-2888260D01*
X6265423Y-3205423D01*
X5948260Y-3680091D01*
X5836887Y-4240000D01*
X3244901Y-4240000D01*
X3624412Y-4082801D01*
X4182801Y-3524412D01*
X4485000Y-2794841D01*
X4485000Y-2005159D01*
X4182801Y-1275588D01*
X3642213Y-735000D01*
X26574033Y-735000D01*
X26375588Y-817199D01*
M02*
