G04 #@! TF.GenerationSoftware,KiCad,Pcbnew,(2018-01-30 revision 342197bb3)-makepkg*
G04 #@! TF.CreationDate,2018-02-10T00:50:16-05:00*
G04 #@! TF.ProjectId,DayClock Circuit,446179436C6F636B2043697263756974,rev?*
G04 #@! TF.SameCoordinates,Original*
G04 #@! TF.FileFunction,Copper,L1,Top,Signal*
G04 #@! TF.FilePolarity,Positive*
%FSLAX46Y46*%
G04 Gerber Fmt 4.6, Leading zero omitted, Abs format (unit mm)*
G04 Created by KiCad (PCBNEW (2018-01-30 revision 342197bb3)-makepkg) date 02/10/18 00:50:16*
%MOMM*%
%LPD*%
G01*
G04 APERTURE LIST*
%ADD10C,1.750000*%
%ADD11R,1.750000X1.750000*%
%ADD12R,1.524000X1.524000*%
%ADD13C,1.524000*%
%ADD14C,4.064000*%
%ADD15O,1.600000X1.600000*%
%ADD16R,1.600000X1.600000*%
%ADD17O,1.700000X1.700000*%
%ADD18R,1.700000X1.700000*%
%ADD19C,0.800000*%
%ADD20C,0.250000*%
%ADD21C,0.254000*%
G04 APERTURE END LIST*
D10*
X19500000Y-64100000D03*
X19500000Y-61600000D03*
D11*
X19500000Y-59100000D03*
X8200000Y-58800000D03*
D10*
X8200000Y-61300000D03*
X8200000Y-63800000D03*
X16800000Y-50000000D03*
D11*
X16800000Y-47500000D03*
D10*
X16800000Y-35900000D03*
X16800000Y-33400000D03*
X16800000Y-30900000D03*
D11*
X16800000Y-28400000D03*
D12*
X27240000Y-64840000D03*
D13*
X27240000Y-62300000D03*
X27240000Y-59760000D03*
X27240000Y-57220000D03*
X27240000Y-54680000D03*
D14*
X4380000Y-71190000D03*
D15*
X22540000Y-4240000D03*
X7300000Y-4240000D03*
X22540000Y-39800000D03*
X7300000Y-6780000D03*
X22540000Y-37260000D03*
X7300000Y-9320000D03*
X22540000Y-34720000D03*
X7300000Y-11860000D03*
X22540000Y-32180000D03*
X7300000Y-14400000D03*
X22540000Y-29640000D03*
X7300000Y-16940000D03*
X22540000Y-27100000D03*
X7300000Y-19480000D03*
X22540000Y-24560000D03*
X7300000Y-22020000D03*
X22540000Y-22020000D03*
X7300000Y-24560000D03*
X22540000Y-19480000D03*
X7300000Y-27100000D03*
X22540000Y-16940000D03*
X7300000Y-29640000D03*
X22540000Y-14400000D03*
X7300000Y-32180000D03*
X22540000Y-11860000D03*
X7300000Y-34720000D03*
X22540000Y-9320000D03*
X7300000Y-37260000D03*
X22540000Y-6780000D03*
D16*
X7300000Y-39800000D03*
D17*
X14900000Y-20380000D03*
X14900000Y-17840000D03*
X14900000Y-15300000D03*
X14900000Y-12760000D03*
X14900000Y-10220000D03*
X14900000Y-7680000D03*
X14900000Y-5140000D03*
D18*
X14900000Y-2600000D03*
D19*
X20500000Y-37200000D03*
X20500000Y-45900000D03*
D20*
X10200000Y-14400000D02*
X11100000Y-15300000D01*
X7300000Y-14400000D02*
X10200000Y-14400000D01*
X11100000Y-15300000D02*
X14900000Y-15300000D01*
X5820000Y-19480000D02*
X4800000Y-20500000D01*
X7300000Y-19480000D02*
X5820000Y-19480000D01*
X4800000Y-20500000D02*
X4800000Y-60200000D01*
X4800000Y-60200000D02*
X5900000Y-61300000D01*
X5900000Y-61300000D02*
X8200000Y-61300000D01*
X20500000Y-22928630D02*
X20500000Y-37200000D01*
X19000000Y-4200000D02*
X19040000Y-4240000D01*
X19040000Y-4240000D02*
X22540000Y-4240000D01*
X18060000Y-5140000D02*
X19000000Y-4200000D01*
X14900000Y-5140000D02*
X18060000Y-5140000D01*
X11000000Y-7700000D02*
X11020000Y-7680000D01*
X11020000Y-7680000D02*
X14900000Y-7680000D01*
X10080000Y-6780000D02*
X11000000Y-7700000D01*
X7300000Y-6780000D02*
X10080000Y-6780000D01*
X10100000Y-9300000D02*
X11020000Y-10220000D01*
X11020000Y-10220000D02*
X14900000Y-10220000D01*
X8451370Y-9300000D02*
X10100000Y-9300000D01*
X7300000Y-9320000D02*
X8431370Y-9320000D01*
X8431370Y-9320000D02*
X8451370Y-9300000D01*
X10060000Y-11860000D02*
X10960000Y-12760000D01*
X7300000Y-11860000D02*
X10060000Y-11860000D01*
X10960000Y-12760000D02*
X14900000Y-12760000D01*
X24500000Y-56500000D02*
X25420000Y-57420000D01*
X25420000Y-57420000D02*
X26940000Y-57420000D01*
X24500000Y-26800000D02*
X24500000Y-56500000D01*
X23339999Y-25639999D02*
X24500000Y-26800000D01*
X22540000Y-24560000D02*
X23339999Y-25359999D01*
X23339999Y-25359999D02*
X23339999Y-25639999D01*
X20500000Y-56100000D02*
X20500000Y-46000000D01*
X20500000Y-56100000D02*
X24360000Y-59960000D01*
X24360000Y-59960000D02*
X26940000Y-59960000D01*
X22540000Y-22020000D02*
X21408630Y-22020000D01*
X21408630Y-22020000D02*
X20500000Y-22928630D01*
X8431370Y-27100000D02*
X12700000Y-31368630D01*
X7300000Y-27100000D02*
X8431370Y-27100000D01*
X12700000Y-31368630D02*
X12700000Y-56800000D01*
X12700000Y-56800000D02*
X15000000Y-59100000D01*
X15000000Y-59100000D02*
X19400000Y-59100000D01*
X19700000Y-22700000D02*
X19700000Y-22500000D01*
X19700000Y-22500000D02*
X19700000Y-17700000D01*
X19700000Y-22500000D02*
X19700000Y-34237436D01*
X19700000Y-34237436D02*
X18037436Y-35900000D01*
X18037436Y-35900000D02*
X16800000Y-35900000D01*
X20460000Y-16940000D02*
X22540000Y-16940000D01*
X19700000Y-17700000D02*
X20460000Y-16940000D01*
X18300000Y-13700000D02*
X20140000Y-11860000D01*
X18300000Y-21700000D02*
X18300000Y-13700000D01*
X14900000Y-25100000D02*
X18300000Y-21700000D01*
X14900000Y-30237436D02*
X14900000Y-25100000D01*
X16800000Y-30900000D02*
X15562564Y-30900000D01*
X15562564Y-30900000D02*
X14900000Y-30237436D01*
X20140000Y-11860000D02*
X22540000Y-11860000D01*
X20300000Y-14400000D02*
X19000000Y-15700000D01*
X22540000Y-14400000D02*
X20300000Y-14400000D01*
X19000000Y-15700000D02*
X19000000Y-31300000D01*
X19000000Y-31300000D02*
X17774999Y-32525001D01*
X17774999Y-32525001D02*
X17674999Y-32525001D01*
X17674999Y-32525001D02*
X16800000Y-33400000D01*
D21*
G36*
X26375588Y-817199D02*
X25817199Y-1375588D01*
X25515000Y-2105159D01*
X25515000Y-2894841D01*
X25817199Y-3624412D01*
X26375588Y-4182801D01*
X27105159Y-4485000D01*
X27894841Y-4485000D01*
X28624412Y-4182801D01*
X29182801Y-3624412D01*
X29265001Y-3425964D01*
X29265000Y-41074035D01*
X29182801Y-40875588D01*
X28624412Y-40317199D01*
X27894841Y-40015000D01*
X27105159Y-40015000D01*
X26375588Y-40317199D01*
X25817199Y-40875588D01*
X25515000Y-41605159D01*
X25515000Y-42394841D01*
X25817199Y-43124412D01*
X26375588Y-43682801D01*
X27105159Y-43985000D01*
X27894841Y-43985000D01*
X28624412Y-43682801D01*
X29182801Y-43124412D01*
X29265000Y-42925967D01*
X29265000Y-72427610D01*
X29117344Y-73169926D01*
X28737862Y-73737861D01*
X28169926Y-74117344D01*
X27427610Y-74265000D01*
X2572390Y-74265000D01*
X1830074Y-74117344D01*
X1262139Y-73737862D01*
X882656Y-73169926D01*
X735000Y-72427610D01*
X735000Y-70659501D01*
X1713000Y-70659501D01*
X1713000Y-71720499D01*
X2119026Y-72700734D01*
X2869266Y-73450974D01*
X3849501Y-73857000D01*
X4910499Y-73857000D01*
X5890734Y-73450974D01*
X6640974Y-72700734D01*
X7047000Y-71720499D01*
X7047000Y-70659501D01*
X6640974Y-69679266D01*
X5890734Y-68929026D01*
X4910499Y-68523000D01*
X3849501Y-68523000D01*
X2869266Y-68929026D01*
X2119026Y-69679266D01*
X1713000Y-70659501D01*
X735000Y-70659501D01*
X735000Y-64862060D01*
X7317545Y-64862060D01*
X7400884Y-65115953D01*
X7965306Y-65321590D01*
X8565458Y-65295579D01*
X8999116Y-65115953D01*
X9082455Y-64862060D01*
X8200000Y-63979605D01*
X7317545Y-64862060D01*
X735000Y-64862060D01*
X735000Y-63565306D01*
X6678410Y-63565306D01*
X6704421Y-64165458D01*
X6884047Y-64599116D01*
X7137940Y-64682455D01*
X8020395Y-63800000D01*
X8379605Y-63800000D01*
X9262060Y-64682455D01*
X9515953Y-64599116D01*
X9721590Y-64034694D01*
X9711403Y-63799642D01*
X17990000Y-63799642D01*
X17990000Y-64400358D01*
X18219884Y-64955346D01*
X18644654Y-65380116D01*
X19199642Y-65610000D01*
X19800358Y-65610000D01*
X20355346Y-65380116D01*
X20780116Y-64955346D01*
X21010000Y-64400358D01*
X21010000Y-64078000D01*
X25830560Y-64078000D01*
X25830560Y-65602000D01*
X25879843Y-65849765D01*
X26020191Y-66059809D01*
X26230235Y-66200157D01*
X26478000Y-66249440D01*
X28002000Y-66249440D01*
X28249765Y-66200157D01*
X28459809Y-66059809D01*
X28600157Y-65849765D01*
X28649440Y-65602000D01*
X28649440Y-64078000D01*
X28600157Y-63830235D01*
X28459809Y-63620191D01*
X28249765Y-63479843D01*
X28002000Y-63430560D01*
X27997484Y-63430560D01*
X28040608Y-63280213D01*
X27240000Y-62479605D01*
X26439392Y-63280213D01*
X26482516Y-63430560D01*
X26478000Y-63430560D01*
X26230235Y-63479843D01*
X26020191Y-63620191D01*
X25879843Y-63830235D01*
X25830560Y-64078000D01*
X21010000Y-64078000D01*
X21010000Y-63799642D01*
X20780116Y-63244654D01*
X20355346Y-62819884D01*
X20333606Y-62810879D01*
X20382455Y-62662060D01*
X19500000Y-61779605D01*
X18617545Y-62662060D01*
X18666394Y-62810879D01*
X18644654Y-62819884D01*
X18219884Y-63244654D01*
X17990000Y-63799642D01*
X9711403Y-63799642D01*
X9695579Y-63434542D01*
X9515953Y-63000884D01*
X9262060Y-62917545D01*
X8379605Y-63800000D01*
X8020395Y-63800000D01*
X7137940Y-62917545D01*
X6884047Y-63000884D01*
X6678410Y-63565306D01*
X735000Y-63565306D01*
X735000Y-42925967D01*
X817199Y-43124412D01*
X1375588Y-43682801D01*
X2105159Y-43985000D01*
X2894841Y-43985000D01*
X3624412Y-43682801D01*
X4040001Y-43267212D01*
X4040001Y-60125148D01*
X4025112Y-60200000D01*
X4084097Y-60496537D01*
X4203946Y-60675903D01*
X4252072Y-60747929D01*
X4315528Y-60790329D01*
X5309671Y-61784473D01*
X5352071Y-61847929D01*
X5603463Y-62015904D01*
X5825148Y-62060000D01*
X5825153Y-62060000D01*
X5900000Y-62074888D01*
X5974847Y-62060000D01*
X6880390Y-62060000D01*
X6919884Y-62155346D01*
X7344654Y-62580116D01*
X7366394Y-62589121D01*
X7317545Y-62737940D01*
X8200000Y-63620395D01*
X9082455Y-62737940D01*
X9033606Y-62589121D01*
X9055346Y-62580116D01*
X9480116Y-62155346D01*
X9710000Y-61600358D01*
X9710000Y-60999642D01*
X9480116Y-60444654D01*
X9310966Y-60275504D01*
X9322765Y-60273157D01*
X9532809Y-60132809D01*
X9673157Y-59922765D01*
X9722440Y-59675000D01*
X9722440Y-57925000D01*
X9673157Y-57677235D01*
X9532809Y-57467191D01*
X9322765Y-57326843D01*
X9075000Y-57277560D01*
X7325000Y-57277560D01*
X7077235Y-57326843D01*
X6867191Y-57467191D01*
X6726843Y-57677235D01*
X6677560Y-57925000D01*
X6677560Y-59675000D01*
X6726843Y-59922765D01*
X6867191Y-60132809D01*
X7077235Y-60273157D01*
X7089034Y-60275504D01*
X6919884Y-60444654D01*
X6880390Y-60540000D01*
X6214802Y-60540000D01*
X5560000Y-59885199D01*
X5560000Y-20814801D01*
X6103123Y-20271678D01*
X6265423Y-20514577D01*
X6617758Y-20750000D01*
X6265423Y-20985423D01*
X5948260Y-21460091D01*
X5836887Y-22020000D01*
X5948260Y-22579909D01*
X6265423Y-23054577D01*
X6617758Y-23290000D01*
X6265423Y-23525423D01*
X5948260Y-24000091D01*
X5836887Y-24560000D01*
X5948260Y-25119909D01*
X6265423Y-25594577D01*
X6617758Y-25830000D01*
X6265423Y-26065423D01*
X5948260Y-26540091D01*
X5836887Y-27100000D01*
X5948260Y-27659909D01*
X6265423Y-28134577D01*
X6617758Y-28370000D01*
X6265423Y-28605423D01*
X5948260Y-29080091D01*
X5836887Y-29640000D01*
X5948260Y-30199909D01*
X6265423Y-30674577D01*
X6617758Y-30910000D01*
X6265423Y-31145423D01*
X5948260Y-31620091D01*
X5836887Y-32180000D01*
X5948260Y-32739909D01*
X6265423Y-33214577D01*
X6617758Y-33450000D01*
X6265423Y-33685423D01*
X5948260Y-34160091D01*
X5836887Y-34720000D01*
X5948260Y-35279909D01*
X6265423Y-35754577D01*
X6617758Y-35990000D01*
X6265423Y-36225423D01*
X5948260Y-36700091D01*
X5836887Y-37260000D01*
X5948260Y-37819909D01*
X6265423Y-38294577D01*
X6386106Y-38375215D01*
X6252235Y-38401843D01*
X6042191Y-38542191D01*
X5901843Y-38752235D01*
X5852560Y-39000000D01*
X5852560Y-40600000D01*
X5901843Y-40847765D01*
X6042191Y-41057809D01*
X6252235Y-41198157D01*
X6500000Y-41247440D01*
X8100000Y-41247440D01*
X8347765Y-41198157D01*
X8557809Y-41057809D01*
X8698157Y-40847765D01*
X8747440Y-40600000D01*
X8747440Y-39000000D01*
X8698157Y-38752235D01*
X8557809Y-38542191D01*
X8347765Y-38401843D01*
X8213894Y-38375215D01*
X8334577Y-38294577D01*
X8651740Y-37819909D01*
X8763113Y-37260000D01*
X8651740Y-36700091D01*
X8334577Y-36225423D01*
X7982242Y-35990000D01*
X8334577Y-35754577D01*
X8651740Y-35279909D01*
X8763113Y-34720000D01*
X8651740Y-34160091D01*
X8334577Y-33685423D01*
X7982242Y-33450000D01*
X8334577Y-33214577D01*
X8651740Y-32739909D01*
X8763113Y-32180000D01*
X8651740Y-31620091D01*
X8334577Y-31145423D01*
X7982242Y-30910000D01*
X8334577Y-30674577D01*
X8651740Y-30199909D01*
X8763113Y-29640000D01*
X8651740Y-29080091D01*
X8334577Y-28605423D01*
X7982242Y-28370000D01*
X8334577Y-28134577D01*
X8357235Y-28100667D01*
X11940000Y-31683433D01*
X11940001Y-56725148D01*
X11925112Y-56800000D01*
X11984097Y-57096537D01*
X12063856Y-57215904D01*
X12152072Y-57347929D01*
X12215528Y-57390329D01*
X14409671Y-59584473D01*
X14452071Y-59647929D01*
X14703463Y-59815904D01*
X14925148Y-59860000D01*
X14925152Y-59860000D01*
X14999999Y-59874888D01*
X15074846Y-59860000D01*
X17977560Y-59860000D01*
X17977560Y-59975000D01*
X18026843Y-60222765D01*
X18167191Y-60432809D01*
X18362745Y-60563475D01*
X18323306Y-60602914D01*
X18437938Y-60717546D01*
X18184047Y-60800884D01*
X17978410Y-61365306D01*
X18004421Y-61965458D01*
X18184047Y-62399116D01*
X18437940Y-62482455D01*
X19320395Y-61600000D01*
X19306253Y-61585858D01*
X19485858Y-61406253D01*
X19500000Y-61420395D01*
X19514143Y-61406253D01*
X19693748Y-61585858D01*
X19679605Y-61600000D01*
X20562060Y-62482455D01*
X20815953Y-62399116D01*
X20927735Y-62092302D01*
X25830856Y-62092302D01*
X25858638Y-62647368D01*
X26017603Y-63031143D01*
X26259787Y-63100608D01*
X27060395Y-62300000D01*
X27419605Y-62300000D01*
X28220213Y-63100608D01*
X28462397Y-63031143D01*
X28649144Y-62507698D01*
X28621362Y-61952632D01*
X28462397Y-61568857D01*
X28220213Y-61499392D01*
X27419605Y-62300000D01*
X27060395Y-62300000D01*
X26259787Y-61499392D01*
X26017603Y-61568857D01*
X25830856Y-62092302D01*
X20927735Y-62092302D01*
X21021590Y-61834694D01*
X20995579Y-61234542D01*
X20815953Y-60800884D01*
X20562062Y-60717546D01*
X20676694Y-60602914D01*
X20637255Y-60563475D01*
X20832809Y-60432809D01*
X20973157Y-60222765D01*
X21022440Y-59975000D01*
X21022440Y-58225000D01*
X20973157Y-57977235D01*
X20832809Y-57767191D01*
X20622765Y-57626843D01*
X20375000Y-57577560D01*
X18625000Y-57577560D01*
X18377235Y-57626843D01*
X18167191Y-57767191D01*
X18026843Y-57977235D01*
X17977560Y-58225000D01*
X17977560Y-58340000D01*
X15314802Y-58340000D01*
X13460000Y-56485199D01*
X13460000Y-47785750D01*
X15290000Y-47785750D01*
X15290000Y-48501309D01*
X15386673Y-48734698D01*
X15565301Y-48913327D01*
X15696759Y-48967779D01*
X15519884Y-49144654D01*
X15290000Y-49699642D01*
X15290000Y-50300358D01*
X15519884Y-50855346D01*
X15944654Y-51280116D01*
X16499642Y-51510000D01*
X17100358Y-51510000D01*
X17655346Y-51280116D01*
X18080116Y-50855346D01*
X18310000Y-50300358D01*
X18310000Y-49699642D01*
X18080116Y-49144654D01*
X17903241Y-48967779D01*
X18034699Y-48913327D01*
X18213327Y-48734698D01*
X18310000Y-48501309D01*
X18310000Y-47785750D01*
X18151250Y-47627000D01*
X16927000Y-47627000D01*
X16927000Y-47647000D01*
X16673000Y-47647000D01*
X16673000Y-47627000D01*
X15448750Y-47627000D01*
X15290000Y-47785750D01*
X13460000Y-47785750D01*
X13460000Y-46498691D01*
X15290000Y-46498691D01*
X15290000Y-47214250D01*
X15448750Y-47373000D01*
X16673000Y-47373000D01*
X16673000Y-46148750D01*
X16927000Y-46148750D01*
X16927000Y-47373000D01*
X18151250Y-47373000D01*
X18310000Y-47214250D01*
X18310000Y-46498691D01*
X18213327Y-46265302D01*
X18034699Y-46086673D01*
X17801310Y-45990000D01*
X17085750Y-45990000D01*
X16927000Y-46148750D01*
X16673000Y-46148750D01*
X16514250Y-45990000D01*
X15798690Y-45990000D01*
X15565301Y-46086673D01*
X15386673Y-46265302D01*
X15290000Y-46498691D01*
X13460000Y-46498691D01*
X13460000Y-40149039D01*
X21148096Y-40149039D01*
X21308959Y-40537423D01*
X21684866Y-40952389D01*
X22190959Y-41191914D01*
X22413000Y-41070629D01*
X22413000Y-39927000D01*
X21270085Y-39927000D01*
X21148096Y-40149039D01*
X13460000Y-40149039D01*
X13460000Y-31443476D01*
X13474888Y-31368629D01*
X13460000Y-31293782D01*
X13460000Y-31293778D01*
X13415904Y-31072093D01*
X13336556Y-30953340D01*
X13290329Y-30884156D01*
X13290327Y-30884154D01*
X13247929Y-30820701D01*
X13184476Y-30778303D01*
X9021701Y-26615530D01*
X8979299Y-26552071D01*
X8727907Y-26384096D01*
X8519855Y-26342712D01*
X8334577Y-26065423D01*
X7982242Y-25830000D01*
X8334577Y-25594577D01*
X8651740Y-25119909D01*
X8763113Y-24560000D01*
X8651740Y-24000091D01*
X8334577Y-23525423D01*
X7982242Y-23290000D01*
X8334577Y-23054577D01*
X8651740Y-22579909D01*
X8763113Y-22020000D01*
X8651740Y-21460091D01*
X8334577Y-20985423D01*
X7982242Y-20750000D01*
X8001862Y-20736890D01*
X13458524Y-20736890D01*
X13628355Y-21146924D01*
X14018642Y-21575183D01*
X14543108Y-21821486D01*
X14773000Y-21700819D01*
X14773000Y-20507000D01*
X15027000Y-20507000D01*
X15027000Y-21700819D01*
X15256892Y-21821486D01*
X15781358Y-21575183D01*
X16171645Y-21146924D01*
X16341476Y-20736890D01*
X16220155Y-20507000D01*
X15027000Y-20507000D01*
X14773000Y-20507000D01*
X13579845Y-20507000D01*
X13458524Y-20736890D01*
X8001862Y-20736890D01*
X8334577Y-20514577D01*
X8651740Y-20039909D01*
X8763113Y-19480000D01*
X8651740Y-18920091D01*
X8334577Y-18445423D01*
X7982242Y-18210000D01*
X8334577Y-17974577D01*
X8651740Y-17499909D01*
X8763113Y-16940000D01*
X8651740Y-16380091D01*
X8334577Y-15905423D01*
X7982242Y-15670000D01*
X8334577Y-15434577D01*
X8518043Y-15160000D01*
X9885199Y-15160000D01*
X10509671Y-15784473D01*
X10552071Y-15847929D01*
X10803463Y-16015904D01*
X11025148Y-16060000D01*
X11025152Y-16060000D01*
X11099999Y-16074888D01*
X11174846Y-16060000D01*
X13621822Y-16060000D01*
X13829375Y-16370625D01*
X14127761Y-16570000D01*
X13829375Y-16769375D01*
X13501161Y-17260582D01*
X13385908Y-17840000D01*
X13501161Y-18419418D01*
X13829375Y-18910625D01*
X14148478Y-19123843D01*
X14018642Y-19184817D01*
X13628355Y-19613076D01*
X13458524Y-20023110D01*
X13579845Y-20253000D01*
X14773000Y-20253000D01*
X14773000Y-20233000D01*
X15027000Y-20233000D01*
X15027000Y-20253000D01*
X16220155Y-20253000D01*
X16341476Y-20023110D01*
X16171645Y-19613076D01*
X15781358Y-19184817D01*
X15651522Y-19123843D01*
X15970625Y-18910625D01*
X16298839Y-18419418D01*
X16414092Y-17840000D01*
X16298839Y-17260582D01*
X15970625Y-16769375D01*
X15672239Y-16570000D01*
X15970625Y-16370625D01*
X16298839Y-15879418D01*
X16414092Y-15300000D01*
X16298839Y-14720582D01*
X15970625Y-14229375D01*
X15672239Y-14030000D01*
X15970625Y-13830625D01*
X16298839Y-13339418D01*
X16414092Y-12760000D01*
X16298839Y-12180582D01*
X15970625Y-11689375D01*
X15672239Y-11490000D01*
X15970625Y-11290625D01*
X16298839Y-10799418D01*
X16414092Y-10220000D01*
X16298839Y-9640582D01*
X15970625Y-9149375D01*
X15672239Y-8950000D01*
X15970625Y-8750625D01*
X16298839Y-8259418D01*
X16414092Y-7680000D01*
X16298839Y-7100582D01*
X15970625Y-6609375D01*
X15672239Y-6410000D01*
X15970625Y-6210625D01*
X16178178Y-5900000D01*
X17985153Y-5900000D01*
X18060000Y-5914888D01*
X18134847Y-5900000D01*
X18134852Y-5900000D01*
X18356537Y-5855904D01*
X18607929Y-5687929D01*
X18650331Y-5624470D01*
X19274802Y-5000000D01*
X21321957Y-5000000D01*
X21505423Y-5274577D01*
X21857758Y-5510000D01*
X21505423Y-5745423D01*
X21188260Y-6220091D01*
X21076887Y-6780000D01*
X21188260Y-7339909D01*
X21505423Y-7814577D01*
X21857758Y-8050000D01*
X21505423Y-8285423D01*
X21188260Y-8760091D01*
X21076887Y-9320000D01*
X21188260Y-9879909D01*
X21505423Y-10354577D01*
X21857758Y-10590000D01*
X21505423Y-10825423D01*
X21321957Y-11100000D01*
X20214847Y-11100000D01*
X20140000Y-11085112D01*
X20065153Y-11100000D01*
X20065148Y-11100000D01*
X19843463Y-11144096D01*
X19592071Y-11312071D01*
X19549671Y-11375527D01*
X17815528Y-13109671D01*
X17752072Y-13152071D01*
X17709672Y-13215527D01*
X17709671Y-13215528D01*
X17584097Y-13403463D01*
X17525112Y-13700000D01*
X17540001Y-13774852D01*
X17540000Y-21385198D01*
X14415528Y-24509671D01*
X14352072Y-24552071D01*
X14309672Y-24615527D01*
X14309671Y-24615528D01*
X14184097Y-24803463D01*
X14125112Y-25100000D01*
X14140001Y-25174852D01*
X14140000Y-30162589D01*
X14125112Y-30237436D01*
X14140000Y-30312283D01*
X14140000Y-30312287D01*
X14184096Y-30533972D01*
X14352071Y-30785365D01*
X14415530Y-30827767D01*
X14972235Y-31384473D01*
X15014635Y-31447929D01*
X15266027Y-31615904D01*
X15479733Y-31658413D01*
X15519884Y-31755346D01*
X15914538Y-32150000D01*
X15519884Y-32544654D01*
X15290000Y-33099642D01*
X15290000Y-33700358D01*
X15519884Y-34255346D01*
X15914538Y-34650000D01*
X15519884Y-35044654D01*
X15290000Y-35599642D01*
X15290000Y-36200358D01*
X15519884Y-36755346D01*
X15944654Y-37180116D01*
X16499642Y-37410000D01*
X17100358Y-37410000D01*
X17655346Y-37180116D01*
X18080116Y-36755346D01*
X18120267Y-36658413D01*
X18333973Y-36615904D01*
X18585365Y-36447929D01*
X18627767Y-36384470D01*
X19740001Y-35272237D01*
X19740001Y-36496288D01*
X19622569Y-36613720D01*
X19465000Y-36994126D01*
X19465000Y-37405874D01*
X19622569Y-37786280D01*
X19913720Y-38077431D01*
X20294126Y-38235000D01*
X20705874Y-38235000D01*
X21086280Y-38077431D01*
X21250561Y-37913150D01*
X21505423Y-38294577D01*
X21889108Y-38550947D01*
X21684866Y-38647611D01*
X21308959Y-39062577D01*
X21148096Y-39450961D01*
X21270085Y-39673000D01*
X22413000Y-39673000D01*
X22413000Y-39653000D01*
X22667000Y-39653000D01*
X22667000Y-39673000D01*
X22687000Y-39673000D01*
X22687000Y-39927000D01*
X22667000Y-39927000D01*
X22667000Y-41070629D01*
X22889041Y-41191914D01*
X23395134Y-40952389D01*
X23740000Y-40571689D01*
X23740001Y-56425148D01*
X23725112Y-56500000D01*
X23784097Y-56796537D01*
X23876967Y-56935526D01*
X23952072Y-57047929D01*
X24015527Y-57090329D01*
X24829673Y-57904475D01*
X24872071Y-57967929D01*
X24935524Y-58010327D01*
X24935526Y-58010329D01*
X25060902Y-58094102D01*
X25123463Y-58135904D01*
X25345148Y-58180000D01*
X25345152Y-58180000D01*
X25419999Y-58194888D01*
X25494846Y-58180000D01*
X26224343Y-58180000D01*
X26448663Y-58404320D01*
X26655513Y-58490000D01*
X26448663Y-58575680D01*
X26055680Y-58968663D01*
X25959857Y-59200000D01*
X24674803Y-59200000D01*
X21260000Y-55785199D01*
X21260000Y-46603711D01*
X21377431Y-46486280D01*
X21535000Y-46105874D01*
X21535000Y-45694126D01*
X21377431Y-45313720D01*
X21086280Y-45022569D01*
X20705874Y-44865000D01*
X20294126Y-44865000D01*
X19913720Y-45022569D01*
X19622569Y-45313720D01*
X19465000Y-45694126D01*
X19465000Y-46105874D01*
X19622569Y-46486280D01*
X19740001Y-46603712D01*
X19740000Y-56025153D01*
X19725112Y-56100000D01*
X19740000Y-56174847D01*
X19740000Y-56174851D01*
X19784096Y-56396536D01*
X19952071Y-56647929D01*
X20015530Y-56690331D01*
X23769673Y-60444476D01*
X23812071Y-60507929D01*
X23875524Y-60550327D01*
X23875526Y-60550329D01*
X24000902Y-60634102D01*
X24063463Y-60675904D01*
X24285148Y-60720000D01*
X24285152Y-60720000D01*
X24359999Y-60734888D01*
X24434846Y-60720000D01*
X26224343Y-60720000D01*
X26448663Y-60944320D01*
X26639647Y-61023428D01*
X26508857Y-61077603D01*
X26439392Y-61319787D01*
X27240000Y-62120395D01*
X28040608Y-61319787D01*
X27971143Y-61077603D01*
X27830607Y-61027465D01*
X28031337Y-60944320D01*
X28424320Y-60551337D01*
X28637000Y-60037881D01*
X28637000Y-59482119D01*
X28424320Y-58968663D01*
X28031337Y-58575680D01*
X27824487Y-58490000D01*
X28031337Y-58404320D01*
X28424320Y-58011337D01*
X28637000Y-57497881D01*
X28637000Y-56942119D01*
X28424320Y-56428663D01*
X28031337Y-56035680D01*
X27824487Y-55950000D01*
X28031337Y-55864320D01*
X28424320Y-55471337D01*
X28637000Y-54957881D01*
X28637000Y-54402119D01*
X28424320Y-53888663D01*
X28031337Y-53495680D01*
X27517881Y-53283000D01*
X26962119Y-53283000D01*
X26448663Y-53495680D01*
X26055680Y-53888663D01*
X25843000Y-54402119D01*
X25843000Y-54957881D01*
X26055680Y-55471337D01*
X26448663Y-55864320D01*
X26655513Y-55950000D01*
X26448663Y-56035680D01*
X26055680Y-56428663D01*
X25959857Y-56660000D01*
X25734802Y-56660000D01*
X25260000Y-56185198D01*
X25260000Y-26874846D01*
X25274888Y-26799999D01*
X25260000Y-26725152D01*
X25260000Y-26725148D01*
X25215904Y-26503463D01*
X25047929Y-26252071D01*
X24984473Y-26209671D01*
X24109943Y-25335141D01*
X24099999Y-25285151D01*
X24099999Y-25285147D01*
X24055903Y-25063462D01*
X24014101Y-25000901D01*
X23938052Y-24887084D01*
X24003113Y-24560000D01*
X23891740Y-24000091D01*
X23574577Y-23525423D01*
X23222242Y-23290000D01*
X23574577Y-23054577D01*
X23891740Y-22579909D01*
X24003113Y-22020000D01*
X23891740Y-21460091D01*
X23574577Y-20985423D01*
X23222242Y-20750000D01*
X23574577Y-20514577D01*
X23891740Y-20039909D01*
X24003113Y-19480000D01*
X23891740Y-18920091D01*
X23574577Y-18445423D01*
X23222242Y-18210000D01*
X23574577Y-17974577D01*
X23891740Y-17499909D01*
X24003113Y-16940000D01*
X23891740Y-16380091D01*
X23574577Y-15905423D01*
X23222242Y-15670000D01*
X23574577Y-15434577D01*
X23891740Y-14959909D01*
X24003113Y-14400000D01*
X23891740Y-13840091D01*
X23574577Y-13365423D01*
X23222242Y-13130000D01*
X23574577Y-12894577D01*
X23891740Y-12419909D01*
X24003113Y-11860000D01*
X23891740Y-11300091D01*
X23574577Y-10825423D01*
X23222242Y-10590000D01*
X23574577Y-10354577D01*
X23891740Y-9879909D01*
X24003113Y-9320000D01*
X23891740Y-8760091D01*
X23574577Y-8285423D01*
X23222242Y-8050000D01*
X23574577Y-7814577D01*
X23891740Y-7339909D01*
X24003113Y-6780000D01*
X23891740Y-6220091D01*
X23574577Y-5745423D01*
X23222242Y-5510000D01*
X23574577Y-5274577D01*
X23891740Y-4799909D01*
X24003113Y-4240000D01*
X23891740Y-3680091D01*
X23574577Y-3205423D01*
X23099909Y-2888260D01*
X22681333Y-2805000D01*
X22398667Y-2805000D01*
X21980091Y-2888260D01*
X21505423Y-3205423D01*
X21321957Y-3480000D01*
X19275945Y-3480000D01*
X19000000Y-3425112D01*
X18703462Y-3484096D01*
X18515527Y-3609671D01*
X18452071Y-3652071D01*
X18409672Y-3715527D01*
X17745199Y-4380000D01*
X16178178Y-4380000D01*
X15970625Y-4069375D01*
X15952381Y-4057184D01*
X15997765Y-4048157D01*
X16207809Y-3907809D01*
X16348157Y-3697765D01*
X16397440Y-3450000D01*
X16397440Y-1750000D01*
X16348157Y-1502235D01*
X16207809Y-1292191D01*
X15997765Y-1151843D01*
X15750000Y-1102560D01*
X14050000Y-1102560D01*
X13802235Y-1151843D01*
X13592191Y-1292191D01*
X13451843Y-1502235D01*
X13402560Y-1750000D01*
X13402560Y-3450000D01*
X13451843Y-3697765D01*
X13592191Y-3907809D01*
X13802235Y-4048157D01*
X13847619Y-4057184D01*
X13829375Y-4069375D01*
X13501161Y-4560582D01*
X13385908Y-5140000D01*
X13501161Y-5719418D01*
X13829375Y-6210625D01*
X14127761Y-6410000D01*
X13829375Y-6609375D01*
X13621822Y-6920000D01*
X11294802Y-6920000D01*
X10670331Y-6295529D01*
X10627929Y-6232071D01*
X10376537Y-6064096D01*
X10154852Y-6020000D01*
X10154847Y-6020000D01*
X10080000Y-6005112D01*
X10005153Y-6020000D01*
X8518043Y-6020000D01*
X8334577Y-5745423D01*
X7982242Y-5510000D01*
X8334577Y-5274577D01*
X8651740Y-4799909D01*
X8763113Y-4240000D01*
X8651740Y-3680091D01*
X8334577Y-3205423D01*
X7859909Y-2888260D01*
X7441333Y-2805000D01*
X7158667Y-2805000D01*
X6740091Y-2888260D01*
X6265423Y-3205423D01*
X5948260Y-3680091D01*
X5836887Y-4240000D01*
X5948260Y-4799909D01*
X6265423Y-5274577D01*
X6617758Y-5510000D01*
X6265423Y-5745423D01*
X5948260Y-6220091D01*
X5836887Y-6780000D01*
X5948260Y-7339909D01*
X6265423Y-7814577D01*
X6617758Y-8050000D01*
X6265423Y-8285423D01*
X5948260Y-8760091D01*
X5836887Y-9320000D01*
X5948260Y-9879909D01*
X6265423Y-10354577D01*
X6617758Y-10590000D01*
X6265423Y-10825423D01*
X5948260Y-11300091D01*
X5836887Y-11860000D01*
X5948260Y-12419909D01*
X6265423Y-12894577D01*
X6617758Y-13130000D01*
X6265423Y-13365423D01*
X5948260Y-13840091D01*
X5836887Y-14400000D01*
X5948260Y-14959909D01*
X6265423Y-15434577D01*
X6617758Y-15670000D01*
X6265423Y-15905423D01*
X5948260Y-16380091D01*
X5836887Y-16940000D01*
X5948260Y-17499909D01*
X6265423Y-17974577D01*
X6617758Y-18210000D01*
X6265423Y-18445423D01*
X6081957Y-18720000D01*
X5894848Y-18720000D01*
X5820000Y-18705112D01*
X5745152Y-18720000D01*
X5745148Y-18720000D01*
X5571605Y-18754520D01*
X5523462Y-18764096D01*
X5336418Y-18889076D01*
X5272071Y-18932071D01*
X5229671Y-18995527D01*
X4315530Y-19909669D01*
X4252071Y-19952071D01*
X4084096Y-20203464D01*
X4040000Y-20425149D01*
X4040000Y-20425153D01*
X4025112Y-20500000D01*
X4040000Y-20574847D01*
X4040001Y-40732788D01*
X3624412Y-40317199D01*
X2894841Y-40015000D01*
X2105159Y-40015000D01*
X1375588Y-40317199D01*
X817199Y-40875588D01*
X735000Y-41074033D01*
X735000Y-3325967D01*
X817199Y-3524412D01*
X1375588Y-4082801D01*
X2105159Y-4385000D01*
X2894841Y-4385000D01*
X3624412Y-4082801D01*
X4182801Y-3524412D01*
X4485000Y-2794841D01*
X4485000Y-2005159D01*
X4182801Y-1275588D01*
X3642213Y-735000D01*
X26574033Y-735000D01*
X26375588Y-817199D01*
X26375588Y-817199D01*
G37*
X26375588Y-817199D02*
X25817199Y-1375588D01*
X25515000Y-2105159D01*
X25515000Y-2894841D01*
X25817199Y-3624412D01*
X26375588Y-4182801D01*
X27105159Y-4485000D01*
X27894841Y-4485000D01*
X28624412Y-4182801D01*
X29182801Y-3624412D01*
X29265001Y-3425964D01*
X29265000Y-41074035D01*
X29182801Y-40875588D01*
X28624412Y-40317199D01*
X27894841Y-40015000D01*
X27105159Y-40015000D01*
X26375588Y-40317199D01*
X25817199Y-40875588D01*
X25515000Y-41605159D01*
X25515000Y-42394841D01*
X25817199Y-43124412D01*
X26375588Y-43682801D01*
X27105159Y-43985000D01*
X27894841Y-43985000D01*
X28624412Y-43682801D01*
X29182801Y-43124412D01*
X29265000Y-42925967D01*
X29265000Y-72427610D01*
X29117344Y-73169926D01*
X28737862Y-73737861D01*
X28169926Y-74117344D01*
X27427610Y-74265000D01*
X2572390Y-74265000D01*
X1830074Y-74117344D01*
X1262139Y-73737862D01*
X882656Y-73169926D01*
X735000Y-72427610D01*
X735000Y-70659501D01*
X1713000Y-70659501D01*
X1713000Y-71720499D01*
X2119026Y-72700734D01*
X2869266Y-73450974D01*
X3849501Y-73857000D01*
X4910499Y-73857000D01*
X5890734Y-73450974D01*
X6640974Y-72700734D01*
X7047000Y-71720499D01*
X7047000Y-70659501D01*
X6640974Y-69679266D01*
X5890734Y-68929026D01*
X4910499Y-68523000D01*
X3849501Y-68523000D01*
X2869266Y-68929026D01*
X2119026Y-69679266D01*
X1713000Y-70659501D01*
X735000Y-70659501D01*
X735000Y-64862060D01*
X7317545Y-64862060D01*
X7400884Y-65115953D01*
X7965306Y-65321590D01*
X8565458Y-65295579D01*
X8999116Y-65115953D01*
X9082455Y-64862060D01*
X8200000Y-63979605D01*
X7317545Y-64862060D01*
X735000Y-64862060D01*
X735000Y-63565306D01*
X6678410Y-63565306D01*
X6704421Y-64165458D01*
X6884047Y-64599116D01*
X7137940Y-64682455D01*
X8020395Y-63800000D01*
X8379605Y-63800000D01*
X9262060Y-64682455D01*
X9515953Y-64599116D01*
X9721590Y-64034694D01*
X9711403Y-63799642D01*
X17990000Y-63799642D01*
X17990000Y-64400358D01*
X18219884Y-64955346D01*
X18644654Y-65380116D01*
X19199642Y-65610000D01*
X19800358Y-65610000D01*
X20355346Y-65380116D01*
X20780116Y-64955346D01*
X21010000Y-64400358D01*
X21010000Y-64078000D01*
X25830560Y-64078000D01*
X25830560Y-65602000D01*
X25879843Y-65849765D01*
X26020191Y-66059809D01*
X26230235Y-66200157D01*
X26478000Y-66249440D01*
X28002000Y-66249440D01*
X28249765Y-66200157D01*
X28459809Y-66059809D01*
X28600157Y-65849765D01*
X28649440Y-65602000D01*
X28649440Y-64078000D01*
X28600157Y-63830235D01*
X28459809Y-63620191D01*
X28249765Y-63479843D01*
X28002000Y-63430560D01*
X27997484Y-63430560D01*
X28040608Y-63280213D01*
X27240000Y-62479605D01*
X26439392Y-63280213D01*
X26482516Y-63430560D01*
X26478000Y-63430560D01*
X26230235Y-63479843D01*
X26020191Y-63620191D01*
X25879843Y-63830235D01*
X25830560Y-64078000D01*
X21010000Y-64078000D01*
X21010000Y-63799642D01*
X20780116Y-63244654D01*
X20355346Y-62819884D01*
X20333606Y-62810879D01*
X20382455Y-62662060D01*
X19500000Y-61779605D01*
X18617545Y-62662060D01*
X18666394Y-62810879D01*
X18644654Y-62819884D01*
X18219884Y-63244654D01*
X17990000Y-63799642D01*
X9711403Y-63799642D01*
X9695579Y-63434542D01*
X9515953Y-63000884D01*
X9262060Y-62917545D01*
X8379605Y-63800000D01*
X8020395Y-63800000D01*
X7137940Y-62917545D01*
X6884047Y-63000884D01*
X6678410Y-63565306D01*
X735000Y-63565306D01*
X735000Y-42925967D01*
X817199Y-43124412D01*
X1375588Y-43682801D01*
X2105159Y-43985000D01*
X2894841Y-43985000D01*
X3624412Y-43682801D01*
X4040001Y-43267212D01*
X4040001Y-60125148D01*
X4025112Y-60200000D01*
X4084097Y-60496537D01*
X4203946Y-60675903D01*
X4252072Y-60747929D01*
X4315528Y-60790329D01*
X5309671Y-61784473D01*
X5352071Y-61847929D01*
X5603463Y-62015904D01*
X5825148Y-62060000D01*
X5825153Y-62060000D01*
X5900000Y-62074888D01*
X5974847Y-62060000D01*
X6880390Y-62060000D01*
X6919884Y-62155346D01*
X7344654Y-62580116D01*
X7366394Y-62589121D01*
X7317545Y-62737940D01*
X8200000Y-63620395D01*
X9082455Y-62737940D01*
X9033606Y-62589121D01*
X9055346Y-62580116D01*
X9480116Y-62155346D01*
X9710000Y-61600358D01*
X9710000Y-60999642D01*
X9480116Y-60444654D01*
X9310966Y-60275504D01*
X9322765Y-60273157D01*
X9532809Y-60132809D01*
X9673157Y-59922765D01*
X9722440Y-59675000D01*
X9722440Y-57925000D01*
X9673157Y-57677235D01*
X9532809Y-57467191D01*
X9322765Y-57326843D01*
X9075000Y-57277560D01*
X7325000Y-57277560D01*
X7077235Y-57326843D01*
X6867191Y-57467191D01*
X6726843Y-57677235D01*
X6677560Y-57925000D01*
X6677560Y-59675000D01*
X6726843Y-59922765D01*
X6867191Y-60132809D01*
X7077235Y-60273157D01*
X7089034Y-60275504D01*
X6919884Y-60444654D01*
X6880390Y-60540000D01*
X6214802Y-60540000D01*
X5560000Y-59885199D01*
X5560000Y-20814801D01*
X6103123Y-20271678D01*
X6265423Y-20514577D01*
X6617758Y-20750000D01*
X6265423Y-20985423D01*
X5948260Y-21460091D01*
X5836887Y-22020000D01*
X5948260Y-22579909D01*
X6265423Y-23054577D01*
X6617758Y-23290000D01*
X6265423Y-23525423D01*
X5948260Y-24000091D01*
X5836887Y-24560000D01*
X5948260Y-25119909D01*
X6265423Y-25594577D01*
X6617758Y-25830000D01*
X6265423Y-26065423D01*
X5948260Y-26540091D01*
X5836887Y-27100000D01*
X5948260Y-27659909D01*
X6265423Y-28134577D01*
X6617758Y-28370000D01*
X6265423Y-28605423D01*
X5948260Y-29080091D01*
X5836887Y-29640000D01*
X5948260Y-30199909D01*
X6265423Y-30674577D01*
X6617758Y-30910000D01*
X6265423Y-31145423D01*
X5948260Y-31620091D01*
X5836887Y-32180000D01*
X5948260Y-32739909D01*
X6265423Y-33214577D01*
X6617758Y-33450000D01*
X6265423Y-33685423D01*
X5948260Y-34160091D01*
X5836887Y-34720000D01*
X5948260Y-35279909D01*
X6265423Y-35754577D01*
X6617758Y-35990000D01*
X6265423Y-36225423D01*
X5948260Y-36700091D01*
X5836887Y-37260000D01*
X5948260Y-37819909D01*
X6265423Y-38294577D01*
X6386106Y-38375215D01*
X6252235Y-38401843D01*
X6042191Y-38542191D01*
X5901843Y-38752235D01*
X5852560Y-39000000D01*
X5852560Y-40600000D01*
X5901843Y-40847765D01*
X6042191Y-41057809D01*
X6252235Y-41198157D01*
X6500000Y-41247440D01*
X8100000Y-41247440D01*
X8347765Y-41198157D01*
X8557809Y-41057809D01*
X8698157Y-40847765D01*
X8747440Y-40600000D01*
X8747440Y-39000000D01*
X8698157Y-38752235D01*
X8557809Y-38542191D01*
X8347765Y-38401843D01*
X8213894Y-38375215D01*
X8334577Y-38294577D01*
X8651740Y-37819909D01*
X8763113Y-37260000D01*
X8651740Y-36700091D01*
X8334577Y-36225423D01*
X7982242Y-35990000D01*
X8334577Y-35754577D01*
X8651740Y-35279909D01*
X8763113Y-34720000D01*
X8651740Y-34160091D01*
X8334577Y-33685423D01*
X7982242Y-33450000D01*
X8334577Y-33214577D01*
X8651740Y-32739909D01*
X8763113Y-32180000D01*
X8651740Y-31620091D01*
X8334577Y-31145423D01*
X7982242Y-30910000D01*
X8334577Y-30674577D01*
X8651740Y-30199909D01*
X8763113Y-29640000D01*
X8651740Y-29080091D01*
X8334577Y-28605423D01*
X7982242Y-28370000D01*
X8334577Y-28134577D01*
X8357235Y-28100667D01*
X11940000Y-31683433D01*
X11940001Y-56725148D01*
X11925112Y-56800000D01*
X11984097Y-57096537D01*
X12063856Y-57215904D01*
X12152072Y-57347929D01*
X12215528Y-57390329D01*
X14409671Y-59584473D01*
X14452071Y-59647929D01*
X14703463Y-59815904D01*
X14925148Y-59860000D01*
X14925152Y-59860000D01*
X14999999Y-59874888D01*
X15074846Y-59860000D01*
X17977560Y-59860000D01*
X17977560Y-59975000D01*
X18026843Y-60222765D01*
X18167191Y-60432809D01*
X18362745Y-60563475D01*
X18323306Y-60602914D01*
X18437938Y-60717546D01*
X18184047Y-60800884D01*
X17978410Y-61365306D01*
X18004421Y-61965458D01*
X18184047Y-62399116D01*
X18437940Y-62482455D01*
X19320395Y-61600000D01*
X19306253Y-61585858D01*
X19485858Y-61406253D01*
X19500000Y-61420395D01*
X19514143Y-61406253D01*
X19693748Y-61585858D01*
X19679605Y-61600000D01*
X20562060Y-62482455D01*
X20815953Y-62399116D01*
X20927735Y-62092302D01*
X25830856Y-62092302D01*
X25858638Y-62647368D01*
X26017603Y-63031143D01*
X26259787Y-63100608D01*
X27060395Y-62300000D01*
X27419605Y-62300000D01*
X28220213Y-63100608D01*
X28462397Y-63031143D01*
X28649144Y-62507698D01*
X28621362Y-61952632D01*
X28462397Y-61568857D01*
X28220213Y-61499392D01*
X27419605Y-62300000D01*
X27060395Y-62300000D01*
X26259787Y-61499392D01*
X26017603Y-61568857D01*
X25830856Y-62092302D01*
X20927735Y-62092302D01*
X21021590Y-61834694D01*
X20995579Y-61234542D01*
X20815953Y-60800884D01*
X20562062Y-60717546D01*
X20676694Y-60602914D01*
X20637255Y-60563475D01*
X20832809Y-60432809D01*
X20973157Y-60222765D01*
X21022440Y-59975000D01*
X21022440Y-58225000D01*
X20973157Y-57977235D01*
X20832809Y-57767191D01*
X20622765Y-57626843D01*
X20375000Y-57577560D01*
X18625000Y-57577560D01*
X18377235Y-57626843D01*
X18167191Y-57767191D01*
X18026843Y-57977235D01*
X17977560Y-58225000D01*
X17977560Y-58340000D01*
X15314802Y-58340000D01*
X13460000Y-56485199D01*
X13460000Y-47785750D01*
X15290000Y-47785750D01*
X15290000Y-48501309D01*
X15386673Y-48734698D01*
X15565301Y-48913327D01*
X15696759Y-48967779D01*
X15519884Y-49144654D01*
X15290000Y-49699642D01*
X15290000Y-50300358D01*
X15519884Y-50855346D01*
X15944654Y-51280116D01*
X16499642Y-51510000D01*
X17100358Y-51510000D01*
X17655346Y-51280116D01*
X18080116Y-50855346D01*
X18310000Y-50300358D01*
X18310000Y-49699642D01*
X18080116Y-49144654D01*
X17903241Y-48967779D01*
X18034699Y-48913327D01*
X18213327Y-48734698D01*
X18310000Y-48501309D01*
X18310000Y-47785750D01*
X18151250Y-47627000D01*
X16927000Y-47627000D01*
X16927000Y-47647000D01*
X16673000Y-47647000D01*
X16673000Y-47627000D01*
X15448750Y-47627000D01*
X15290000Y-47785750D01*
X13460000Y-47785750D01*
X13460000Y-46498691D01*
X15290000Y-46498691D01*
X15290000Y-47214250D01*
X15448750Y-47373000D01*
X16673000Y-47373000D01*
X16673000Y-46148750D01*
X16927000Y-46148750D01*
X16927000Y-47373000D01*
X18151250Y-47373000D01*
X18310000Y-47214250D01*
X18310000Y-46498691D01*
X18213327Y-46265302D01*
X18034699Y-46086673D01*
X17801310Y-45990000D01*
X17085750Y-45990000D01*
X16927000Y-46148750D01*
X16673000Y-46148750D01*
X16514250Y-45990000D01*
X15798690Y-45990000D01*
X15565301Y-46086673D01*
X15386673Y-46265302D01*
X15290000Y-46498691D01*
X13460000Y-46498691D01*
X13460000Y-40149039D01*
X21148096Y-40149039D01*
X21308959Y-40537423D01*
X21684866Y-40952389D01*
X22190959Y-41191914D01*
X22413000Y-41070629D01*
X22413000Y-39927000D01*
X21270085Y-39927000D01*
X21148096Y-40149039D01*
X13460000Y-40149039D01*
X13460000Y-31443476D01*
X13474888Y-31368629D01*
X13460000Y-31293782D01*
X13460000Y-31293778D01*
X13415904Y-31072093D01*
X13336556Y-30953340D01*
X13290329Y-30884156D01*
X13290327Y-30884154D01*
X13247929Y-30820701D01*
X13184476Y-30778303D01*
X9021701Y-26615530D01*
X8979299Y-26552071D01*
X8727907Y-26384096D01*
X8519855Y-26342712D01*
X8334577Y-26065423D01*
X7982242Y-25830000D01*
X8334577Y-25594577D01*
X8651740Y-25119909D01*
X8763113Y-24560000D01*
X8651740Y-24000091D01*
X8334577Y-23525423D01*
X7982242Y-23290000D01*
X8334577Y-23054577D01*
X8651740Y-22579909D01*
X8763113Y-22020000D01*
X8651740Y-21460091D01*
X8334577Y-20985423D01*
X7982242Y-20750000D01*
X8001862Y-20736890D01*
X13458524Y-20736890D01*
X13628355Y-21146924D01*
X14018642Y-21575183D01*
X14543108Y-21821486D01*
X14773000Y-21700819D01*
X14773000Y-20507000D01*
X15027000Y-20507000D01*
X15027000Y-21700819D01*
X15256892Y-21821486D01*
X15781358Y-21575183D01*
X16171645Y-21146924D01*
X16341476Y-20736890D01*
X16220155Y-20507000D01*
X15027000Y-20507000D01*
X14773000Y-20507000D01*
X13579845Y-20507000D01*
X13458524Y-20736890D01*
X8001862Y-20736890D01*
X8334577Y-20514577D01*
X8651740Y-20039909D01*
X8763113Y-19480000D01*
X8651740Y-18920091D01*
X8334577Y-18445423D01*
X7982242Y-18210000D01*
X8334577Y-17974577D01*
X8651740Y-17499909D01*
X8763113Y-16940000D01*
X8651740Y-16380091D01*
X8334577Y-15905423D01*
X7982242Y-15670000D01*
X8334577Y-15434577D01*
X8518043Y-15160000D01*
X9885199Y-15160000D01*
X10509671Y-15784473D01*
X10552071Y-15847929D01*
X10803463Y-16015904D01*
X11025148Y-16060000D01*
X11025152Y-16060000D01*
X11099999Y-16074888D01*
X11174846Y-16060000D01*
X13621822Y-16060000D01*
X13829375Y-16370625D01*
X14127761Y-16570000D01*
X13829375Y-16769375D01*
X13501161Y-17260582D01*
X13385908Y-17840000D01*
X13501161Y-18419418D01*
X13829375Y-18910625D01*
X14148478Y-19123843D01*
X14018642Y-19184817D01*
X13628355Y-19613076D01*
X13458524Y-20023110D01*
X13579845Y-20253000D01*
X14773000Y-20253000D01*
X14773000Y-20233000D01*
X15027000Y-20233000D01*
X15027000Y-20253000D01*
X16220155Y-20253000D01*
X16341476Y-20023110D01*
X16171645Y-19613076D01*
X15781358Y-19184817D01*
X15651522Y-19123843D01*
X15970625Y-18910625D01*
X16298839Y-18419418D01*
X16414092Y-17840000D01*
X16298839Y-17260582D01*
X15970625Y-16769375D01*
X15672239Y-16570000D01*
X15970625Y-16370625D01*
X16298839Y-15879418D01*
X16414092Y-15300000D01*
X16298839Y-14720582D01*
X15970625Y-14229375D01*
X15672239Y-14030000D01*
X15970625Y-13830625D01*
X16298839Y-13339418D01*
X16414092Y-12760000D01*
X16298839Y-12180582D01*
X15970625Y-11689375D01*
X15672239Y-11490000D01*
X15970625Y-11290625D01*
X16298839Y-10799418D01*
X16414092Y-10220000D01*
X16298839Y-9640582D01*
X15970625Y-9149375D01*
X15672239Y-8950000D01*
X15970625Y-8750625D01*
X16298839Y-8259418D01*
X16414092Y-7680000D01*
X16298839Y-7100582D01*
X15970625Y-6609375D01*
X15672239Y-6410000D01*
X15970625Y-6210625D01*
X16178178Y-5900000D01*
X17985153Y-5900000D01*
X18060000Y-5914888D01*
X18134847Y-5900000D01*
X18134852Y-5900000D01*
X18356537Y-5855904D01*
X18607929Y-5687929D01*
X18650331Y-5624470D01*
X19274802Y-5000000D01*
X21321957Y-5000000D01*
X21505423Y-5274577D01*
X21857758Y-5510000D01*
X21505423Y-5745423D01*
X21188260Y-6220091D01*
X21076887Y-6780000D01*
X21188260Y-7339909D01*
X21505423Y-7814577D01*
X21857758Y-8050000D01*
X21505423Y-8285423D01*
X21188260Y-8760091D01*
X21076887Y-9320000D01*
X21188260Y-9879909D01*
X21505423Y-10354577D01*
X21857758Y-10590000D01*
X21505423Y-10825423D01*
X21321957Y-11100000D01*
X20214847Y-11100000D01*
X20140000Y-11085112D01*
X20065153Y-11100000D01*
X20065148Y-11100000D01*
X19843463Y-11144096D01*
X19592071Y-11312071D01*
X19549671Y-11375527D01*
X17815528Y-13109671D01*
X17752072Y-13152071D01*
X17709672Y-13215527D01*
X17709671Y-13215528D01*
X17584097Y-13403463D01*
X17525112Y-13700000D01*
X17540001Y-13774852D01*
X17540000Y-21385198D01*
X14415528Y-24509671D01*
X14352072Y-24552071D01*
X14309672Y-24615527D01*
X14309671Y-24615528D01*
X14184097Y-24803463D01*
X14125112Y-25100000D01*
X14140001Y-25174852D01*
X14140000Y-30162589D01*
X14125112Y-30237436D01*
X14140000Y-30312283D01*
X14140000Y-30312287D01*
X14184096Y-30533972D01*
X14352071Y-30785365D01*
X14415530Y-30827767D01*
X14972235Y-31384473D01*
X15014635Y-31447929D01*
X15266027Y-31615904D01*
X15479733Y-31658413D01*
X15519884Y-31755346D01*
X15914538Y-32150000D01*
X15519884Y-32544654D01*
X15290000Y-33099642D01*
X15290000Y-33700358D01*
X15519884Y-34255346D01*
X15914538Y-34650000D01*
X15519884Y-35044654D01*
X15290000Y-35599642D01*
X15290000Y-36200358D01*
X15519884Y-36755346D01*
X15944654Y-37180116D01*
X16499642Y-37410000D01*
X17100358Y-37410000D01*
X17655346Y-37180116D01*
X18080116Y-36755346D01*
X18120267Y-36658413D01*
X18333973Y-36615904D01*
X18585365Y-36447929D01*
X18627767Y-36384470D01*
X19740001Y-35272237D01*
X19740001Y-36496288D01*
X19622569Y-36613720D01*
X19465000Y-36994126D01*
X19465000Y-37405874D01*
X19622569Y-37786280D01*
X19913720Y-38077431D01*
X20294126Y-38235000D01*
X20705874Y-38235000D01*
X21086280Y-38077431D01*
X21250561Y-37913150D01*
X21505423Y-38294577D01*
X21889108Y-38550947D01*
X21684866Y-38647611D01*
X21308959Y-39062577D01*
X21148096Y-39450961D01*
X21270085Y-39673000D01*
X22413000Y-39673000D01*
X22413000Y-39653000D01*
X22667000Y-39653000D01*
X22667000Y-39673000D01*
X22687000Y-39673000D01*
X22687000Y-39927000D01*
X22667000Y-39927000D01*
X22667000Y-41070629D01*
X22889041Y-41191914D01*
X23395134Y-40952389D01*
X23740000Y-40571689D01*
X23740001Y-56425148D01*
X23725112Y-56500000D01*
X23784097Y-56796537D01*
X23876967Y-56935526D01*
X23952072Y-57047929D01*
X24015527Y-57090329D01*
X24829673Y-57904475D01*
X24872071Y-57967929D01*
X24935524Y-58010327D01*
X24935526Y-58010329D01*
X25060902Y-58094102D01*
X25123463Y-58135904D01*
X25345148Y-58180000D01*
X25345152Y-58180000D01*
X25419999Y-58194888D01*
X25494846Y-58180000D01*
X26224343Y-58180000D01*
X26448663Y-58404320D01*
X26655513Y-58490000D01*
X26448663Y-58575680D01*
X26055680Y-58968663D01*
X25959857Y-59200000D01*
X24674803Y-59200000D01*
X21260000Y-55785199D01*
X21260000Y-46603711D01*
X21377431Y-46486280D01*
X21535000Y-46105874D01*
X21535000Y-45694126D01*
X21377431Y-45313720D01*
X21086280Y-45022569D01*
X20705874Y-44865000D01*
X20294126Y-44865000D01*
X19913720Y-45022569D01*
X19622569Y-45313720D01*
X19465000Y-45694126D01*
X19465000Y-46105874D01*
X19622569Y-46486280D01*
X19740001Y-46603712D01*
X19740000Y-56025153D01*
X19725112Y-56100000D01*
X19740000Y-56174847D01*
X19740000Y-56174851D01*
X19784096Y-56396536D01*
X19952071Y-56647929D01*
X20015530Y-56690331D01*
X23769673Y-60444476D01*
X23812071Y-60507929D01*
X23875524Y-60550327D01*
X23875526Y-60550329D01*
X24000902Y-60634102D01*
X24063463Y-60675904D01*
X24285148Y-60720000D01*
X24285152Y-60720000D01*
X24359999Y-60734888D01*
X24434846Y-60720000D01*
X26224343Y-60720000D01*
X26448663Y-60944320D01*
X26639647Y-61023428D01*
X26508857Y-61077603D01*
X26439392Y-61319787D01*
X27240000Y-62120395D01*
X28040608Y-61319787D01*
X27971143Y-61077603D01*
X27830607Y-61027465D01*
X28031337Y-60944320D01*
X28424320Y-60551337D01*
X28637000Y-60037881D01*
X28637000Y-59482119D01*
X28424320Y-58968663D01*
X28031337Y-58575680D01*
X27824487Y-58490000D01*
X28031337Y-58404320D01*
X28424320Y-58011337D01*
X28637000Y-57497881D01*
X28637000Y-56942119D01*
X28424320Y-56428663D01*
X28031337Y-56035680D01*
X27824487Y-55950000D01*
X28031337Y-55864320D01*
X28424320Y-55471337D01*
X28637000Y-54957881D01*
X28637000Y-54402119D01*
X28424320Y-53888663D01*
X28031337Y-53495680D01*
X27517881Y-53283000D01*
X26962119Y-53283000D01*
X26448663Y-53495680D01*
X26055680Y-53888663D01*
X25843000Y-54402119D01*
X25843000Y-54957881D01*
X26055680Y-55471337D01*
X26448663Y-55864320D01*
X26655513Y-55950000D01*
X26448663Y-56035680D01*
X26055680Y-56428663D01*
X25959857Y-56660000D01*
X25734802Y-56660000D01*
X25260000Y-56185198D01*
X25260000Y-26874846D01*
X25274888Y-26799999D01*
X25260000Y-26725152D01*
X25260000Y-26725148D01*
X25215904Y-26503463D01*
X25047929Y-26252071D01*
X24984473Y-26209671D01*
X24109943Y-25335141D01*
X24099999Y-25285151D01*
X24099999Y-25285147D01*
X24055903Y-25063462D01*
X24014101Y-25000901D01*
X23938052Y-24887084D01*
X24003113Y-24560000D01*
X23891740Y-24000091D01*
X23574577Y-23525423D01*
X23222242Y-23290000D01*
X23574577Y-23054577D01*
X23891740Y-22579909D01*
X24003113Y-22020000D01*
X23891740Y-21460091D01*
X23574577Y-20985423D01*
X23222242Y-20750000D01*
X23574577Y-20514577D01*
X23891740Y-20039909D01*
X24003113Y-19480000D01*
X23891740Y-18920091D01*
X23574577Y-18445423D01*
X23222242Y-18210000D01*
X23574577Y-17974577D01*
X23891740Y-17499909D01*
X24003113Y-16940000D01*
X23891740Y-16380091D01*
X23574577Y-15905423D01*
X23222242Y-15670000D01*
X23574577Y-15434577D01*
X23891740Y-14959909D01*
X24003113Y-14400000D01*
X23891740Y-13840091D01*
X23574577Y-13365423D01*
X23222242Y-13130000D01*
X23574577Y-12894577D01*
X23891740Y-12419909D01*
X24003113Y-11860000D01*
X23891740Y-11300091D01*
X23574577Y-10825423D01*
X23222242Y-10590000D01*
X23574577Y-10354577D01*
X23891740Y-9879909D01*
X24003113Y-9320000D01*
X23891740Y-8760091D01*
X23574577Y-8285423D01*
X23222242Y-8050000D01*
X23574577Y-7814577D01*
X23891740Y-7339909D01*
X24003113Y-6780000D01*
X23891740Y-6220091D01*
X23574577Y-5745423D01*
X23222242Y-5510000D01*
X23574577Y-5274577D01*
X23891740Y-4799909D01*
X24003113Y-4240000D01*
X23891740Y-3680091D01*
X23574577Y-3205423D01*
X23099909Y-2888260D01*
X22681333Y-2805000D01*
X22398667Y-2805000D01*
X21980091Y-2888260D01*
X21505423Y-3205423D01*
X21321957Y-3480000D01*
X19275945Y-3480000D01*
X19000000Y-3425112D01*
X18703462Y-3484096D01*
X18515527Y-3609671D01*
X18452071Y-3652071D01*
X18409672Y-3715527D01*
X17745199Y-4380000D01*
X16178178Y-4380000D01*
X15970625Y-4069375D01*
X15952381Y-4057184D01*
X15997765Y-4048157D01*
X16207809Y-3907809D01*
X16348157Y-3697765D01*
X16397440Y-3450000D01*
X16397440Y-1750000D01*
X16348157Y-1502235D01*
X16207809Y-1292191D01*
X15997765Y-1151843D01*
X15750000Y-1102560D01*
X14050000Y-1102560D01*
X13802235Y-1151843D01*
X13592191Y-1292191D01*
X13451843Y-1502235D01*
X13402560Y-1750000D01*
X13402560Y-3450000D01*
X13451843Y-3697765D01*
X13592191Y-3907809D01*
X13802235Y-4048157D01*
X13847619Y-4057184D01*
X13829375Y-4069375D01*
X13501161Y-4560582D01*
X13385908Y-5140000D01*
X13501161Y-5719418D01*
X13829375Y-6210625D01*
X14127761Y-6410000D01*
X13829375Y-6609375D01*
X13621822Y-6920000D01*
X11294802Y-6920000D01*
X10670331Y-6295529D01*
X10627929Y-6232071D01*
X10376537Y-6064096D01*
X10154852Y-6020000D01*
X10154847Y-6020000D01*
X10080000Y-6005112D01*
X10005153Y-6020000D01*
X8518043Y-6020000D01*
X8334577Y-5745423D01*
X7982242Y-5510000D01*
X8334577Y-5274577D01*
X8651740Y-4799909D01*
X8763113Y-4240000D01*
X8651740Y-3680091D01*
X8334577Y-3205423D01*
X7859909Y-2888260D01*
X7441333Y-2805000D01*
X7158667Y-2805000D01*
X6740091Y-2888260D01*
X6265423Y-3205423D01*
X5948260Y-3680091D01*
X5836887Y-4240000D01*
X5948260Y-4799909D01*
X6265423Y-5274577D01*
X6617758Y-5510000D01*
X6265423Y-5745423D01*
X5948260Y-6220091D01*
X5836887Y-6780000D01*
X5948260Y-7339909D01*
X6265423Y-7814577D01*
X6617758Y-8050000D01*
X6265423Y-8285423D01*
X5948260Y-8760091D01*
X5836887Y-9320000D01*
X5948260Y-9879909D01*
X6265423Y-10354577D01*
X6617758Y-10590000D01*
X6265423Y-10825423D01*
X5948260Y-11300091D01*
X5836887Y-11860000D01*
X5948260Y-12419909D01*
X6265423Y-12894577D01*
X6617758Y-13130000D01*
X6265423Y-13365423D01*
X5948260Y-13840091D01*
X5836887Y-14400000D01*
X5948260Y-14959909D01*
X6265423Y-15434577D01*
X6617758Y-15670000D01*
X6265423Y-15905423D01*
X5948260Y-16380091D01*
X5836887Y-16940000D01*
X5948260Y-17499909D01*
X6265423Y-17974577D01*
X6617758Y-18210000D01*
X6265423Y-18445423D01*
X6081957Y-18720000D01*
X5894848Y-18720000D01*
X5820000Y-18705112D01*
X5745152Y-18720000D01*
X5745148Y-18720000D01*
X5571605Y-18754520D01*
X5523462Y-18764096D01*
X5336418Y-18889076D01*
X5272071Y-18932071D01*
X5229671Y-18995527D01*
X4315530Y-19909669D01*
X4252071Y-19952071D01*
X4084096Y-20203464D01*
X4040000Y-20425149D01*
X4040000Y-20425153D01*
X4025112Y-20500000D01*
X4040000Y-20574847D01*
X4040001Y-40732788D01*
X3624412Y-40317199D01*
X2894841Y-40015000D01*
X2105159Y-40015000D01*
X1375588Y-40317199D01*
X817199Y-40875588D01*
X735000Y-41074033D01*
X735000Y-3325967D01*
X817199Y-3524412D01*
X1375588Y-4082801D01*
X2105159Y-4385000D01*
X2894841Y-4385000D01*
X3624412Y-4082801D01*
X4182801Y-3524412D01*
X4485000Y-2794841D01*
X4485000Y-2005159D01*
X4182801Y-1275588D01*
X3642213Y-735000D01*
X26574033Y-735000D01*
X26375588Y-817199D01*
M02*
